<svg width="140" height="105" viewBox="0 0 140 105" fill="none" xmlns="http://www.w3.org/2000/svg">
<g clip-path="url(#clip0_529_3450)">
<path d="M39.9074 38.134C39.9074 40.2948 40.0899 42.0467 40.4093 43.3315C40.7743 44.6162 41.2306 46.0178 41.8694 47.5362C42.0975 48.0033 42.1888 48.4705 42.1888 48.8793C42.1888 49.4633 41.915 50.0473 41.3218 50.6313L38.4472 53.084C38.0366 53.4344 37.6259 53.6096 37.2609 53.6096C36.8046 53.6096 36.3483 53.3176 35.8921 52.792C35.2533 51.916 34.7057 50.9817 34.2494 50.0473C33.7931 49.0545 33.3369 47.9449 32.8349 46.6018C29.2759 51.9744 24.8043 54.6607 19.4202 54.6607C15.5874 54.6607 12.5303 53.2592 10.2945 50.4561C8.05868 47.653 6.91797 43.9155 6.91797 39.2436C6.91797 34.2798 8.28682 30.2503 11.0702 27.2136C13.8535 24.1769 17.5494 22.6585 22.2491 22.6585C23.8005 22.6585 25.3975 22.8337 27.0858 23.1257C28.774 23.4177 30.5079 23.8849 32.333 24.4105V20.1474C32.333 15.7091 31.603 12.614 30.1885 10.8037C28.7284 8.99333 26.2644 8.11735 22.751 8.11735C21.1541 8.11735 19.5114 8.35095 17.8232 8.87653C16.1349 9.40211 14.4923 10.0445 12.8953 10.8621C12.1652 11.2709 11.6177 11.5044 11.2983 11.6212C10.9789 11.738 10.7508 11.7964 10.5682 11.7964C9.92945 11.7964 9.61005 11.2125 9.61005 9.9861V7.12458C9.61005 6.19021 9.70131 5.48943 9.92945 5.08065C10.1576 4.67186 10.5682 4.26307 11.207 3.85428C12.804 2.80311 14.7204 1.92714 16.9562 1.22636C19.192 0.467186 21.5647 0.116796 24.0743 0.116796C29.5041 0.116796 33.4737 1.69355 36.0289 4.84705C38.5385 8.00056 39.8161 12.7892 39.8161 19.213V38.134H39.9074ZM21.3822 47.0106C22.8879 47.0106 24.4393 46.6602 26.0819 45.9594C27.7246 45.2586 29.1847 43.9739 30.4166 42.2219C31.1467 41.1124 31.6942 39.886 31.968 38.4844C32.2418 37.0829 32.4243 35.3893 32.4243 33.4038V30.9511C31.1011 30.5423 29.6866 30.1919 28.2265 29.9583C26.7664 29.7247 25.3519 29.6079 23.9374 29.6079C20.8803 29.6079 18.6445 30.3671 17.1387 31.9438C15.633 33.5206 14.903 35.7397 14.903 38.6596C14.903 41.4043 15.4505 43.4483 16.5912 44.8498C17.6863 46.3098 19.2833 47.0106 21.3822 47.0106ZM58.0219 53.3176C57.2006 53.3176 56.653 53.1424 56.288 52.7336C55.923 52.3832 55.6036 51.5656 55.3298 50.4561L44.6071 5.31424C44.3333 4.14627 44.1964 3.3871 44.1964 2.97831C44.1964 2.04394 44.5615 1.51835 45.2915 1.51835H49.7631C50.6301 1.51835 51.2232 1.69355 51.5426 2.10234C51.9076 2.45273 52.1814 3.2703 52.4552 4.37987L60.1208 43.0395L67.2388 4.37987C67.467 3.2119 67.7407 2.45273 68.1058 2.10234C68.4708 1.75195 69.1096 1.51835 69.9309 1.51835H73.5812C74.4481 1.51835 75.0413 1.69355 75.4063 2.10234C75.7713 2.45273 76.0907 3.2703 76.2733 4.37987L83.4826 43.5067L91.3763 4.37987C91.65 3.2119 91.9695 2.45273 92.2888 2.10234C92.6539 1.75195 93.2471 1.51835 94.0684 1.51835H98.3118C99.0419 1.51835 99.4525 1.98554 99.4525 2.97831C99.4525 3.2703 99.4069 3.56229 99.3613 3.91268C99.3156 4.26307 99.2244 4.73026 99.0419 5.37264L88.0454 50.5145C87.7716 51.6824 87.4522 52.4416 87.0872 52.792C86.7222 53.1424 86.129 53.376 85.3533 53.376H81.4293C80.5623 53.376 79.9692 53.2008 79.6041 52.792C79.2391 52.3832 78.9197 51.624 78.7372 50.4561L71.6648 12.7892L64.638 50.3977C64.4099 51.5656 64.1361 52.3248 63.7711 52.7336C63.406 53.1424 62.7672 53.3176 61.9459 53.3176H58.0219ZM116.654 54.8943C114.282 54.8943 111.909 54.5439 109.628 53.8432C107.346 53.1424 105.567 52.3832 104.38 51.5072C103.65 50.9817 103.148 50.3977 102.966 49.8721C102.783 49.3465 102.692 48.7625 102.692 48.2369V45.2586C102.692 44.0323 103.057 43.4483 103.742 43.4483C104.015 43.4483 104.289 43.5067 104.563 43.6235C104.837 43.7403 105.247 43.9739 105.704 44.2075C107.255 45.0834 108.943 45.7842 110.723 46.2514C112.548 46.7186 114.327 46.9522 116.153 46.9522C119.027 46.9522 121.263 46.3098 122.814 45.025C124.366 43.7403 125.187 41.8715 125.187 39.4772C125.187 37.842 124.776 36.4989 123.955 35.3893C123.134 34.2798 121.582 33.287 119.347 32.3526L112.73 29.7247C109.4 28.3815 106.936 26.396 105.43 23.7681C103.924 21.1986 103.148 18.337 103.148 15.3003C103.148 12.8476 103.559 10.6869 104.38 8.81813C105.202 6.94939 106.297 5.31424 107.666 4.02948C109.035 2.68632 110.586 1.69355 112.411 0.99277C114.236 0.291991 116.153 0 118.16 0C119.164 0 120.213 0.0583982 121.217 0.233593C122.267 0.408788 123.225 0.64238 124.183 0.875973C125.096 1.16796 125.963 1.45996 126.784 1.81034C127.605 2.16073 128.244 2.51112 128.7 2.86151C129.339 3.3287 129.795 3.79588 130.069 4.32147C130.343 4.78865 130.48 5.43103 130.48 6.24861V8.99333C130.48 10.2197 130.115 10.8621 129.43 10.8621C129.065 10.8621 128.472 10.6285 127.697 10.1613C125.096 8.64294 122.176 7.88376 118.936 7.88376C116.335 7.88376 114.282 8.40934 112.867 9.51891C111.453 10.6285 110.723 12.322 110.723 14.7164C110.723 16.3515 111.179 17.7531 112.092 18.8626C113.004 19.9722 114.692 21.0818 117.111 22.0745L123.59 24.7024C126.875 26.0456 129.248 27.9144 130.662 30.3087C132.077 32.703 132.761 35.4477 132.761 38.4844C132.761 40.9956 132.351 43.2731 131.575 45.2586C130.754 47.2442 129.659 48.9961 128.244 50.3977C126.83 51.8576 125.141 52.9088 123.179 53.668C121.126 54.4855 118.982 54.8943 116.654 54.8943Z" fill="#252F3E"/>
<path fill-rule="evenodd" clip-rule="evenodd" d="M125.279 83.2758C110.267 97.4666 88.4567 105 69.7034 105C43.4214 105 19.7402 92.5611 1.85387 71.8882C0.43939 70.253 1.71699 68.0339 3.40524 69.3186C22.7517 83.6846 46.6154 92.3859 71.3004 92.3859C87.9548 92.3859 106.252 87.9477 123.089 78.8376C125.598 77.3776 127.743 80.9399 125.279 83.2758Z" fill="#FF9900"/>
<path fill-rule="evenodd" clip-rule="evenodd" d="M131.53 74.1657C129.613 71.0122 118.845 72.6473 113.963 73.4065C112.503 73.6401 112.274 72.005 113.598 70.7786C122.176 63.07 136.275 65.2892 137.918 67.8587C139.56 70.4866 137.461 88.5317 129.431 97.1746C128.199 98.5178 127.012 97.817 127.56 96.065C129.385 90.2836 133.446 77.2608 131.53 74.1657Z" fill="#FF9900"/>
</g>
<defs>
<clipPath id="clip0_529_3450">
<rect width="140" height="105" fill="white"/>
</clipPath>
</defs>
</svg>
