<svg width="140" height="120" viewBox="0 0 140 120" fill="none" xmlns="http://www.w3.org/2000/svg">
<g clip-path="url(#clip0_529_3439)">
<path d="M46.7005 0.121462H88.0788L45.1237 115.799C44.9041 116.39 44.5844 116.946 44.1763 117.448C43.769 117.949 43.2778 118.389 42.7202 118.753C42.1625 119.117 41.5472 119.399 40.8934 119.59C40.2397 119.78 39.5579 119.879 38.8727 119.879H6.66998C5.62464 119.879 4.59329 119.653 3.66332 119.218C2.73237 118.784 1.92875 118.155 1.31918 117.383C0.709204 116.61 0.310162 115.717 0.154971 114.777C-0.000605866 113.837 0.0937892 112.876 0.427668 111.976L40.4477 4.19758C40.6662 3.60689 40.9861 3.05112 41.3951 2.54935C41.8024 2.04757 42.2954 1.60773 42.8513 1.2441C43.4089 0.880474 44.0242 0.59783 44.678 0.407283C45.3318 0.216735 46.0135 0.118286 46.6987 0.118286V0.119874L46.7005 0.121462Z" fill="url(#paint0_linear_529_3439)"/>
<path d="M122.979 119.879H85.8237C85.4094 119.879 84.9951 119.844 84.586 119.772C84.1787 119.702 83.7784 119.598 83.3921 119.459C83.0058 119.321 82.6352 119.15 82.2839 118.95C81.9329 118.748 81.6035 118.518 81.2997 118.261L39.1366 82.4917C38.6906 82.1134 38.38 81.6222 38.245 81.0817C38.1102 80.5411 38.1576 79.9762 38.3812 79.4604C38.6047 78.9447 38.994 78.5021 39.4984 78.1901C40.0036 77.8789 40.5997 77.7122 41.2098 77.7122H106.825L122.975 119.88L122.979 119.879Z" fill="#0078D4"/>
<path d="M88.2274 0.121534L59.2621 77.7202L106.589 77.7107L122.823 119.879H85.8081C85.4252 119.876 85.0424 119.844 84.6648 119.782C84.2872 119.72 83.9166 119.629 83.5565 119.509C82.8345 119.27 82.1628 118.92 81.5708 118.475L53.1089 94.3454L45.1412 115.69C44.935 116.223 44.6518 116.73 44.2987 117.195C43.591 118.131 42.6229 118.88 41.493 119.366C40.9305 119.608 40.335 119.78 39.7223 119.879H6.68923C5.6334 119.882 4.59156 119.653 3.65285 119.212C2.714 118.771 1.90585 118.131 1.29672 117.346C0.687586 116.562 0.295375 115.655 0.153241 114.704C0.011622 113.752 0.123728 112.783 0.480128 111.879L40.4355 4.27864C40.6435 3.67682 40.9564 3.10995 41.3619 2.59865C41.7657 2.08734 42.2587 1.63638 42.8181 1.26482C43.3775 0.89325 43.9998 0.604254 44.6588 0.410531C45.3178 0.216808 46.0083 0.118359 46.7023 0.121534H88.2291H88.2274Z" fill="url(#paint1_linear_529_3439)"/>
<path d="M139.572 111.976C139.906 112.877 140 113.837 139.846 114.777C139.691 115.717 139.292 116.61 138.684 117.383C138.074 118.155 137.271 118.784 136.34 119.218C135.41 119.652 134.379 119.878 133.333 119.879H87.2155C88.2609 119.879 89.2922 119.652 90.2239 119.218C91.1539 118.785 91.958 118.154 92.5681 117.383C93.1782 116.611 93.5767 115.717 93.7323 114.777C93.8879 113.837 93.7935 112.876 93.4596 111.976L53.4378 4.1944C52.9973 3.00711 52.1578 1.97525 51.0377 1.2441C50.4819 0.880472 49.8666 0.599415 49.2145 0.408868C48.5625 0.218321 47.8808 0.12146 47.1973 0.12146H93.3128C93.998 0.12146 94.678 0.218321 95.3318 0.408868C95.9838 0.599415 96.5991 0.88206 97.1567 1.2441C97.7126 1.60773 98.2038 2.04757 98.6111 2.54776C99.0184 3.04795 99.3366 3.60371 99.5568 4.1944L139.579 111.976H139.572Z" fill="url(#paint2_linear_529_3439)"/>
</g>
<defs>
<linearGradient id="paint0_linear_529_3439" x1="61.802" y1="8.99778" x2="25.6693" y2="126.502" gradientUnits="userSpaceOnUse">
<stop stop-color="#114A8B"/>
<stop offset="1" stop-color="#0669BC"/>
</linearGradient>
<linearGradient id="paint1_linear_529_3439" x1="75.2096" y1="62.7639" x2="65.476" y2="66.3984" gradientUnits="userSpaceOnUse">
<stop stop-opacity="0.3"/>
<stop offset="0.1" stop-opacity="0.2"/>
<stop offset="0.3" stop-opacity="0.1"/>
<stop offset="0.6" stop-opacity="0.1"/>
<stop offset="1" stop-opacity="0"/>
</linearGradient>
<linearGradient id="paint2_linear_529_3439" x1="69.721" y1="5.63144" x2="109.525" y2="122.369" gradientUnits="userSpaceOnUse">
<stop stop-color="#3CCBF4"/>
<stop offset="1" stop-color="#2892DF"/>
</linearGradient>
<clipPath id="clip0_529_3439">
<rect width="140" height="120" fill="white"/>
</clipPath>
</defs>
</svg>
