<svg width="33" height="33" viewBox="0 0 33 33" fill="none" xmlns="http://www.w3.org/2000/svg">
<rect width="32" height="32" transform="translate(0.5 0.5)" fill="url(#paint0_linear_129_1419)"/>
<path d="M16.4998 3.16669C14.7489 3.16669 13.015 3.51156 11.3974 4.18163C9.7797 4.85169 8.30984 5.83382 7.07173 7.07193C4.57125 9.57242 3.16649 12.9638 3.16649 16.5C3.15483 19.5789 4.22088 22.5647 6.17982 24.94L3.51315 27.6067C3.32814 27.7942 3.20282 28.0323 3.15298 28.2909C3.10315 28.5496 3.13105 28.8172 3.23315 29.06C3.3439 29.2999 3.52343 29.5015 3.74895 29.6392C3.97447 29.7769 4.23582 29.8445 4.49982 29.8334H16.4998C20.036 29.8334 23.4274 28.4286 25.9279 25.9281C28.4284 23.4276 29.8332 20.0362 29.8332 16.5C29.8332 12.9638 28.4284 9.57242 25.9279 7.07193C23.4274 4.57144 20.036 3.16669 16.4998 3.16669ZM16.4998 27.1667H7.71315L8.95315 25.9267C9.20149 25.6769 9.34088 25.3389 9.34088 24.9867C9.34088 24.6344 9.20149 24.2965 8.95315 24.0467C7.20727 22.3027 6.12005 20.0074 5.87674 17.5517C5.63343 15.0961 6.24908 12.632 7.61879 10.5794C8.9885 8.52674 11.0275 7.0125 13.3885 6.29465C15.7495 5.5768 18.2863 5.69976 20.5668 6.64257C22.8473 7.58538 24.7303 9.28972 25.8951 11.4652C27.0599 13.6407 27.4343 16.1527 26.9547 18.5734C26.475 20.994 25.1709 23.1734 23.2645 24.7403C21.3582 26.3073 18.9675 27.1647 16.4998 27.1667Z" fill="#F4FAFE"/>
<defs>
<linearGradient id="paint0_linear_129_1419" x1="16" y1="0" x2="16" y2="32" gradientUnits="userSpaceOnUse">
<stop stop-color="#69097A"/>
<stop offset="1" stop-color="#1E7AD0"/>
</linearGradient>
</defs>
</svg>
