<svg width="100" height="120" viewBox="0 0 100 120" fill="none" xmlns="http://www.w3.org/2000/svg">
<path d="M55.822 114.84C55.822 116.126 55.4575 116.981 54.7192 117.413C53.9809 117.845 53.065 117.739 51.9716 117.096C50.8781 116.443 49.9622 115.464 49.2239 114.158C48.4856 112.853 48.1211 111.557 48.1211 110.27C48.1211 108.984 48.4856 108.12 49.2239 107.688L49.4575 107.573C50.1491 107.285 50.9903 107.429 51.9716 108.005C53.065 108.657 53.9809 109.637 54.7192 110.942C55.4575 112.248 55.822 113.553 55.822 114.84Z" stroke="black" stroke-width="1.29907"/>
<path d="M32.7005 101.121C32.7005 102.408 32.336 103.272 31.5884 103.704C30.85 104.136 29.9342 104.03 28.85 103.377C27.7566 102.734 26.8407 101.755 26.1024 100.449C25.3641 99.1341 24.9902 97.8381 24.9902 96.5517C24.9902 95.2655 25.3641 94.4015 26.1024 93.9695L26.3267 93.8543C27.0276 93.5663 27.8687 93.7103 28.85 94.2959C29.9342 94.9391 30.85 95.9183 31.5884 97.2333C32.336 98.5389 32.7005 99.8349 32.7005 101.121Z" stroke="black" stroke-width="1.29907"/>
<path d="M21.14 76.0944C21.14 77.3808 20.7661 78.2448 20.0278 78.6768C19.2895 79.1088 18.3736 79.0032 17.2802 78.3504C16.196 77.7072 15.2802 76.728 14.5418 75.4128C13.8035 74.1072 13.4297 72.8112 13.4297 71.5248C13.4297 70.2384 13.8035 69.3744 14.5418 68.9424L14.7661 68.8272C15.4671 68.5392 16.3082 68.6832 17.2802 69.2688C18.3736 69.912 19.2895 70.8912 20.0278 72.1968C20.7661 73.512 21.14 74.808 21.14 76.0944Z" stroke="black" stroke-width="1.29907"/>
<path d="M74.5131 105.24C74.5131 106.526 74.1486 107.381 73.4103 107.813L73.1767 107.928L54.7187 117.413C55.457 116.981 55.8215 116.126 55.8215 114.84C55.8215 113.553 55.457 112.248 54.7187 110.942C53.9804 109.637 53.0645 108.657 51.9711 108.005C50.9897 107.429 50.1486 107.285 49.457 107.573L60.3449 101.976C60.4757 102.264 60.6159 102.552 60.7841 102.849C61.5225 104.155 62.4383 105.134 63.5318 105.777C64.6253 106.43 65.5411 106.536 66.2795 106.104L68.2514 105.096L73.8496 102.216C74.2888 103.233 74.5131 104.241 74.5131 105.24Z" fill="#1E7AD0" stroke="black" stroke-width="1.29907"/>
<path d="M51.3916 91.5217C51.3916 92.8081 51.0271 93.6721 50.2794 94.1041L31.5879 103.704C32.3355 103.272 32.7 102.408 32.7 101.121C32.7 99.8351 32.3355 98.5391 31.5879 97.2335C30.8495 95.9185 29.9336 94.9393 28.8495 94.2961C27.8682 93.7105 27.0271 93.5665 26.3262 93.8545L37.2234 88.2577C37.3542 88.5457 37.4944 88.8433 37.6626 89.1313C38.4009 90.4369 39.3168 91.4161 40.4103 92.0689C41.5037 92.7121 42.4196 92.8177 43.1579 92.3857L45.1206 91.3777L50.7187 88.5073C51.1673 89.5153 51.3916 90.5233 51.3916 91.5217Z" fill="#1E7AD0" stroke="black" stroke-width="1.29907"/>
<path d="M44.2611 89.7456V89.8128C44.2611 91.0992 43.8966 91.9536 43.1583 92.3856C42.4199 92.8176 41.504 92.712 40.4106 92.0688C39.3171 91.416 38.4012 90.4368 37.6629 89.1312C37.4947 88.8432 37.3545 88.5456 37.2237 88.2576C36.7751 87.24 36.5508 86.232 36.5508 85.2336C36.5508 83.9472 36.9246 83.0928 37.6629 82.6608L37.8966 82.5456C38.5882 82.2576 39.4293 82.4016 40.4106 82.9776C41.3452 83.5344 42.1489 84.3312 42.8218 85.3776C42.9433 85.5504 43.0555 85.7232 43.1583 85.9152C43.3639 86.28 43.5414 86.6352 43.6816 87C44.0648 87.912 44.2517 88.8336 44.2611 89.7456Z" stroke="black" stroke-width="1.29907"/>
<path d="M86.0845 93.9217C86.0845 95.2081 85.7107 96.0719 84.9724 96.5039L84.7481 96.6191L73.8509 102.216L68.2528 105.096L66.2808 106.104C67.0191 105.672 67.3929 104.808 67.3929 103.521V103.473C67.3836 102.561 67.1967 101.649 66.8135 100.728C66.664 100.363 66.4864 99.9983 66.2808 99.6239C66.178 99.4415 66.0658 99.2591 65.9537 99.0959C65.2808 98.0495 64.4771 97.2527 63.5331 96.6959C62.5518 96.1103 61.7107 95.9665 61.0098 96.2543L66.8789 93.2401C69.4864 93.8449 71.8228 93.5377 73.8789 92.3281L78.4023 90.0049L83.0004 87.6432C83.7574 88.248 84.4116 89.0449 84.963 90.0241C85.7014 91.3393 86.0752 92.6353 86.0752 93.9217H86.0845Z" fill="#1E7AD0" stroke="black" stroke-width="1.29907"/>
<path d="M97.6442 71.2464C97.6442 76.9296 95.9526 80.76 92.5786 82.728L91.7469 83.1503L83.0085 87.6431L78.4104 90.0048L73.887 92.328C75.6814 91.2816 76.9992 89.7071 77.831 87.6143C78.5786 85.7711 78.9525 83.5056 78.9525 80.8464V80.6159C78.9057 75.3263 77.3917 69.8831 74.4198 64.3055C71.4011 58.6607 67.6721 54.2927 63.2422 51.2111L81.9338 41.6111C86.3637 44.6927 90.0927 49.0607 93.1113 54.7055C96.1301 60.3599 97.6442 65.8799 97.6442 71.2464Z" fill="white" stroke="black" stroke-width="1.29907"/>
<path d="M78.9533 80.616V80.8464C78.9533 83.5056 78.5794 85.7712 77.8318 87.6144C77 89.7072 75.6822 91.2816 73.8878 92.328C71.8317 93.5376 69.4953 93.8448 66.8878 93.24C65.2336 92.8656 63.486 92.1264 61.6168 91.0128L54.299 86.6736L42.9533 79.944L31.1682 72.9552L23.0747 68.1552C22.0374 67.5408 21.028 66.8592 20.0467 66.12C15.486 62.7024 11.4953 57.9792 8.09344 51.9408C3.94391 44.5968 1.86914 37.4832 1.86914 30.5904C1.86914 24.312 3.6355 19.8672 7.16821 17.2656C7.71026 16.872 8.27101 16.5264 8.85045 16.248C12.0561 14.6736 15.8598 14.8464 20.271 16.7472C20.5233 16.3632 20.7944 15.9984 21.0747 15.6528C22.0841 14.424 23.2243 13.4832 24.514 12.8016C24.7009 12.7056 24.8878 12.6096 25.0747 12.5232C26.1775 12.024 27.3832 11.7072 28.7009 11.5824C32.271 11.2368 36.1682 12.3216 40.4112 14.8368C46.1869 18.264 51.2149 23.4192 55.486 30.312C59.757 37.1952 62.3458 44.1648 63.243 51.2112C67.6729 54.2928 71.4018 58.6608 74.4205 64.3056C77.3925 69.8832 78.9065 75.3264 78.9533 80.616Z" fill="url(#paint0_linear_492_12792)" stroke="black" stroke-width="1.29907"/>
<path d="M37.0104 6.41755L30.6553 9.66232L24.5151 12.8015C23.2254 13.4831 22.0852 14.4239 21.0759 15.6431C20.7955 15.9983 20.5245 16.3631 20.2721 16.7471C15.8609 14.8463 12.0572 14.6735 8.85156 16.2479L27.2347 6.81115L27.3188 6.76315C30.0852 5.32315 33.3095 5.19835 36.9917 6.40795C36.9917 6.40795 36.998 6.41116 37.0104 6.41755Z" fill="#1E7AD0" stroke="black" stroke-width="1.29907"/>
<path d="M30.6539 9.66248L25.0744 12.5237C24.8875 12.6101 24.7006 12.7061 24.5137 12.8022L30.6539 9.66248Z" stroke="black" stroke-width="1.29907"/>
<path d="M67.3919 103.473V103.521C67.3919 104.808 67.0181 105.672 66.2798 106.104C65.5415 106.536 64.6256 106.43 63.5321 105.777C62.4386 105.134 61.5228 104.155 60.7844 102.849C60.6162 102.552 60.476 102.264 60.3452 101.976C59.9059 100.958 59.6816 99.9502 59.6816 98.9518C59.6816 97.6654 60.0461 96.8014 60.7844 96.3694L61.0087 96.2542C61.7097 95.9664 62.5508 96.1102 63.5321 96.6958C64.476 97.2526 65.2798 98.0494 65.9527 99.0958C66.0648 99.259 66.177 99.4414 66.2798 99.6238C66.4854 99.9982 66.6629 100.363 66.8125 100.728C67.1957 101.649 67.3826 102.561 67.3919 103.473Z" stroke="black" stroke-width="1.29907"/>
<path d="M54.289 86.6734L50.7189 88.507L45.1208 91.3775L43.1582 92.3854C43.8965 91.9534 44.261 91.099 44.261 89.8126V89.7454C44.2516 88.8334 44.0647 87.9118 43.6815 86.9998C43.5413 86.635 43.3638 86.2798 43.1582 85.915C43.0554 85.723 42.9432 85.5503 42.8217 85.3775C42.1488 84.3311 41.3451 83.5343 40.4105 82.9775C39.4292 82.4015 38.5881 82.2574 37.8965 82.5454L42.9432 79.9438L54.289 86.6734Z" fill="#1E7AD0" stroke="black" stroke-width="1.29907"/>
<path d="M21.1395 76.0943C21.1395 74.8079 20.7656 73.5119 20.0273 72.1967C19.289 70.8911 18.3731 69.9119 17.2796 69.2687C16.3077 68.6831 15.4666 68.5391 14.7656 68.8271L20.0367 66.1199C21.018 66.8591 22.0273 67.5407 23.0647 68.1551L31.1581 72.9551L20.0273 78.6767C20.7656 78.2447 21.1395 77.3807 21.1395 76.0943Z" fill="#1E7AD0" stroke="black" stroke-width="1.29907"/>
<path d="M81.934 41.6111L63.2424 51.2111C62.3452 44.1647 59.7565 37.1951 55.4854 30.3119C51.2144 23.4191 46.1864 18.2639 40.4107 14.8367C36.1677 12.3215 32.2705 11.2367 28.7004 11.5823C27.3826 11.7071 26.177 12.0239 25.0742 12.5231L30.6537 9.66227L37.0088 6.41751L42.4854 3.6143C43.9153 2.7023 45.5602 2.1647 47.392 1.9823C50.9621 1.6367 54.8593 2.72151 59.1023 5.23671C64.878 8.6639 69.906 13.8191 74.177 20.7119C78.4481 27.5951 81.0368 34.5647 81.934 41.6111Z" fill="white" stroke="black" stroke-width="1.29907"/>
<path d="M24.5132 12.8015L24.373 12.8689" stroke="black" stroke-width="1.29907"/>
<defs>
<linearGradient id="paint0_linear_492_12792" x1="52.2569" y1="22.6481" x2="24.9301" y2="72.5072" gradientUnits="userSpaceOnUse">
<stop stop-color="#1E7AD0"/>
<stop offset="1" stop-color="#1C194E"/>
</linearGradient>
</defs>
</svg>
