<svg width="40" height="50" viewBox="0 0 40 50" fill="none" xmlns="http://www.w3.org/2000/svg">
<g clip-path="url(#clip0_492_12651)">
<path d="M29.9478 28.5743C29.3398 26.3868 28.5717 24.2707 27.6317 22.2305C27.3477 21.6055 27.0437 20.9895 26.7277 20.3778C26.3317 19.6145 25.9117 18.8645 25.4717 18.1368C24.4197 16.3778 23.2438 14.7216 21.9478 13.1725C20.1158 10.9761 18.1557 9.2082 16.0717 7.86892C14.0917 6.59213 12.2237 5.84659 10.4717 5.63231C10.3797 5.61892 10.2918 5.60999 10.1998 5.60106C8.63977 5.4582 7.25173 5.68588 6.03973 6.29302L5.41573 6.64124C4.05973 7.50731 2.98775 8.85552 2.19575 10.6948C1.40375 12.5296 1.01172 14.7841 1.01172 17.4537C1.01172 20.1234 1.40375 22.8823 2.19575 25.7395C2.98775 28.5966 4.05973 31.3287 5.41573 33.9403C6.77173 36.5475 8.36377 38.9493 10.1998 41.1412C12.0318 43.3377 13.9877 45.1055 16.0717 46.4492C18.1557 47.7885 20.1158 48.5474 21.9478 48.7126C23.7798 48.8823 25.3717 48.534 26.7277 47.6724C27.9317 46.909 28.9117 45.7573 29.6717 44.2216C29.7677 44.0296 29.8598 43.8287 29.9478 43.6234C30.7398 41.7841 31.1357 39.5296 31.1357 36.8645C31.1357 34.1993 30.7398 31.4314 29.9478 28.5743ZM12.6277 34.0296C12.3397 34.2127 11.9798 34.1636 11.5518 33.8912C11.1278 33.6145 10.7677 33.1993 10.4797 32.6457C10.1917 32.0877 10.0478 31.5386 10.0478 30.9895C10.0478 30.4403 10.1917 30.0787 10.4797 29.8957C10.7677 29.7127 11.1278 29.7573 11.5518 30.0341C11.9798 30.3064 12.3397 30.7216 12.6277 31.2796C12.9157 31.8332 13.0597 32.3868 13.0597 32.9314C13.0597 33.4761 12.9157 33.8421 12.6277 34.0296ZM17.5757 35.9136C17.5677 36.4225 17.4238 36.7662 17.1438 36.9403C16.8558 37.1234 16.4997 37.0787 16.0717 36.802C15.6437 36.5252 15.2878 36.11 14.9998 35.5564C14.7118 34.9984 14.5677 34.4493 14.5677 33.9046C14.5677 33.36 14.7118 32.9895 14.9998 32.8064C15.0878 32.7528 15.1837 32.7171 15.2837 32.7037C15.5157 32.6725 15.7757 32.7528 16.0717 32.9448C16.4997 33.2171 16.8558 33.6368 17.1438 34.1903C17.4358 34.7484 17.5797 35.2975 17.5797 35.8421C17.5797 35.8645 17.5797 35.8912 17.5757 35.9136ZM21.6637 39.8511C21.5757 39.9046 21.4837 39.9403 21.3837 39.9537C21.1557 39.985 20.8877 39.9046 20.5917 39.7127C20.1637 39.4403 19.8077 39.0252 19.5157 38.4671C19.4157 38.2752 19.3357 38.0832 19.2717 37.8957C19.1437 37.5341 19.0837 37.1725 19.0837 36.8153C19.0837 36.2662 19.2277 35.9046 19.5157 35.7171C19.8077 35.5341 20.1637 35.5832 20.5917 35.8555C21.0157 36.1323 21.3757 36.5475 21.6637 37.1011C21.9517 37.6591 22.0958 38.2082 22.0958 38.7573C22.0958 39.3064 21.9517 39.668 21.6637 39.8511ZM22.2277 25.0296L20.2917 26.2752L18.2317 27.5966L14.4917 29.9984L10.4998 22.3109L9.14377 19.7037L9.71573 19.3377L11.2518 18.36L14.4518 24.5207L20.0998 20.9314L20.8557 20.4493L21.0557 20.8377L22.9637 24.5564L22.2277 25.0296Z" fill="#FFE3EE" stroke="#211D1D" stroke-width="0.5"/>
<path d="M13.0608 32.9312C13.0608 33.4803 12.9168 33.8419 12.6288 34.0294C12.3408 34.2124 11.9808 34.1633 11.5528 33.891C11.1288 33.6142 10.7688 33.199 10.4808 32.6455C10.1928 32.0874 10.0488 31.5383 10.0488 30.9892C10.0488 30.4401 10.1928 30.0785 10.4808 29.8955C10.7688 29.7124 11.1288 29.7571 11.5528 30.0339C11.9808 30.3062 12.3408 30.7214 12.6288 31.2794C12.9168 31.833 13.0608 32.3865 13.0608 32.9312Z" stroke="black"/>
<path d="M21.057 20.8376L20.2771 21.2706L14.4531 24.5206L20.1011 20.9313L20.857 20.4492L21.057 20.8376Z" stroke="black"/>
<path d="M22.096 38.7571C22.096 39.3018 21.952 39.6678 21.664 39.8509C21.576 39.9044 21.484 39.9402 21.384 39.9536C21.156 39.9848 20.888 39.9044 20.592 39.7125C20.164 39.4402 19.808 39.025 19.516 38.4669C19.416 38.275 19.336 38.083 19.272 37.8955C19.144 37.5339 19.084 37.1723 19.084 36.8152C19.084 36.2661 19.228 35.9044 19.516 35.7169C19.808 35.5339 20.164 35.583 20.592 35.8553C21.016 36.1321 21.376 36.5473 21.664 37.1009C21.952 37.6589 22.096 38.208 22.096 38.7571Z" stroke="black"/>
<path d="M17.5804 35.842C17.5804 35.842 17.5804 35.891 17.5764 35.9134C17.5684 36.4223 17.4244 36.7661 17.1444 36.9402C16.8564 37.1232 16.5004 37.0786 16.0724 36.8018C15.6444 36.525 15.2884 36.1098 15.0004 35.5562C14.7124 34.9982 14.5684 34.4491 14.5684 33.9044C14.5684 33.3598 14.7124 32.9893 15.0004 32.8062C15.0884 32.7526 15.1844 32.717 15.2844 32.7036C15.5164 32.6723 15.7764 32.7526 16.0724 32.9446C16.5004 33.2169 16.8564 33.6366 17.1444 34.1902C17.4364 34.7482 17.5804 35.2973 17.5804 35.842Z" stroke="black"/>
<path d="M22.9645 24.5563L22.2285 25.0295L20.2925 26.275L18.2325 27.5965L14.4925 29.9982L10.5005 22.3107L9.14453 19.7036L9.71649 19.3375L11.2525 18.3599L14.4525 24.5206L20.2765 21.2706L21.0565 20.8375L22.9645 24.5563Z" stroke="black"/>
<path d="M39.137 32.4C39.137 35.0652 38.741 37.3197 37.949 39.159C37.157 40.9938 36.085 42.3465 34.729 43.2081L34.105 43.5563L26.729 47.6724C27.933 46.909 28.913 45.7572 29.673 44.2215C29.769 44.0296 29.861 43.8287 29.949 43.6233C30.741 41.784 31.137 39.5295 31.137 36.8643C31.137 34.1992 30.741 31.4313 29.949 28.5742C29.341 26.3867 28.573 24.2706 27.633 22.2304C27.349 21.6054 27.045 20.9893 26.729 20.3777C26.333 19.6143 25.913 18.8644 25.473 18.1367C24.421 16.3778 23.245 14.7215 21.949 13.1724C20.117 10.976 18.157 9.20812 16.073 7.86884C14.093 6.59205 12.225 5.84647 10.473 5.63219C10.381 5.61879 10.293 5.60987 10.201 5.60094C8.64102 5.45808 7.25302 5.6858 6.04102 6.29295L13.417 2.17686C14.773 1.31525 16.365 0.967026 18.201 1.13667C20.033 1.30631 21.989 2.06079 24.073 3.40454C26.157 4.74384 28.117 6.5117 29.949 8.70812C31.781 10.9001 33.373 13.3018 34.729 15.9134C36.085 18.5206 37.157 21.2528 37.949 24.1099C38.741 26.9671 39.137 29.7304 39.137 32.4Z" fill="#FFE3EE" stroke="#211D1D" stroke-width="0.5"/>
</g>
<defs>
<clipPath id="clip0_492_12651">
<rect width="40" height="50" fill="white"/>
</clipPath>
</defs>
</svg>
