<svg width="141" height="162" viewBox="0 0 141 162" fill="none" xmlns="http://www.w3.org/2000/svg">
<path d="M78.6514 155.034C78.6514 156.77 78.1411 157.924 77.1075 158.507C76.0739 159.09 74.7916 158.948 73.2608 158.079C71.7299 157.198 70.4477 155.876 69.414 154.114C68.3804 152.351 67.8701 150.601 67.8701 148.865C67.8701 147.128 68.3804 145.962 69.414 145.379L69.7411 145.223C70.7094 144.834 71.8869 145.029 73.2608 145.806C74.7916 146.688 76.0739 148.009 77.1075 149.772C78.1411 151.535 78.6514 153.297 78.6514 155.034Z" stroke="black" stroke-width="1.29907"/>
<path d="M46.2817 136.514C46.2817 138.25 45.7714 139.417 44.7247 140C43.691 140.583 42.4088 140.441 40.891 139.559C39.3602 138.691 38.078 137.369 37.0443 135.607C36.0107 133.831 35.4873 132.081 35.4873 130.345C35.4873 128.608 36.0107 127.442 37.0443 126.859L37.3583 126.703C38.3396 126.314 39.5172 126.509 40.891 127.299C42.4088 128.168 43.691 129.49 44.7247 131.265C45.7714 133.027 46.2817 134.777 46.2817 136.514Z" stroke="black" stroke-width="1.29907"/>
<path d="M30.0961 102.727C30.0961 104.464 29.5728 105.63 28.5391 106.214C27.5055 106.797 26.2233 106.654 24.6924 105.773C23.1747 104.905 21.8924 103.583 20.8588 101.807C19.8251 100.045 19.3018 98.2951 19.3018 96.5585C19.3018 94.8218 19.8251 93.6554 20.8588 93.0722L21.1728 92.9167C22.1541 92.5279 23.3317 92.7223 24.6924 93.5129C26.2233 94.3812 27.5055 95.7031 28.5391 97.4657C29.5728 99.2412 30.0961 100.991 30.0961 102.727Z" stroke="black" stroke-width="1.29907"/>
<path d="M104.82 142.074C104.82 143.81 104.309 144.964 103.276 145.547L102.949 145.702L77.1076 158.507C78.1412 157.924 78.6515 156.77 78.6515 155.034C78.6515 153.297 78.1412 151.534 77.1076 149.772C76.0739 148.009 74.7917 146.687 73.2608 145.806C71.887 145.029 70.7094 144.834 69.7412 145.223L84.9842 137.667C85.1674 138.056 85.3636 138.445 85.5992 138.847C86.6328 140.609 87.915 141.931 89.4459 142.799C90.9767 143.681 92.259 143.823 93.2926 143.24L96.0534 141.879L103.891 137.991C104.506 139.365 104.82 140.726 104.82 142.074Z" fill="#1E7AD0" stroke="black" stroke-width="1.29907"/>
<path d="M72.4495 123.554C72.4495 125.291 71.9392 126.457 70.8925 127.041L44.7243 140C45.771 139.417 46.2813 138.251 46.2813 136.514C46.2813 134.777 45.771 133.028 44.7243 131.265C43.6906 129.49 42.4084 128.168 40.8906 127.3C39.5168 126.509 38.3392 126.315 37.3579 126.704L52.614 119.148C52.7972 119.537 52.9934 119.939 53.2289 120.327C54.2626 122.09 55.5448 123.412 57.0757 124.293C58.6065 125.161 59.8888 125.304 60.9224 124.721L63.6701 123.36L71.5074 119.485C72.1355 120.846 72.4495 122.207 72.4495 123.554Z" fill="#1E7AD0" stroke="black" stroke-width="1.29907"/>
<path d="M62.4663 121.157V121.247C62.4663 122.984 61.956 124.137 60.9223 124.721C59.8887 125.304 58.6065 125.161 57.0756 124.293C55.5448 123.412 54.2625 122.09 53.2289 120.327C52.9934 119.938 52.7971 119.537 52.6139 119.148C51.9859 117.774 51.6719 116.413 51.6719 115.065C51.6719 113.329 52.1952 112.175 53.2289 111.592L53.556 111.437C54.5242 111.048 55.7018 111.242 57.0756 112.02C58.384 112.771 59.5093 113.847 60.4513 115.26C60.6214 115.493 60.7784 115.726 60.9223 115.985C61.2102 116.478 61.4588 116.957 61.655 117.45C62.1915 118.681 62.4532 119.925 62.4663 121.157Z" stroke="black" stroke-width="1.29907"/>
<path d="M121.017 126.794C121.017 128.531 120.494 129.697 119.46 130.28L119.146 130.436L103.89 137.991L96.0528 141.879L93.292 143.24C94.3257 142.657 94.849 141.491 94.849 139.754V139.689C94.836 138.458 94.5743 137.227 94.0378 135.983C93.8285 135.49 93.5799 134.998 93.292 134.492C93.1481 134.246 92.9911 134 92.8341 133.779C91.892 132.367 90.7668 131.291 89.4453 130.539C88.0715 129.749 86.8939 129.555 85.9126 129.943L94.1294 125.874C97.7799 126.691 101.051 126.276 103.929 124.643L110.262 121.507L116.7 118.318C117.759 119.135 118.675 120.211 119.447 121.532C120.481 123.308 121.004 125.058 121.004 126.794H121.017Z" fill="#1E7AD0" stroke="black" stroke-width="1.29907"/>
<path d="M137.203 96.1826C137.203 103.855 134.835 109.026 130.111 111.683L128.947 112.253L116.713 118.318L110.276 121.506L103.943 124.643C106.455 123.23 108.3 121.105 109.464 118.279C110.511 115.791 111.034 112.732 111.034 109.143V108.832C110.969 101.691 108.849 94.3423 104.689 86.8125C100.462 79.192 95.2419 73.2952 89.04 69.135L115.208 56.175C121.41 60.3352 126.631 66.232 130.857 73.8525C135.083 81.4859 137.203 88.9379 137.203 96.1826Z" fill="url(#paint0_linear_363_177)" stroke="black" stroke-width="1.29907"/>
<path d="M111.034 108.832V109.143C111.034 112.733 110.511 115.791 109.464 118.279C108.3 121.105 106.455 123.23 103.943 124.643C101.064 126.276 97.7933 126.69 94.1429 125.874C91.827 125.369 89.3802 124.371 86.7634 122.867L76.5186 117.009L60.6345 107.924L44.1354 98.4895L32.8046 92.0095C31.3522 91.1801 29.9391 90.2599 28.5653 89.262C22.1803 84.6482 16.5933 78.2719 11.8307 70.1201C6.02137 60.2057 3.1167 50.6023 3.1167 41.297C3.1167 32.8212 5.5896 26.8207 10.5354 23.3086C11.2943 22.7772 12.0793 22.3106 12.8905 21.9348C17.3784 19.8094 22.7036 20.0426 28.8793 22.6087C29.2326 22.0903 29.612 21.5978 30.0045 21.1313C31.4176 19.4724 33.0139 18.2023 34.8195 17.2822C35.0812 17.1526 35.3429 17.023 35.6045 16.9063C37.1485 16.2324 38.8363 15.8047 40.6812 15.6362C45.6793 15.1697 51.1354 16.6342 57.0756 20.0297C65.1616 24.6564 72.2008 31.6159 78.1803 40.9212C84.1597 50.2135 87.784 59.6225 89.0401 69.1351C95.2419 73.2953 100.462 79.1921 104.689 86.8126C108.849 94.3423 110.969 101.691 111.034 108.832Z" fill="url(#paint1_linear_363_177)" stroke="black" stroke-width="1.29907"/>
<path d="M52.3135 8.66365L43.4163 13.0441L34.8201 17.282C33.0145 18.2022 31.4182 19.4723 30.0051 21.1182C29.6126 21.5977 29.2332 22.0902 28.8799 22.6086C22.7042 20.0425 17.379 19.8092 12.8911 21.9347L38.6276 9.19501L38.7453 9.13021C42.6182 7.18621 47.1322 7.01773 52.2874 8.65069C52.2874 8.65069 52.2961 8.65502 52.3135 8.66365Z" fill="#1E7AD0" stroke="black" stroke-width="1.29907"/>
<path d="M43.4161 13.0443L35.6049 16.907C35.3432 17.0236 35.0815 17.1533 34.8198 17.2829L43.4161 13.0443Z" stroke="black" stroke-width="1.29907"/>
<path d="M94.8496 139.689V139.754C94.8496 141.491 94.3262 142.657 93.2926 143.24C92.2589 143.823 90.9767 143.681 89.4458 142.8C87.915 141.931 86.6327 140.609 85.5991 138.847C85.3636 138.445 85.1673 138.056 84.9841 137.667C84.3692 136.294 84.0552 134.933 84.0552 133.585C84.0552 131.848 84.5655 130.682 85.5991 130.099L85.9131 129.943C86.8944 129.555 88.072 129.749 89.4458 130.539C90.7673 131.291 91.8926 132.367 92.8346 133.779C92.9916 134 93.1486 134.246 93.2926 134.492C93.5804 134.998 93.829 135.49 94.0383 135.983C94.5748 137.227 94.8365 138.458 94.8496 139.689Z" stroke="black" stroke-width="1.29907"/>
<path d="M76.5052 117.009L71.5071 119.485L63.6697 123.36L60.922 124.72C61.9557 124.137 62.4659 122.984 62.4659 121.247V121.156C62.4529 119.925 62.1912 118.681 61.6547 117.45C61.4585 116.957 61.2099 116.478 60.922 115.985C60.7781 115.726 60.6211 115.493 60.451 115.26C59.5089 113.847 58.3837 112.771 57.0753 112.02C55.7015 111.242 54.5239 111.048 53.5557 111.436L60.6211 107.924L76.5052 117.009Z" fill="#1E7AD0" stroke="black" stroke-width="1.29907"/>
<path d="M30.0962 102.727C30.0962 100.991 29.5729 99.2411 28.5392 97.4656C27.5056 95.703 26.2233 94.3811 24.6925 93.5128C23.3317 92.7222 22.1542 92.5278 21.1729 92.9166L28.5523 89.2619C29.9261 90.2598 31.3392 91.18 32.7915 92.0094L44.1224 98.4894L28.5392 106.214C29.5729 105.63 30.0962 104.464 30.0962 102.727Z" fill="#1E7AD0" stroke="black" stroke-width="1.29907"/>
<path d="M115.209 56.1749L89.0405 69.1349C87.7844 59.6223 84.1601 50.2133 78.1807 40.921C72.2012 31.6157 65.162 24.6562 57.076 20.0295C51.1358 16.634 45.6797 15.1695 40.6816 15.6361C38.8368 15.8045 37.1489 16.2322 35.605 16.9061L43.4162 13.0441L52.3134 8.66363L59.9807 4.8793C61.9825 3.6481 64.2854 2.92234 66.8498 2.6761C71.848 2.20954 77.3041 3.67403 83.2442 7.06955C91.3302 11.6963 98.3695 18.6557 104.349 27.961C110.328 37.2533 113.953 46.6623 115.209 56.1749Z" fill="#1E7AD0" stroke="black" stroke-width="1.29907"/>
<path d="M34.8198 17.282L34.6235 17.373" stroke="black" stroke-width="1.29907"/>
<defs>
<linearGradient id="paint0_linear_363_177" x1="113.121" y1="56.175" x2="113.121" y2="124.643" gradientUnits="userSpaceOnUse">
<stop stop-color="#EF497A"/>
<stop offset="1" stop-color="#1E7AD0"/>
</linearGradient>
<linearGradient id="paint1_linear_363_177" x1="73.6596" y1="30.5749" x2="37.4999" y2="98.9935" gradientUnits="userSpaceOnUse">
<stop stop-color="#69097A"/>
<stop offset="1" stop-color="#1C194E"/>
</linearGradient>
</defs>
</svg>
