<svg width="386" height="357" viewBox="0 0 386 357" fill="none" xmlns="http://www.w3.org/2000/svg">
<g clip-path="url(#clip0_749_4104)">
<path d="M386 265.519H0V265.712H386V265.519Z" fill="#34A853"/>
<path d="M347.324 277.945H321.754V278.138H347.324V277.945Z" fill="#34A853"/>
<path d="M255.703 280.04H248.992V280.233H255.703V280.04Z" fill="#34A853"/>
<path d="M320.982 270.776H306.166V270.969H320.982V270.776Z" fill="#34A853"/>
<path d="M73.843 272.073H40.498V272.266H73.843V272.073Z" fill="#34A853"/>
<path d="M85.6059 272.073H80.7168V272.266H85.6059V272.073Z" fill="#34A853"/>
<path d="M173.814 275.333H101.496V275.526H173.814V275.333Z" fill="#34A853"/>
<path d="M182.975 231.089H33.9027C31.4732 231.089 29.4961 229.112 29.4961 226.683V17.1373C29.4961 14.7078 31.4732 12.7307 33.9027 12.7307H182.975C185.404 12.7307 187.381 14.7078 187.381 17.1373V226.683C187.381 229.112 185.404 231.089 182.975 231.089ZM33.9027 12.9245C31.5789 12.9245 29.6891 14.8143 29.6891 17.1381V226.684C29.6891 229.007 31.5789 230.897 33.9027 230.897H182.975C185.298 230.897 187.188 229.007 187.188 226.684V17.1373C187.188 14.8143 185.298 12.9237 182.975 12.9237L33.9027 12.9245Z" fill="#34A853"/>
<path d="M349.956 231.089H200.884C198.455 231.089 196.479 229.112 196.479 226.683V17.1373C196.479 14.7078 198.456 12.7307 200.884 12.7307H349.956C352.386 12.7307 354.363 14.7078 354.363 17.1373V226.683C354.363 229.112 352.386 231.089 349.956 231.089ZM200.884 12.9245C198.561 12.9245 196.672 14.8143 196.672 17.1381V226.684C196.672 229.007 198.561 230.897 200.884 230.897H349.956C352.28 230.897 354.17 229.007 354.17 226.684V17.1373C354.17 14.8143 352.28 12.9237 349.956 12.9237L200.884 12.9245Z" fill="#34A853"/>
<path d="M66.1084 49.708C66.1933 39.5932 74.4159 31.4193 84.5507 31.4193C86.9925 31.4193 89.3216 31.8979 91.4547 32.7603C95.0769 25.3506 102.686 20.2454 111.49 20.2454C122.136 20.2454 131.033 27.7114 133.245 37.6918C143.258 38.3356 151.181 46.6563 151.181 56.8312C151.181 67.4269 142.592 76.0154 131.997 76.0154H70.9511C63.4403 76.0154 57.3516 69.9266 57.3516 62.4159C57.3516 56.612 60.9892 51.6604 66.1084 49.708Z" fill="#EA4335"/>
<path d="M282.62 200.181C282.672 193.94 287.746 188.896 293.999 188.896C295.506 188.896 296.943 189.191 298.259 189.723C300.494 185.151 305.189 182.001 310.621 182.001C317.19 182.001 322.68 186.607 324.045 192.766C330.223 193.164 335.112 198.298 335.112 204.576C335.112 211.115 329.812 216.414 323.274 216.414H285.606C280.972 216.414 277.215 212.657 277.215 208.022C277.216 204.441 279.461 201.385 282.62 200.181Z" fill="#FBBC05"/>
<path d="M78.8623 166.569C78.951 155.967 87.5704 147.398 98.1939 147.398C100.754 147.398 103.196 147.899 105.431 148.803C109.228 141.035 117.204 135.684 126.433 135.684C137.593 135.684 146.919 143.51 149.239 153.973C159.735 154.647 168.04 163.369 168.04 174.036C168.04 185.143 159.036 194.147 147.929 194.147H83.9374C76.0645 194.147 69.6816 187.765 69.6816 179.891C69.6824 173.807 73.4961 168.616 78.8623 166.569Z" fill="#33B2EA"/>
<path d="M92.1723 184.919C92.1723 186.53 90.866 187.837 89.2541 187.837C87.6422 187.837 86.3359 186.531 86.3359 184.919C86.3359 183.307 87.6422 182.001 89.2541 182.001C90.866 182.001 92.1723 183.308 92.1723 184.919Z" fill="#FF9900"/>
<path d="M103.174 184.919C103.174 186.53 101.868 187.837 100.256 187.837C98.6441 187.837 97.3379 186.531 97.3379 184.919C97.3379 183.307 98.6441 182.001 100.256 182.001C101.868 182.001 103.174 183.308 103.174 184.919Z" fill="#FBBC05"/>
<path d="M278.461 73.1861C278.523 65.8428 284.493 59.9077 291.851 59.9077C293.623 59.9077 295.314 60.2559 296.863 60.8812C299.493 55.5011 305.017 51.7955 311.408 51.7955C319.138 51.7955 325.598 57.2157 327.203 64.4617C334.473 64.9296 340.225 70.9705 340.225 78.3577C340.225 86.0499 333.989 92.2862 326.296 92.2862H281.977C276.524 92.2862 272.104 87.8657 272.104 82.4131C272.104 78.1987 274.745 74.6035 278.461 73.1861Z" fill="#252F3E"/>
<path d="M318.898 85.3536C318.898 86.3958 318.053 87.2411 317.011 87.2411C315.968 87.2411 315.123 86.3958 315.123 85.3536C315.123 84.3114 315.968 83.4661 317.011 83.4661C318.053 83.4661 318.898 84.3114 318.898 85.3536Z" fill="#FBBC05"/>
<path d="M326.015 85.3536C326.015 86.3958 325.17 87.2411 324.128 87.2411C323.086 87.2411 322.24 86.3958 322.24 85.3536C322.24 84.3114 323.086 83.4661 324.128 83.4661C325.17 83.4661 326.015 84.3114 326.015 85.3536Z" fill="#FBBC05"/>
<path d="M311.781 85.3536C311.781 86.3958 310.936 87.2411 309.893 87.2411C308.851 87.2411 308.006 86.3958 308.006 85.3536C308.006 84.3114 308.851 83.4661 309.893 83.4661C310.936 83.4661 311.781 84.3114 311.781 85.3536Z" fill="#FF9900"/>
<path d="M192.999 300.385C275.666 300.385 342.681 296.471 342.681 291.643C342.681 286.816 275.666 282.902 192.999 282.902C110.331 282.902 43.3164 286.816 43.3164 291.643C43.3164 296.471 110.331 300.385 192.999 300.385Z" fill="#252F3E"/>
<path d="M155.509 45.5226H141.313C122.473 45.5226 106.322 56.9868 99.4254 73.3146H88.1303C66.6223 73.3146 49.1875 90.7502 49.1875 112.258C49.1875 133.765 66.6231 151.201 88.1303 151.201H155.509V45.5226Z" fill="#0E4E92"/>
<path d="M121.965 47.7066L121.65 47.0018C123.421 46.2113 125.259 45.5203 127.113 44.9498L127.34 45.6871C125.515 46.2491 123.707 46.9285 121.965 47.7066Z" fill="#0E4E92"/>
<path d="M104.348 61.3146L103.746 60.8313C107.307 56.3869 111.588 52.6435 116.468 49.7061L116.866 50.3677C112.064 53.258 107.853 56.9412 104.348 61.3146Z" fill="#0E4E92"/>
<path opacity="0.2" d="M155.509 45.5226H141.313C122.473 45.5226 106.322 56.9868 99.4254 73.3146H88.1303C66.6223 73.3146 49.1875 90.7502 49.1875 112.258C49.1875 133.765 66.6231 151.201 88.1303 151.201H155.509V45.5226Z" fill="white"/>
<path opacity="0.5" d="M102.123 67.9654H122.488L137.542 54.5867H114.089C109.272 58.1996 105.188 62.7467 102.123 67.9654Z" fill="#0E4E92"/>
<path opacity="0.5" d="M55.8413 90.4847C53.1393 94.476 51.163 98.9999 50.0977 103.864H73.3349V90.4847H55.8413Z" fill="#0E4E92"/>
<path opacity="0.5" d="M151.174 48.6423H124.741C121.9 49.754 119.19 51.1436 116.666 52.7803H136.12L151.174 48.6423Z" fill="#0E4E92"/>
<path d="M233.028 103.27C229.139 86.8178 214.824 74.4009 197.438 73.388C190.559 57.0193 174.378 45.5227 155.51 45.5227C136.099 45.5227 119.54 57.6917 113.019 74.8132C109.621 73.8451 106.037 73.3147 102.328 73.3147C80.8196 73.3147 63.3848 90.7503 63.3848 112.258C63.3848 133.765 80.8204 151.201 102.328 151.201H226.357C239.85 151.201 250.788 140.263 250.788 126.77C250.787 115.592 243.276 106.173 233.028 103.27Z" fill="#0E4E92"/>
<path opacity="0.2" d="M232.189 106.243L230.436 105.749L230.019 103.981C226.406 88.6953 212.935 77.3855 197.256 76.4668L195.333 76.3587L194.592 74.5831C187.961 58.8034 172.621 48.613 155.506 48.613C154.958 48.613 154.417 48.6208 153.877 48.6439C170.321 49.277 184.896 59.313 191.311 74.5831L192.052 76.3587L193.975 76.4668C209.654 77.3855 223.125 88.6953 226.738 103.981L227.155 105.749L228.908 106.243C238.04 108.829 244.417 117.267 244.417 126.77C244.417 138.536 234.844 148.116 223.079 148.116H226.36C238.125 148.116 247.698 138.536 247.698 126.77C247.698 117.268 241.321 108.829 232.189 106.243Z" fill="white"/>
<path d="M228.907 106.243L227.155 105.749L226.738 103.981C223.125 88.6953 209.654 77.3855 193.974 76.4668L192.052 76.3587L191.311 74.5831C184.896 59.313 170.32 49.277 153.877 48.6439H153.823C137.024 49.3233 121.923 60.1081 115.902 75.911L114.898 78.5589L112.173 77.7792C112.096 77.756 112.011 77.7329 111.934 77.7174C108.799 76.8451 105.557 76.405 102.33 76.405C101.767 76.405 101.211 76.4205 100.647 76.4436C81.6559 77.3237 66.4707 93.0494 66.4707 112.257C66.4707 132.028 82.5592 148.116 102.33 148.116H223.079C234.844 148.116 244.417 138.536 244.417 126.77C244.417 117.268 238.04 108.829 228.907 106.243Z" fill="white"/>
<path d="M140.003 102.101V132.746H170.885V102.101H180.642L155.445 73.7802L130.246 102.101H140.003Z" fill="#0E4E92"/>
<path d="M135.374 191.943H133.792C131.576 191.943 129.779 190.147 129.779 187.931V172.059H139.387V187.931C139.387 190.147 137.59 191.943 135.374 191.943Z" fill="#0E4E92"/>
<path opacity="0.2" d="M135.374 191.943H133.792C131.576 191.943 129.779 190.147 129.779 187.931V172.059H139.387V187.931C139.387 190.147 137.59 191.943 135.374 191.943Z" fill="#FBBC05"/>
<path d="M136.078 176.999H133.084C128.889 176.999 125.488 173.598 125.488 169.403V151.201H143.673V169.403C143.674 173.598 140.273 176.999 136.078 176.999Z" fill="#0E4E92"/>
<path opacity="0.2" d="M143.675 155.759L125.49 158.504V151.201H143.675V155.759Z" fill="#FBBC05"/>
<path d="M139.856 167.328C141.188 167.328 142.268 166.248 142.268 164.916C142.268 163.583 141.188 162.503 139.856 162.503C138.523 162.503 137.443 163.583 137.443 164.916C137.443 166.248 138.523 167.328 139.856 167.328Z" fill="#FBBC05"/>
<path opacity="0.5" d="M133.422 167.328C134.755 167.328 135.835 166.248 135.835 164.916C135.835 163.583 134.755 162.503 133.422 162.503C132.09 162.503 131.01 163.583 131.01 164.916C131.01 166.248 132.09 167.328 133.422 167.328Z" fill="#FBBC05"/>
<path d="M195.141 218.634H154.654C142.522 218.634 132.652 208.764 132.652 196.632V191.943H136.512V196.632C136.512 206.636 144.651 214.774 154.654 214.774H195.141V218.634Z" fill="#0E4E92"/>
<path d="M289.645 121.877H223.296C217.759 121.877 213.229 126.407 213.229 131.944V281.575C213.229 287.113 217.759 291.643 223.296 291.643H289.645C295.182 291.643 299.713 287.113 299.713 281.575V131.944C299.713 126.408 295.182 121.877 289.645 121.877Z" fill="#0E4E92"/>
<path opacity="0.2" d="M289.645 121.877H223.296C217.759 121.877 213.229 126.407 213.229 131.944V281.575C213.229 287.113 217.759 291.643 223.296 291.643H289.645C295.182 291.643 299.713 287.113 299.713 281.575V131.944C299.713 126.408 295.182 121.877 289.645 121.877Z" fill="#F6F6F6"/>
<path d="M271.561 121.877H205.212C199.675 121.877 195.145 126.407 195.145 131.944V281.575C195.145 287.112 199.675 291.642 205.212 291.642H271.561C277.099 291.642 281.629 287.112 281.629 281.575V131.944C281.629 126.407 277.099 121.877 271.561 121.877Z" fill="#0E4E92"/>
<path opacity="0.2" d="M205.212 288.288C201.511 288.288 198.5 285.277 198.5 281.576V131.945C198.5 128.244 201.511 125.233 205.212 125.233H271.561C275.261 125.233 278.272 128.244 278.272 131.945V281.576C278.272 285.277 275.261 288.288 271.561 288.288H205.212Z" fill="#F6F6F6"/>
<path d="M208.335 288.288C204.634 288.288 201.623 285.277 201.623 281.576V131.945C201.623 128.244 204.634 125.233 208.335 125.233H271.561C275.262 125.233 278.273 128.244 278.273 131.945V281.576C278.273 285.277 275.262 288.288 271.561 288.288H208.335Z" fill="#F6F6F6"/>
<path opacity="0.3" d="M267.833 144.862H212.064C209.193 144.862 206.844 142.513 206.844 139.642C206.844 136.771 209.193 134.422 212.064 134.422H267.833C270.704 134.422 273.053 136.771 273.053 139.642C273.053 142.513 270.704 144.862 267.833 144.862Z" fill="#0E4E92"/>
<path d="M249.444 140.784H211.224C210.595 140.784 210.082 140.27 210.082 139.642C210.082 139.014 210.596 138.5 211.224 138.5H249.444C250.072 138.5 250.586 139.014 250.586 139.642C250.586 140.27 250.072 140.784 249.444 140.784Z" fill="#F6F6F6"/>
<path d="M263.239 140.784C263.87 140.784 264.381 140.273 264.381 139.642C264.381 139.011 263.87 138.5 263.239 138.5C262.609 138.5 262.098 139.011 262.098 139.642C262.098 140.273 262.609 140.784 263.239 140.784Z" fill="#0E4E92"/>
<path d="M268.277 140.784C268.907 140.784 269.418 140.273 269.418 139.642C269.418 139.011 268.907 138.5 268.277 138.5C267.646 138.5 267.135 139.011 267.135 139.642C267.135 140.273 267.646 140.784 268.277 140.784Z" fill="#0E4E92"/>
<path d="M258.208 140.784C258.839 140.784 259.35 140.273 259.35 139.642C259.35 139.011 258.839 138.5 258.208 138.5C257.578 138.5 257.066 139.011 257.066 139.642C257.066 140.273 257.578 140.784 258.208 140.784Z" fill="#0E4E92"/>
<path opacity="0.3" d="M267.833 161.642H212.064C209.193 161.642 206.844 159.293 206.844 156.421C206.844 153.55 209.193 151.201 212.064 151.201H267.833C270.704 151.201 273.053 153.55 273.053 156.421C273.053 159.293 270.704 161.642 267.833 161.642Z" fill="#0E4E92"/>
<path d="M249.444 157.563H211.224C210.595 157.563 210.082 157.049 210.082 156.421C210.082 155.793 210.596 155.28 211.224 155.28H249.444C250.072 155.28 250.586 155.794 250.586 156.421C250.586 157.05 250.072 157.563 249.444 157.563Z" fill="#F6F6F6"/>
<path d="M263.239 157.563C263.87 157.563 264.381 157.052 264.381 156.421C264.381 155.791 263.87 155.28 263.239 155.28C262.609 155.28 262.098 155.791 262.098 156.421C262.098 157.052 262.609 157.563 263.239 157.563Z" fill="#0E4E92"/>
<path d="M268.277 157.563C268.907 157.563 269.418 157.052 269.418 156.421C269.418 155.791 268.907 155.28 268.277 155.28C267.646 155.28 267.135 155.791 267.135 156.421C267.135 157.052 267.646 157.563 268.277 157.563Z" fill="#0E4E92"/>
<path opacity="0.3" d="M258.208 157.563C258.839 157.563 259.35 157.052 259.35 156.421C259.35 155.791 258.839 155.28 258.208 155.28C257.578 155.28 257.066 155.791 257.066 156.421C257.066 157.052 257.578 157.563 258.208 157.563Z" fill="#0E4E92"/>
<path opacity="0.3" d="M267.833 178.421H212.064C209.193 178.421 206.844 176.072 206.844 173.201C206.844 170.33 209.193 167.981 212.064 167.981H267.833C270.704 167.981 273.053 170.33 273.053 173.201C273.053 176.072 270.704 178.421 267.833 178.421Z" fill="#0E4E92"/>
<path d="M249.444 174.343H211.224C210.595 174.343 210.082 173.829 210.082 173.201C210.082 172.573 210.596 172.06 211.224 172.06H249.444C250.072 172.06 250.586 172.574 250.586 173.201C250.586 173.829 250.072 174.343 249.444 174.343Z" fill="#F6F6F6"/>
<path d="M263.239 174.343C263.87 174.343 264.381 173.832 264.381 173.201C264.381 172.57 263.87 172.059 263.239 172.059C262.609 172.059 262.098 172.57 262.098 173.201C262.098 173.832 262.609 174.343 263.239 174.343Z" fill="#0E4E92"/>
<path d="M268.277 174.343C268.907 174.343 269.418 173.832 269.418 173.201C269.418 172.57 268.907 172.059 268.277 172.059C267.646 172.059 267.135 172.57 267.135 173.201C267.135 173.832 267.646 174.343 268.277 174.343Z" fill="#0E4E92"/>
<path opacity="0.6" d="M258.208 174.343C258.839 174.343 259.35 173.832 259.35 173.201C259.35 172.57 258.839 172.059 258.208 172.059C257.578 172.059 257.066 172.57 257.066 173.201C257.066 173.832 257.578 174.343 258.208 174.343Z" fill="#0E4E92"/>
<path opacity="0.3" d="M267.833 195.201H212.064C209.193 195.201 206.844 192.852 206.844 189.981C206.844 187.11 209.193 184.761 212.064 184.761H267.833C270.704 184.761 273.053 187.11 273.053 189.981C273.053 192.852 270.704 195.201 267.833 195.201Z" fill="#0E4E92"/>
<path d="M249.444 191.123H211.224C210.595 191.123 210.082 190.609 210.082 189.981C210.082 189.353 210.596 188.839 211.224 188.839H249.444C250.072 188.839 250.586 189.354 250.586 189.981C250.586 190.609 250.072 191.123 249.444 191.123Z" fill="#F6F6F6"/>
<path d="M263.239 191.123C263.87 191.123 264.381 190.612 264.381 189.981C264.381 189.351 263.87 188.839 263.239 188.839C262.609 188.839 262.098 189.351 262.098 189.981C262.098 190.612 262.609 191.123 263.239 191.123Z" fill="#0E4E92"/>
<path opacity="0.3" d="M268.277 191.123C268.907 191.123 269.418 190.612 269.418 189.981C269.418 189.351 268.907 188.839 268.277 188.839C267.646 188.839 267.135 189.351 267.135 189.981C267.135 190.612 267.646 191.123 268.277 191.123Z" fill="#0E4E92"/>
<path opacity="0.6" d="M258.208 191.123C258.839 191.123 259.35 190.612 259.35 189.981C259.35 189.351 258.839 188.839 258.208 188.839C257.578 188.839 257.066 189.351 257.066 189.981C257.066 190.612 257.578 191.123 258.208 191.123Z" fill="#0E4E92"/>
<path opacity="0.3" d="M267.833 211.981H212.064C209.193 211.981 206.844 209.631 206.844 206.76C206.844 203.889 209.193 201.54 212.064 201.54H267.833C270.704 201.54 273.053 203.889 273.053 206.76C273.053 209.631 270.704 211.981 267.833 211.981Z" fill="#0E4E92"/>
<path d="M249.444 207.902H211.224C210.595 207.902 210.082 207.388 210.082 206.76C210.082 206.132 210.596 205.619 211.224 205.619H249.444C250.072 205.619 250.586 206.133 250.586 206.76C250.586 207.388 250.072 207.902 249.444 207.902Z" fill="#F6F6F6"/>
<path d="M263.239 207.902C263.87 207.902 264.381 207.391 264.381 206.76C264.381 206.13 263.87 205.619 263.239 205.619C262.609 205.619 262.098 206.13 262.098 206.76C262.098 207.391 262.609 207.902 263.239 207.902Z" fill="#0E4E92"/>
<path opacity="0.6" d="M268.277 207.902C268.907 207.902 269.418 207.391 269.418 206.76C269.418 206.13 268.907 205.619 268.277 205.619C267.646 205.619 267.135 206.13 267.135 206.76C267.135 207.391 267.646 207.902 268.277 207.902Z" fill="#0E4E92"/>
<path d="M258.208 207.902C258.839 207.902 259.35 207.391 259.35 206.76C259.35 206.13 258.839 205.619 258.208 205.619C257.578 205.619 257.066 206.13 257.066 206.76C257.066 207.391 257.578 207.902 258.208 207.902Z" fill="#0E4E92"/>
<path opacity="0.3" d="M267.833 228.76H212.064C209.193 228.76 206.844 226.411 206.844 223.54C206.844 220.669 209.193 218.32 212.064 218.32H267.833C270.704 218.32 273.053 220.669 273.053 223.54C273.053 226.411 270.704 228.76 267.833 228.76Z" fill="#0E4E92"/>
<path d="M249.444 224.682H211.224C210.595 224.682 210.082 224.167 210.082 223.54C210.082 222.911 210.596 222.398 211.224 222.398H249.444C250.072 222.398 250.586 222.912 250.586 223.54C250.586 224.168 250.072 224.682 249.444 224.682Z" fill="#F6F6F6"/>
<path opacity="0.3" d="M263.239 224.682C263.87 224.682 264.381 224.17 264.381 223.54C264.381 222.909 263.87 222.398 263.239 222.398C262.609 222.398 262.098 222.909 262.098 223.54C262.098 224.17 262.609 224.682 263.239 224.682Z" fill="#0E4E92"/>
<path d="M268.277 224.682C268.907 224.682 269.418 224.17 269.418 223.54C269.418 222.909 268.907 222.398 268.277 222.398C267.646 222.398 267.135 222.909 267.135 223.54C267.135 224.17 267.646 224.682 268.277 224.682Z" fill="#0E4E92"/>
<path d="M258.208 224.682C258.839 224.682 259.35 224.17 259.35 223.54C259.35 222.909 258.839 222.398 258.208 222.398C257.578 222.398 257.066 222.909 257.066 223.54C257.066 224.17 257.578 224.682 258.208 224.682Z" fill="#0E4E92"/>
<path opacity="0.3" d="M267.833 245.539H212.064C209.193 245.539 206.844 243.19 206.844 240.319C206.844 237.448 209.193 235.099 212.064 235.099H267.833C270.704 235.099 273.053 237.448 273.053 240.319C273.053 243.19 270.704 245.539 267.833 245.539Z" fill="#0E4E92"/>
<path d="M249.444 241.461H211.224C210.595 241.461 210.082 240.947 210.082 240.319C210.082 239.691 210.596 239.177 211.224 239.177H249.444C250.072 239.177 250.586 239.692 250.586 240.319C250.586 240.948 250.072 241.461 249.444 241.461Z" fill="#F6F6F6"/>
<path opacity="0.3" d="M263.239 241.461C263.87 241.461 264.381 240.95 264.381 240.319C264.381 239.689 263.87 239.177 263.239 239.177C262.609 239.177 262.098 239.689 262.098 240.319C262.098 240.95 262.609 241.461 263.239 241.461Z" fill="#0E4E92"/>
<path d="M268.277 241.461C268.907 241.461 269.418 240.95 269.418 240.319C269.418 239.689 268.907 239.177 268.277 239.177C267.646 239.177 267.135 239.689 267.135 240.319C267.135 240.95 267.646 241.461 268.277 241.461Z" fill="#0E4E92"/>
<path opacity="0.3" d="M258.208 241.461C258.839 241.461 259.35 240.95 259.35 240.319C259.35 239.689 258.839 239.177 258.208 239.177C257.578 239.177 257.066 239.689 257.066 240.319C257.066 240.95 257.578 241.461 258.208 241.461Z" fill="#0E4E92"/>
<path opacity="0.3" d="M267.833 262.319H212.064C209.193 262.319 206.844 259.97 206.844 257.099C206.844 254.228 209.193 251.878 212.064 251.878H267.833C270.704 251.878 273.053 254.228 273.053 257.099C273.053 259.97 270.704 262.319 267.833 262.319Z" fill="#0E4E92"/>
<path d="M249.444 258.24H211.224C210.595 258.24 210.082 257.726 210.082 257.099C210.082 256.47 210.596 255.957 211.224 255.957H249.444C250.072 255.957 250.586 256.471 250.586 257.099C250.586 257.727 250.072 258.24 249.444 258.24Z" fill="#F6F6F6"/>
<path d="M263.239 258.24C263.87 258.24 264.381 257.729 264.381 257.099C264.381 256.468 263.87 255.957 263.239 255.957C262.609 255.957 262.098 256.468 262.098 257.099C262.098 257.729 262.609 258.24 263.239 258.24Z" fill="#0E4E92"/>
<path d="M268.277 258.24C268.907 258.24 269.418 257.729 269.418 257.099C269.418 256.468 268.907 255.957 268.277 255.957C267.646 255.957 267.135 256.468 267.135 257.099C267.135 257.729 267.646 258.24 268.277 258.24Z" fill="#0E4E92"/>
<path d="M258.208 258.24C258.839 258.24 259.35 257.729 259.35 257.099C259.35 256.468 258.839 255.957 258.208 255.957C257.578 255.957 257.066 256.468 257.066 257.099C257.066 257.729 257.578 258.24 258.208 258.24Z" fill="#0E4E92"/>
<path opacity="0.3" d="M267.833 279.099H212.064C209.193 279.099 206.844 276.749 206.844 273.878C206.844 271.007 209.193 268.658 212.064 268.658H267.833C270.704 268.658 273.053 271.007 273.053 273.878C273.053 276.75 270.704 279.099 267.833 279.099Z" fill="#0E4E92"/>
<path d="M249.444 275.021H211.224C210.595 275.021 210.082 274.507 210.082 273.879C210.082 273.251 210.596 272.737 211.224 272.737H249.444C250.072 272.737 250.586 273.251 250.586 273.879C250.586 274.507 250.072 275.021 249.444 275.021Z" fill="#F6F6F6"/>
<path d="M263.239 275.02C263.87 275.02 264.381 274.509 264.381 273.878C264.381 273.248 263.87 272.736 263.239 272.736C262.609 272.736 262.098 273.248 262.098 273.878C262.098 274.509 262.609 275.02 263.239 275.02Z" fill="#0E4E92"/>
<path d="M268.277 275.02C268.907 275.02 269.418 274.509 269.418 273.878C269.418 273.248 268.907 272.736 268.277 272.736C267.646 272.736 267.135 273.248 267.135 273.878C267.135 274.509 267.646 275.02 268.277 275.02Z" fill="#0E4E92"/>
<path opacity="0.6" d="M258.208 275.02C258.839 275.02 259.35 274.509 259.35 273.878C259.35 273.248 258.839 272.736 258.208 272.736C257.578 272.736 257.066 273.248 257.066 273.878C257.066 274.509 257.578 275.02 258.208 275.02Z" fill="#0E4E92"/>
<path opacity="0.2" d="M294.574 171.15H286.767C285.508 171.15 284.479 170.12 284.479 168.861V159.217C284.479 157.958 285.509 156.928 286.767 156.928H294.574C295.833 156.928 296.864 157.958 296.864 159.217V168.861C296.864 170.12 295.833 171.15 294.574 171.15Z" fill="#F6F6F6"/>
<path opacity="0.2" d="M195.148 230.815V281.576C195.148 287.113 199.679 291.644 205.216 291.644H217.579L213.162 235.619L195.148 230.815Z" fill="#FBBC05"/>
<path d="M176.743 231.248L171.809 237.402C170.912 238.521 169.563 239.185 168.185 239.185H123.63C121.266 239.185 119.19 241.101 118.994 243.466L115.07 290.892C114.874 293.257 116.632 295.174 118.997 295.174H206.23C208.595 295.174 210.671 293.257 210.866 290.892L215.595 233.747C215.79 231.383 214.032 229.466 211.668 229.466H180.366C178.989 229.465 177.64 230.129 176.743 231.248Z" fill="#0E4E92"/>
<path opacity="0.3" d="M176.743 231.248L171.809 237.402C170.912 238.521 169.563 239.185 168.185 239.185H123.63C121.266 239.185 119.19 241.101 118.994 243.466L115.07 290.892C114.874 293.257 116.632 295.174 118.997 295.174H206.23C208.595 295.174 210.671 293.257 210.866 290.892L215.595 233.747C215.79 231.383 214.032 229.466 211.668 229.466H180.366C178.989 229.465 177.64 230.129 176.743 231.248Z" fill="#FBBC05"/>
<path d="M159.126 234.621L155.126 240.451C154.399 241.511 153.151 242.139 151.773 242.139H115.129C112.764 242.139 110.98 243.955 111.143 246.194L114.419 291.117C114.582 293.357 116.631 295.173 118.996 295.173H206.23C208.594 295.173 210.379 293.357 210.216 291.117L206.268 236.988C206.105 234.749 204.056 232.932 201.691 232.932H162.479C161.101 232.933 159.853 233.561 159.126 234.621Z" fill="#0E4E92"/>
</g>
<defs>
<clipPath id="clip0_749_4104">
<rect width="386" height="356.308" fill="white"/>
</clipPath>
</defs>
</svg>
