<svg width="31" height="30" viewBox="0 0 31 30" fill="none" xmlns="http://www.w3.org/2000/svg">
<path d="M27.1249 15.625L22.6249 11.5L27.1249 7.875C27.2499 7.875 27.2499 7.75 27.2499 7.75C27.3749 7.5 27.2499 7.125 26.9999 6.875L20.7499 3.5C20.4999 3.375 20.2499 3.375 20.1249 3.5L15.4999 7L10.8749 3.5C10.6249 3.375 10.3749 3.375 10.2499 3.5L3.99986 6.875C3.87486 6.875 3.87486 7 3.87486 7C3.49986 7.125 3.62486 7.625 3.87486 7.75L8.37486 11.375L3.87486 15.5L3.74986 15.625C3.62486 15.875 3.74986 16.25 3.99986 16.5L8.62486 19V22.125C8.62486 22.375 8.74986 22.5 8.87486 22.625L15.1249 26.375C15.2499 26.375 15.3749 26.5 15.4999 26.5C15.6249 26.5 15.7499 26.5 15.8749 26.375L22.1249 22.625C22.3749 22.5 22.3749 22.25 22.3749 22.125V19L26.9999 16.5L27.1249 16.375C27.4999 16.25 27.3749 15.875 27.1249 15.625ZM20.4999 4.625L25.6249 7.375L21.7499 10.75L16.6249 7.75L20.4999 4.625ZM20.6249 11.5L15.4999 14.875L10.3749 11.5L15.4999 8.5L20.6249 11.5ZM5.37486 7.375L10.4999 4.625L14.4999 7.625L9.24986 10.75L5.37486 7.375ZM5.37486 15.875L9.37486 12.125L14.4999 15.5L10.4999 18.75L5.37486 15.875ZM21.1249 22L15.4999 25.375L9.87486 22V19.875L10.2499 20C10.2499 20 10.3749 20 10.4999 20C10.6249 20 10.7499 20 10.8749 19.875L15.4999 16.25L20.1249 19.875C20.2499 20 20.3749 20 20.4999 20C20.6249 20 20.7499 20 20.7499 19.875L21.1249 19.75V22ZM20.4999 18.75L16.4999 15.625L21.6249 12.25L25.6249 16L20.4999 18.75Z" fill="black"/>
</svg>
