<svg width="25" height="25" viewBox="0 0 25 25" fill="none" xmlns="http://www.w3.org/2000/svg">
<g clip-path="url(#clip0_336_562)">
<path d="M12.5 2.13965C10.4975 2.13965 8.5399 2.73347 6.87486 3.84602C5.20981 4.95857 3.91206 6.53988 3.14572 8.38998C2.37939 10.2401 2.17888 12.2759 2.56955 14.2399C2.96023 16.204 3.92454 18.0081 5.34055 19.4241C6.75656 20.8401 8.56066 21.8044 10.5247 22.1951C12.4888 22.5858 14.5246 22.3853 16.3747 21.6189C18.2248 20.8526 19.8061 19.5548 20.9186 17.8898C22.0312 16.2247 22.625 14.2672 22.625 12.2646C22.622 9.58026 21.5543 7.0067 19.6561 5.10855C17.758 3.2104 15.1844 2.14269 12.5 2.13965ZM12.5 20.5146C10.8683 20.5146 9.27326 20.0308 7.91655 19.1243C6.55984 18.2178 5.50242 16.9293 4.878 15.4218C4.25358 13.9143 4.0902 12.2555 4.40853 10.6552C4.72685 9.05481 5.51259 7.5848 6.66637 6.43102C7.82016 5.27723 9.29017 4.4915 10.8905 4.17317C12.4909 3.85484 14.1497 4.01822 15.6571 4.64264C17.1646 5.26707 18.4531 6.32449 19.3596 7.68119C20.2661 9.0379 20.75 10.633 20.75 12.2646C20.7475 14.4519 19.8775 16.5489 18.3309 18.0956C16.7843 19.6422 14.6873 20.5122 12.5 20.5146ZM12.5 5.51465C11.165 5.51465 9.85994 5.91053 8.7499 6.65223C7.63987 7.39393 6.77471 8.44813 6.26382 9.68154C5.75293 10.9149 5.61925 12.2721 5.8797 13.5815C6.14015 14.8909 6.78303 16.0936 7.72703 17.0376C8.67104 17.9816 9.87377 18.6245 11.1831 18.8849C12.4925 19.1454 13.8497 19.0117 15.0831 18.5008C16.3165 17.9899 17.3707 17.1248 18.1124 16.0147C18.8541 14.9047 19.25 13.5997 19.25 12.2646C19.248 10.4751 18.5362 8.75934 17.2707 7.4939C16.0053 6.22847 14.2896 5.51666 12.5 5.51465ZM12.5003 15.2642C12.9664 15.266 13.4263 15.1583 13.8432 14.9499C14.2601 14.7415 14.6223 14.4381 14.9005 14.0642C15.0203 13.906 15.1979 13.8017 15.3944 13.7741C15.591 13.7466 15.7904 13.7981 15.9491 13.9173C16.1077 14.0365 16.2126 14.2138 16.2409 14.4102C16.2691 14.6066 16.2183 14.8062 16.0997 14.9653C15.5328 15.7206 14.7427 16.2784 13.8413 16.5598C12.9398 16.8411 11.9727 16.8318 11.0769 16.533C10.181 16.2342 9.40188 15.6612 8.84978 14.8951C8.29767 14.1289 8.00059 13.2085 8.00059 12.2642C8.00059 11.3198 8.29767 10.3994 8.84978 9.63328C9.40188 8.86714 10.181 8.29412 11.0769 7.99534C11.9727 7.69657 12.9398 7.6872 13.8413 7.96855C14.7427 8.24991 15.5328 8.80773 16.0997 9.56302C16.2183 9.72209 16.2691 9.9217 16.2408 10.1181C16.2126 10.3145 16.1076 10.4918 15.949 10.611C15.7904 10.7302 15.5909 10.7817 15.3944 10.7541C15.1979 10.7266 15.0203 10.6223 14.9005 10.4641C14.5937 10.055 14.1874 9.73111 13.7202 9.52318C13.253 9.31526 12.7404 9.23021 12.2311 9.27612C11.7217 9.32202 11.2326 9.49736 10.8101 9.78548C10.3876 10.0736 10.0458 10.4649 9.81706 10.9223C9.58834 11.3797 9.48034 11.888 9.50331 12.3988C9.52628 12.9097 9.67946 13.4062 9.94829 13.8413C10.2171 14.2763 10.5927 14.6354 11.0394 14.8844C11.486 15.1334 11.9889 15.2642 12.5003 15.2642Z" fill="#525252"/>
</g>
<defs>
<clipPath id="clip0_336_562">
<rect width="24" height="24" fill="white" transform="translate(0.5 0.264648)"/>
</clipPath>
</defs>
</svg>
