<svg width="40" height="60" viewBox="0 0 40 60" fill="none" xmlns="http://www.w3.org/2000/svg">
<g clip-path="url(#clip0_492_12632)">
<path d="M29.7255 29.5015V33.4305L24.9525 30.4644V36.3628L21.7705 34.3838V28.4854L17.002 25.5192V21.5902L21.7705 24.5563V18.658L22.0851 18.8515L24.9525 20.637V26.5354L29.7255 29.5015Z" fill="#F7E7CA" stroke="#211D1D" stroke-width="0.5"/>
<path d="M29.7274 43.258V58.9838L1.09375 41.1822V5.8064L10.0825 11.3903L13.2645 13.3645L13.8219 13.7128V17.6467L13.2645 17.2983L10.0825 15.3241L4.2757 11.7145V39.2274L26.5454 53.0709V41.279L29.7274 43.258Z" fill="#F7E7CA" stroke="#211D1D" stroke-width="0.5"/>
<path d="M33.9419 31.1614V31.5243L24.9531 36.363V30.4646L29.7262 33.4307L33.6273 31.3307L33.9419 31.1614Z" fill="#F7E7CA" stroke="#211D1D" stroke-width="0.5"/>
<path d="M33.9422 15.7984L30.7602 17.5113L28.8591 18.5371L25.9917 20.0806L24.9534 20.6371L22.0861 18.8516L21.7715 18.658L30.7602 13.8193L33.9422 15.7984Z" fill="#F7E7CA" stroke="#211D1D" stroke-width="0.5"/>
<path d="M33.9419 15.7983V21.6967L30.5577 23.5209L24.9531 26.5354V20.637L25.9914 20.0806L28.8588 18.537L30.76 17.5112L33.9419 15.7983Z" fill="#F7E7CA" stroke="#211D1D" stroke-width="0.5"/>
<path d="M38.715 24.6629L35.3262 26.4871L33.9419 27.2323L30.76 28.9452L29.7262 29.5016L24.9531 26.5355L30.5577 23.521L33.9419 21.6968L38.715 24.6629Z" fill="#F7E7CA" stroke="#211D1D" stroke-width="0.5"/>
<path d="M38.7158 38.4195L35.5337 40.1324L29.727 43.2582L26.5449 41.2791L35.5337 36.4404L38.7158 38.4195Z" fill="#F7E7CA" stroke="#211D1D" stroke-width="0.5"/>
<path d="M22.8091 8.87427V12.8081L13.8203 17.6468V13.713L19.4158 10.6985L22.8091 8.87427Z" fill="#F7E7CA" stroke="#211D1D" stroke-width="0.5"/>
<path d="M22.8106 8.87422L19.4174 10.6984L13.8219 13.7129L13.2645 13.3645L10.0825 11.3904L1.09375 5.80648L10.0825 0.967773L22.8106 8.87422Z" fill="#F7E7CA" stroke="#211D1D" stroke-width="0.5"/>
<path d="M38.7153 24.6628V28.5919L33.9422 31.1612L33.6277 31.3306L29.7266 33.4306V29.5016L30.7603 28.9451L33.9422 27.2322L35.3266 26.487L38.7153 24.6628Z" fill="#F7E7CA" stroke="#211D1D" stroke-width="0.5"/>
<path d="M21.7705 19.0259V24.5565L17.002 21.5904L21.7705 19.0259Z" fill="#F7E7CA" stroke="#211D1D" stroke-width="0.5"/>
<path d="M26.5451 42.6435V53.0709L4.27539 39.2274L10.0822 36.1016L13.2641 34.3887L26.5451 42.6435Z" fill="#F7E7CA" stroke="#211D1D" stroke-width="0.5"/>
<path d="M13.2641 17.2985V34.3888L10.0822 36.1017L4.27539 39.2275V11.7146L10.0822 15.3243L13.2641 17.2985Z" fill="#F7E7CA" stroke="#211D1D" stroke-width="0.5"/>
<path d="M38.7153 38.4194V54.1452L29.7266 58.9839V43.2581L35.5333 40.1323L38.7153 38.4194Z" fill="#F7E7CA" stroke="#211D1D" stroke-width="0.5"/>
</g>
<defs>
<clipPath id="clip0_492_12632">
<rect width="40" height="60" fill="white"/>
</clipPath>
</defs>
</svg>
