<svg width="140" height="120" viewBox="0 0 140 120" fill="none" xmlns="http://www.w3.org/2000/svg">
<g clip-path="url(#clip0_529_3444)">
<path d="M88.834 33.0455H93.1061L105.277 20.0823L105.876 14.582C83.2298 -6.70656 48.6596 -4.41269 28.6722 19.7073C23.1149 26.4077 19.0834 34.3768 16.8887 43.0023C18.2442 42.4085 19.7465 42.3147 21.1608 42.7273L45.4966 38.452C45.4966 38.452 46.7348 36.2707 47.3745 36.4082C58.2015 23.745 76.4226 22.2699 88.922 33.0455H88.834Z" fill="#EA4335"/>
<path d="M122.61 43.0022C119.811 32.0329 114.072 22.1699 106.085 14.6257L89.0085 32.8142C96.2207 39.0895 100.328 48.5462 100.152 58.4655V61.6969C108.55 61.6969 115.351 68.9473 115.351 77.8853C115.351 86.8295 108.544 94.0736 100.152 94.0736H69.7488L66.7148 97.3488V116.769L69.7488 120H100.152C117.581 120.144 133.044 108.112 138.22 90.3859C143.384 72.6537 137.046 53.4027 122.61 43.0022Z" fill="#4285F4"/>
<path d="M39.3058 119.819H69.7095V93.8987H39.3058C37.1404 93.8987 34.9985 93.4049 33.0268 92.4424L28.7546 93.8487L16.5016 106.812L15.4336 111.362C22.3054 116.887 30.6912 119.856 39.3058 119.819Z" fill="#34A853"/>
<path d="M39.305 35.7269C22.416 35.8332 7.45775 47.3525 2.07065 64.3972C-3.31645 81.4418 2.05305 100.255 15.4386 111.218L33.0729 92.4361C25.4206 88.7547 22.0229 79.1667 25.4793 71.0163C28.9357 62.8658 37.9377 59.2469 45.59 62.9283C48.9584 64.5534 51.6578 67.4286 53.1835 71.0163L70.8178 52.234C63.3122 41.7897 51.6519 35.6832 39.305 35.7269Z" fill="#FBBC05"/>
</g>
<defs>
<clipPath id="clip0_529_3444">
<rect width="140" height="120" fill="white"/>
</clipPath>
</defs>
</svg>
