<svg width="501" height="559" viewBox="0 0 501 559" fill="none" xmlns="http://www.w3.org/2000/svg">
<g clip-path="url(#clip0_112_1212)">
<path d="M150.491 301.462C150.272 294.039 150.149 286.716 150.107 279.526C150.127 286.69 150.251 294.016 150.491 301.462Z" fill="url(#paint0_linear_112_1212)"/>
<path d="M322.274 358.479C316.447 362.059 310.656 365.527 304.928 368.876C310.694 365.521 316.483 362.054 322.274 358.479Z" fill="url(#paint1_linear_112_1212)"/>
<path d="M285.729 179.539C292.27 183.061 298.678 186.616 304.928 190.176C298.711 186.61 292.301 183.055 285.729 179.539Z" fill="url(#paint2_linear_112_1212)"/>
<path d="M495.733 369.432C483.535 338.488 458.16 307.623 428.018 279.541C448.899 259.931 467.568 238.763 482.216 216.215C489.222 204.957 495.371 192.924 498.777 180.028C505.21 156.127 499.28 134.071 476.898 121.533C449.904 106.854 412.311 109.384 382.77 114.03C370.358 116.016 357.405 118.847 344.081 122.443C339.057 103.787 333.005 86.1664 325.883 70.0216C332.642 64.1196 335.527 54.6436 333.805 45.7752C332.44 38.7432 328.4 32.9604 320.203 28.7833C315.35 26.3107 308.12 25.4923 301.469 27.894C294.398 19.0121 286.127 11.1534 276.152 5.67211C250.503 -8.02014 226.878 3.91088 210.007 24.7227C189.298 50.7546 175.244 88.1533 165.986 128.288C138.555 120.016 110.882 114.439 84.0229 113.032C70.7661 112.597 57.267 113.29 44.391 116.79C20.4673 123.171 4.32395 139.333 4.65235 164.977C5.43125 195.685 26.4204 226.963 45.2152 250.213C53.3583 260.068 62.3018 269.829 71.9212 279.427C56.6996 294.67 43.2322 310.377 32.0713 326.291C25.5434 323.725 15.9354 323.889 8.66589 329.66C2.29312 334.716 -0.981302 343.374 -0.0768965 351.5C0.662231 358.169 4.24038 364.407 9.44388 368.536C6.33288 377.617 4.44359 387.05 4.64587 396.688C5.60763 425.738 27.7574 440.225 54.2235 444.424C87.1315 449.335 126.559 442.802 165.96 430.75C172.509 458.631 181.514 485.376 193.725 509.331C199.976 521.024 207.326 532.364 216.796 541.76C234.287 559.28 256.36 565.174 278.414 552.068C304.629 536.04 321.233 502.231 331.978 474.335C336.475 462.567 340.508 449.902 344.061 436.533C357.201 440.068 370.143 442.934 382.765 445.058C412.73 449.788 452.283 452.449 479.166 436.218C503.853 420.86 505.329 394.442 495.733 369.432ZM422.755 119.49C448.564 118.584 484.67 122.39 493.676 151.165C501.393 177.318 483.135 209.563 468.318 230.544C456.169 247.366 442.102 263.327 426.757 278.371C406.133 259.293 383.352 241.525 361.068 225.921C358.642 193.837 353.946 162.427 346.85 133.257C373.065 125.64 398.723 120.734 422.755 119.49ZM347.56 342.334C345.332 369.683 341.53 396.75 335.904 422.342C327.237 419.551 318.649 416.545 310.153 413.416C294.45 407.531 277.847 400.49 260.815 392.45C276.912 384.519 291.833 376.465 304.928 368.876C291.003 376.862 276.121 384.801 260.593 392.345C224.802 375.433 187.131 354.109 151.954 329.818C151.268 320.228 150.789 310.751 150.49 301.462C150.763 310.74 151.186 320.174 151.787 329.702C129.206 314.099 107.657 297.275 88.2977 279.608C95.0497 273.501 101.947 267.57 108.906 261.779C121.857 251.128 136.258 240.275 151.74 229.552C150.563 247.452 150.08 264.395 150.107 279.526C150.151 263.479 150.714 246.626 151.942 229.412C184.49 206.884 221.8 184.935 260.433 166.629C269.084 170.83 277.533 175.153 285.729 179.539C277.555 175.136 269.171 170.785 260.617 166.543C285.425 154.796 310.776 144.554 335.762 136.628C337.677 145.527 339.367 154.464 340.904 163.383C343.657 179.92 345.859 197.813 347.408 216.577C332.489 206.608 318.051 197.718 304.928 190.176C318.809 198.238 333.128 207.152 347.428 216.822C350.672 256.266 351.033 299.544 347.574 342.146C339.181 347.817 330.725 353.263 322.273 358.48C330.657 353.329 339.113 347.945 347.56 342.334ZM245.543 399.43C220.377 410.908 193.843 421.116 167.167 428.676C160.382 401.798 155.962 373.719 153.325 346.193C182.434 366.14 213.713 384.198 245.543 399.43ZM153.329 212.834C155.968 185.311 160.391 157.239 167.179 130.368C193.904 137.947 220.486 148.182 245.692 159.687C214.098 174.821 182.673 192.835 153.329 212.834ZM361.097 226.311C383.612 242.349 405.711 260.205 425.59 279.506C405.694 298.868 383.695 316.698 360.959 332.869C363.647 297.944 363.753 261.722 361.097 226.311ZM197.131 51.5933C224.028 4.23915 260.73 -11.8792 294.213 32.1967C288.454 37.3321 285.538 45.5307 286.398 53.2516C287.298 61.3757 292.408 68.8608 299.54 72.672C304.903 75.5398 311.392 76.2007 317.232 74.6105C323.946 91.062 329.092 108.17 333.241 125.516C305.073 133.859 275.498 145.432 246.061 159.511C220.805 147.641 194.32 136.942 167.583 128.775C174.686 101.086 184.321 74.7147 197.131 51.5933ZM29.9541 212.869C-7.50795 153.302 14.6708 116.582 83.9425 116.894C110.387 117.369 138.062 122.221 165.612 129.924C159.39 157.329 155.384 185.949 153.006 213.054C126.422 231.196 101.558 250.966 79.8333 271.695C60.1273 252.809 43.0475 233.051 29.9541 212.869ZM83.9418 442.135C31.1666 442.515 -0.808316 420.271 16.747 372.487C24.1786 374.929 32.8304 373.702 38.9109 368.696C46.0271 362.831 49.0949 353.107 47.3312 344.023C46.3916 339.184 44.1853 334.936 40.2294 331.397C52.0141 315.51 65.5688 300.94 79.9918 287.29C101.687 307.944 126.429 327.737 152.987 345.96C155.332 373.713 159.302 401.941 165.584 429.123C138.043 436.819 110.378 441.663 83.9418 442.135ZM307.255 506.219C274.379 568.432 231.477 567.592 197.111 507.47C184.301 484.339 174.667 457.956 167.566 430.255C194.422 421.938 221.223 411.095 245.898 399.599C274.994 413.503 304.544 425.042 333.312 433.504C326.799 460.053 318.211 484.76 307.255 506.219ZM437.091 439.461C434.056 439.645 430.57 439.626 427.543 439.638C400.122 439.038 373.112 433.535 346.793 425.715C353.648 397.16 358.409 365.77 360.929 333.248C383.841 317.319 406.354 299.741 426.798 280.679C447.235 300.673 465.264 322.2 478.891 344.85C508.068 394.533 501.467 436.236 437.091 439.461Z" fill="url(#paint3_linear_112_1212)"/>
<path d="M269.971 242.358C259.132 236.835 241.221 236.235 227.957 246.764C217.275 255.239 211.786 269.753 213.302 283.374C214.811 296.992 223.377 309.54 235.332 315.929C248.881 323.174 266.725 322.025 278.657 312.201C290.586 302.369 295.729 286.07 292.772 270.841C290.483 259.053 283.711 249.36 269.971 242.358Z" fill="#1E7AD0"/>
<path d="M98.5734 183.791C98.5109 183.791 98.4484 183.774 98.3919 183.742L60.6302 162.008C60.5182 161.943 60.4487 161.823 60.4487 161.694C60.4487 161.565 60.5182 161.446 60.6302 161.381L98.3928 139.646C98.5057 139.582 98.6429 139.582 98.7558 139.646L136.518 161.38C136.63 161.445 136.699 161.564 136.699 161.693C136.699 161.822 136.63 161.942 136.518 162.007L98.7549 183.742C98.6985 183.774 98.6359 183.791 98.5734 183.791ZM61.5368 161.694L98.5726 183.011L135.61 161.693L98.5743 140.376L61.5368 161.694Z" fill="white"/>
<path d="M98.5732 158.961L136.552 137.101V120.311L98.5732 142.17V158.961Z" fill="url(#paint4_linear_112_1212)"/>
<path d="M98.5735 142.169L136.552 120.31L98.5744 98.451L60.5947 120.311L98.5735 142.169Z" fill="url(#paint5_linear_112_1212)"/>
<path d="M98.5733 136.953L127.488 120.31L98.5742 103.669L69.6592 120.311L98.5733 136.953Z" fill="white"/>
<path d="M60.5938 137.101L98.5734 158.961V142.17L60.5938 120.311V137.101Z" fill="url(#paint6_linear_112_1212)"/>
<path d="M98.5732 131.963L136.552 110.104V93.3134L98.5732 115.172V131.963Z" fill="url(#paint7_linear_112_1212)"/>
<path d="M98.5735 115.172L136.552 93.3126L98.5744 71.4539L60.5947 93.3135L98.5735 115.172Z" fill="url(#paint8_linear_112_1212)"/>
<path d="M98.5735 114.331L135.822 92.8917L136.552 93.3124L98.5735 115.172L60.5947 93.3133L61.325 92.8926L98.5735 114.331Z" fill="#A9EBFF"/>
<path d="M98.5735 141.329L135.822 119.89L136.552 120.31L98.5735 142.169L60.5947 120.311L61.325 119.891L98.5735 141.329Z" fill="#A9EBFF"/>
<path d="M98.5741 79.816L125.188 95.1347L98.5733 110.453L71.9585 95.1347L98.5741 79.816Z" fill="white"/>
<path d="M98.5742 79.8159L71.9586 95.1346L68.7935 93.3133L98.5742 76.1724L128.354 93.3124L125.189 95.1346L98.5742 79.8159Z" fill="#2573BA"/>
<path d="M60.5938 110.104L98.5734 131.963V115.172L60.5938 93.3134V110.104Z" fill="url(#paint9_linear_112_1212)"/>
<path d="M85.3198 115.939C85.3198 117.319 86.2915 118.997 87.4907 119.687C88.6899 120.377 89.6615 119.818 89.6615 118.438C89.6615 117.058 88.6899 115.38 87.4907 114.69C86.2915 114 85.3198 114.559 85.3198 115.939Z" fill="white"/>
<path d="M77.4126 111.388C77.4126 112.768 78.3843 114.447 79.5835 115.137C80.7826 115.827 81.7543 115.267 81.7543 113.887C81.7543 112.508 80.7826 110.829 79.5835 110.139C78.3851 109.448 77.4126 110.008 77.4126 111.388Z" fill="white"/>
<path d="M69.5054 106.837C69.5054 108.217 70.477 109.896 71.6762 110.586C72.8754 111.276 73.8471 110.716 73.8471 109.336C73.8471 107.957 72.8754 106.278 71.6762 105.588C70.4779 104.897 69.5054 105.457 69.5054 106.837Z" fill="white"/>
<path d="M86.42 114.411C86.3158 114.643 86.2568 114.927 86.2568 115.262C86.2568 116.642 87.2285 118.321 88.4276 119.01C88.8193 119.236 89.1814 119.315 89.4983 119.289C89.1744 120.014 88.399 120.21 87.4907 119.687C86.2915 118.998 85.3198 117.319 85.3198 115.939C85.3198 115.009 85.7662 114.465 86.42 114.411Z" fill="#A9EBFF"/>
<path d="M78.5128 109.86C78.4086 110.092 78.3496 110.376 78.3496 110.711C78.3496 112.091 79.3212 113.77 80.5204 114.46C80.912 114.685 81.2741 114.765 81.5911 114.738C81.2672 115.463 80.4909 115.659 79.5835 115.137C78.3843 114.447 77.4126 112.768 77.4126 111.388C77.4126 110.459 77.8589 109.914 78.5128 109.86Z" fill="#A9EBFF"/>
<path d="M70.6056 105.309C70.5014 105.541 70.4423 105.825 70.4423 106.16C70.4423 107.54 71.414 109.218 72.6132 109.908C73.0048 110.133 73.3669 110.214 73.6838 110.187C73.3599 110.911 72.5837 111.108 71.6762 110.585C70.477 109.895 69.5054 108.217 69.5054 106.837C69.5054 105.908 69.9517 105.363 70.6056 105.309Z" fill="#A9EBFF"/>
<path d="M85.3198 142.937C85.3198 144.317 86.2915 145.996 87.4907 146.685C88.6899 147.375 89.6615 146.816 89.6615 145.436C89.6615 144.056 88.6899 142.378 87.4907 141.688C86.2915 140.998 85.3198 141.556 85.3198 142.937Z" fill="white"/>
<path d="M77.4126 138.385C77.4126 139.765 78.3843 141.444 79.5835 142.134C80.7826 142.824 81.7543 142.264 81.7543 140.885C81.7543 139.505 80.7826 137.826 79.5835 137.136C78.3851 136.446 77.4126 137.006 77.4126 138.385Z" fill="white"/>
<path d="M69.5054 133.835C69.5054 135.214 70.477 136.893 71.6762 137.583C72.8754 138.273 73.8471 137.714 73.8471 136.334C73.8471 134.954 72.8754 133.275 71.6762 132.585C70.4779 131.896 69.5054 132.455 69.5054 133.835Z" fill="white"/>
<path d="M86.42 141.408C86.3158 141.64 86.2568 141.924 86.2568 142.259C86.2568 143.639 87.2285 145.318 88.4276 146.007C88.8193 146.233 89.1814 146.312 89.4983 146.286C89.1744 147.011 88.399 147.207 87.4907 146.684C86.2915 145.994 85.3198 144.316 85.3198 142.936C85.3198 142.007 85.7662 141.462 86.42 141.408Z" fill="#A9EBFF"/>
<path d="M78.5128 136.857C78.4086 137.089 78.3496 137.373 78.3496 137.708C78.3496 139.088 79.3212 140.767 80.5204 141.457C80.912 141.682 81.2741 141.761 81.5911 141.735C81.2672 142.46 80.4909 142.656 79.5835 142.134C78.3843 141.444 77.4126 139.765 77.4126 138.385C77.4126 137.456 77.8589 136.911 78.5128 136.857Z" fill="#A9EBFF"/>
<path d="M70.6056 132.307C70.5014 132.539 70.4423 132.823 70.4423 133.158C70.4423 134.538 71.414 136.216 72.6132 136.906C73.0048 137.131 73.3669 137.211 73.6838 137.185C73.3599 137.909 72.5837 138.106 71.6762 137.583C70.477 136.893 69.5054 135.215 69.5054 133.835C69.5054 132.905 69.9517 132.361 70.6056 132.307Z" fill="#A9EBFF"/>
<path d="M98.5732 104.032L136.552 82.1723V75.3232L98.5732 97.1828V104.032Z" fill="url(#paint10_linear_112_1212)"/>
<path d="M98.5735 97.1829L136.552 75.3233L98.5744 53.4637L60.5947 75.3233L98.5735 97.1829Z" fill="url(#paint11_linear_112_1212)"/>
<path d="M98.5735 96.3415L135.822 74.9026L136.552 75.3233L98.5735 97.1829L60.5947 75.3233L61.325 74.9035L98.5735 96.3415Z" fill="#A9EBFF"/>
<path d="M60.5938 82.1723L98.5734 104.032V97.1828L60.5938 75.3232V82.1723Z" fill="url(#paint12_linear_112_1212)"/>
<path opacity="0.5" d="M136.552 110.104V120.31L98.5732 142.169V131.963L136.552 110.104Z" fill="white"/>
<path opacity="0.5" d="M60.5938 110.104L60.5946 120.311L98.5734 142.169V131.963L60.5938 110.104Z" fill="white"/>
<path d="M51.5195 211.963L89.2821 190.228L51.5204 168.494L13.7578 190.229L51.5195 211.963Z" fill="#053054"/>
<path d="M51.5195 187.494L89.4983 165.635V148.844L51.5195 170.704V187.494Z" fill="url(#paint13_linear_112_1212)"/>
<path d="M51.5193 170.704L89.4981 148.844L51.5202 126.985L13.5405 148.844L51.5193 170.704Z" fill="url(#paint14_linear_112_1212)"/>
<path d="M51.5191 165.487L80.4342 148.844L51.52 132.202L22.605 148.844L51.5191 165.487Z" fill="white"/>
<path d="M13.5405 165.635L51.5193 187.494V170.704L13.5405 148.844V165.635Z" fill="url(#paint15_linear_112_1212)"/>
<path d="M51.5195 160.497L89.4983 138.637V121.847L51.5195 143.707V160.497Z" fill="url(#paint16_linear_112_1212)"/>
<path d="M51.5193 143.706L89.4981 121.846L51.5202 99.9874L13.5405 121.847L51.5193 143.706Z" fill="url(#paint17_linear_112_1212)"/>
<path d="M51.5193 142.865L88.7678 121.426L89.4981 121.846L51.5193 143.706L13.5405 121.847L14.2708 121.426L51.5193 142.865Z" fill="#A9EBFF"/>
<path d="M51.5193 169.862L88.7678 148.423L89.4981 148.844L51.5193 170.704L13.5405 148.844L14.2708 148.424L51.5193 169.862Z" fill="#A9EBFF"/>
<path d="M51.5204 108.35L78.1343 123.668L51.5196 138.987L24.9048 123.668L51.5204 108.35Z" fill="white"/>
<path d="M51.52 108.349L24.9044 123.668L21.7393 121.847L51.52 104.706L81.2999 121.846L78.1348 123.668L51.52 108.349Z" fill="#2573BA"/>
<path d="M13.5405 138.637L51.5193 160.497V143.707L13.5405 121.847V138.637Z" fill="url(#paint18_linear_112_1212)"/>
<path d="M38.2656 144.473C38.2656 145.853 39.2373 147.531 40.4365 148.221C41.6357 148.911 42.6073 148.352 42.6073 146.972C42.6073 145.592 41.6357 143.913 40.4365 143.224C39.2373 142.534 38.2656 143.093 38.2656 144.473Z" fill="white"/>
<path d="M34.0574 143.826C34.9051 143.338 34.9049 141.756 34.057 140.292C33.2091 138.828 31.8346 138.037 30.987 138.525C30.1393 139.013 30.1395 140.595 30.9874 142.059C31.8353 143.523 33.2098 144.314 34.0574 143.826Z" fill="white"/>
<path d="M22.4521 135.371C22.4521 136.751 23.4238 138.429 24.623 139.119C25.8222 139.809 26.7939 139.25 26.7939 137.87C26.7939 136.49 25.8222 134.812 24.623 134.122C23.4238 133.431 22.4521 133.991 22.4521 135.371Z" fill="white"/>
<path d="M39.3658 142.945C39.2616 143.177 39.2026 143.461 39.2026 143.796C39.2026 145.176 40.1743 146.854 41.3734 147.544C41.7651 147.769 42.1272 147.849 42.4441 147.823C42.1202 148.547 41.3439 148.744 40.4365 148.221C39.2373 147.531 38.2656 145.853 38.2656 144.473C38.2656 143.544 38.712 142.998 39.3658 142.945Z" fill="#A9EBFF"/>
<path d="M31.4586 138.394C31.3553 138.626 31.2953 138.91 31.2953 139.245C31.2953 140.625 32.267 142.303 33.4662 142.993C33.8578 143.218 34.2199 143.298 34.5369 143.272C34.213 143.997 33.4375 144.193 32.5293 143.67C31.3301 142.98 30.3584 141.302 30.3584 139.922C30.3584 138.992 30.8047 138.448 31.4586 138.394Z" fill="#A9EBFF"/>
<path d="M23.5523 133.842C23.4481 134.074 23.3891 134.358 23.3891 134.693C23.3891 136.073 24.3608 137.752 25.56 138.442C25.9516 138.667 26.3137 138.746 26.6306 138.72C26.3067 139.445 25.5304 139.641 24.623 139.119C23.4238 138.429 22.4521 136.75 22.4521 135.37C22.4521 134.441 22.8976 133.897 23.5523 133.842Z" fill="#A9EBFF"/>
<path d="M38.2656 171.471C38.2656 172.851 39.2373 174.529 40.4365 175.219C41.6357 175.909 42.6073 175.35 42.6073 173.97C42.6073 172.59 41.6357 170.912 40.4365 170.222C39.2373 169.531 38.2656 170.09 38.2656 171.471Z" fill="white"/>
<path d="M30.3584 166.919C30.3584 168.299 31.3301 169.978 32.5293 170.667C33.7284 171.357 34.7001 170.798 34.7001 169.418C34.7001 168.038 33.7284 166.36 32.5293 165.67C31.3309 164.98 30.3584 165.539 30.3584 166.919Z" fill="white"/>
<path d="M22.4521 162.368C22.4521 163.748 23.4238 165.427 24.623 166.117C25.8222 166.807 26.7939 166.247 26.7939 164.868C26.7939 163.488 25.8222 161.809 24.623 161.119C23.4238 160.429 22.4521 160.989 22.4521 162.368Z" fill="white"/>
<path d="M39.3658 169.942C39.2616 170.174 39.2026 170.458 39.2026 170.793C39.2026 172.173 40.1743 173.851 41.3734 174.541C41.7651 174.766 42.1272 174.846 42.4441 174.82C42.1202 175.545 41.3439 175.741 40.4365 175.218C39.2373 174.528 38.2656 172.85 38.2656 171.47C38.2656 170.541 38.712 169.997 39.3658 169.942Z" fill="#A9EBFF"/>
<path d="M31.4586 165.391C31.3553 165.623 31.2953 165.907 31.2953 166.242C31.2953 167.622 32.267 169.301 33.4662 169.99C33.8578 170.216 34.2199 170.295 34.5369 170.269C34.213 170.994 33.4375 171.19 32.5293 170.667C31.3301 169.977 30.3584 168.299 30.3584 166.919C30.3584 165.99 30.8047 165.445 31.4586 165.391Z" fill="#A9EBFF"/>
<path d="M23.5523 160.84C23.4481 161.072 23.3891 161.356 23.3891 161.691C23.3891 163.071 24.3608 164.75 25.56 165.44C25.9516 165.665 26.3137 165.744 26.6306 165.718C26.3067 166.443 25.5304 166.639 24.623 166.117C23.4238 165.427 22.4521 163.748 22.4521 162.368C22.4521 161.44 22.8976 160.894 23.5523 160.84Z" fill="#A9EBFF"/>
<path d="M51.5195 132.565L89.4983 110.706V103.857L51.5195 125.716V132.565Z" fill="url(#paint19_linear_112_1212)"/>
<path d="M51.5193 125.717L89.4981 103.857L51.5202 81.9973L13.5405 103.857L51.5193 125.717Z" fill="url(#paint20_linear_112_1212)"/>
<path d="M51.5193 124.875L88.7678 103.436L89.4981 103.857L51.5193 125.716L13.5405 103.857L14.2708 103.437L51.5193 124.875Z" fill="#A9EBFF"/>
<path d="M13.5405 110.706L51.5193 132.565V125.716L13.5405 103.857V110.706Z" fill="url(#paint21_linear_112_1212)"/>
<path opacity="0.5" d="M89.4983 138.637V148.844L51.5195 170.704V160.497L89.4983 138.637Z" fill="white"/>
<path opacity="0.5" d="M13.5405 138.637V148.844L51.5193 170.704V160.497L13.5405 138.637Z" fill="white"/>
<path d="M144.888 209.676L182.651 187.941L144.889 166.207L107.126 187.942L144.888 209.676Z" fill="#053054"/>
<path d="M144.888 185.207L182.867 163.348V146.557L144.888 168.417V185.207Z" fill="url(#paint22_linear_112_1212)"/>
<path d="M144.888 168.417L182.868 146.557L144.89 124.699L106.91 146.558L144.888 168.417Z" fill="url(#paint23_linear_112_1212)"/>
<path d="M144.887 163.199L173.802 146.557L144.888 129.915L115.973 146.558L144.887 163.199Z" fill="white"/>
<path d="M106.909 163.348L144.888 185.207V168.417L106.909 146.557V163.348Z" fill="url(#paint24_linear_112_1212)"/>
<path d="M144.888 158.21L182.867 136.35V119.56L144.888 141.42V158.21Z" fill="url(#paint25_linear_112_1212)"/>
<path d="M144.888 141.42L182.868 119.56L144.89 97.7004L106.91 119.56L144.888 141.42Z" fill="url(#paint26_linear_112_1212)"/>
<path d="M144.888 140.578L182.137 119.14L182.867 119.56L144.888 141.42L106.91 119.56L107.64 119.14L144.888 140.578Z" fill="#A9EBFF"/>
<path d="M144.888 167.576L182.137 146.137L182.867 146.557L144.888 168.417L106.91 146.558L107.64 146.137L144.888 167.576Z" fill="#A9EBFF"/>
<path d="M144.889 106.062L171.503 121.382L144.888 136.701L118.273 121.382L144.889 106.062Z" fill="white"/>
<path d="M144.889 106.062L118.273 121.382L115.108 119.56L144.889 102.42L174.669 119.56L171.504 121.381L144.889 106.062Z" fill="#2573BA"/>
<path d="M106.909 136.35L144.888 158.21V141.42L106.909 119.56V136.35Z" fill="url(#paint27_linear_112_1212)"/>
<path d="M131.635 142.187C131.635 143.566 132.606 145.245 133.806 145.935C135.005 146.625 135.976 146.066 135.976 144.686C135.976 143.306 135.005 141.627 133.806 140.937C132.606 140.247 131.635 140.806 131.635 142.187Z" fill="white"/>
<path d="M123.728 137.636C123.728 139.016 124.699 140.694 125.898 141.384C127.098 142.074 128.069 141.515 128.069 140.135C128.069 138.755 127.098 137.076 125.898 136.387C124.699 135.696 123.728 136.255 123.728 137.636Z" fill="white"/>
<path d="M115.82 133.084C115.82 134.464 116.792 136.143 117.991 136.833C119.19 137.522 120.162 136.963 120.162 135.583C120.162 134.204 119.19 132.525 117.991 131.835C116.792 131.145 115.82 131.704 115.82 133.084Z" fill="white"/>
<path d="M132.735 140.658C132.631 140.89 132.572 141.174 132.572 141.509C132.572 142.889 133.543 144.567 134.743 145.257C135.134 145.482 135.496 145.562 135.813 145.536C135.489 146.26 134.714 146.457 133.806 145.934C132.606 145.244 131.635 143.566 131.635 142.186C131.635 141.257 132.08 140.712 132.735 140.658Z" fill="#A9EBFF"/>
<path d="M124.828 136.107C124.724 136.339 124.664 136.623 124.664 136.958C124.664 138.338 125.636 140.016 126.835 140.706C127.227 140.931 127.589 141.011 127.906 140.985C127.582 141.71 126.807 141.906 125.898 141.383C124.699 140.693 123.728 139.015 123.728 137.635C123.728 136.706 124.173 136.161 124.828 136.107Z" fill="#A9EBFF"/>
<path d="M116.921 131.556C116.816 131.788 116.757 132.072 116.757 132.407C116.757 133.787 117.729 135.466 118.928 136.156C119.32 136.381 119.682 136.46 119.999 136.434C119.675 137.159 118.899 137.355 117.991 136.833C116.792 136.143 115.82 134.464 115.82 133.084C115.82 132.155 116.267 131.61 116.921 131.556Z" fill="#A9EBFF"/>
<path d="M131.635 169.184C131.635 170.564 132.606 172.242 133.806 172.932C135.005 173.622 135.976 173.063 135.976 171.683C135.976 170.303 135.005 168.625 133.806 167.935C132.606 167.244 131.635 167.804 131.635 169.184Z" fill="white"/>
<path d="M123.728 164.633C123.728 166.013 124.699 167.691 125.898 168.381C127.098 169.071 128.069 168.512 128.069 167.132C128.069 165.752 127.098 164.074 125.898 163.384C124.699 162.693 123.728 163.253 123.728 164.633Z" fill="white"/>
<path d="M115.82 160.082C115.82 161.462 116.792 163.141 117.991 163.83C119.19 164.52 120.162 163.961 120.162 162.581C120.162 161.201 119.19 159.523 117.991 158.833C116.792 158.143 115.82 158.701 115.82 160.082Z" fill="white"/>
<path d="M132.735 167.656C132.631 167.888 132.572 168.172 132.572 168.507C132.572 169.887 133.543 171.565 134.743 172.255C135.134 172.48 135.496 172.56 135.813 172.534C135.489 173.259 134.714 173.455 133.806 172.932C132.606 172.242 131.635 170.564 131.635 169.184C131.635 168.254 132.08 167.71 132.735 167.656Z" fill="#A9EBFF"/>
<path d="M124.828 163.104C124.724 163.336 124.664 163.62 124.664 163.955C124.664 165.335 125.636 167.014 126.835 167.704C127.227 167.929 127.589 168.008 127.906 167.982C127.582 168.707 126.807 168.904 125.898 168.381C124.699 167.691 123.728 166.012 123.728 164.632C123.728 163.704 124.173 163.159 124.828 163.104Z" fill="#A9EBFF"/>
<path d="M116.921 158.554C116.816 158.786 116.757 159.07 116.757 159.405C116.757 160.784 117.729 162.463 118.928 163.153C119.32 163.378 119.682 163.458 119.999 163.432C119.675 164.156 118.899 164.353 117.991 163.83C116.792 163.14 115.82 161.461 115.82 160.081C115.82 159.153 116.267 158.607 116.921 158.554Z" fill="#A9EBFF"/>
<path d="M144.888 130.28L182.867 108.42V101.57L144.888 123.43V130.28Z" fill="url(#paint28_linear_112_1212)"/>
<path d="M144.888 123.43L182.868 101.57L144.89 79.7112L106.91 101.571L144.888 123.43Z" fill="url(#paint29_linear_112_1212)"/>
<path d="M144.888 122.589L182.137 101.149L182.867 101.57L144.888 123.429L106.91 101.571L107.64 101.15L144.888 122.589Z" fill="#A9EBFF"/>
<path d="M106.909 108.42L144.888 130.28V123.43L106.909 101.57V108.42Z" fill="url(#paint30_linear_112_1212)"/>
<path opacity="0.5" d="M182.867 136.35V146.557L144.888 168.417L144.889 158.21L182.867 136.35Z" fill="white"/>
<path opacity="0.5" d="M106.909 136.35L106.91 146.558L144.887 168.417L144.888 158.21L106.909 136.35Z" fill="white"/>
<path d="M155.81 173.964L171.945 164.677C173.374 163.855 174.532 161.649 174.532 159.751C174.532 157.852 173.374 156.98 171.945 157.801L155.81 167.088C154.381 167.911 153.224 170.116 153.224 172.015C153.224 173.913 154.381 174.786 155.81 173.964Z" fill="white"/>
<path d="M169.193 162.929C170.622 162.106 171.78 159.901 171.78 158.002C171.78 157.967 171.777 157.934 171.776 157.898L171.945 157.801C173.374 156.979 174.532 157.852 174.532 159.751C174.532 161.649 173.374 163.855 171.945 164.677L155.81 173.964C154.408 174.771 153.27 173.943 153.227 172.118L169.193 162.929Z" fill="url(#paint31_linear_112_1212)"/>
<path d="M97.8335 238.209L135.597 216.475L97.8352 194.74L60.0718 216.475L97.8335 238.209Z" fill="#053054"/>
<path d="M97.8335 213.742L135.813 191.882V175.091L97.8335 196.952V213.742Z" fill="url(#paint32_linear_112_1212)"/>
<path d="M97.8334 196.951L135.813 175.091L97.8351 153.232L59.8555 175.092L97.8334 196.951Z" fill="url(#paint33_linear_112_1212)"/>
<path d="M97.8331 191.734L126.748 175.091L97.834 158.45L68.9189 175.092L97.8331 191.734Z" fill="white"/>
<path d="M59.8545 191.882L97.8342 213.742V196.952L59.8545 175.091V191.882Z" fill="url(#paint34_linear_112_1212)"/>
<path d="M97.8335 186.744L135.813 164.884V148.094L97.8335 169.953V186.744Z" fill="url(#paint35_linear_112_1212)"/>
<path d="M97.8334 169.953L135.813 148.094L97.8351 126.235L59.8555 148.095L97.8334 169.953Z" fill="url(#paint36_linear_112_1212)"/>
<path d="M97.8334 169.113L135.083 147.673L135.813 148.094L97.8334 169.953L59.8555 148.094L60.5857 147.674L97.8334 169.113Z" fill="#A9EBFF"/>
<path d="M97.8334 196.11L135.083 174.67L135.813 175.091L97.8334 196.951L59.8555 175.092L60.5857 174.671L97.8334 196.11Z" fill="#A9EBFF"/>
<path d="M97.8344 134.596L124.449 149.916L97.8335 165.235L71.2188 149.916L97.8344 134.596Z" fill="white"/>
<path d="M97.834 134.596L71.2183 149.916L68.0532 148.094L97.834 130.954L127.614 148.094L124.45 149.915L97.834 134.596Z" fill="#2573BA"/>
<path d="M59.8545 164.884L97.8342 186.744V169.953L59.8545 148.094V164.884Z" fill="url(#paint37_linear_112_1212)"/>
<path d="M84.5806 170.721C84.5806 172.1 85.5522 173.779 86.7514 174.469C87.9506 175.159 88.9223 174.6 88.9223 173.22C88.9223 171.84 87.9506 170.161 86.7514 169.471C85.5522 168.781 84.5806 169.341 84.5806 170.721Z" fill="white"/>
<path d="M76.6733 166.17C76.6733 167.55 77.645 169.228 78.8442 169.918C80.0434 170.608 81.0151 170.049 81.0151 168.669C81.0151 167.289 80.0434 165.611 78.8442 164.921C77.645 164.23 76.6733 164.789 76.6733 166.17Z" fill="white"/>
<path d="M68.7661 161.619C68.7661 162.999 69.7378 164.677 70.937 165.367C72.1362 166.057 73.1078 165.498 73.1078 164.118C73.1078 162.738 72.1362 161.06 70.937 160.37C69.7387 159.679 68.7661 160.238 68.7661 161.619Z" fill="white"/>
<path d="M85.6808 169.192C85.5766 169.424 85.5175 169.708 85.5175 170.043C85.5175 171.423 86.4892 173.101 87.6884 173.791C88.08 174.016 88.4421 174.096 88.7591 174.07C88.4352 174.794 87.6588 174.991 86.7514 174.468C85.5522 173.778 84.5806 172.1 84.5806 170.72C84.5806 169.791 85.026 169.246 85.6808 169.192Z" fill="#A9EBFF"/>
<path d="M77.7735 164.641C77.6702 164.873 77.6103 165.157 77.6103 165.492C77.6103 166.872 78.5819 168.55 79.7811 169.24C80.1728 169.465 80.5349 169.545 80.8518 169.519C80.5279 170.244 79.7516 170.44 78.8442 169.917C77.645 169.227 76.6733 167.549 76.6733 166.169C76.6733 165.24 77.1197 164.696 77.7735 164.641Z" fill="#A9EBFF"/>
<path d="M69.8663 160.09C69.763 160.322 69.7031 160.606 69.7031 160.941C69.7031 162.321 70.6747 164 71.8739 164.689C72.2656 164.915 72.6277 164.994 72.9446 164.968C72.6207 165.693 71.8453 165.889 70.937 165.366C69.7378 164.676 68.7661 162.998 68.7661 161.618C68.7661 160.689 69.2124 160.144 69.8663 160.09Z" fill="#A9EBFF"/>
<path d="M84.5806 197.718C84.5806 199.098 85.5522 200.776 86.7514 201.466C87.9506 202.156 88.9223 201.597 88.9223 200.217C88.9223 198.837 87.9506 197.159 86.7514 196.469C85.5522 195.779 84.5806 196.338 84.5806 197.718Z" fill="white"/>
<path d="M76.6733 193.167C76.6733 194.547 77.645 196.225 78.8442 196.915C80.0434 197.605 81.0151 197.046 81.0151 195.666C81.0151 194.286 80.0434 192.608 78.8442 191.918C77.645 191.228 76.6733 191.787 76.6733 193.167Z" fill="white"/>
<path d="M68.7661 188.616C68.7661 189.996 69.7378 191.674 70.937 192.364C72.1362 193.054 73.1078 192.495 73.1078 191.115C73.1078 189.735 72.1362 188.057 70.937 187.367C69.7387 186.676 68.7661 187.236 68.7661 188.616Z" fill="white"/>
<path d="M85.6808 196.19C85.5766 196.422 85.5175 196.706 85.5175 197.041C85.5175 198.421 86.4892 200.099 87.6884 200.789C88.08 201.014 88.4421 201.094 88.7591 201.068C88.4352 201.793 87.6588 201.989 86.7514 201.466C85.5522 200.776 84.5806 199.098 84.5806 197.718C84.5806 196.789 85.026 196.244 85.6808 196.19Z" fill="#A9EBFF"/>
<path d="M77.7735 191.639C77.6702 191.871 77.6103 192.155 77.6103 192.49C77.6103 193.87 78.5819 195.548 79.7811 196.238C80.1728 196.463 80.5349 196.543 80.8518 196.517C80.5279 197.242 79.7516 197.438 78.8442 196.915C77.645 196.225 76.6733 194.547 76.6733 193.167C76.6733 192.237 77.1197 191.693 77.7735 191.639Z" fill="#A9EBFF"/>
<path d="M69.8663 187.088C69.763 187.32 69.7031 187.603 69.7031 187.938C69.7031 189.318 70.6747 190.997 71.8739 191.687C72.2656 191.912 72.6277 191.991 72.9446 191.966C72.6207 192.69 71.8453 192.887 70.937 192.364C69.7378 191.674 68.7661 189.995 68.7661 188.615C68.7661 187.687 69.2124 187.142 69.8663 187.088Z" fill="#A9EBFF"/>
<path d="M97.8335 158.813L135.813 136.954V130.105L97.8335 151.964V158.813Z" fill="url(#paint38_linear_112_1212)"/>
<path d="M97.8334 151.963L135.813 130.104L97.8351 108.245L59.8555 130.105L97.8334 151.963Z" fill="url(#paint39_linear_112_1212)"/>
<path d="M97.8334 151.123L135.083 129.683L135.813 130.104L97.8334 151.963L59.8555 130.105L60.5857 129.684L97.8334 151.123Z" fill="#A9EBFF"/>
<path d="M59.8545 136.954L97.8342 158.813V151.964L59.8545 130.105V136.954Z" fill="url(#paint40_linear_112_1212)"/>
<path opacity="0.5" d="M135.813 164.884V175.091L97.8335 196.951L97.8344 186.744L135.813 164.884Z" fill="white"/>
<path opacity="0.5" d="M59.8545 164.884L59.8554 175.092L97.8333 196.951L97.8342 186.744L59.8545 164.884Z" fill="white"/>
<path d="M108.755 202.498L124.891 193.211C126.319 192.389 127.478 190.183 127.478 188.285C127.478 186.386 126.319 185.514 124.891 186.335L108.755 195.622C107.327 196.444 106.168 198.65 106.168 200.548C106.169 202.448 107.327 203.32 108.755 202.498Z" fill="white"/>
<path d="M122.139 191.462C123.568 190.64 124.726 188.434 124.726 186.536C124.726 186.501 124.722 186.468 124.722 186.432L124.891 186.335C126.319 185.513 127.478 186.385 127.478 188.285C127.478 190.183 126.319 192.389 124.891 193.211L108.755 202.498C107.354 203.305 106.215 202.477 106.173 200.652L122.139 191.462Z" fill="url(#paint41_linear_112_1212)"/>
<g opacity="0.3">
<path d="M363.824 352.864C363.627 353.109 363.269 353.148 363.024 352.951C362.548 352.57 362.049 352.203 361.539 351.861C361.281 351.688 361.21 351.341 361.378 351.081C361.38 351.078 361.382 351.075 361.384 351.072C361.559 350.811 361.912 350.742 362.173 350.917C362.709 351.276 363.235 351.663 363.736 352.065C363.965 352.248 364.015 352.574 363.859 352.815C363.848 352.832 363.837 352.848 363.824 352.864ZM358.945 350.368C358.394 350.099 357.826 349.851 357.257 349.63C356.964 349.517 356.818 349.188 356.932 348.895C357.047 348.602 357.375 348.457 357.668 348.57C358.267 348.802 358.864 349.063 359.444 349.346C359.726 349.483 359.843 349.824 359.706 350.106C359.696 350.127 359.685 350.146 359.672 350.165C359.519 350.404 359.207 350.495 358.945 350.368ZM354.398 348.748C353.803 348.609 353.194 348.494 352.589 348.406C352.278 348.361 352.062 348.073 352.107 347.762C352.153 347.451 352.441 347.236 352.752 347.281C353.389 347.373 354.031 347.494 354.658 347.641C354.963 347.712 355.153 348.018 355.082 348.324C355.067 348.389 355.041 348.449 355.006 348.502C354.88 348.699 354.639 348.804 354.398 348.748ZM349.604 348.185C348.991 348.182 348.372 348.206 347.762 348.256C347.449 348.281 347.174 348.048 347.149 347.735C347.124 347.423 347.357 347.148 347.67 347.123C348.312 347.07 348.964 347.045 349.608 347.048C349.922 347.049 350.176 347.305 350.175 347.619C350.174 347.731 350.141 347.836 350.085 347.924C349.983 348.082 349.805 348.186 349.604 348.185ZM344.803 348.704C344.207 348.837 343.608 348.998 343.023 349.181C342.723 349.275 342.404 349.108 342.31 348.809C342.215 348.509 342.382 348.19 342.682 348.096C343.297 347.903 343.928 347.734 344.555 347.594C344.862 347.526 345.166 347.719 345.234 348.026C345.269 348.18 345.237 348.334 345.157 348.457C345.079 348.578 344.955 348.67 344.803 348.704ZM340.237 350.272C339.684 350.534 339.136 350.823 338.607 351.131C338.335 351.289 337.987 351.197 337.829 350.926C337.671 350.654 337.762 350.306 338.034 350.148C338.59 349.824 339.168 349.52 339.75 349.244C340.033 349.11 340.373 349.231 340.507 349.515C340.595 349.699 340.574 349.907 340.471 350.066C340.416 350.153 340.336 350.225 340.237 350.272ZM327.489 367.108C327.179 367.062 326.963 366.773 327.009 366.463C327.102 365.826 327.225 365.185 327.373 364.557C327.445 364.252 327.751 364.062 328.057 364.135C328.363 364.207 328.552 364.513 328.48 364.818C328.339 365.414 328.223 366.023 328.135 366.628C328.123 366.71 328.093 366.787 328.05 366.853C327.934 367.034 327.717 367.141 327.489 367.108ZM336.134 352.811C335.654 353.189 335.184 353.593 334.738 354.011C334.508 354.225 334.148 354.214 333.934 353.984C333.719 353.755 333.732 353.396 333.96 353.181C334.43 352.741 334.925 352.316 335.431 351.918C335.678 351.724 336.035 351.766 336.23 352.013C336.384 352.209 336.389 352.474 336.261 352.672C336.228 352.724 336.185 352.771 336.134 352.811ZM328.632 362.286C328.34 362.172 328.195 361.842 328.309 361.549C328.542 360.95 328.805 360.353 329.089 359.774C329.226 359.492 329.568 359.376 329.85 359.514C330.132 359.653 330.248 359.993 330.11 360.275C329.84 360.825 329.591 361.393 329.369 361.962C329.355 361.999 329.337 362.033 329.317 362.064C329.173 362.287 328.889 362.385 328.632 362.286ZM332.703 356.203C332.32 356.678 331.952 357.177 331.609 357.684C331.434 357.945 331.081 358.014 330.82 357.838C330.563 357.665 330.492 357.319 330.659 357.059C330.662 357.056 330.664 357.052 330.666 357.049C331.026 356.515 331.414 355.99 331.817 355.489C332.014 355.245 332.372 355.206 332.617 355.403C332.846 355.587 332.894 355.912 332.739 356.153C332.728 356.17 332.716 356.187 332.703 356.203Z" fill="#59BDEF"/>
<path d="M327.832 370.84C327.892 370.746 327.926 370.633 327.921 370.512C327.911 370.219 327.906 369.921 327.908 369.626C327.909 369.312 327.656 369.056 327.342 369.054C327.028 369.053 326.771 369.306 326.77 369.62C326.769 369.931 326.774 370.244 326.785 370.553C326.796 370.867 327.059 371.112 327.373 371.101C327.567 371.094 327.734 370.991 327.832 370.84Z" fill="#E23739"/>
</g>
<g opacity="0.3">
<path d="M335.169 386.546C335.318 386.315 335.281 386.004 335.07 385.815C334.852 385.619 334.634 385.416 334.423 385.21C334.197 384.991 333.837 384.996 333.618 385.221C333.398 385.447 333.404 385.806 333.629 386.025C333.851 386.242 334.081 386.456 334.311 386.662C334.545 386.872 334.904 386.852 335.114 386.619C335.135 386.596 335.153 386.571 335.169 386.546Z" fill="#E23739"/>
<path d="M367.955 382.999C367.773 383.254 367.417 383.313 367.162 383.13C366.906 382.948 366.848 382.593 367.03 382.337C367.378 381.851 367.711 381.342 368.023 380.82C368.182 380.551 368.533 380.462 368.803 380.623C369.073 380.784 369.161 381.133 369 381.403C368.865 381.629 368.726 381.853 368.584 382.073C368.382 382.386 368.171 382.698 367.955 382.999ZM369.659 378.941C369.37 378.818 369.235 378.484 369.358 378.195C369.595 377.641 369.81 377.07 369.999 376.499C370.096 376.201 370.419 376.039 370.717 376.138C371.015 376.236 371.177 376.557 371.079 376.856C370.88 377.457 370.654 378.057 370.405 378.641C370.392 378.671 370.377 378.7 370.36 378.726C370.212 378.955 369.918 379.051 369.659 378.941ZM365.984 385.389C365.549 385.849 365.088 386.296 364.614 386.718C364.38 386.927 364.02 386.906 363.811 386.672C363.602 386.438 363.623 386.078 363.857 385.869C364.307 385.468 364.744 385.044 365.157 384.607C365.374 384.379 365.733 384.37 365.962 384.586C366.163 384.777 366.194 385.08 366.049 385.306C366.03 385.335 366.009 385.363 365.984 385.389ZM371.184 374.309C370.875 374.253 370.67 373.956 370.727 373.648C370.836 373.055 370.92 372.452 370.978 371.853C371.008 371.54 371.286 371.312 371.599 371.342C371.912 371.372 372.141 371.65 372.11 371.963C372.049 372.593 371.96 373.229 371.846 373.852C371.832 373.928 371.804 373.997 371.765 374.058C371.644 374.246 371.418 374.352 371.184 374.309ZM362.166 388.615C361.641 388.967 361.093 389.302 360.538 389.609C360.264 389.762 359.917 389.663 359.765 389.388C359.612 389.114 359.712 388.768 359.986 388.615C360.513 388.323 361.034 388.005 361.532 387.67C361.793 387.495 362.147 387.565 362.322 387.826C362.452 388.02 362.447 388.266 362.327 388.451C362.287 388.514 362.233 388.57 362.166 388.615ZM357.733 390.925C357.142 391.154 356.535 391.362 355.928 391.541C355.626 391.63 355.31 391.458 355.221 391.157C355.132 390.855 355.304 390.539 355.606 390.45C356.182 390.28 356.76 390.083 357.321 389.865C357.614 389.751 357.944 389.896 358.058 390.189C358.126 390.365 358.101 390.555 358.005 390.703C357.943 390.801 357.85 390.88 357.733 390.925ZM352.902 392.215C352.275 392.31 351.637 392.38 351.005 392.423C350.692 392.444 350.421 392.207 350.399 391.894C350.378 391.58 350.615 391.309 350.928 391.288C351.528 391.248 352.135 391.181 352.731 391.09C353.041 391.043 353.332 391.256 353.379 391.567C353.4 391.71 353.367 391.848 353.295 391.96C353.21 392.093 353.07 392.189 352.902 392.215ZM347.905 392.42C347.272 392.376 346.633 392.305 346.007 392.208C345.697 392.16 345.484 391.869 345.532 391.559C345.58 391.249 345.871 391.036 346.182 391.084C346.776 391.176 347.382 391.244 347.983 391.286C348.297 391.308 348.533 391.579 348.511 391.892C348.504 391.991 348.473 392.082 348.423 392.16C348.314 392.329 348.119 392.435 347.905 392.42ZM342.981 391.523C342.375 391.341 341.769 391.131 341.179 390.898C340.887 390.783 340.743 390.452 340.859 390.16C340.974 389.869 341.304 389.725 341.596 389.84C342.157 390.061 342.733 390.261 343.309 390.433C343.609 390.524 343.78 390.841 343.69 391.141C343.674 391.194 343.652 391.242 343.623 391.286C343.489 391.494 343.23 391.597 342.981 391.523ZM338.38 389.568C337.973 389.34 337.569 389.097 337.177 388.845C337.035 388.754 336.895 388.661 336.756 388.568C336.496 388.392 336.42 388.038 336.603 387.778C336.779 387.518 337.132 387.449 337.393 387.625C337.525 387.714 337.658 387.802 337.793 387.889C338.165 388.128 338.55 388.36 338.936 388.576C339.21 388.73 339.308 389.077 339.154 389.35C339.149 389.361 339.143 389.371 339.136 389.381C338.975 389.631 338.644 389.716 338.38 389.568Z" fill="#E23739"/>
<path d="M372.107 369.181C372.168 369.086 372.201 368.972 372.196 368.851C372.184 368.543 372.165 368.23 372.139 367.92C372.114 367.607 371.839 367.374 371.526 367.399C371.213 367.425 370.98 367.699 371.005 368.013C371.03 368.307 371.048 368.605 371.06 368.897C371.072 369.211 371.337 369.455 371.651 369.442C371.844 369.434 372.01 369.332 372.107 369.181Z" fill="#E23739"/>
</g>
<path d="M364.943 362.567C364.908 362.459 364.808 362.385 364.695 362.383L361.46 362.326C360.677 361.034 359.683 359.858 358.494 358.855L358.942 355.654C358.958 355.541 358.901 355.432 358.8 355.38L355.341 353.62C355.24 353.568 355.117 353.587 355.036 353.665L352.709 355.91C351.199 355.539 349.662 355.427 348.157 355.555L346.208 352.973C346.139 352.883 346.021 352.845 345.913 352.88L342.223 354.08C342.115 354.115 342.041 354.215 342.039 354.328L341.982 357.562C340.689 358.344 339.512 359.338 338.509 360.526L335.307 360.078C335.194 360.063 335.084 360.12 335.033 360.221L333.272 363.678C333.22 363.779 333.239 363.902 333.317 363.983L335.563 366.309C335.192 367.818 335.08 369.355 335.208 370.86L332.625 372.808C332.534 372.876 332.497 372.994 332.532 373.102L333.732 376.792C333.767 376.899 333.867 376.973 333.98 376.975L337.216 377.032C337.998 378.324 338.993 379.501 340.181 380.503L339.733 383.705C339.717 383.817 339.775 383.927 339.876 383.978L343.334 385.739C343.435 385.79 343.558 385.772 343.639 385.693L345.966 383.448C347.476 383.819 349.013 383.931 350.519 383.804L352.468 386.385C352.536 386.476 352.654 386.513 352.762 386.478L356.453 385.278C356.561 385.243 356.634 385.144 356.636 385.03L356.694 381.796C357.986 381.014 359.163 380.02 360.166 378.832L363.369 379.28C363.481 379.296 363.591 379.238 363.642 379.137L365.403 375.68C365.455 375.579 365.437 375.457 365.358 375.375L363.112 373.05C363.483 371.54 363.595 370.004 363.468 368.499L366.051 366.551C366.141 366.482 366.178 366.364 366.143 366.256L364.943 362.567Z" fill="#59BDEF"/>
<path opacity="0.56" d="M352.275 372.246C350.859 373.865 348.39 374.031 346.77 372.615C345.985 371.93 345.515 370.98 345.445 369.941C345.375 368.902 345.714 367.897 346.4 367.113C347.816 365.494 350.285 365.328 351.905 366.743C353.378 368.031 353.649 370.19 352.619 371.788C352.517 371.946 352.402 372.1 352.275 372.246ZM346.353 369.88C346.407 370.677 346.767 371.405 347.369 371.931C348.611 373.015 350.504 372.888 351.59 371.647C352.676 370.406 352.548 368.513 351.306 367.428C350.064 366.343 348.171 366.47 347.085 367.712C346.987 367.824 346.898 367.942 346.819 368.066C346.473 368.602 346.31 369.232 346.353 369.88Z" fill="white"/>
<path opacity="0.56" d="M357.314 374.904C357.491 374.629 357.655 374.344 357.806 374.049C357.853 373.957 357.899 373.863 357.943 373.769C358.161 373.304 358.342 372.822 358.483 372.331C358.485 372.324 358.487 372.318 358.489 372.311C358.494 372.292 358.5 372.273 358.505 372.254C358.515 372.217 358.525 372.18 358.535 372.143C358.561 372.045 358.519 371.945 358.438 371.893C358.419 371.881 358.397 371.871 358.373 371.865C358.252 371.832 358.128 371.905 358.095 372.026C357.93 372.651 357.696 373.262 357.4 373.843C355.931 376.727 353.129 378.498 350.123 378.788C348.451 378.95 346.716 378.654 345.111 377.837C344.83 377.694 344.557 377.538 344.296 377.369C342.533 376.235 341.225 374.543 340.568 372.523C339.813 370.203 340.007 367.728 341.115 365.554C343.403 361.064 348.914 359.274 353.404 361.559C353.681 361.7 353.949 361.854 354.209 362.021C355.333 362.745 356.287 363.707 356.997 364.841C357.016 364.87 357.04 364.894 357.067 364.911C357.139 364.957 357.234 364.961 357.311 364.913C357.417 364.846 357.45 364.706 357.383 364.599C356.637 363.409 355.636 362.399 354.455 361.639C354.183 361.464 353.901 361.302 353.61 361.154C348.897 358.754 343.109 360.637 340.709 365.347C339.547 367.629 339.343 370.228 340.135 372.664C340.825 374.784 342.198 376.56 344.049 377.751C344.324 377.928 344.609 378.092 344.904 378.243C347.188 379.405 349.787 379.609 352.224 378.817C354.346 378.127 356.123 376.754 357.314 374.904Z" fill="white"/>
<g opacity="0.3">
<path d="M386.969 344.611C387.052 344.483 387.044 344.312 386.939 344.191C386.744 343.966 386.539 343.743 386.331 343.529C386.196 343.391 385.973 343.388 385.834 343.523C385.695 343.659 385.693 343.881 385.828 344.02C386.027 344.224 386.222 344.436 386.408 344.651C386.535 344.798 386.757 344.814 386.904 344.687C386.93 344.664 386.951 344.639 386.969 344.611Z" fill="#59BDEF"/>
<path d="M385 342.768C384.879 342.919 384.658 342.944 384.506 342.823C384.123 342.518 383.721 342.229 383.309 341.964C383.222 341.908 383.134 341.853 383.046 341.799C382.88 341.697 382.829 341.481 382.93 341.316C383.033 341.163 383.248 341.099 383.414 341.2C383.506 341.257 383.598 341.315 383.689 341.373C384.121 341.651 384.543 341.954 384.944 342.274C385.087 342.388 385.117 342.589 385.021 342.739C385.014 342.749 385.007 342.758 385 342.768ZM381.471 340.959C380.931 340.712 380.371 340.496 379.807 340.318C379.622 340.26 379.519 340.063 379.578 339.877C379.636 339.694 379.834 339.59 380.019 339.648C380.61 339.835 381.198 340.061 381.764 340.32C381.94 340.401 382.018 340.609 381.937 340.786C381.93 340.801 381.922 340.816 381.913 340.83C381.82 340.975 381.632 341.033 381.471 340.959ZM378.075 339.888C377.492 339.781 376.896 339.71 376.304 339.675C376.11 339.664 375.962 339.498 375.973 339.305C375.985 339.111 376.15 338.963 376.344 338.974C376.965 339.01 377.591 339.085 378.202 339.197C378.393 339.232 378.519 339.415 378.484 339.606C378.476 339.652 378.458 339.695 378.434 339.732C378.359 339.848 378.22 339.914 378.075 339.888ZM374.52 339.684C373.927 339.723 373.332 339.799 372.751 339.911C372.56 339.947 372.376 339.823 372.339 339.632C372.303 339.442 372.427 339.258 372.618 339.221C373.228 339.104 373.852 339.024 374.473 338.983C374.667 338.97 374.834 339.116 374.847 339.31C374.852 339.388 374.831 339.462 374.792 339.523C374.734 339.613 374.635 339.676 374.52 339.684ZM371.022 340.353C370.457 340.535 369.898 340.754 369.361 341.003C369.185 341.085 368.976 341.008 368.895 340.832C368.813 340.656 368.889 340.447 369.065 340.366C369.629 340.105 370.214 339.875 370.806 339.684C370.991 339.625 371.189 339.726 371.248 339.911C371.282 340.015 371.264 340.124 371.209 340.209C371.167 340.275 371.102 340.327 371.022 340.353ZM367.793 341.851C367.29 342.165 366.802 342.512 366.342 342.885C366.192 343.008 365.97 342.985 365.848 342.834C365.726 342.683 365.749 342.463 365.899 342.34C366.381 341.949 366.893 341.584 367.421 341.255C367.586 341.153 367.802 341.203 367.905 341.367C367.979 341.486 367.973 341.633 367.902 341.743C367.875 341.785 367.838 341.823 367.793 341.851ZM365.029 344.092C364.62 344.518 364.232 344.975 363.876 345.452C363.76 345.607 363.54 345.639 363.384 345.523C363.229 345.407 363.199 345.189 363.313 345.031C363.686 344.532 364.093 344.052 364.522 343.606C364.657 343.466 364.879 343.461 365.019 343.596C365.142 343.714 365.161 343.9 365.071 344.039C365.059 344.057 365.045 344.075 365.029 344.092ZM361.651 348.732C361.472 348.658 361.388 348.452 361.462 348.273C361.67 347.778 361.908 347.285 362.169 346.81C362.208 346.738 362.248 346.667 362.289 346.595C362.38 346.425 362.6 346.369 362.769 346.465C362.937 346.562 362.995 346.776 362.899 346.945C362.861 347.011 362.823 347.079 362.785 347.148C362.535 347.602 362.308 348.072 362.111 348.544C362.102 348.563 362.093 348.582 362.082 348.599C361.991 348.74 361.81 348.799 361.651 348.732Z" fill="#59BDEF"/>
</g>
<g opacity="0.3">
<path d="M388.107 362.506C387.769 363.016 387.397 363.51 387.001 363.974C386.875 364.122 386.653 364.14 386.506 364.014C386.358 363.888 386.343 363.666 386.466 363.519C386.844 363.076 387.199 362.605 387.521 362.118C387.628 361.956 387.846 361.912 388.008 362.019C388.169 362.125 388.214 362.341 388.11 362.502C388.109 362.503 388.108 362.504 388.107 362.506ZM388.557 361.07C388.384 360.983 388.314 360.772 388.401 360.599C388.663 360.077 388.895 359.535 389.093 358.986C389.158 358.805 389.359 358.709 389.542 358.775C389.725 358.84 389.819 359.041 389.754 359.224C389.547 359.799 389.303 360.367 389.029 360.914C389.023 360.925 389.017 360.936 389.01 360.947C388.914 361.096 388.72 361.151 388.557 361.07ZM385.723 365.299C385.272 365.712 384.791 366.102 384.295 366.457C384.137 366.57 383.917 366.533 383.804 366.375C383.691 366.218 383.728 365.999 383.886 365.885C384.359 365.547 384.818 365.175 385.249 364.781C385.392 364.65 385.614 364.66 385.745 364.802C385.855 364.923 385.866 365.099 385.782 365.23C385.766 365.254 385.746 365.278 385.723 365.299ZM389.849 357.722C389.659 357.679 389.541 357.491 389.583 357.302C389.712 356.733 389.807 356.151 389.865 355.571C389.884 355.378 390.057 355.237 390.249 355.256C390.442 355.276 390.583 355.448 390.564 355.641C390.503 356.249 390.404 356.86 390.269 357.457C390.259 357.498 390.243 357.536 390.221 357.57C390.144 357.69 389.996 357.755 389.849 357.722ZM382.736 367.432C382.2 367.724 381.639 367.987 381.071 368.213C380.89 368.284 380.686 368.196 380.615 368.016C380.543 367.835 380.631 367.631 380.812 367.56C381.354 367.345 381.888 367.094 382.4 366.815C382.57 366.722 382.784 366.785 382.876 366.956C382.94 367.072 382.931 367.21 382.863 367.314C382.832 367.362 382.79 367.403 382.736 367.432ZM379.324 368.787C378.731 368.943 378.124 369.064 377.519 369.147C377.327 369.173 377.15 369.039 377.124 368.847C377.097 368.655 377.231 368.478 377.424 368.451C378.001 368.372 378.58 368.256 379.145 368.108C379.333 368.059 379.525 368.171 379.574 368.358C379.6 368.457 379.581 368.558 379.53 368.638C379.484 368.709 379.412 368.764 379.324 368.787ZM375.684 369.287C375.072 369.296 374.453 369.268 373.846 369.203C373.653 369.182 373.513 369.009 373.534 368.817C373.554 368.624 373.728 368.484 373.92 368.505C374.499 368.567 375.089 368.593 375.673 368.584C375.867 368.581 376.027 368.736 376.03 368.93C376.031 369.002 376.011 369.069 375.974 369.125C375.913 369.221 375.806 369.285 375.684 369.287Z" fill="#59BDEF"/>
<path d="M390.58 353.984C390.617 353.927 390.637 353.859 390.636 353.786C390.629 353.486 390.613 353.184 390.589 352.889C390.573 352.696 390.403 352.552 390.21 352.568C390.017 352.584 389.873 352.753 389.888 352.947C389.912 353.228 389.927 353.515 389.933 353.802C389.938 353.996 390.099 354.15 390.293 354.145C390.414 354.143 390.519 354.079 390.58 353.984Z" fill="#59BDEF"/>
</g>
<path d="M385.803 349.305C385.779 349.233 385.712 349.183 385.637 349.182L383.472 349.144C382.948 348.279 382.283 347.492 381.488 346.821L381.787 344.679C381.798 344.604 381.759 344.53 381.692 344.496L379.377 343.318C379.31 343.284 379.228 343.296 379.173 343.348L377.616 344.851C376.606 344.602 375.578 344.528 374.57 344.613L373.266 342.885C373.22 342.825 373.141 342.8 373.069 342.823L370.599 343.626C370.527 343.649 370.478 343.716 370.476 343.792L370.438 345.956C369.573 346.479 368.785 347.145 368.114 347.939L365.971 347.64C365.896 347.629 365.823 347.668 365.788 347.735L364.61 350.049C364.575 350.116 364.587 350.198 364.64 350.253L366.143 351.809C365.895 352.819 365.82 353.847 365.905 354.854L364.177 356.158C364.116 356.203 364.091 356.282 364.115 356.355L364.918 358.823C364.941 358.896 365.008 358.945 365.084 358.946L367.249 358.984C367.772 359.849 368.438 360.636 369.233 361.307L368.933 363.449C368.923 363.524 368.961 363.598 369.029 363.632L371.343 364.81C371.411 364.845 371.493 364.833 371.547 364.78L373.104 363.278C374.114 363.526 375.143 363.601 376.15 363.516L377.455 365.243C377.5 365.304 377.579 365.329 377.652 365.305L380.121 364.502C380.194 364.479 380.243 364.412 380.244 364.336L380.282 362.172C381.147 361.649 381.935 360.984 382.606 360.189L384.749 360.488C384.824 360.499 384.898 360.461 384.932 360.393L386.111 358.08C386.145 358.012 386.133 357.93 386.08 357.875L384.578 356.319C384.826 355.309 384.901 354.281 384.815 353.274L386.544 351.97C386.604 351.925 386.629 351.846 386.606 351.774L385.803 349.305Z" fill="#59BDEF"/>
<path opacity="0.56" d="M377.361 355.812C376.894 356.347 376.246 356.667 375.538 356.715C374.83 356.762 374.146 356.531 373.611 356.064C372.508 355.101 372.396 353.422 373.359 352.316C374.324 351.213 376.006 351.1 377.109 352.064C377.643 352.531 377.964 353.178 378.011 353.886C378.05 354.461 377.905 355.021 377.598 355.498C377.527 355.607 377.448 355.712 377.361 355.812ZM374.073 355.535C374.467 355.879 374.97 356.049 375.491 356.014C376.012 355.979 376.488 355.743 376.832 355.35C377.175 354.957 377.345 354.454 377.31 353.933C377.275 353.412 377.039 352.936 376.646 352.593C375.835 351.884 374.598 351.967 373.888 352.778C373.824 352.851 373.767 352.928 373.715 353.007C373.2 353.808 373.335 354.891 374.073 355.535Z" fill="white"/>
<path opacity="0.56" d="M380.869 357.662C380.989 357.475 381.101 357.281 381.204 357.079C381.408 356.677 381.572 356.255 381.691 355.822C381.696 355.802 381.702 355.783 381.707 355.763C381.747 355.613 381.682 355.459 381.558 355.378C381.527 355.359 381.494 355.344 381.457 355.334C381.269 355.284 381.078 355.397 381.028 355.584C380.92 355.989 380.769 356.385 380.578 356.76L380.578 356.76C380.567 356.78 380.556 356.801 380.546 356.821C380.085 357.705 379.422 358.44 378.616 358.981C378.179 359.275 377.699 359.512 377.186 359.683C377.182 359.685 377.178 359.686 377.174 359.687C377.161 359.692 377.148 359.696 377.136 359.7C375.633 360.188 374.03 360.063 372.622 359.346C372.44 359.253 372.264 359.152 372.094 359.043C370.953 358.308 370.107 357.213 369.681 355.905C369.192 354.403 369.318 352.801 370.035 351.394C370.752 349.988 371.975 348.942 373.477 348.454C374.98 347.965 376.583 348.091 377.991 348.808C378.17 348.899 378.344 348.999 378.512 349.107C379.24 349.576 379.857 350.198 380.317 350.932C380.345 350.977 380.382 351.014 380.424 351.041C380.535 351.112 380.682 351.118 380.801 351.043C380.965 350.94 381.015 350.724 380.912 350.559C380.397 349.738 379.707 349.041 378.893 348.517C378.704 348.396 378.51 348.284 378.31 348.182C376.734 347.38 374.941 347.239 373.26 347.786C371.579 348.332 370.211 349.499 369.409 351.075C368.607 352.65 368.466 354.442 369.013 356.123C369.489 357.586 370.436 358.811 371.713 359.633C371.902 359.755 372.099 359.868 372.303 359.972C375.353 361.524 379.054 360.479 380.869 357.662Z" fill="white"/>
<path d="M473.919 440.337H444.025V339.004C444.025 337.773 445.024 336.774 446.256 336.774H471.688C472.92 336.774 473.919 337.773 473.919 339.004V440.337Z" fill="url(#paint42_linear_112_1212)"/>
<path d="M466.549 440.338H436.655V339.004C436.655 337.773 437.654 336.775 438.886 336.775H464.318C465.55 336.775 466.549 337.773 466.549 339.004V440.338Z" fill="url(#paint43_linear_112_1212)"/>
<path d="M438.799 351.815C438.647 351.815 438.524 351.692 438.524 351.541V345.175C438.524 341.803 440.431 339.059 442.774 339.059H449.348C449.499 339.059 449.622 339.182 449.622 339.334C449.622 339.485 449.499 339.608 449.348 339.608H442.774C440.734 339.608 439.073 342.106 439.073 345.175V351.541C439.073 351.692 438.951 351.815 438.799 351.815Z" fill="white"/>
<path d="M438.799 358.565C438.647 358.565 438.524 358.442 438.524 358.29V355.697C438.524 355.545 438.647 355.423 438.799 355.423C438.951 355.423 439.073 355.545 439.073 355.697V358.29C439.073 358.442 438.951 358.565 438.799 358.565Z" fill="white"/>
<path d="M429.54 439.957C429.54 439.957 431.212 434.781 437.579 432.18C443.486 429.767 457.793 424.545 462.195 419.667C462.39 419.451 462.74 419.745 462.652 420.051C461.7 423.335 458.731 431.238 451.166 436.491C441.411 443.266 429.54 439.957 429.54 439.957Z" fill="url(#paint44_linear_112_1212)"/>
<path opacity="0.45" d="M458.716 424.543C458.46 425.168 458.123 425.757 457.753 426.323C457.385 426.892 456.968 427.427 456.534 427.95C455.656 428.986 454.65 429.912 453.57 430.739C451.425 432.42 448.903 433.586 446.373 434.497C445.74 434.73 445.105 434.954 444.469 435.177C443.831 435.395 443.192 435.608 442.549 435.811C441.908 436.019 441.265 436.216 440.621 436.415L438.686 436.983C437.397 437.363 436.103 437.721 434.834 438.136C434.197 438.337 433.573 438.57 432.96 438.828C432.355 439.1 431.766 439.406 431.221 439.785L431.219 439.787C431.177 439.816 431.12 439.806 431.091 439.764C431.064 439.725 431.072 439.671 431.108 439.641C431.634 439.207 432.216 438.845 432.823 438.536C433.432 438.237 434.055 437.964 434.687 437.723L435.16 437.541L435.637 437.372C435.955 437.259 436.274 437.15 436.594 437.043C437.231 436.825 437.872 436.62 438.511 436.415C439.79 436.001 441.067 435.593 442.338 435.166C443.608 434.739 444.872 434.297 446.129 433.835C446.753 433.596 447.39 433.374 447.997 433.112L448.916 432.733C449.218 432.596 449.513 432.446 449.812 432.302C450.111 432.158 450.411 432.017 450.696 431.848L451.567 431.367C451.851 431.197 452.127 431.014 452.408 430.838C452.547 430.748 452.691 430.664 452.826 430.569L453.231 430.28C454.316 429.518 455.338 428.661 456.263 427.704C456.485 427.457 456.723 427.222 456.939 426.968C457.155 426.715 457.375 426.463 457.575 426.196C457.985 425.671 458.373 425.122 458.695 424.534C458.697 424.528 458.704 424.525 458.71 424.528C458.715 424.53 458.717 424.537 458.716 424.543Z" fill="white"/>
<path opacity="0.43" d="M465.446 394.349C465.377 394.491 465.309 394.602 465.242 394.725L465.034 395.082L464.612 395.791C464.328 396.261 464.036 396.727 463.744 397.193C463.157 398.123 462.559 399.046 461.952 399.963C460.735 401.794 459.468 403.593 458.174 405.371C456.883 407.152 455.541 408.897 454.163 410.612C452.784 412.326 451.38 414.021 449.92 415.669C447.008 418.97 443.913 422.115 440.608 425.029C438.94 426.468 437.234 427.864 435.45 429.159C433.657 430.439 431.809 431.644 429.881 432.708C429.837 432.732 429.781 432.716 429.757 432.672C429.733 432.629 429.747 432.575 429.789 432.55L429.79 432.549C431.666 431.412 433.477 430.176 435.224 428.854C436.975 427.538 438.648 426.12 440.282 424.662C441.915 423.202 443.49 421.677 445.029 420.118C446.568 418.557 448.041 416.934 449.506 415.303C452.422 412.028 455.161 408.598 457.805 405.098C459.123 403.345 460.406 401.565 461.657 399.762C462.285 398.862 462.904 397.956 463.511 397.043L464.412 395.666L464.855 394.973L465.073 394.625C465.142 394.509 465.219 394.386 465.275 394.284L465.285 394.266C465.309 394.222 465.364 394.206 465.408 394.23C465.45 394.253 465.467 394.306 465.446 394.349Z" fill="white"/>
<path d="M431.505 440.337H402.491V366.895C402.491 365.664 403.49 364.665 404.722 364.665H429.274C430.506 364.665 431.505 365.664 431.505 366.895L431.505 440.337Z" fill="url(#paint45_linear_112_1212)"/>
<path d="M424.135 440.337H395.121V366.895C395.121 365.664 396.12 364.665 397.352 364.665H421.904C423.136 364.665 424.135 365.664 424.135 366.895L424.135 440.337Z" fill="url(#paint46_linear_112_1212)"/>
<path d="M397.066 378.81C396.915 378.81 396.792 378.687 396.792 378.535V373.167C396.792 370.299 398.427 367.965 400.436 367.965H406.008C406.159 367.965 406.282 368.088 406.282 368.24C406.282 368.391 406.159 368.514 406.008 368.514H400.436C398.729 368.514 397.341 370.601 397.341 373.167V378.535C397.341 378.687 397.218 378.81 397.066 378.81Z" fill="white"/>
<path d="M397.066 384.502C396.915 384.502 396.792 384.379 396.792 384.228V382.041C396.792 381.889 396.915 381.766 397.066 381.766C397.218 381.766 397.341 381.889 397.341 382.041V384.228C397.341 384.379 397.218 384.502 397.066 384.502Z" fill="white"/>
<path d="M390.993 440.234H365.993V391.277C365.993 390.045 366.991 389.047 368.224 389.047H388.762C389.994 389.047 390.993 390.045 390.993 391.277L390.993 440.234Z" fill="url(#paint47_linear_112_1212)"/>
<path d="M383.623 440.233H358.623V391.277C358.623 390.045 359.621 389.047 360.853 389.047H381.392C382.624 389.047 383.623 390.045 383.623 391.277L383.623 440.233Z" fill="url(#paint48_linear_112_1212)"/>
<path d="M360.687 403.649C360.535 403.649 360.412 403.526 360.412 403.374V397.308C360.412 394.087 362.318 391.467 364.662 391.467H371.235C371.387 391.467 371.51 391.59 371.51 391.741C371.51 391.893 371.387 392.016 371.235 392.016H364.662C362.621 392.016 360.961 394.39 360.961 397.308V403.374C360.961 403.526 360.838 403.649 360.687 403.649Z" fill="white"/>
<path d="M360.687 410.081C360.535 410.081 360.412 409.958 360.412 409.806V407.335C360.412 407.183 360.535 407.06 360.687 407.06C360.838 407.06 360.961 407.183 360.961 407.335V409.806C360.961 409.958 360.838 410.081 360.687 410.081Z" fill="white"/>
<path d="M354.636 440.233H329.635V417.026C329.635 415.794 330.634 414.796 331.866 414.796H352.405C353.637 414.796 354.636 415.794 354.636 417.026L354.636 440.233Z" fill="url(#paint49_linear_112_1212)"/>
<path d="M347.266 440.234H322.265V417.026C322.265 415.794 323.264 414.796 324.496 414.796H345.035C346.267 414.796 347.266 415.794 347.266 417.026L347.266 440.234Z" fill="url(#paint50_linear_112_1212)"/>
<path d="M324.043 428.979C323.891 428.979 323.768 428.856 323.768 428.704V422.638C323.768 419.417 325.674 416.797 328.018 416.797H334.591C334.743 416.797 334.866 416.919 334.866 417.071C334.866 417.223 334.743 417.345 334.591 417.345H328.018C325.977 417.345 324.317 419.72 324.317 422.638V428.704C324.317 428.856 324.194 428.979 324.043 428.979Z" fill="white"/>
<path d="M324.043 435.411C323.891 435.411 323.768 435.288 323.768 435.136V432.665C323.768 432.513 323.891 432.391 324.043 432.391C324.194 432.391 324.317 432.513 324.317 432.665V435.136C324.317 435.288 324.194 435.411 324.043 435.411Z" fill="white"/>
<path d="M396.07 355.441L396.514 355.183C396.527 355.176 396.552 355.163 396.589 355.143C396.719 355.074 396.99 354.93 397.351 354.708C397.448 354.648 397.586 354.675 397.659 354.769C397.731 354.863 397.711 354.988 397.613 355.047C397.459 355.142 397.321 355.223 397.203 355.29C397.258 355.336 397.289 355.404 397.279 355.473C397.264 355.582 397.154 355.653 397.034 355.632C396.757 355.583 396.607 355.552 396.607 355.552L396.07 355.441ZM398.281 355.683C398.277 355.664 398.275 355.646 398.277 355.626C398.287 355.516 398.392 355.44 398.514 355.457C398.983 355.52 399.465 355.577 399.945 355.625C400.067 355.637 400.162 355.736 400.156 355.848C400.151 355.958 400.049 356.038 399.927 356.025C399.441 355.976 398.954 355.919 398.479 355.855C398.379 355.842 398.3 355.77 398.281 355.683ZM398.384 354.143C398.369 354.075 398.392 354.003 398.453 353.958C398.814 353.685 399.153 353.4 399.461 353.11C399.543 353.033 399.682 353.036 399.772 353.116C399.862 353.197 399.869 353.324 399.787 353.401C399.469 353.701 399.119 353.995 398.747 354.275C398.656 354.344 398.517 354.328 398.436 354.24C398.409 354.211 398.392 354.178 398.384 354.143ZM400.312 352.315C400.3 352.262 400.311 352.206 400.347 352.161C400.627 351.816 400.869 351.461 401.068 351.105C401.121 351.009 401.253 350.976 401.362 351.032C401.472 351.088 401.516 351.212 401.463 351.308C401.254 351.681 401 352.054 400.707 352.415C400.637 352.501 400.5 352.514 400.401 352.444C400.353 352.411 400.322 352.364 400.312 352.315ZM401.162 355.974C401.159 355.96 401.157 355.946 401.157 355.932C401.158 355.821 401.257 355.738 401.379 355.746C401.857 355.779 402.339 355.803 402.812 355.819C402.934 355.824 403.035 355.918 403.039 356.028C403.043 356.139 402.948 356.226 402.826 356.222C402.347 356.205 401.86 356.181 401.377 356.148C401.27 356.14 401.182 356.066 401.162 355.974ZM401.563 350.04C401.556 350.009 401.557 349.977 401.566 349.947C401.655 349.658 401.718 349.364 401.754 349.071C401.771 348.941 401.789 348.815 401.809 348.693C401.827 348.584 401.939 348.515 402.059 348.539C402.179 348.563 402.263 348.67 402.244 348.779C402.225 348.897 402.208 349.018 402.192 349.144C402.153 349.457 402.085 349.772 401.991 350.08C401.959 350.184 401.838 350.24 401.721 350.203C401.638 350.177 401.579 350.112 401.563 350.04ZM400.808 345.031L400.728 344.633C401.035 344.574 401.265 344.418 401.499 344.11C401.566 344.022 401.702 344.006 401.804 344.073C401.905 344.141 401.933 344.267 401.866 344.356C401.68 344.599 401.487 344.771 401.266 344.885C401.245 344.966 401.168 345.025 401.071 345.026L400.808 345.031ZM402.131 347.504C402.124 347.47 402.126 347.435 402.138 347.402C402.303 346.946 402.515 346.544 402.767 346.207C402.834 346.118 402.97 346.1 403.072 346.168C403.174 346.234 403.202 346.361 403.136 346.45C402.905 346.758 402.71 347.13 402.557 347.552C402.519 347.656 402.395 347.706 402.279 347.664C402.201 347.636 402.147 347.573 402.131 347.504ZM404.043 356.072C404.041 356.063 404.04 356.054 404.039 356.045C404.031 355.934 404.122 355.844 404.243 355.844C404.723 355.843 405.203 355.833 405.67 355.815C405.791 355.81 405.898 355.896 405.913 356.007C405.927 356.118 405.84 356.212 405.719 356.217C405.246 356.236 404.76 356.245 404.275 356.246C404.163 356.246 404.065 356.17 404.043 356.072ZM402.277 344.836C402.275 344.828 402.274 344.819 402.273 344.81C402.264 344.699 402.356 344.608 402.477 344.608C403.037 344.606 403.524 344.609 403.925 344.617C404.046 344.62 404.148 344.713 404.155 344.823C404.16 344.934 404.067 345.022 403.945 345.02C403.548 345.012 403.065 345.008 402.509 345.011C402.397 345.011 402.299 344.935 402.277 344.836ZM402.137 343.14C402.127 343.098 402.132 343.053 402.155 343.013C402.346 342.671 402.562 342.297 402.845 341.885C402.908 341.793 403.043 341.771 403.147 341.835C403.251 341.898 403.285 342.024 403.223 342.115C402.948 342.516 402.737 342.881 402.55 343.215C402.496 343.311 402.364 343.344 402.255 343.288C402.192 343.255 402.15 343.2 402.137 343.14ZM403.726 345.476C403.709 345.398 403.742 345.318 403.817 345.275C404.259 345.026 404.676 344.929 404.926 344.87C405.004 344.852 405.067 344.837 405.112 344.822C405.216 344.771 405.364 344.806 405.426 344.905C405.489 345.004 405.467 345.121 405.363 345.171C405.344 345.18 405.321 345.19 405.294 345.199C405.239 345.219 405.16 345.238 405.062 345.261C404.821 345.317 404.456 345.403 404.066 345.622C403.966 345.679 403.829 345.647 403.76 345.551C403.743 345.527 403.732 345.501 403.726 345.476ZM406.907 355.957C406.907 355.954 406.906 355.951 406.905 355.948C406.886 355.837 406.968 355.739 407.088 355.729C407.51 355.695 407.93 355.652 408.335 355.601L408.495 355.581C408.614 355.566 408.731 355.643 408.756 355.753C408.756 355.754 408.756 355.754 408.756 355.754C408.78 355.864 408.704 355.965 408.586 355.98L408.424 356.001C408.012 356.052 407.586 356.095 407.158 356.13C407.041 356.14 406.931 356.063 406.907 355.957ZM403.625 340.99C403.613 340.934 403.625 340.876 403.665 340.831C403.953 340.504 404.271 340.182 404.61 339.873C404.694 339.797 404.833 339.802 404.922 339.884C405.01 339.965 405.015 340.092 404.932 340.168C404.602 340.468 404.294 340.78 404.016 341.096C403.942 341.18 403.804 341.188 403.707 341.115C403.663 341.081 403.635 341.037 403.625 340.99ZM405.586 339.196C405.571 339.128 405.595 339.056 405.655 339.01C405.732 338.952 405.811 338.894 405.891 338.836C406.185 338.624 406.492 338.427 406.806 338.251C406.907 338.195 407.044 338.227 407.112 338.323C407.18 338.42 407.155 338.543 407.054 338.599C406.754 338.767 406.46 338.955 406.179 339.158C406.101 339.215 406.024 339.272 405.949 339.329C405.858 339.397 405.719 339.381 405.638 339.293C405.611 339.264 405.594 339.23 405.586 339.196ZM409.725 355.589C409.702 355.485 409.771 355.386 409.884 355.365C410.35 355.28 410.809 355.182 411.25 355.075C411.365 355.046 411.49 355.111 411.529 355.218C411.571 355.327 411.505 355.436 411.39 355.464C410.941 355.574 410.473 355.674 409.998 355.761C409.881 355.782 409.76 355.711 409.728 355.602C409.727 355.598 409.726 355.594 409.725 355.589ZM407.961 337.874C407.941 337.785 407.989 337.695 408.082 337.66C408.522 337.495 408.984 337.36 409.454 337.259C409.571 337.234 409.694 337.302 409.729 337.41C409.761 337.521 409.699 337.627 409.583 337.652C409.133 337.748 408.693 337.877 408.272 338.035C408.163 338.076 408.031 338.025 407.979 337.922C407.971 337.906 407.965 337.89 407.961 337.874ZM412.453 354.918C412.432 354.825 412.485 354.733 412.584 354.701C413.027 354.56 413.462 354.405 413.876 354.238C413.984 354.194 414.117 354.242 414.172 354.344C414.227 354.446 414.185 354.565 414.076 354.608C413.653 354.779 413.207 354.939 412.753 355.083C412.641 355.118 412.512 355.062 412.465 354.956C412.46 354.944 412.456 354.931 412.453 354.918ZM410.707 337.282C410.706 337.278 410.706 337.275 410.705 337.271C410.687 337.16 410.77 337.063 410.89 337.054C411.37 337.018 411.863 337.013 412.356 337.039C412.478 337.046 412.578 337.141 412.578 337.252C412.58 337.363 412.482 337.448 412.361 337.441C411.888 337.416 411.415 337.421 410.956 337.456C410.839 337.464 410.731 337.387 410.707 337.282ZM415.013 353.882C414.995 353.801 415.032 353.718 415.112 353.677C415.517 353.472 415.909 353.249 416.278 353.014C416.375 352.952 416.513 352.978 416.587 353.07C416.661 353.163 416.642 353.288 416.546 353.35C416.166 353.591 415.763 353.821 415.346 354.033C415.243 354.085 415.107 354.048 415.042 353.95C415.028 353.928 415.018 353.905 415.013 353.882ZM413.58 337.433C413.576 337.411 413.575 337.389 413.578 337.367C413.593 337.258 413.703 337.187 413.824 337.209C414.147 337.267 415.038 337.456 415.31 337.627L415.312 337.624L415.842 337.955C415.946 338.019 415.979 338.145 415.915 338.236C415.852 338.326 415.716 338.347 415.613 338.283L415.065 337.942C414.963 337.895 414.494 337.734 413.768 337.603C413.672 337.586 413.599 337.516 413.58 337.433ZM417.293 352.426C417.278 352.36 417.3 352.29 417.357 352.244C417.701 351.969 418.03 351.675 418.332 351.37C418.411 351.29 418.55 351.289 418.643 351.367C418.735 351.445 418.746 351.572 418.668 351.651C418.354 351.967 418.016 352.271 417.66 352.555C417.571 352.626 417.432 352.613 417.348 352.527C417.319 352.497 417.301 352.462 417.293 352.426ZM419.156 350.548C419.145 350.496 419.155 350.441 419.189 350.397C419.451 350.061 419.696 349.704 419.918 349.336C419.974 349.242 420.107 349.213 420.215 349.271C420.322 349.33 420.363 349.454 420.307 349.549C420.078 349.929 419.825 350.297 419.554 350.645C419.486 350.733 419.349 350.748 419.248 350.68C419.199 350.646 419.167 350.598 419.156 350.548ZM416.74 338.91C416.729 338.861 416.738 338.81 416.768 338.767C416.832 338.676 416.967 338.655 417.071 338.719L418.299 339.484C418.403 339.549 418.436 339.675 418.372 339.765C418.308 339.856 418.173 339.877 418.069 339.812L416.841 339.048C416.787 339.014 416.752 338.964 416.74 338.91ZM420.501 348.316C420.493 348.278 420.496 348.238 420.513 348.202C420.685 347.821 420.841 347.42 420.977 347.009C421.011 346.904 421.133 346.851 421.25 346.89C421.367 346.928 421.433 347.044 421.399 347.149C421.259 347.572 421.099 347.985 420.921 348.377C420.876 348.477 420.748 348.519 420.635 348.471C420.564 348.44 420.515 348.381 420.501 348.316ZM419.197 340.44C419.186 340.391 419.194 340.34 419.225 340.297C419.288 340.206 419.424 340.185 419.527 340.25L420.756 341.014C420.86 341.079 420.892 341.205 420.828 341.295C420.765 341.386 420.629 341.407 420.526 341.342L419.297 340.578C419.243 340.544 419.209 340.493 419.197 340.44ZM421.315 345.852C421.309 345.826 421.308 345.799 421.314 345.773C421.405 345.365 421.48 344.939 421.537 344.505C421.552 344.396 421.661 344.324 421.782 344.345C421.903 344.366 421.99 344.471 421.974 344.581C421.916 345.024 421.839 345.461 421.746 345.879C421.723 345.986 421.607 346.049 421.487 346.02C421.398 345.998 421.332 345.93 421.315 345.852ZM421.659 343.269C421.655 343.252 421.654 343.235 421.655 343.218C421.675 342.834 421.684 342.436 421.68 342.034C421.639 341.97 421.637 341.89 421.681 341.826C421.745 341.736 421.881 341.715 421.984 341.779L422.118 341.863L422.119 341.974C422.125 342.412 422.117 342.847 422.095 343.266C422.089 343.376 421.986 343.455 421.864 343.442C421.761 343.431 421.679 343.358 421.659 343.269Z" fill="white"/>
<path d="M417.723 339.738C417.723 339.738 411.484 338.103 409.992 342.09C408.501 346.076 408.106 350.505 406.126 351.294C406.126 351.294 418.608 352.351 419.502 341.111L417.723 339.738Z" fill="url(#paint51_linear_112_1212)"/>
<path d="M419.868 327.762C419.868 327.762 414.597 324.332 412.737 325.151C410.968 325.93 402.901 336.075 402.118 337.063C402.083 337.107 402.094 337.17 402.143 337.209C402.541 337.529 403.069 337.666 403.566 337.578C405.964 337.151 413.108 335.819 415.078 334.772C417.458 333.508 419.868 327.762 419.868 327.762Z" fill="url(#paint52_linear_112_1212)"/>
<path d="M405.673 333.954C405.665 333.919 405.673 333.882 405.697 333.853C405.742 333.798 410.271 328.319 412.326 326.036C412.692 325.63 413.301 325.475 413.878 325.643C414.99 325.967 416.637 326.518 418.168 327.307C418.24 327.343 418.269 327.424 418.234 327.487C418.198 327.55 418.112 327.571 418.04 327.534C416.453 326.716 414.708 326.156 413.809 325.894C413.342 325.758 412.85 325.883 412.554 326.212C410.502 328.491 405.977 333.966 405.931 334.021C405.885 334.077 405.795 334.085 405.73 334.038C405.699 334.016 405.68 333.986 405.673 333.954Z" fill="white"/>
<path d="M431.181 336.846C431.181 336.846 435.592 341.19 434.972 343.005C434.382 344.731 424.625 353.518 423.674 354.371C423.631 354.409 423.562 354.408 423.514 354.369C423.115 354.049 422.895 353.585 422.92 353.119C423.045 350.867 423.481 344.148 424.33 342.2C425.355 339.848 431.181 336.846 431.181 336.846Z" fill="url(#paint53_linear_112_1212)"/>
<path d="M426.371 350.574C426.362 350.533 426.373 350.491 426.406 350.461C426.459 350.412 431.701 345.512 433.86 343.319C434.171 343.003 434.237 342.535 434.026 342.128C433.621 341.342 432.777 339.824 431.679 338.485C431.629 338.426 431.641 338.343 431.703 338.302C431.765 338.261 431.856 338.277 431.905 338.337C433.02 339.696 433.875 341.233 434.285 342.029C434.545 342.534 434.464 343.112 434.08 343.503C431.918 345.7 426.671 350.603 426.619 350.652C426.565 350.702 426.474 350.7 426.415 350.647C426.392 350.626 426.377 350.6 426.371 350.574Z" fill="white"/>
<path d="M433.19 313.729C430.631 315.078 428.015 316.91 425.655 319.402C418.327 327.137 414.494 334.077 413.465 336.08C413.278 336.443 413.337 336.882 413.607 337.228C415.739 339.952 418.401 342.119 421.59 343.731C422.189 344.035 422.904 344.013 423.437 343.682C425.753 342.246 432.38 337.834 439.342 330.392C441.668 327.906 443.263 325.28 444.353 322.77C440.9 318.111 436.037 315.225 433.19 313.729Z" fill="url(#paint54_linear_112_1212)"/>
<path d="M444.353 322.77C446.761 317.225 446.702 312.242 446.595 310.572C446.574 310.246 446.254 309.988 445.901 310.014C444.102 310.149 438.781 310.783 433.19 313.729C436.037 315.225 440.9 318.111 444.353 322.77Z" fill="url(#paint55_linear_112_1212)"/>
<path d="M437.504 328.02C435.612 330.029 432.049 330.028 429.545 328.017C427.041 326.007 426.545 322.748 428.436 320.74C430.328 318.731 433.891 318.732 436.395 320.742C438.899 322.753 439.395 326.011 437.504 328.02Z" fill="url(#paint56_linear_112_1212)"/>
<path d="M436.805 327.281C435.298 328.881 432.459 328.88 430.464 327.278C428.469 325.676 428.073 323.08 429.58 321.479C431.087 319.878 433.926 319.879 435.922 321.481C437.917 323.083 438.313 325.68 436.805 327.281Z" fill="url(#paint57_linear_112_1212)"/>
<path d="M431.17 321.809C431.159 321.758 431.181 321.705 431.231 321.678C432.508 320.974 434.27 321.182 435.516 322.183C435.83 322.436 436.099 322.725 436.315 323.045C436.358 323.108 436.339 323.189 436.272 323.224C436.205 323.259 436.116 323.236 436.073 323.172C435.873 322.877 435.625 322.609 435.335 322.376C434.186 321.453 432.564 321.26 431.392 321.906C431.325 321.942 431.236 321.921 431.192 321.858C431.181 321.842 431.174 321.826 431.17 321.809Z" fill="white"/>
<path d="M429.083 334.095C427.833 335.423 425.479 335.422 423.825 334.093C422.171 332.765 421.843 330.612 423.092 329.285C424.342 327.958 426.696 327.959 428.35 329.287C430.004 330.615 430.332 332.768 429.083 334.095Z" fill="url(#paint58_linear_112_1212)"/>
<path d="M428.621 333.607C427.625 334.664 425.75 334.664 424.432 333.605C423.113 332.547 422.852 330.832 423.848 329.774C424.843 328.716 426.719 328.717 428.037 329.776C429.355 330.834 429.617 332.549 428.621 333.607Z" fill="url(#paint59_linear_112_1212)"/>
<path d="M424.85 329.998C424.839 329.947 424.861 329.894 424.911 329.867C425.772 329.392 426.96 329.531 427.8 330.206C428.012 330.376 428.193 330.571 428.338 330.787C428.381 330.85 428.362 330.931 428.295 330.966C428.228 331.001 428.139 330.978 428.096 330.914C427.967 330.723 427.806 330.55 427.619 330.399C426.876 329.803 425.829 329.678 425.072 330.095C425.006 330.131 424.916 330.11 424.872 330.047C424.861 330.031 424.854 330.015 424.85 329.998Z" fill="white"/>
</g>
<defs>
<linearGradient id="paint0_linear_112_1212" x1="150.382" y1="280.498" x2="149.447" y2="280.535" gradientUnits="userSpaceOnUse">
<stop stop-color="#44A7ED"/>
<stop offset="0.185" stop-color="#1C194E"/>
<stop offset="0.33" stop-color="#1C194E"/>
<stop offset="0.513468" stop-color="#E23739"/>
<stop offset="0.695" stop-color="#69097A"/>
<stop offset="0.825" stop-color="#69097A"/>
<stop offset="0.96" stop-color="#161342"/>
</linearGradient>
<linearGradient id="paint1_linear_112_1212" x1="317.366" y1="358.94" x2="314.648" y2="369.316" gradientUnits="userSpaceOnUse">
<stop stop-color="#44A7ED"/>
<stop offset="0.185" stop-color="#1C194E"/>
<stop offset="0.33" stop-color="#1C194E"/>
<stop offset="0.513468" stop-color="#E23739"/>
<stop offset="0.695" stop-color="#69097A"/>
<stop offset="0.825" stop-color="#69097A"/>
<stop offset="0.96" stop-color="#161342"/>
</linearGradient>
<linearGradient id="paint2_linear_112_1212" x1="299.496" y1="180.01" x2="296.902" y2="190.726" gradientUnits="userSpaceOnUse">
<stop stop-color="#44A7ED"/>
<stop offset="0.185" stop-color="#1C194E"/>
<stop offset="0.33" stop-color="#1C194E"/>
<stop offset="0.513468" stop-color="#E23739"/>
<stop offset="0.695" stop-color="#69097A"/>
<stop offset="0.825" stop-color="#69097A"/>
<stop offset="0.96" stop-color="#161342"/>
</linearGradient>
<linearGradient id="paint3_linear_112_1212" x1="359.349" y1="24.5925" x2="124.381" y2="506.586" gradientUnits="userSpaceOnUse">
<stop stop-color="#44A7ED"/>
<stop offset="0.185" stop-color="#1C194E"/>
<stop offset="0.33" stop-color="#1C194E"/>
<stop offset="0.513468" stop-color="#E23739"/>
<stop offset="0.695" stop-color="#69097A"/>
<stop offset="0.825" stop-color="#69097A"/>
<stop offset="0.96" stop-color="#161342"/>
</linearGradient>
<linearGradient id="paint4_linear_112_1212" x1="139.9" y1="124.284" x2="92.3411" y2="157.173" gradientUnits="userSpaceOnUse">
<stop stop-color="#3A9BD5"/>
<stop offset="1" stop-color="#2573BA"/>
</linearGradient>
<linearGradient id="paint5_linear_112_1212" x1="127.047" y1="108.116" x2="73.4775" y2="131.202" gradientUnits="userSpaceOnUse">
<stop stop-color="#7BDAFF"/>
<stop offset="1" stop-color="#59BDEF"/>
</linearGradient>
<linearGradient id="paint6_linear_112_1212" x1="103.44" y1="132.466" x2="52.5991" y2="147.84" gradientUnits="userSpaceOnUse">
<stop stop-color="#2573BA"/>
<stop offset="1" stop-color="#0063AD"/>
</linearGradient>
<linearGradient id="paint7_linear_112_1212" x1="139.9" y1="97.2861" x2="92.3411" y2="130.175" gradientUnits="userSpaceOnUse">
<stop stop-color="#3A9BD5"/>
<stop offset="1" stop-color="#2573BA"/>
</linearGradient>
<linearGradient id="paint8_linear_112_1212" x1="127.047" y1="81.1181" x2="73.4775" y2="104.204" gradientUnits="userSpaceOnUse">
<stop stop-color="#7BDAFF"/>
<stop offset="1" stop-color="#59BDEF"/>
</linearGradient>
<linearGradient id="paint9_linear_112_1212" x1="103.44" y1="105.468" x2="52.5991" y2="120.843" gradientUnits="userSpaceOnUse">
<stop stop-color="#2573BA"/>
<stop offset="1" stop-color="#0063AD"/>
</linearGradient>
<linearGradient id="paint10_linear_112_1212" x1="137.527" y1="75.9568" x2="95.0206" y2="105.352" gradientUnits="userSpaceOnUse">
<stop stop-color="#69097A"/>
<stop offset="1" stop-color="#E23739"/>
</linearGradient>
<linearGradient id="paint11_linear_112_1212" x1="127.047" y1="63.1283" x2="73.4775" y2="86.2144" gradientUnits="userSpaceOnUse">
<stop stop-color="#161342"/>
<stop offset="1" stop-color="#7BDAFF"/>
</linearGradient>
<linearGradient id="paint12_linear_112_1212" x1="101.472" y1="83.0994" x2="54.8249" y2="97.2059" gradientUnits="userSpaceOnUse">
<stop stop-color="#E13739"/>
<stop offset="1" stop-color="#1C194E"/>
</linearGradient>
<linearGradient id="paint13_linear_112_1212" x1="92.8468" y1="152.817" x2="45.2873" y2="185.706" gradientUnits="userSpaceOnUse">
<stop stop-color="#3A9BD5"/>
<stop offset="1" stop-color="#2573BA"/>
</linearGradient>
<linearGradient id="paint14_linear_112_1212" x1="79.9931" y1="136.649" x2="26.4233" y2="159.735" gradientUnits="userSpaceOnUse">
<stop stop-color="#FCB454"/>
<stop offset="1" stop-color="#161342"/>
</linearGradient>
<linearGradient id="paint15_linear_112_1212" x1="56.3859" y1="161" x2="5.54501" y2="176.374" gradientUnits="userSpaceOnUse">
<stop stop-color="#2573BA"/>
<stop offset="1" stop-color="#0063AD"/>
</linearGradient>
<linearGradient id="paint16_linear_112_1212" x1="92.8468" y1="125.82" x2="45.2873" y2="158.709" gradientUnits="userSpaceOnUse">
<stop stop-color="#3A9BD5"/>
<stop offset="1" stop-color="#2573BA"/>
</linearGradient>
<linearGradient id="paint17_linear_112_1212" x1="79.9931" y1="109.652" x2="26.4233" y2="132.738" gradientUnits="userSpaceOnUse">
<stop stop-color="#7BDAFF"/>
<stop offset="1" stop-color="#59BDEF"/>
</linearGradient>
<linearGradient id="paint18_linear_112_1212" x1="56.3859" y1="134.002" x2="5.545" y2="149.377" gradientUnits="userSpaceOnUse">
<stop stop-color="#69097A"/>
<stop offset="1" stop-color="#0063AD"/>
</linearGradient>
<linearGradient id="paint19_linear_112_1212" x1="90.4735" y1="104.49" x2="47.9669" y2="133.885" gradientUnits="userSpaceOnUse">
<stop stop-color="#3A9BD5"/>
<stop offset="1" stop-color="#2573BA"/>
</linearGradient>
<linearGradient id="paint20_linear_112_1212" x1="79.9931" y1="91.662" x2="26.4233" y2="114.748" gradientUnits="userSpaceOnUse">
<stop stop-color="#FCB454"/>
<stop offset="1" stop-color="#161342"/>
</linearGradient>
<linearGradient id="paint21_linear_112_1212" x1="54.4182" y1="111.633" x2="7.77083" y2="125.74" gradientUnits="userSpaceOnUse">
<stop stop-color="#2573BA"/>
<stop offset="1" stop-color="#0063AD"/>
</linearGradient>
<linearGradient id="paint22_linear_112_1212" x1="186.215" y1="150.531" x2="138.656" y2="183.42" gradientUnits="userSpaceOnUse">
<stop stop-color="#3A9BD5"/>
<stop offset="1" stop-color="#2573BA"/>
</linearGradient>
<linearGradient id="paint23_linear_112_1212" x1="173.362" y1="134.363" x2="119.793" y2="157.449" gradientUnits="userSpaceOnUse">
<stop stop-color="#DF3739"/>
<stop offset="1" stop-color="#69097A"/>
</linearGradient>
<linearGradient id="paint24_linear_112_1212" x1="149.755" y1="158.713" x2="98.9137" y2="174.087" gradientUnits="userSpaceOnUse">
<stop stop-color="#2573BA"/>
<stop offset="1" stop-color="#0063AD"/>
</linearGradient>
<linearGradient id="paint25_linear_112_1212" x1="186.215" y1="123.533" x2="138.656" y2="156.422" gradientUnits="userSpaceOnUse">
<stop stop-color="#3A9BD5"/>
<stop offset="1" stop-color="#2573BA"/>
</linearGradient>
<linearGradient id="paint26_linear_112_1212" x1="173.362" y1="107.365" x2="119.793" y2="130.451" gradientUnits="userSpaceOnUse">
<stop stop-color="#7BDAFF"/>
<stop offset="1" stop-color="#59BDEF"/>
</linearGradient>
<linearGradient id="paint27_linear_112_1212" x1="149.755" y1="131.715" x2="98.9137" y2="147.09" gradientUnits="userSpaceOnUse">
<stop stop-color="#5D5C04"/>
<stop offset="1" stop-color="#E84F0D"/>
</linearGradient>
<linearGradient id="paint28_linear_112_1212" x1="183.842" y1="102.204" x2="141.336" y2="131.599" gradientUnits="userSpaceOnUse">
<stop stop-color="#3A9BD5"/>
<stop offset="1" stop-color="#2573BA"/>
</linearGradient>
<linearGradient id="paint29_linear_112_1212" x1="173.362" y1="89.3753" x2="119.793" y2="112.461" gradientUnits="userSpaceOnUse">
<stop stop-color="#DF3739"/>
<stop offset="1" stop-color="#69097A"/>
</linearGradient>
<linearGradient id="paint30_linear_112_1212" x1="147.787" y1="109.347" x2="101.14" y2="123.453" gradientUnits="userSpaceOnUse">
<stop stop-color="#69097A"/>
<stop offset="1" stop-color="#EF7726"/>
</linearGradient>
<linearGradient id="paint31_linear_112_1212" x1="175.073" y1="159.086" x2="152.134" y2="174.949" gradientUnits="userSpaceOnUse">
<stop stop-color="#3570B0"/>
<stop offset="1"/>
</linearGradient>
<linearGradient id="paint32_linear_112_1212" x1="139.161" y1="179.065" x2="91.6018" y2="211.954" gradientUnits="userSpaceOnUse">
<stop stop-color="#3A9BD5"/>
<stop offset="1" stop-color="#2573BA"/>
</linearGradient>
<linearGradient id="paint33_linear_112_1212" x1="126.308" y1="162.897" x2="72.7379" y2="185.983" gradientUnits="userSpaceOnUse">
<stop stop-color="#69097A"/>
<stop offset="1" stop-color="#E13739"/>
</linearGradient>
<linearGradient id="paint34_linear_112_1212" x1="102.7" y1="187.247" x2="51.8595" y2="202.622" gradientUnits="userSpaceOnUse">
<stop stop-color="#161342"/>
<stop offset="1" stop-color="#7C0956"/>
</linearGradient>
<linearGradient id="paint35_linear_112_1212" x1="139.161" y1="152.067" x2="91.6018" y2="184.956" gradientUnits="userSpaceOnUse">
<stop stop-color="#3A9BD5"/>
<stop offset="1" stop-color="#2573BA"/>
</linearGradient>
<linearGradient id="paint36_linear_112_1212" x1="126.308" y1="135.899" x2="72.7379" y2="158.985" gradientUnits="userSpaceOnUse">
<stop stop-color="#7BDAFF"/>
<stop offset="1" stop-color="#59BDEF"/>
</linearGradient>
<linearGradient id="paint37_linear_112_1212" x1="102.7" y1="160.249" x2="51.8595" y2="175.624" gradientUnits="userSpaceOnUse">
<stop stop-color="#2573BA"/>
<stop offset="1" stop-color="#0063AD"/>
</linearGradient>
<linearGradient id="paint38_linear_112_1212" x1="136.788" y1="130.738" x2="94.2815" y2="160.133" gradientUnits="userSpaceOnUse">
<stop stop-color="#3A9BD5"/>
<stop offset="1" stop-color="#2573BA"/>
</linearGradient>
<linearGradient id="paint39_linear_112_1212" x1="126.308" y1="117.909" x2="72.7379" y2="140.995" gradientUnits="userSpaceOnUse">
<stop stop-color="#69097A"/>
<stop offset="1" stop-color="#E13739"/>
</linearGradient>
<linearGradient id="paint40_linear_112_1212" x1="100.733" y1="137.88" x2="54.0853" y2="151.987" gradientUnits="userSpaceOnUse">
<stop stop-color="#69097A"/>
<stop offset="1" stop-color="#1C194E"/>
</linearGradient>
<linearGradient id="paint41_linear_112_1212" x1="128.019" y1="187.62" x2="105.08" y2="203.483" gradientUnits="userSpaceOnUse">
<stop stop-color="#7C0956"/>
<stop offset="1" stop-color="#0063AD"/>
</linearGradient>
<linearGradient id="paint42_linear_112_1212" x1="401.1" y1="393.509" x2="526.529" y2="382.96" gradientUnits="userSpaceOnUse">
<stop stop-color="#161342"/>
<stop offset="1" stop-color="#69097A"/>
</linearGradient>
<linearGradient id="paint43_linear_112_1212" x1="493.804" y1="324.915" x2="358.429" y2="531.738" gradientUnits="userSpaceOnUse">
<stop stop-color="#69097A"/>
<stop offset="1" stop-color="#D93C65"/>
</linearGradient>
<linearGradient id="paint44_linear_112_1212" x1="444.756" y1="426.498" x2="449.24" y2="437.899" gradientUnits="userSpaceOnUse">
<stop stop-color="#A737D5"/>
<stop offset="1" stop-color="#EF497A"/>
</linearGradient>
<linearGradient id="paint45_linear_112_1212" x1="397.106" y1="402.65" x2="454.349" y2="402.245" gradientUnits="userSpaceOnUse">
<stop stop-color="#1E7AD0"/>
<stop offset="1" stop-color="#69097A"/>
</linearGradient>
<linearGradient id="paint46_linear_112_1212" x1="426.484" y1="377.552" x2="322.67" y2="536.157" gradientUnits="userSpaceOnUse">
<stop stop-color="#69097A"/>
<stop offset="1" stop-color="#69097A"/>
</linearGradient>
<linearGradient id="paint47_linear_112_1212" x1="367.445" y1="414.341" x2="401.493" y2="415.367" gradientUnits="userSpaceOnUse">
<stop stop-color="#E23739"/>
<stop offset="1" stop-color="#EF497A"/>
</linearGradient>
<linearGradient id="paint48_linear_112_1212" x1="394.172" y1="380.237" x2="320.416" y2="492.919" gradientUnits="userSpaceOnUse">
<stop stop-color="#EF7726"/>
<stop offset="1" stop-color="#69097A"/>
</linearGradient>
<linearGradient id="paint49_linear_112_1212" x1="334.276" y1="427.515" x2="370.449" y2="427.515" gradientUnits="userSpaceOnUse">
<stop/>
<stop offset="1" stop-color="#1E7AD0"/>
</linearGradient>
<linearGradient id="paint50_linear_112_1212" x1="340.432" y1="419.647" x2="295.223" y2="488.716" gradientUnits="userSpaceOnUse">
<stop stop-color="#E23739"/>
<stop offset="1"/>
</linearGradient>
<linearGradient id="paint51_linear_112_1212" x1="442.928" y1="326.027" x2="401.838" y2="351.917" gradientUnits="userSpaceOnUse">
<stop stop-color="#FDF53F"/>
<stop offset="1" stop-color="#D93C65"/>
</linearGradient>
<linearGradient id="paint52_linear_112_1212" x1="514.097" y1="242.639" x2="464.489" y2="285.91" gradientUnits="userSpaceOnUse">
<stop stop-color="#A737D5"/>
<stop offset="1" stop-color="#EF497A"/>
</linearGradient>
<linearGradient id="paint53_linear_112_1212" x1="510.744" y1="330.652" x2="452.609" y2="341.102" gradientUnits="userSpaceOnUse">
<stop stop-color="#A737D5"/>
<stop offset="1" stop-color="#EF497A"/>
</linearGradient>
<linearGradient id="paint54_linear_112_1212" x1="432.494" y1="320.92" x2="408.9" y2="376.91" gradientUnits="userSpaceOnUse">
<stop stop-color="#FDF53F"/>
<stop offset="1" stop-color="#D93C65"/>
</linearGradient>
<linearGradient id="paint55_linear_112_1212" x1="480.268" y1="295.364" x2="440.767" y2="317.167" gradientUnits="userSpaceOnUse">
<stop stop-color="#FDF53F"/>
<stop offset="1" stop-color="#D93C65"/>
</linearGradient>
<linearGradient id="paint56_linear_112_1212" x1="499.057" y1="300.409" x2="464.19" y2="313.066" gradientUnits="userSpaceOnUse">
<stop stop-color="#A737D5"/>
<stop offset="1" stop-color="#EF497A"/>
</linearGradient>
<linearGradient id="paint57_linear_112_1212" x1="437.289" y1="319.173" x2="465.13" y2="283.752" gradientUnits="userSpaceOnUse">
<stop stop-color="#2B3582"/>
<stop offset="1" stop-color="#150E42"/>
</linearGradient>
<linearGradient id="paint58_linear_112_1212" x1="500.601" y1="304.662" x2="465.734" y2="317.32" gradientUnits="userSpaceOnUse">
<stop stop-color="#A737D5"/>
<stop offset="1" stop-color="#EF497A"/>
</linearGradient>
<linearGradient id="paint59_linear_112_1212" x1="429.821" y1="325.567" x2="456.751" y2="279.556" gradientUnits="userSpaceOnUse">
<stop stop-color="#2B3582"/>
<stop offset="1" stop-color="#150E42"/>
</linearGradient>
<clipPath id="clip0_112_1212">
<rect width="501" height="559" fill="white"/>
</clipPath>
</defs>
</svg>
