<svg width="48" height="48" viewBox="0 0 48 48" fill="none" xmlns="http://www.w3.org/2000/svg">
<path d="M41.7862 46.4426H6.21009C3.83145 46.4426 1.90527 44.868 1.90527 42.9275V42.3905C1.90527 34.0792 10.1576 27.3407 20.3361 27.3407H27.6644C37.8429 27.3407 46.0952 34.0792 46.0952 42.3905V42.9275C46.0931 44.868 44.1648 46.4426 41.7862 46.4426Z" fill="#1E7AD0"/>
<path d="M23.998 27.3406C32.7185 27.3406 39.788 21.568 39.788 14.4471C39.788 7.32628 32.7185 1.55368 23.998 1.55368C15.2774 1.55368 8.20801 7.32628 8.20801 14.4471C8.20801 21.568 15.2774 27.3406 23.998 27.3406Z" fill="#1E7AD0"/>
<path d="M33.6753 26.5276C38.496 23.943 41.6929 19.4973 41.6929 14.4473C41.6908 6.48126 33.7535 0 23.9979 0C14.2423 0 6.305 6.48126 6.305 14.4473C6.305 19.4973 9.49978 23.9448 14.3226 26.5276C6.03647 28.627 0 34.9425 0 42.3906V42.9293C0 45.7245 2.78671 48 6.21196 48H41.788C45.2112 48 48 45.7262 48 42.9293V42.3906C47.9979 34.9425 41.9614 28.6253 33.6753 26.5276ZM10.1129 14.4473C10.1129 8.19394 16.3418 3.10769 23.9979 3.10769C31.654 3.10769 37.8828 8.19394 37.8828 14.4473C37.8828 20.7007 31.654 25.7852 23.9979 25.7852C16.3418 25.7852 10.1129 20.6989 10.1129 14.4473ZM44.1899 42.9276C44.1899 44.0101 43.1116 44.8889 41.7859 44.8889H6.20985C4.88415 44.8889 3.80583 44.0101 3.80583 42.9276V42.3889C3.80583 34.946 11.2187 28.8946 20.3316 28.8946H27.6621C36.777 28.8946 44.1878 34.9477 44.1878 42.3889L44.1899 42.9276Z" fill="#B9D6F0"/>
<path d="M31.0365 19.3174C31.711 18.6614 31.6074 17.6807 30.8039 17.1282C30.0005 16.5757 28.8037 16.6603 28.1208 17.3181C26.072 19.3105 21.9215 19.3105 19.8748 17.3181C19.1961 16.6569 17.9931 16.574 17.1917 17.1282C16.3883 17.679 16.2826 18.6596 16.9591 19.3174C18.7098 21.0197 21.2745 21.9952 23.9978 21.9952C26.7211 21.9952 29.2858 21.018 31.0365 19.3174Z" fill="#B9D6F0"/>
</svg>
