<svg width="48" height="48" viewBox="0 0 48 48" fill="none" xmlns="http://www.w3.org/2000/svg">
<path d="M16.6758 24L9.35156 24V18.1406C9.35156 14.9088 11.9791 12.2812 15.2109 12.2812H15.9433C16.2321 12.2819 16.5181 12.2256 16.785 12.1154C17.0519 12.0052 17.2944 11.8434 17.4986 11.6392C17.7028 11.435 17.8646 11.1925 17.9748 10.9256C18.085 10.6587 18.1413 10.3727 18.1406 10.0839L18.1406 5.68941C18.1413 5.40066 18.085 5.11461 17.9748 4.84771C17.8646 4.58081 17.7028 4.3383 17.4986 4.13412C17.2944 3.92995 17.0519 3.76812 16.785 3.65794C16.5181 3.54776 16.2321 3.4914 15.9433 3.49209H15.2109C7.11769 3.49209 0.5625 10.0473 0.5625 18.1405L0.5625 40.1133C0.5625 42.5394 2.53088 44.5078 4.95703 44.5078L16.6758 44.5078C19.1019 44.5078 21.0703 42.5394 21.0703 40.1133L21.0703 28.3945C21.0703 25.9684 19.1019 24 16.6758 24ZM43.043 24L35.7188 24V18.1406C35.7188 14.9088 38.3463 12.2812 41.5781 12.2812H42.3105C42.5992 12.2819 42.8853 12.2256 43.1522 12.1154C43.4191 12.0052 43.6616 11.8434 43.8658 11.6392C44.07 11.435 44.2318 11.1925 44.342 10.9256C44.4521 10.6587 44.5085 10.3727 44.5078 10.0839V5.68941C44.5085 5.40066 44.4521 5.11461 44.342 4.84771C44.2318 4.58081 44.07 4.3383 43.8658 4.13412C43.6616 3.92995 43.4191 3.76812 43.1522 3.65794C42.8853 3.54776 42.5992 3.4914 42.3105 3.49209H41.5781C33.4849 3.49209 26.9297 10.0473 26.9297 18.1405L26.9297 40.1133C26.9297 42.5394 28.8981 44.5078 31.3242 44.5078L43.043 44.5078C45.4691 44.5078 47.4375 42.5394 47.4375 40.1133L47.4375 28.3945C47.4375 25.9684 45.4691 24 43.043 24Z" fill="#077158"/>
</svg>
