<svg width="714" height="29" viewBox="0 0 714 29" fill="none" xmlns="http://www.w3.org/2000/svg">
<path d="M8.17578 22.1406C7.14453 22.1406 6.17578 21.9375 5.26953 21.5312C4.37891 21.125 3.58984 20.5703 2.90234 19.8672C2.21484 19.1641 1.67578 18.3516 1.28516 17.4297C0.910156 16.4922 0.722656 15.5 0.722656 14.4531C0.722656 13.3438 0.917969 12.3047 1.30859 11.3359C1.69922 10.3516 2.24609 9.49219 2.94922 8.75781C3.65234 8.00781 4.47266 7.42188 5.41016 7C6.34766 6.57812 7.35547 6.36719 8.43359 6.36719C10.1992 6.36719 12.043 6.57812 13.9648 7C13.9961 7 14.0195 7.15625 14.0352 7.46875C14.0664 7.76562 14.0898 8.125 14.1055 8.54688C14.1211 8.95312 14.1367 9.33594 14.1523 9.69531C14.168 10.0547 14.1758 10.2969 14.1758 10.4219C14.1758 10.6562 13.9883 10.7734 13.6133 10.7734C13.5039 10.7734 13.3945 10.7422 13.2852 10.6797C13.2227 10.3984 13.1055 10.1094 12.9336 9.8125C12.7773 9.51562 12.5352 9.17969 12.207 8.80469C11.8789 8.42969 11.3945 8.125 10.7539 7.89062C10.1133 7.64063 9.37109 7.51562 8.52734 7.51562C7.51172 7.51562 6.63672 7.8125 5.90234 8.40625C5.18359 8.98438 4.62891 9.75781 4.23828 10.7266C3.86328 11.6953 3.67578 12.7734 3.67578 13.9609C3.67578 15.2734 3.88672 16.4609 4.30859 17.5234C4.74609 18.5859 5.37891 19.4375 6.20703 20.0781C7.03516 20.7031 8.02734 21.0156 9.18359 21.0156C10.5586 21.0156 11.6602 20.5781 12.4883 19.7031C12.7383 19.4375 12.9258 19.1406 13.0508 18.8125C13.1914 18.4688 13.3008 18.1719 13.3789 17.9219C13.457 17.6562 13.5273 17.5234 13.5898 17.5234C14.1367 17.5234 14.4414 17.5938 14.5039 17.7344C14.5039 17.8281 14.4648 18.0547 14.3867 18.4141C14.3242 18.7578 14.2461 19.1406 14.1523 19.5625C14.0586 19.9688 13.957 20.3281 13.8477 20.6406C13.7539 20.9531 13.6758 21.125 13.6133 21.1562C12.2539 21.8125 10.4414 22.1406 8.17578 22.1406ZM15.8398 22.0703C15.7773 22.0078 15.7461 21.8594 15.7461 21.625C15.7461 21.4062 15.7773 21.2969 15.8398 21.2969C15.9648 21.2969 16.1289 21.2656 16.332 21.2031C16.5352 21.1406 16.7227 21.0625 16.8945 20.9688C17.082 20.875 17.1836 20.7969 17.1992 20.7344C17.2617 20.4688 17.3086 20.1875 17.3398 19.8906C17.3711 19.5938 17.3867 19.2969 17.3867 19V9.25C17.3867 8.65625 17.3398 8.125 17.2461 7.65625C17.1836 7.40625 16.793 7.28125 16.0742 7.28125H15.8398C15.7461 7.28125 15.6992 7.1875 15.6992 7C15.6992 6.75 15.7461 6.625 15.8398 6.625C16.6992 6.54687 17.4727 6.41406 18.1602 6.22656C18.8633 6.03906 19.332 5.89844 19.5664 5.80469L19.7305 5.73438H19.7773C19.8398 5.73438 19.9023 5.78125 19.9648 5.875C20.043 5.96875 20.0898 6.04688 20.1055 6.10938C19.918 6.6875 19.8242 7.42188 19.8242 8.3125V18.625C19.8242 19.6094 19.8789 20.3125 19.9883 20.7344C20.0195 20.7969 20.1211 20.875 20.293 20.9688C20.4648 21.0625 20.6523 21.1406 20.8555 21.2031C21.0586 21.2656 21.1992 21.2969 21.2773 21.2969C21.3242 21.2969 21.3477 21.4062 21.3477 21.625C21.3633 21.8438 21.3555 21.9922 21.3242 22.0703C20.8398 22.0391 20.3477 22.0078 19.8477 21.9766C19.3477 21.9453 18.9336 21.9297 18.6055 21.9297C18.1211 21.9297 17.6211 21.9453 17.1055 21.9766C16.6055 22.0078 16.1836 22.0391 15.8398 22.0703ZM27.9805 22.1641C26.9961 22.1641 26.0977 21.9297 25.2852 21.4609C24.4883 20.9766 23.8477 20.3359 23.3633 19.5391C22.8945 18.7422 22.6602 17.8594 22.6602 16.8906C22.6602 15.9062 22.8945 15.0234 23.3633 14.2422C23.832 13.4453 24.4648 12.8125 25.2617 12.3438C26.0742 11.875 26.9727 11.6406 27.957 11.6406C28.9414 11.6406 29.832 11.875 30.6289 12.3438C31.4414 12.8125 32.082 13.4453 32.5508 14.2422C33.0352 15.0391 33.2773 15.9219 33.2773 16.8906C33.2773 17.8594 33.043 18.7422 32.5742 19.5391C32.1055 20.3359 31.4727 20.9766 30.6758 21.4609C29.8789 21.9297 28.9805 22.1641 27.9805 22.1641ZM28.2148 21.0625C28.7148 21.0625 29.1367 20.8984 29.4805 20.5703C29.8242 20.2422 30.0898 19.8047 30.2773 19.2578C30.4648 18.6953 30.5586 18.0938 30.5586 17.4531C30.5586 16.6094 30.4414 15.8359 30.207 15.1328C29.9883 14.4141 29.6602 13.8359 29.2227 13.3984C28.8008 12.9609 28.2773 12.7422 27.6523 12.7422C27.168 12.7422 26.7461 12.9062 26.3867 13.2344C26.043 13.5625 25.7773 14 25.5898 14.5469C25.418 15.0938 25.332 15.6953 25.332 16.3516C25.332 17.1953 25.4414 17.9766 25.6602 18.6953C25.8945 19.3984 26.2305 19.9688 26.668 20.4062C27.1055 20.8438 27.6211 21.0625 28.2148 21.0625ZM38.9961 22.1406C38.293 22.1406 37.7227 21.9297 37.2852 21.5078C36.8477 21.0859 36.5273 20.5469 36.3242 19.8906C36.1211 19.2344 36.0195 18.5625 36.0195 17.875V15.25C36.0195 14.5 35.8945 14 35.6445 13.75C35.5039 13.5781 35.3242 13.4609 35.1055 13.3984C34.9023 13.3203 34.7148 13.2734 34.543 13.2578C34.3867 13.2422 34.3086 13.2188 34.3086 13.1875C34.3086 12.75 34.3477 12.5156 34.4258 12.4844C34.8008 12.4531 35.2227 12.3984 35.6914 12.3203C36.1602 12.2422 36.5977 12.1641 37.0039 12.0859C37.4102 11.9922 37.6914 11.9219 37.8477 11.875C37.9727 11.8438 38.0898 11.8125 38.1992 11.7812C38.3086 11.75 38.3711 11.7344 38.3867 11.7344C38.4648 11.7344 38.5195 11.7891 38.5508 11.8984C38.5977 12.0078 38.6211 12.0938 38.6211 12.1562C38.4805 13.2031 38.4102 13.8906 38.4102 14.2188V17.0312C38.4102 18.25 38.582 19.125 38.9258 19.6562C39.2695 20.1875 39.8242 20.4531 40.5898 20.4531C41.0898 20.4531 41.5117 20.3047 41.8555 20.0078C42.1992 19.6953 42.3711 19.3984 42.3711 19.1172V15.25C42.3711 14.5 42.2461 14 41.9961 13.75C41.8555 13.5781 41.6758 13.4609 41.457 13.3984C41.2539 13.3359 41.0664 13.2969 40.8945 13.2812C40.7383 13.25 40.6602 13.2188 40.6602 13.1875C40.6602 12.7344 40.707 12.5 40.8008 12.4844C41.0977 12.4531 41.4727 12.3984 41.9258 12.3203C42.3789 12.2422 42.8398 12.1562 43.3086 12.0625C43.793 11.9531 44.207 11.8594 44.5508 11.7812L44.7383 11.7344C44.8164 11.7344 44.8789 11.7891 44.9258 11.8984C44.9727 12.0078 44.9883 12.0938 44.9727 12.1562C44.9102 12.6875 44.8633 13.125 44.832 13.4688C44.8008 13.7969 44.7852 14.0312 44.7852 14.1719V18.8125C44.7852 19.2031 44.8008 19.5391 44.832 19.8203C44.8633 20.1016 44.9102 20.3125 44.9727 20.4531C45.0352 20.5781 45.1602 20.6641 45.3477 20.7109C45.5352 20.7422 45.7148 20.7578 45.8867 20.7578C46.0742 20.7578 46.1914 20.7656 46.2383 20.7812C46.3008 20.7969 46.332 20.8672 46.332 20.9922C46.332 21.0547 46.3164 21.1641 46.2852 21.3203C46.2539 21.4609 46.207 21.5312 46.1445 21.5312C45.8008 21.5312 45.2852 21.5938 44.5977 21.7188C43.9258 21.8438 43.2305 21.9844 42.5117 22.1406C42.4023 22.1406 42.3477 22.0156 42.3477 21.7656V20.7344C42.3477 20.6562 42.3242 20.6172 42.2773 20.6172C41.918 21.0078 41.4414 21.3594 40.8477 21.6719C40.2539 21.9844 39.6367 22.1406 38.9961 22.1406ZM54.793 22.1406C54.6992 22.1406 54.6523 22.0078 54.6523 21.7422V21.3438C54.6523 21.2969 54.6367 21.2656 54.6055 21.25C54.5898 21.2344 54.5742 21.2344 54.5586 21.25C53.8242 21.8281 53.0117 22.1172 52.1211 22.1172C51.2773 22.1172 50.4961 21.9062 49.7773 21.4844C49.0742 21.0469 48.5039 20.4609 48.0664 19.7266C47.6289 18.9922 47.4102 18.1562 47.4102 17.2188C47.4102 16.1875 47.6523 15.25 48.1367 14.4062C48.6367 13.5469 49.3008 12.8672 50.1289 12.3672C50.957 11.8516 51.8555 11.5938 52.8242 11.5938C53.4805 11.5938 54.0508 11.7031 54.5352 11.9219C54.6133 11.9219 54.6523 11.7969 54.6523 11.5469V9.34375C54.6523 8.75 54.6055 8.21875 54.5117 7.75C54.4492 7.5 54.043 7.375 53.293 7.375H53.1055C53.0117 7.375 52.9648 7.25 52.9648 7C52.9648 6.75 53.0117 6.625 53.1055 6.625C53.5742 6.57812 54.0273 6.51563 54.4648 6.4375C54.918 6.35937 55.293 6.28125 55.5898 6.20312C56.0117 6.07812 56.3398 5.96875 56.5742 5.875C56.8242 5.78125 56.9648 5.73438 56.9961 5.73438H57.043C57.1055 5.73438 57.168 5.78125 57.2305 5.875C57.293 5.95313 57.3242 6.03125 57.3242 6.10938C57.168 6.6875 57.0898 7.42188 57.0898 8.3125V18.625C57.0898 18.9844 57.1055 19.3672 57.1367 19.7734C57.168 20.1641 57.2227 20.4062 57.3008 20.5C57.3789 20.5781 57.5039 20.6406 57.6758 20.6875C57.8633 20.7344 58.043 20.7656 58.2148 20.7812C58.4023 20.7812 58.5273 20.7812 58.5898 20.7812C58.6211 20.8125 58.6367 20.9062 58.6367 21.0625C58.6367 21.375 58.5898 21.5312 58.4961 21.5312C58.2773 21.5469 57.9961 21.5781 57.6523 21.625C57.3242 21.6719 57.0039 21.7188 56.6914 21.7656C56.0664 21.875 55.5898 21.9609 55.2617 22.0234C54.9492 22.1016 54.793 22.1406 54.793 22.1406ZM52.8711 20.8281C53.4023 20.8281 53.832 20.6953 54.1602 20.4297C54.4883 20.1484 54.6523 19.7969 54.6523 19.375V14.4531C54.6523 14.2344 54.5898 13.9922 54.4648 13.7266C54.3555 13.4609 54.1523 13.2266 53.8555 13.0234C53.5742 12.8203 53.1602 12.7188 52.6133 12.7188C51.7852 12.7188 51.1602 13.0703 50.7383 13.7734C50.3164 14.4766 50.1055 15.4219 50.1055 16.6094C50.1055 17.9375 50.3477 18.9766 50.832 19.7266C51.3164 20.4609 51.9961 20.8281 52.8711 20.8281ZM69.6992 22.2344C68.7305 22.2344 67.293 22.0156 65.3867 21.5781C65.293 21.2031 65.1992 20.7578 65.1055 20.2422C65.0273 19.7109 64.957 19.2109 64.8945 18.7422C64.8477 18.2734 64.8242 17.9531 64.8242 17.7812C64.8555 17.6562 64.9805 17.5938 65.1992 17.5938C65.6055 17.5938 65.832 17.6562 65.8789 17.7812C65.9414 18.0625 66.0508 18.375 66.207 18.7188C66.3633 19.0469 66.582 19.3984 66.8633 19.7734C67.1289 20.1641 67.4883 20.4844 67.9414 20.7344C68.4102 20.9688 68.9336 21.0859 69.5117 21.0859C70.2461 21.0859 70.8555 20.8672 71.3398 20.4297C71.8242 19.9922 72.0664 19.3359 72.0664 18.4609C72.0664 17.8359 71.8789 17.3516 71.5039 17.0078C71.1445 16.6484 70.7539 16.3203 70.332 16.0234C70.2227 15.9609 70.0508 15.8594 69.8164 15.7188C69.582 15.5781 69.3477 15.4375 69.1133 15.2969C68.8945 15.1406 68.7227 15.0312 68.5977 14.9688C68.3008 14.7812 68.0508 14.625 67.8477 14.5C67.6602 14.375 67.4805 14.25 67.3086 14.125C67.1367 13.9844 66.9258 13.8125 66.6758 13.6094C66.1758 13.2031 65.7852 12.7422 65.5039 12.2266C65.2383 11.7109 65.1055 11.1406 65.1055 10.5156C65.1055 9.73438 65.332 9.03125 65.7852 8.40625C66.2539 7.76562 66.8555 7.26563 67.5898 6.90625C68.3242 6.53125 69.0977 6.34375 69.9102 6.34375C70.3477 6.34375 70.7305 6.36719 71.0586 6.41406C71.3867 6.46094 71.6367 6.50781 71.8086 6.55469C71.9805 6.60156 72.1914 6.65625 72.4414 6.71875C72.6914 6.78125 73.0898 6.875 73.6367 7C73.8242 8.04688 73.918 9.25 73.918 10.6094C73.9023 10.75 73.8086 10.8203 73.6367 10.8203C73.2148 10.8203 72.9883 10.75 72.957 10.6094C72.8945 10.125 72.7227 9.64844 72.4414 9.17969C72.1602 8.69531 71.793 8.28906 71.3398 7.96094C70.9023 7.63281 70.4023 7.46875 69.8398 7.46875C69.1211 7.46875 68.5664 7.67187 68.1758 8.07812C67.8008 8.48438 67.6133 9.03125 67.6133 9.71875C67.6133 10.1562 67.6914 10.5 67.8477 10.75C68.0039 10.9844 68.207 11.2422 68.457 11.5234C68.6289 11.7109 68.9102 11.9453 69.3008 12.2266C69.6914 12.5078 70.1289 12.8047 70.6133 13.1172C71.0977 13.4141 71.5664 13.6953 72.0195 13.9609C72.8789 14.4609 73.543 15.0078 74.0117 15.6016C74.4805 16.1797 74.7148 16.9531 74.7148 17.9219C74.7148 18.75 74.4805 19.4922 74.0117 20.1484C73.543 20.8047 72.9258 21.3203 72.1602 21.6953C71.4102 22.0547 70.5898 22.2344 69.6992 22.2344ZM81.1133 22.1406C80.207 22.1406 79.3711 21.9141 78.6055 21.4609C77.8555 20.9922 77.2539 20.3672 76.8008 19.5859C76.3477 18.7891 76.1211 17.9141 76.1211 16.9609C76.1211 15.8984 76.332 14.9688 76.7539 14.1719C77.1758 13.375 77.7461 12.7578 78.4648 12.3203C79.1992 11.8672 80.0352 11.6406 80.9727 11.6406C81.7383 11.6406 82.3945 11.7812 82.9414 12.0625C83.4883 12.3438 83.9336 12.7109 84.2773 13.1641C84.6367 13.6016 84.8945 14.0703 85.0508 14.5703C85.2227 15.0547 85.3086 15.5078 85.3086 15.9297C85.3086 16.2734 85.2461 16.4922 85.1211 16.5859C85.0117 16.6641 84.7773 16.7031 84.418 16.7031H78.8164C78.707 16.7031 78.6523 16.75 78.6523 16.8438C78.6523 17.4219 78.7539 17.9688 78.957 18.4844C79.1602 19.0156 79.5039 19.4766 79.9883 19.8672C80.4883 20.2578 81.082 20.4531 81.7695 20.4531C82.1758 20.4531 82.5117 20.4219 82.7773 20.3594C83.043 20.2969 83.3008 20.2266 83.5508 20.1484C83.6758 20.1016 83.832 20.0234 84.0195 19.9141C84.207 19.7891 84.3789 19.6797 84.5352 19.5859C84.6914 19.4766 84.7695 19.4219 84.7695 19.4219C84.8008 19.4375 84.8398 19.4844 84.8867 19.5625C84.9336 19.6406 84.957 19.7188 84.957 19.7969C84.957 19.9688 84.9102 20.1172 84.8164 20.2422C84.6602 20.5234 84.3945 20.8125 84.0195 21.1094C83.6602 21.3906 83.2305 21.6328 82.7305 21.8359C82.2305 22.0391 81.6914 22.1406 81.1133 22.1406ZM78.8164 15.5781H82.6133C82.7539 15.5781 82.8242 15.4609 82.8242 15.2266C82.8242 14.8516 82.7383 14.4766 82.5664 14.1016C82.4102 13.7109 82.1758 13.3828 81.8633 13.1172C81.5664 12.8516 81.2148 12.7188 80.8086 12.7188C80.3242 12.7188 79.918 12.8828 79.5898 13.2109C79.2773 13.5391 79.043 13.9141 78.8867 14.3359C78.7461 14.7578 78.6758 15.1172 78.6758 15.4141C78.6758 15.5234 78.7227 15.5781 78.8164 15.5781ZM86.5039 22.0938C86.4414 22.0312 86.4102 21.8828 86.4102 21.6484C86.4102 21.4141 86.4414 21.2969 86.5039 21.2969C86.6289 21.2969 86.8008 21.2734 87.0195 21.2266C87.2539 21.1641 87.4648 21.0938 87.6523 21.0156C87.8555 20.9219 87.9648 20.8438 87.9805 20.7812C88.0898 20.3438 88.1445 19.7734 88.1445 19.0703V15.25C88.1445 14.5 88.0195 14 87.7695 13.75C87.6289 13.5781 87.457 13.4609 87.2539 13.3984C87.0508 13.3203 86.8633 13.2734 86.6914 13.2578C86.5352 13.2422 86.457 13.2188 86.457 13.1875C86.457 12.75 86.4961 12.5156 86.5742 12.4844C87.0273 12.4531 87.5195 12.3828 88.0508 12.2734C88.5977 12.1484 89.2305 12.0156 89.9492 11.875C90.1836 11.8281 90.332 11.7969 90.3945 11.7812C90.4727 11.75 90.5195 11.7344 90.5352 11.7344C90.5977 11.7344 90.6523 11.7891 90.6992 11.8984C90.7461 11.9922 90.7695 12.0781 90.7695 12.1562C90.6758 12.8125 90.6289 13.1875 90.6289 13.2812C90.9102 12.8594 91.293 12.4844 91.7773 12.1562C92.2617 11.8125 92.7539 11.6406 93.2539 11.6406C94.1133 11.6406 94.7539 11.8984 95.1758 12.4141C95.1758 13.7422 94.8008 14.4062 94.0508 14.4062C93.7852 14.4062 93.4805 14.25 93.1367 13.9375C92.793 13.625 92.457 13.4688 92.1289 13.4688C91.8008 13.4688 91.5195 13.5859 91.2852 13.8203C91.0508 14.0547 90.8711 14.3438 90.7461 14.6875C90.6367 15.0312 90.582 15.3828 90.582 15.7422V18.6719C90.582 19.6562 90.6367 20.3594 90.7461 20.7812C90.7773 20.8438 90.8867 20.9219 91.0742 21.0156C91.2617 21.0938 91.4648 21.1641 91.6836 21.2266C91.9023 21.2734 92.0586 21.2969 92.1523 21.2969C92.1992 21.2969 92.2227 21.4141 92.2227 21.6484C92.2383 21.8672 92.2383 22.0156 92.2227 22.0938C92.1445 22.0781 91.918 22.0547 91.543 22.0234C91.1836 22.0078 90.793 21.9922 90.3711 21.9766C89.9648 21.9453 89.6367 21.9297 89.3867 21.9297C89.1367 21.9297 88.8008 21.9453 88.3789 21.9766C87.957 21.9922 87.5586 22.0078 87.1836 22.0234C86.8242 22.0547 86.5977 22.0781 86.5039 22.0938ZM102.066 22.2578C101.926 22.2578 101.832 22.2109 101.785 22.1172C101.363 21.1641 101.004 20.3672 100.707 19.7266C100.426 19.0703 100.176 18.5 99.957 18.0156C99.7539 17.5312 99.5508 17.0703 99.3477 16.6328C99.1602 16.1797 98.9414 15.6875 98.6914 15.1562C98.4414 14.6094 98.1367 13.9375 97.7773 13.1406C97.5898 12.7031 97.082 12.4844 96.2539 12.4844C96.1914 12.4844 96.1602 12.3594 96.1602 12.1094C96.1602 11.9219 96.1914 11.7969 96.2539 11.7344C96.6914 11.7344 97.1523 11.7578 97.6367 11.8047C98.1367 11.8516 98.6289 11.875 99.1133 11.875C99.582 11.875 100.059 11.8516 100.543 11.8047C101.027 11.7578 101.488 11.7344 101.926 11.7344C101.973 11.7969 101.988 11.9375 101.973 12.1562C101.973 12.375 101.941 12.4844 101.879 12.4844C101.754 12.4844 101.582 12.5078 101.363 12.5547C101.145 12.6016 100.949 12.6641 100.777 12.7422C100.605 12.8047 100.52 12.8906 100.52 13C100.52 13.0938 100.535 13.1719 100.566 13.2344L102.887 18.625L104.996 13.9844C105.168 13.6094 105.207 13.3203 105.113 13.1172C104.879 12.6953 104.332 12.4844 103.473 12.4844C103.426 12.4844 103.402 12.375 103.402 12.1562C103.402 11.9375 103.426 11.7969 103.473 11.7344C103.926 11.75 104.379 11.7812 104.832 11.8281C105.285 11.8594 105.66 11.875 105.957 11.875C106.238 11.875 106.605 11.8594 107.059 11.8281C107.527 11.7812 107.996 11.75 108.465 11.7344C108.512 11.7969 108.535 11.9219 108.535 12.1094C108.535 12.3594 108.488 12.4844 108.395 12.4844C108.176 12.4844 107.871 12.5625 107.48 12.7188C107.09 12.8594 106.824 13.0781 106.684 13.375L102.77 21.6484C102.707 21.7734 102.605 21.9062 102.465 22.0469C102.324 22.1875 102.191 22.2578 102.066 22.2578ZM109.59 22.0703C109.527 22.0078 109.496 21.8594 109.496 21.625C109.496 21.4062 109.527 21.2969 109.59 21.2969C109.715 21.2969 109.879 21.2656 110.082 21.2031C110.285 21.1406 110.473 21.0625 110.645 20.9688C110.832 20.875 110.934 20.7969 110.949 20.7344C111.012 20.4688 111.059 20.1875 111.09 19.8906C111.121 19.5938 111.137 19.2969 111.137 19V15.2266C111.137 14.4922 111.012 13.9922 110.762 13.7266C110.621 13.5547 110.441 13.4375 110.223 13.375C110.02 13.3125 109.832 13.2734 109.66 13.2578C109.504 13.2422 109.426 13.2188 109.426 13.1875C109.426 12.7188 109.465 12.4844 109.543 12.4844C110.043 12.4219 110.59 12.3359 111.184 12.2266C111.793 12.1016 112.34 11.9844 112.824 11.875L113.574 11.6875C113.684 11.6875 113.738 11.8438 113.738 12.1562C113.738 12.3594 113.707 12.6562 113.645 13.0469C113.598 13.4219 113.574 13.7969 113.574 14.1719V18.625C113.574 19.6094 113.629 20.3125 113.738 20.7344C113.77 20.7969 113.871 20.875 114.043 20.9688C114.215 21.0625 114.402 21.1406 114.605 21.2031C114.809 21.2656 114.949 21.2969 115.027 21.2969C115.074 21.2969 115.098 21.4062 115.098 21.625C115.113 21.8438 115.105 21.9922 115.074 22.0703C114.59 22.0391 114.098 22.0078 113.598 21.9766C113.098 21.9453 112.684 21.9297 112.355 21.9297C111.871 21.9297 111.371 21.9453 110.855 21.9766C110.355 22.0078 109.934 22.0391 109.59 22.0703ZM112.168 9.25C111.777 9.25 111.441 9.10938 111.16 8.82812C110.879 8.54688 110.738 8.21094 110.738 7.82031C110.738 7.42969 110.879 7.10156 111.16 6.83594C111.441 6.55469 111.777 6.41406 112.168 6.41406C112.559 6.41406 112.887 6.55469 113.152 6.83594C113.434 7.10156 113.574 7.42969 113.574 7.82031C113.574 8.21094 113.434 8.54688 113.152 8.82812C112.887 9.10938 112.559 9.25 112.168 9.25ZM121.262 22.1406C120.309 22.1406 119.449 21.9062 118.684 21.4375C117.918 20.9688 117.309 20.3359 116.855 19.5391C116.402 18.7422 116.176 17.8594 116.176 16.8906C116.176 15.9375 116.387 15.0703 116.809 14.2891C117.246 13.4922 117.848 12.8516 118.613 12.3672C119.379 11.8828 120.262 11.6406 121.262 11.6406C122.09 11.6406 122.824 11.7812 123.465 12.0625C124.121 12.3281 124.59 12.625 124.871 12.9531C124.871 13.4844 124.777 13.9297 124.59 14.2891C124.418 14.6328 124.152 14.8047 123.793 14.8047C123.496 14.8047 123.254 14.7266 123.066 14.5703C122.895 14.4141 122.715 14.1562 122.527 13.7969C122.184 13.0781 121.66 12.7188 120.957 12.7188C120.285 12.7188 119.746 13.0625 119.34 13.75C118.949 14.4219 118.754 15.2734 118.754 16.3047C118.754 17.7109 119.043 18.7578 119.621 19.4453C120.199 20.1172 120.934 20.4531 121.824 20.4531C122.23 20.4531 122.566 20.4219 122.832 20.3594C123.098 20.2969 123.355 20.2266 123.605 20.1484C123.73 20.1016 123.887 20.0234 124.074 19.9141C124.262 19.7891 124.434 19.6797 124.59 19.5859C124.746 19.4766 124.824 19.4219 124.824 19.4219C124.855 19.4375 124.895 19.4844 124.941 19.5625C124.988 19.6406 125.012 19.7188 125.012 19.7969C125.012 20.0938 124.824 20.4297 124.449 20.8047C124.09 21.1641 123.621 21.4766 123.043 21.7422C122.48 22.0078 121.887 22.1406 121.262 22.1406ZM131.363 22.1406C130.457 22.1406 129.621 21.9141 128.855 21.4609C128.105 20.9922 127.504 20.3672 127.051 19.5859C126.598 18.7891 126.371 17.9141 126.371 16.9609C126.371 15.8984 126.582 14.9688 127.004 14.1719C127.426 13.375 127.996 12.7578 128.715 12.3203C129.449 11.8672 130.285 11.6406 131.223 11.6406C131.988 11.6406 132.645 11.7812 133.191 12.0625C133.738 12.3438 134.184 12.7109 134.527 13.1641C134.887 13.6016 135.145 14.0703 135.301 14.5703C135.473 15.0547 135.559 15.5078 135.559 15.9297C135.559 16.2734 135.496 16.4922 135.371 16.5859C135.262 16.6641 135.027 16.7031 134.668 16.7031H129.066C128.957 16.7031 128.902 16.75 128.902 16.8438C128.902 17.4219 129.004 17.9688 129.207 18.4844C129.41 19.0156 129.754 19.4766 130.238 19.8672C130.738 20.2578 131.332 20.4531 132.02 20.4531C132.426 20.4531 132.762 20.4219 133.027 20.3594C133.293 20.2969 133.551 20.2266 133.801 20.1484C133.926 20.1016 134.082 20.0234 134.27 19.9141C134.457 19.7891 134.629 19.6797 134.785 19.5859C134.941 19.4766 135.02 19.4219 135.02 19.4219C135.051 19.4375 135.09 19.4844 135.137 19.5625C135.184 19.6406 135.207 19.7188 135.207 19.7969C135.207 19.9688 135.16 20.1172 135.066 20.2422C134.91 20.5234 134.645 20.8125 134.27 21.1094C133.91 21.3906 133.48 21.6328 132.98 21.8359C132.48 22.0391 131.941 22.1406 131.363 22.1406ZM129.066 15.5781H132.863C133.004 15.5781 133.074 15.4609 133.074 15.2266C133.074 14.8516 132.988 14.4766 132.816 14.1016C132.66 13.7109 132.426 13.3828 132.113 13.1172C131.816 12.8516 131.465 12.7188 131.059 12.7188C130.574 12.7188 130.168 12.8828 129.84 13.2109C129.527 13.5391 129.293 13.9141 129.137 14.3359C128.996 14.7578 128.926 15.1172 128.926 15.4141C128.926 15.5234 128.973 15.5781 129.066 15.5781ZM140.035 22.2344C139.051 22.2344 138.043 22.0156 137.012 21.5781C136.965 21.3906 136.91 21.125 136.848 20.7812C136.801 20.4375 136.754 20.0938 136.707 19.75C136.676 19.3906 136.66 19.1172 136.66 18.9297C136.77 18.8516 136.879 18.8125 136.988 18.8125C137.332 18.8125 137.52 18.875 137.551 19C137.676 19.6562 137.98 20.1875 138.465 20.5938C138.965 20.9844 139.504 21.1797 140.082 21.1797C140.52 21.1797 140.879 21.0703 141.16 20.8516C141.441 20.6172 141.582 20.2734 141.582 19.8203C141.582 19.4922 141.457 19.1953 141.207 18.9297C140.957 18.6484 140.723 18.4531 140.504 18.3438L138.957 17.5234C138.238 17.1484 137.684 16.7344 137.293 16.2812C136.902 15.8125 136.707 15.25 136.707 14.5938C136.707 13.9531 136.879 13.4141 137.223 12.9766C137.582 12.5391 138.043 12.2031 138.605 11.9688C139.184 11.7344 139.801 11.6172 140.457 11.6172C141.301 11.6172 142.207 11.75 143.176 12.0156C143.254 12.3594 143.309 12.75 143.34 13.1875C143.387 13.625 143.418 14.1094 143.434 14.6406C143.434 14.7656 143.332 14.8281 143.129 14.8281C142.785 14.8281 142.598 14.7656 142.566 14.6406C142.457 14.0938 142.223 13.6328 141.863 13.2578C141.52 12.8672 141.051 12.6719 140.457 12.6719C140.004 12.6719 139.645 12.7734 139.379 12.9766C139.129 13.1797 139.004 13.4688 139.004 13.8438C139.004 14.25 139.16 14.5938 139.473 14.875C139.785 15.1562 140.207 15.4297 140.738 15.6953C141.145 15.8984 141.535 16.1172 141.91 16.3516C142.301 16.5859 142.668 16.8438 143.012 17.125C143.621 17.6094 143.926 18.25 143.926 19.0469C143.926 19.7031 143.746 20.2734 143.387 20.7578C143.043 21.2266 142.574 21.5938 141.98 21.8594C141.402 22.1094 140.754 22.2344 140.035 22.2344Z" fill="#313131"/>
<circle cx="195" cy="14.5" r="10" fill="url(#paint0_linear_480_4866)"/>
<path d="M245.965 22.0703C245.902 22.0078 245.871 21.8906 245.871 21.7188C245.871 21.4375 245.887 21.2969 245.918 21.2969C246.043 21.2969 246.223 21.2656 246.457 21.2031C246.707 21.1406 246.941 21.0625 247.16 20.9688C247.395 20.8594 247.543 20.75 247.605 20.6406C247.762 20.4062 247.91 20.1406 248.051 19.8438C248.191 19.5312 248.34 19.1875 248.496 18.8125L252.855 8.26562C253.23 7.3125 253.52 6.75 253.723 6.57812C253.832 6.46875 253.965 6.41406 254.121 6.41406C254.23 6.41406 254.324 6.45312 254.402 6.53125L259.324 18.8125C259.449 19.1094 259.566 19.4062 259.676 19.7031C259.801 19.9844 259.918 20.2578 260.027 20.5234C260.09 20.6797 260.23 20.8203 260.449 20.9453C260.668 21.0547 260.895 21.1406 261.129 21.2031C261.363 21.2656 261.543 21.2969 261.668 21.2969C261.73 21.2969 261.762 21.4375 261.762 21.7188C261.762 21.8906 261.746 22.0078 261.715 22.0703L258.762 21.9297L255.715 22.0703C255.652 22.0078 255.621 21.8594 255.621 21.625C255.621 21.4062 255.652 21.2969 255.715 21.2969C255.902 21.2969 256.16 21.25 256.488 21.1562C256.816 21.0625 257.012 20.9531 257.074 20.8281C257.121 20.7344 257.145 20.6328 257.145 20.5234C257.145 20.3672 257.105 20.1562 257.027 19.8906C256.949 19.625 256.84 19.2969 256.699 18.9062L255.879 16.7266C255.816 16.6641 255.762 16.6328 255.715 16.6328C255.465 16.6172 255.168 16.6094 254.824 16.6094C254.496 16.5938 254.121 16.5859 253.699 16.5859C252.855 16.5859 251.965 16.6094 251.027 16.6562C250.934 16.6562 250.887 16.6875 250.887 16.75L249.996 18.9297C249.84 19.3203 249.723 19.6484 249.645 19.9141C249.582 20.1641 249.551 20.3438 249.551 20.4531C249.551 20.6406 249.637 20.7969 249.809 20.9219C249.902 20.9844 250.043 21.0469 250.23 21.1094C250.434 21.1562 250.637 21.2031 250.84 21.25C251.043 21.2812 251.184 21.2969 251.262 21.2969C251.309 21.3125 251.332 21.4219 251.332 21.625C251.332 21.7344 251.324 21.8281 251.309 21.9062C251.309 21.9688 251.301 22.0234 251.285 22.0703C250.707 22.0391 250.23 22.0078 249.855 21.9766C249.496 21.9453 249.16 21.9297 248.848 21.9297C248.535 21.9297 248.16 21.9375 247.723 21.9531C247.285 21.9688 246.699 22.0078 245.965 22.0703ZM253.277 15.3203C253.84 15.3203 254.48 15.2969 255.199 15.25L255.246 15.1562L253.465 10.4688L251.543 15.1562C251.543 15.2188 251.559 15.25 251.59 15.25C252.137 15.2969 252.699 15.3203 253.277 15.3203ZM268.16 22.1406C267.207 22.1406 266.348 21.9062 265.582 21.4375C264.816 20.9688 264.207 20.3359 263.754 19.5391C263.301 18.7422 263.074 17.8594 263.074 16.8906C263.074 15.9375 263.285 15.0703 263.707 14.2891C264.145 13.4922 264.746 12.8516 265.512 12.3672C266.277 11.8828 267.16 11.6406 268.16 11.6406C268.988 11.6406 269.723 11.7812 270.363 12.0625C271.02 12.3281 271.488 12.625 271.77 12.9531C271.77 13.4844 271.676 13.9297 271.488 14.2891C271.316 14.6328 271.051 14.8047 270.691 14.8047C270.395 14.8047 270.152 14.7266 269.965 14.5703C269.793 14.4141 269.613 14.1562 269.426 13.7969C269.082 13.0781 268.559 12.7188 267.855 12.7188C267.184 12.7188 266.645 13.0625 266.238 13.75C265.848 14.4219 265.652 15.2734 265.652 16.3047C265.652 17.7109 265.941 18.7578 266.52 19.4453C267.098 20.1172 267.832 20.4531 268.723 20.4531C269.129 20.4531 269.465 20.4219 269.73 20.3594C269.996 20.2969 270.254 20.2266 270.504 20.1484C270.629 20.1016 270.785 20.0234 270.973 19.9141C271.16 19.7891 271.332 19.6797 271.488 19.5859C271.645 19.4766 271.723 19.4219 271.723 19.4219C271.754 19.4375 271.793 19.4844 271.84 19.5625C271.887 19.6406 271.91 19.7188 271.91 19.7969C271.91 20.0938 271.723 20.4297 271.348 20.8047C270.988 21.1641 270.52 21.4766 269.941 21.7422C269.379 22.0078 268.785 22.1406 268.16 22.1406ZM275.988 22.1641C275.207 22.1641 274.566 21.9531 274.066 21.5312C273.582 21.0938 273.34 20.5 273.34 19.75C273.34 19.2344 273.504 18.7656 273.832 18.3438C274.176 17.9219 274.652 17.5625 275.262 17.2656C275.48 17.1562 275.676 17.0703 275.848 17.0078C276.035 16.9297 276.207 16.8594 276.363 16.7969C276.91 16.625 277.363 16.4844 277.723 16.375C278.098 16.2656 278.363 16.1875 278.52 16.1406C278.66 16.0625 278.73 15.9375 278.73 15.7656V14.4766C278.73 13.9297 278.605 13.5 278.355 13.1875C278.105 12.875 277.77 12.7188 277.348 12.7188C276.879 12.7188 276.512 12.8672 276.246 13.1641C275.98 13.4453 275.848 13.8516 275.848 14.3828C275.848 14.6953 275.73 14.9297 275.496 15.0859C275.262 15.2266 274.996 15.2969 274.699 15.2969C274.121 15.2969 273.715 15.1094 273.48 14.7344C273.48 14.3594 273.621 13.9922 273.902 13.6328C274.184 13.2578 274.551 12.9219 275.004 12.625C275.473 12.3281 275.988 12.0938 276.551 11.9219C277.113 11.7344 277.676 11.6406 278.238 11.6406C279.207 11.6406 279.934 11.8984 280.418 12.4141C280.902 12.9141 281.145 13.7812 281.145 15.0156V19.6328C281.145 20.2734 281.402 20.5938 281.918 20.5938C282.152 20.5938 282.418 20.4922 282.715 20.2891C282.809 20.3047 282.855 20.3906 282.855 20.5469C282.855 20.8438 282.809 21.0781 282.715 21.25C282.48 21.4375 282.168 21.6328 281.777 21.8359C281.387 22.0391 281.012 22.1406 280.652 22.1406C280.293 22.1406 279.941 22.0078 279.598 21.7422C279.254 21.4766 279.027 21.1875 278.918 20.875C278.793 20.9844 278.699 21.0625 278.637 21.1094C278.574 21.1562 278.473 21.2344 278.332 21.3438C278.004 21.5625 277.645 21.7578 277.254 21.9297C276.863 22.0859 276.441 22.1641 275.988 22.1641ZM277.184 20.6406C277.605 20.6406 277.965 20.5312 278.262 20.3125C278.574 20.0938 278.73 19.8438 278.73 19.5625V17.1719L277.23 17.6875C276.871 17.8438 276.551 18.0312 276.27 18.25C275.988 18.4688 275.848 18.7812 275.848 19.1875C275.848 19.6875 275.973 20.0547 276.223 20.2891C276.473 20.5234 276.793 20.6406 277.184 20.6406ZM291.152 22.1406C291.059 22.1406 291.012 22.0078 291.012 21.7422V21.3438C291.012 21.2969 290.996 21.2656 290.965 21.25C290.949 21.2344 290.934 21.2344 290.918 21.25C290.184 21.8281 289.371 22.1172 288.48 22.1172C287.637 22.1172 286.855 21.9062 286.137 21.4844C285.434 21.0469 284.863 20.4609 284.426 19.7266C283.988 18.9922 283.77 18.1562 283.77 17.2188C283.77 16.1875 284.012 15.25 284.496 14.4062C284.996 13.5469 285.66 12.8672 286.488 12.3672C287.316 11.8516 288.215 11.5938 289.184 11.5938C289.84 11.5938 290.41 11.7031 290.895 11.9219C290.973 11.9219 291.012 11.7969 291.012 11.5469V9.34375C291.012 8.75 290.965 8.21875 290.871 7.75C290.809 7.5 290.402 7.375 289.652 7.375H289.465C289.371 7.375 289.324 7.25 289.324 7C289.324 6.75 289.371 6.625 289.465 6.625C289.934 6.57812 290.387 6.51563 290.824 6.4375C291.277 6.35937 291.652 6.28125 291.949 6.20312C292.371 6.07812 292.699 5.96875 292.934 5.875C293.184 5.78125 293.324 5.73438 293.355 5.73438H293.402C293.465 5.73438 293.527 5.78125 293.59 5.875C293.652 5.95313 293.684 6.03125 293.684 6.10938C293.527 6.6875 293.449 7.42188 293.449 8.3125V18.625C293.449 18.9844 293.465 19.3672 293.496 19.7734C293.527 20.1641 293.582 20.4062 293.66 20.5C293.738 20.5781 293.863 20.6406 294.035 20.6875C294.223 20.7344 294.402 20.7656 294.574 20.7812C294.762 20.7812 294.887 20.7812 294.949 20.7812C294.98 20.8125 294.996 20.9062 294.996 21.0625C294.996 21.375 294.949 21.5312 294.855 21.5312C294.637 21.5469 294.355 21.5781 294.012 21.625C293.684 21.6719 293.363 21.7188 293.051 21.7656C292.426 21.875 291.949 21.9609 291.621 22.0234C291.309 22.1016 291.152 22.1406 291.152 22.1406ZM289.23 20.8281C289.762 20.8281 290.191 20.6953 290.52 20.4297C290.848 20.1484 291.012 19.7969 291.012 19.375V14.4531C291.012 14.2344 290.949 13.9922 290.824 13.7266C290.715 13.4609 290.512 13.2266 290.215 13.0234C289.934 12.8203 289.52 12.7188 288.973 12.7188C288.145 12.7188 287.52 13.0703 287.098 13.7734C286.676 14.4766 286.465 15.4219 286.465 16.6094C286.465 17.9375 286.707 18.9766 287.191 19.7266C287.676 20.4609 288.355 20.8281 289.23 20.8281ZM301.043 22.1406C300.137 22.1406 299.301 21.9141 298.535 21.4609C297.785 20.9922 297.184 20.3672 296.73 19.5859C296.277 18.7891 296.051 17.9141 296.051 16.9609C296.051 15.8984 296.262 14.9688 296.684 14.1719C297.105 13.375 297.676 12.7578 298.395 12.3203C299.129 11.8672 299.965 11.6406 300.902 11.6406C301.668 11.6406 302.324 11.7812 302.871 12.0625C303.418 12.3438 303.863 12.7109 304.207 13.1641C304.566 13.6016 304.824 14.0703 304.98 14.5703C305.152 15.0547 305.238 15.5078 305.238 15.9297C305.238 16.2734 305.176 16.4922 305.051 16.5859C304.941 16.6641 304.707 16.7031 304.348 16.7031H298.746C298.637 16.7031 298.582 16.75 298.582 16.8438C298.582 17.4219 298.684 17.9688 298.887 18.4844C299.09 19.0156 299.434 19.4766 299.918 19.8672C300.418 20.2578 301.012 20.4531 301.699 20.4531C302.105 20.4531 302.441 20.4219 302.707 20.3594C302.973 20.2969 303.23 20.2266 303.48 20.1484C303.605 20.1016 303.762 20.0234 303.949 19.9141C304.137 19.7891 304.309 19.6797 304.465 19.5859C304.621 19.4766 304.699 19.4219 304.699 19.4219C304.73 19.4375 304.77 19.4844 304.816 19.5625C304.863 19.6406 304.887 19.7188 304.887 19.7969C304.887 19.9688 304.84 20.1172 304.746 20.2422C304.59 20.5234 304.324 20.8125 303.949 21.1094C303.59 21.3906 303.16 21.6328 302.66 21.8359C302.16 22.0391 301.621 22.1406 301.043 22.1406ZM298.746 15.5781H302.543C302.684 15.5781 302.754 15.4609 302.754 15.2266C302.754 14.8516 302.668 14.4766 302.496 14.1016C302.34 13.7109 302.105 13.3828 301.793 13.1172C301.496 12.8516 301.145 12.7188 300.738 12.7188C300.254 12.7188 299.848 12.8828 299.52 13.2109C299.207 13.5391 298.973 13.9141 298.816 14.3359C298.676 14.7578 298.605 15.1172 298.605 15.4141C298.605 15.5234 298.652 15.5781 298.746 15.5781ZM306.434 22.0938C306.371 22.0312 306.34 21.8828 306.34 21.6484C306.34 21.4141 306.371 21.2969 306.434 21.2969C306.559 21.2969 306.73 21.2734 306.949 21.2266C307.184 21.1641 307.395 21.0938 307.582 21.0156C307.785 20.9219 307.895 20.8438 307.91 20.7812C308.02 20.3438 308.074 19.7734 308.074 19.0703V15.25C308.074 14.5 307.949 14 307.699 13.75C307.527 13.5625 307.332 13.4375 307.113 13.375C306.91 13.3125 306.73 13.2734 306.574 13.2578C306.434 13.2422 306.363 13.2188 306.363 13.1875C306.363 12.7344 306.41 12.5 306.504 12.4844C306.863 12.4531 307.348 12.3828 307.957 12.2734C308.582 12.1641 309.246 12.0234 309.949 11.8516C310.262 11.7734 310.426 11.7344 310.441 11.7344C310.52 11.7344 310.582 11.7891 310.629 11.8984C310.676 12.0078 310.691 12.0938 310.676 12.1562C310.645 12.375 310.621 12.5547 310.605 12.6953C310.59 12.8359 310.582 12.9375 310.582 13C310.582 13.0781 310.598 13.1172 310.629 13.1172C310.66 13.1172 310.699 13.0938 310.746 13.0469C311.121 12.6719 311.598 12.3438 312.176 12.0625C312.77 11.7812 313.371 11.6406 313.98 11.6406C314.574 11.6406 315.082 11.7969 315.504 12.1094C315.926 12.4062 316.238 12.7969 316.441 13.2812C316.895 12.8125 317.465 12.4219 318.152 12.1094C318.84 11.7969 319.574 11.6406 320.355 11.6406C321.105 11.6406 321.699 11.8516 322.137 12.2734C322.574 12.6797 322.887 13.2344 323.074 13.9375C323.277 14.625 323.379 15.3828 323.379 16.2109V18.6719C323.379 19.6562 323.434 20.3594 323.543 20.7812C323.574 20.8438 323.684 20.9219 323.871 21.0156C324.074 21.0938 324.285 21.1641 324.504 21.2266C324.723 21.2734 324.879 21.2969 324.973 21.2969C325.02 21.2969 325.043 21.4141 325.043 21.6484C325.059 21.8672 325.051 22.0156 325.02 22.0938C324.957 22.0781 324.738 22.0547 324.363 22.0234C324.004 22.0078 323.613 21.9922 323.191 21.9766C322.77 21.9453 322.434 21.9297 322.184 21.9297C321.934 21.9297 321.598 21.9453 321.176 21.9766C320.77 21.9922 320.379 22.0078 320.004 22.0234C319.645 22.0547 319.418 22.0781 319.324 22.0938C319.277 22.0156 319.254 21.8672 319.254 21.6484C319.254 21.4141 319.277 21.2969 319.324 21.2969C319.449 21.2969 319.621 21.2734 319.84 21.2266C320.059 21.1641 320.262 21.0938 320.449 21.0156C320.652 20.9219 320.762 20.8438 320.777 20.7812C320.887 20.3438 320.941 19.7969 320.941 19.1406V16.75C320.941 14.4844 320.215 13.3516 318.762 13.3516C318.246 13.3516 317.824 13.4766 317.496 13.7266C317.168 13.9766 316.965 14.2188 316.887 14.4531C316.887 14.6562 316.895 14.8359 316.91 14.9922C316.926 15.1328 316.934 15.4219 316.934 15.8594V18.7656C316.934 19.2031 316.941 19.5938 316.957 19.9375C316.988 20.2812 317.035 20.5625 317.098 20.7812C317.129 20.8438 317.238 20.9219 317.426 21.0156C317.629 21.0938 317.84 21.1641 318.059 21.2266C318.277 21.2734 318.434 21.2969 318.527 21.2969C318.574 21.2969 318.598 21.4141 318.598 21.6484C318.613 21.8672 318.605 22.0156 318.574 22.0938C318.512 22.0781 318.293 22.0547 317.918 22.0234C317.559 22.0078 317.168 21.9922 316.746 21.9766C316.324 21.9453 315.988 21.9297 315.738 21.9297C315.488 21.9297 315.152 21.9453 314.73 21.9766C314.324 21.9922 313.934 22.0078 313.559 22.0234C313.199 22.0547 312.973 22.0781 312.879 22.0938C312.832 22.0156 312.809 21.8672 312.809 21.6484C312.809 21.4141 312.832 21.2969 312.879 21.2969C313.004 21.2969 313.176 21.2734 313.395 21.2266C313.613 21.1641 313.816 21.0938 314.004 21.0156C314.207 20.9219 314.316 20.8438 314.332 20.7812C314.441 20.3438 314.496 19.7734 314.496 19.0703V16.8203C314.496 15.6016 314.316 14.7188 313.957 14.1719C313.598 13.625 313.066 13.3516 312.363 13.3516C311.895 13.3516 311.465 13.4844 311.074 13.75C310.684 14.0156 310.488 14.3125 310.488 14.6406V18.6719C310.488 19.6094 310.551 20.3125 310.676 20.7812C310.707 20.8438 310.816 20.9219 311.004 21.0156C311.191 21.0938 311.387 21.1641 311.59 21.2266C311.809 21.2734 311.965 21.2969 312.059 21.2969C312.121 21.2969 312.152 21.4141 312.152 21.6484C312.168 21.8672 312.16 22.0156 312.129 22.0938C312.051 22.0781 311.824 22.0547 311.449 22.0234C311.09 22.0078 310.707 21.9922 310.301 21.9766C309.895 21.9453 309.566 21.9297 309.316 21.9297C309.066 21.9297 308.723 21.9453 308.285 21.9766C307.863 21.9922 307.473 22.0078 307.113 22.0234C306.754 22.0547 306.527 22.0781 306.434 22.0938ZM327.129 27.2031C326.723 27.2031 326.41 27.0938 326.191 26.875C325.973 26.6562 325.863 26.4062 325.863 26.125C325.863 25.7188 326.012 25.4141 326.309 25.2109C327.934 25.2109 329.004 24.5703 329.52 23.2891L330.152 21.6953L326.66 13.5625C326.504 13.2031 326.277 12.9375 325.98 12.7656C325.684 12.5781 325.355 12.4844 324.996 12.4844C324.934 12.4844 324.902 12.375 324.902 12.1562C324.902 11.8906 324.926 11.75 324.973 11.7344L326.238 11.8047C326.973 11.8516 327.527 11.875 327.902 11.875C328.262 11.875 328.754 11.8516 329.379 11.8047C330.02 11.7578 330.418 11.7344 330.574 11.7344C330.59 11.7969 330.598 11.8672 330.598 11.9453C330.613 12.0078 330.621 12.0781 330.621 12.1562C330.621 12.375 330.59 12.4844 330.527 12.4844C330.434 12.4844 330.285 12.5156 330.082 12.5781C329.879 12.625 329.691 12.6953 329.52 12.7891C329.348 12.8672 329.262 12.9531 329.262 13.0469V13.1875C329.262 13.3125 329.441 13.8203 329.801 14.7109C330.176 15.6016 330.723 16.875 331.441 18.5312L332.355 16.2109L333.199 14.0547C333.293 13.7891 333.34 13.5469 333.34 13.3281C333.34 13.125 333.215 12.9375 332.965 12.7656C332.715 12.5781 332.34 12.4844 331.84 12.4844C331.777 12.4844 331.746 12.3672 331.746 12.1328C331.746 11.9297 331.777 11.7969 331.84 11.7344C332.027 11.7344 332.41 11.7578 332.988 11.8047C333.582 11.8516 334.059 11.875 334.418 11.875C334.746 11.875 335.152 11.8516 335.637 11.8047C336.105 11.7578 336.449 11.7344 336.668 11.7344C336.73 11.8125 336.762 11.9375 336.762 12.1094C336.762 12.3594 336.73 12.4844 336.668 12.4844C336.527 12.4844 336.332 12.5234 336.082 12.6016C335.832 12.6641 335.598 12.7656 335.379 12.9062C335.16 13.0312 335.004 13.2031 334.91 13.4219L330.621 23.7812C329.684 26.0625 328.52 27.2031 327.129 27.2031Z" fill="#313131"/>
<circle cx="387" cy="14.5" r="10" fill="url(#paint1_linear_480_4866)"/>
<path d="M437.992 22.0703C437.93 22.0078 437.898 21.8984 437.898 21.7422C437.898 21.4453 437.93 21.2969 437.992 21.2969C438.117 21.2969 438.297 21.2734 438.531 21.2266C438.766 21.1797 438.984 21.1172 439.188 21.0391C439.391 20.9453 439.508 20.8594 439.539 20.7812C439.602 20.5312 439.648 20.2422 439.68 19.9141C439.711 19.5859 439.727 19.2188 439.727 18.8125V9.76562C439.727 8.85938 439.664 8.20312 439.539 7.79688C439.508 7.70312 439.391 7.61719 439.188 7.53906C439 7.46094 438.789 7.39844 438.555 7.35156C438.336 7.28906 438.164 7.25781 438.039 7.25781C437.977 7.25781 437.945 7.14062 437.945 6.90625C437.945 6.65625 437.961 6.51563 437.992 6.48438L439.305 6.55469C439.695 6.57031 440.039 6.59375 440.336 6.625C440.648 6.64062 440.906 6.64062 441.109 6.625L444.109 6.48438C444.156 6.625 444.18 6.75 444.18 6.85938C444.18 7.125 444.148 7.25781 444.086 7.25781C443.992 7.25781 443.828 7.28906 443.594 7.35156C443.359 7.41406 443.133 7.48437 442.914 7.5625C442.711 7.64063 442.594 7.71875 442.562 7.79688C442.5 8.04688 442.453 8.34375 442.422 8.6875C442.391 9.01562 442.375 9.40625 442.375 9.85938V18.6719C442.375 19.5312 442.445 20.2344 442.586 20.7812C442.617 20.8438 442.727 20.9219 442.914 21.0156C443.117 21.0938 443.328 21.1641 443.547 21.2266C443.781 21.2734 443.945 21.2969 444.039 21.2969C444.102 21.2969 444.133 21.4453 444.133 21.7422C444.133 21.8359 444.117 21.9453 444.086 22.0703L441.109 21.9297C440.562 21.8984 440 21.9062 439.422 21.9531C438.844 22 438.367 22.0391 437.992 22.0703ZM445.609 22.0938C445.547 22.0312 445.516 21.8828 445.516 21.6484C445.516 21.4141 445.547 21.2969 445.609 21.2969C445.734 21.2969 445.906 21.2734 446.125 21.2266C446.359 21.1641 446.57 21.0938 446.758 21.0156C446.961 20.9219 447.07 20.8438 447.086 20.7812C447.195 20.3438 447.25 19.7734 447.25 19.0703V15.25C447.25 14.5469 447.125 14.0469 446.875 13.75C446.734 13.5781 446.555 13.4688 446.336 13.4219C446.133 13.3594 445.953 13.3203 445.797 13.3047C445.641 13.2734 445.562 13.2344 445.562 13.1875C445.562 12.75 445.602 12.5156 445.68 12.4844C446.039 12.4531 446.562 12.375 447.25 12.25C447.953 12.125 448.609 11.9844 449.219 11.8281C449.25 11.8125 449.32 11.7969 449.43 11.7812C449.555 11.75 449.625 11.7344 449.641 11.7344C449.703 11.7344 449.758 11.7891 449.805 11.8984C449.852 12.0078 449.875 12.0938 449.875 12.1562C449.844 12.375 449.82 12.5547 449.805 12.6953C449.789 12.8359 449.781 12.9375 449.781 13C449.781 13.0781 449.797 13.1172 449.828 13.1172C449.844 13.1172 449.875 13.0938 449.922 13.0469C450.297 12.6719 450.773 12.3438 451.352 12.0625C451.945 11.7812 452.547 11.6406 453.156 11.6406C455.172 11.6406 456.18 13.2422 456.18 16.4453V18.6719C456.18 19.6562 456.234 20.3594 456.344 20.7812C456.375 20.8438 456.484 20.9219 456.672 21.0156C456.875 21.0938 457.086 21.1641 457.305 21.2266C457.539 21.2734 457.703 21.2969 457.797 21.2969C457.844 21.2969 457.867 21.4141 457.867 21.6484C457.883 21.8672 457.875 22.0156 457.844 22.0938C457.781 22.0781 457.562 22.0547 457.188 22.0234C456.828 22.0078 456.43 21.9922 455.992 21.9766C455.57 21.9453 455.234 21.9297 454.984 21.9297C454.734 21.9297 454.406 21.9453 454 21.9766C453.609 21.9922 453.234 22.0078 452.875 22.0234C452.531 22.0547 452.312 22.0781 452.219 22.0938C452.156 22.0312 452.125 21.8828 452.125 21.6484C452.125 21.4141 452.156 21.2969 452.219 21.2969C452.344 21.2969 452.508 21.2734 452.711 21.2266C452.914 21.1641 453.102 21.0938 453.273 21.0156C453.461 20.9219 453.562 20.8438 453.578 20.7812C453.641 20.5469 453.688 20.2891 453.719 20.0078C453.75 19.7266 453.766 19.4141 453.766 19.0703V16.8438C453.766 15.5469 453.586 14.6406 453.227 14.125C452.883 13.6094 452.328 13.3516 451.562 13.3516C451.062 13.3516 450.625 13.4922 450.25 13.7734C449.875 14.0391 449.688 14.3281 449.688 14.6406V18.6719C449.688 19.6562 449.742 20.3594 449.852 20.7812C449.883 20.8438 449.992 20.9219 450.18 21.0156C450.367 21.0938 450.57 21.1641 450.789 21.2266C451.008 21.2734 451.156 21.2969 451.234 21.2969C451.297 21.2969 451.328 21.4141 451.328 21.6484C451.344 21.8672 451.336 22.0156 451.305 22.0938C451.227 22.0781 451 22.0547 450.625 22.0234C450.266 22.0078 449.883 21.9922 449.477 21.9766C449.07 21.9453 448.742 21.9297 448.492 21.9297C448.242 21.9297 447.906 21.9453 447.484 21.9766C447.062 21.9922 446.664 22.0078 446.289 22.0234C445.93 22.0547 445.703 22.0781 445.609 22.0938ZM459.297 22.0938C459.188 21.9844 459.133 21.8281 459.133 21.625C459.148 21.4062 459.203 21.2969 459.297 21.2969C459.422 21.2969 459.594 21.2734 459.812 21.2266C460.031 21.1641 460.234 21.0938 460.422 21.0156C460.609 20.9219 460.711 20.8438 460.727 20.7812C460.867 20.2344 460.938 19.5938 460.938 18.8594V13.4688C460.938 13.3594 460.891 13.3047 460.797 13.3047H459.391C459.359 13.3047 459.344 13.2578 459.344 13.1641C459.344 12.9922 459.453 12.7656 459.672 12.4844C459.891 12.2031 460.141 12.0625 460.422 12.0625H460.797C460.891 12.0625 460.938 12.0156 460.938 11.9219V11.6875C460.938 10.5938 461.164 9.59375 461.617 8.6875C462.07 7.78125 462.664 7.0625 463.398 6.53125C464.148 5.98437 464.969 5.71094 465.859 5.71094C466.516 5.71094 467.055 5.79687 467.477 5.96875C467.914 6.125 468.203 6.32031 468.344 6.55469C468.406 7.03906 468.359 7.47656 468.203 7.86719C468.062 8.24219 467.781 8.42969 467.359 8.42969C467.156 8.42969 466.969 8.35156 466.797 8.19531C466.641 8.03906 466.484 7.85937 466.328 7.65625C466.172 7.45313 466 7.27344 465.812 7.11719C465.625 6.96094 465.406 6.88281 465.156 6.88281C464.562 6.88281 464.109 7.27344 463.797 8.05469C463.484 8.82031 463.328 9.75781 463.328 10.8672V11.9453C463.328 11.9609 463.344 11.9844 463.375 12.0156C463.406 12.0469 463.438 12.0625 463.469 12.0625H466.047C466.109 12.0625 466.148 12.0703 466.164 12.0859C466.18 12.1016 466.188 12.1484 466.188 12.2266C466.188 12.5703 466.094 12.9297 465.906 13.3047H463.469C463.375 13.3047 463.328 13.3516 463.328 13.4453V18.6719C463.328 19.125 463.344 19.5312 463.375 19.8906C463.406 20.2344 463.453 20.5312 463.516 20.7812C463.547 20.8438 463.656 20.9219 463.844 21.0156C464.031 21.0938 464.234 21.1641 464.453 21.2266C464.672 21.2734 464.828 21.2969 464.922 21.2969C464.969 21.2969 464.992 21.4141 464.992 21.6484C465.008 21.8672 465 22.0156 464.969 22.0938C464.906 22.0781 464.688 22.0547 464.312 22.0234C463.953 22.0078 463.555 21.9922 463.117 21.9766C462.695 21.9453 462.359 21.9297 462.109 21.9297C461.859 21.9297 461.523 21.9453 461.102 21.9766C460.695 21.9922 460.312 22.0078 459.953 22.0234C459.609 22.0547 459.391 22.0781 459.297 22.0938ZM467.477 22.0938C467.414 22.0312 467.383 21.8828 467.383 21.6484C467.383 21.4141 467.414 21.2969 467.477 21.2969C467.602 21.2969 467.773 21.2734 467.992 21.2266C468.227 21.1641 468.438 21.0938 468.625 21.0156C468.828 20.9219 468.938 20.8438 468.953 20.7812C469.062 20.3438 469.117 19.7734 469.117 19.0703V15.25C469.117 14.5 468.992 14 468.742 13.75C468.602 13.5781 468.43 13.4609 468.227 13.3984C468.023 13.3203 467.836 13.2734 467.664 13.2578C467.508 13.2422 467.43 13.2188 467.43 13.1875C467.43 12.75 467.469 12.5156 467.547 12.4844C468 12.4531 468.492 12.3828 469.023 12.2734C469.57 12.1484 470.203 12.0156 470.922 11.875C471.156 11.8281 471.305 11.7969 471.367 11.7812C471.445 11.75 471.492 11.7344 471.508 11.7344C471.57 11.7344 471.625 11.7891 471.672 11.8984C471.719 11.9922 471.742 12.0781 471.742 12.1562C471.648 12.8125 471.602 13.1875 471.602 13.2812C471.883 12.8594 472.266 12.4844 472.75 12.1562C473.234 11.8125 473.727 11.6406 474.227 11.6406C475.086 11.6406 475.727 11.8984 476.148 12.4141C476.148 13.7422 475.773 14.4062 475.023 14.4062C474.758 14.4062 474.453 14.25 474.109 13.9375C473.766 13.625 473.43 13.4688 473.102 13.4688C472.773 13.4688 472.492 13.5859 472.258 13.8203C472.023 14.0547 471.844 14.3438 471.719 14.6875C471.609 15.0312 471.555 15.3828 471.555 15.7422V18.6719C471.555 19.6562 471.609 20.3594 471.719 20.7812C471.75 20.8438 471.859 20.9219 472.047 21.0156C472.234 21.0938 472.438 21.1641 472.656 21.2266C472.875 21.2734 473.031 21.2969 473.125 21.2969C473.172 21.2969 473.195 21.4141 473.195 21.6484C473.211 21.8672 473.211 22.0156 473.195 22.0938C473.117 22.0781 472.891 22.0547 472.516 22.0234C472.156 22.0078 471.766 21.9922 471.344 21.9766C470.938 21.9453 470.609 21.9297 470.359 21.9297C470.109 21.9297 469.773 21.9453 469.352 21.9766C468.93 21.9922 468.531 22.0078 468.156 22.0234C467.797 22.0547 467.57 22.0781 467.477 22.0938ZM480.109 22.1641C479.328 22.1641 478.688 21.9531 478.188 21.5312C477.703 21.0938 477.461 20.5 477.461 19.75C477.461 19.2344 477.625 18.7656 477.953 18.3438C478.297 17.9219 478.773 17.5625 479.383 17.2656C479.602 17.1562 479.797 17.0703 479.969 17.0078C480.156 16.9297 480.328 16.8594 480.484 16.7969C481.031 16.625 481.484 16.4844 481.844 16.375C482.219 16.2656 482.484 16.1875 482.641 16.1406C482.781 16.0625 482.852 15.9375 482.852 15.7656V14.4766C482.852 13.9297 482.727 13.5 482.477 13.1875C482.227 12.875 481.891 12.7188 481.469 12.7188C481 12.7188 480.633 12.8672 480.367 13.1641C480.102 13.4453 479.969 13.8516 479.969 14.3828C479.969 14.6953 479.852 14.9297 479.617 15.0859C479.383 15.2266 479.117 15.2969 478.82 15.2969C478.242 15.2969 477.836 15.1094 477.602 14.7344C477.602 14.3594 477.742 13.9922 478.023 13.6328C478.305 13.2578 478.672 12.9219 479.125 12.625C479.594 12.3281 480.109 12.0938 480.672 11.9219C481.234 11.7344 481.797 11.6406 482.359 11.6406C483.328 11.6406 484.055 11.8984 484.539 12.4141C485.023 12.9141 485.266 13.7812 485.266 15.0156V19.6328C485.266 20.2734 485.523 20.5938 486.039 20.5938C486.273 20.5938 486.539 20.4922 486.836 20.2891C486.93 20.3047 486.977 20.3906 486.977 20.5469C486.977 20.8438 486.93 21.0781 486.836 21.25C486.602 21.4375 486.289 21.6328 485.898 21.8359C485.508 22.0391 485.133 22.1406 484.773 22.1406C484.414 22.1406 484.062 22.0078 483.719 21.7422C483.375 21.4766 483.148 21.1875 483.039 20.875C482.914 20.9844 482.82 21.0625 482.758 21.1094C482.695 21.1562 482.594 21.2344 482.453 21.3438C482.125 21.5625 481.766 21.7578 481.375 21.9297C480.984 22.0859 480.562 22.1641 480.109 22.1641ZM481.305 20.6406C481.727 20.6406 482.086 20.5312 482.383 20.3125C482.695 20.0938 482.852 19.8438 482.852 19.5625V17.1719L481.352 17.6875C480.992 17.8438 480.672 18.0312 480.391 18.25C480.109 18.4688 479.969 18.7812 479.969 19.1875C479.969 19.6875 480.094 20.0547 480.344 20.2891C480.594 20.5234 480.914 20.6406 481.305 20.6406ZM491.43 22.2344C490.445 22.2344 489.438 22.0156 488.406 21.5781C488.359 21.3906 488.305 21.125 488.242 20.7812C488.195 20.4375 488.148 20.0938 488.102 19.75C488.07 19.3906 488.055 19.1172 488.055 18.9297C488.164 18.8516 488.273 18.8125 488.383 18.8125C488.727 18.8125 488.914 18.875 488.945 19C489.07 19.6562 489.375 20.1875 489.859 20.5938C490.359 20.9844 490.898 21.1797 491.477 21.1797C491.914 21.1797 492.273 21.0703 492.555 20.8516C492.836 20.6172 492.977 20.2734 492.977 19.8203C492.977 19.4922 492.852 19.1953 492.602 18.9297C492.352 18.6484 492.117 18.4531 491.898 18.3438L490.352 17.5234C489.633 17.1484 489.078 16.7344 488.688 16.2812C488.297 15.8125 488.102 15.25 488.102 14.5938C488.102 13.9531 488.273 13.4141 488.617 12.9766C488.977 12.5391 489.438 12.2031 490 11.9688C490.578 11.7344 491.195 11.6172 491.852 11.6172C492.695 11.6172 493.602 11.75 494.57 12.0156C494.648 12.3594 494.703 12.75 494.734 13.1875C494.781 13.625 494.812 14.1094 494.828 14.6406C494.828 14.7656 494.727 14.8281 494.523 14.8281C494.18 14.8281 493.992 14.7656 493.961 14.6406C493.852 14.0938 493.617 13.6328 493.258 13.2578C492.914 12.8672 492.445 12.6719 491.852 12.6719C491.398 12.6719 491.039 12.7734 490.773 12.9766C490.523 13.1797 490.398 13.4688 490.398 13.8438C490.398 14.25 490.555 14.5938 490.867 14.875C491.18 15.1562 491.602 15.4297 492.133 15.6953C492.539 15.8984 492.93 16.1172 493.305 16.3516C493.695 16.5859 494.062 16.8438 494.406 17.125C495.016 17.6094 495.32 18.25 495.32 19.0469C495.32 19.7031 495.141 20.2734 494.781 20.7578C494.438 21.2266 493.969 21.5938 493.375 21.8594C492.797 22.1094 492.148 22.2344 491.43 22.2344ZM501.18 22.1641C500.367 22.1641 499.672 21.9062 499.094 21.3906C498.531 20.8594 498.25 20.0469 498.25 18.9531V13.2812H496.82C496.711 13.2812 496.656 13.0781 496.656 12.6719C496.656 12.5469 496.664 12.4766 496.68 12.4609C496.992 12.3203 497.297 12.1484 497.594 11.9453C497.891 11.7266 498.188 11.4844 498.484 11.2188C498.938 10.7656 499.305 10.375 499.586 10.0469C499.867 9.70312 500.008 9.53125 500.008 9.53125C500.086 9.53125 500.164 9.53906 500.242 9.55469C500.32 9.55469 500.391 9.5625 500.453 9.57812C500.594 9.625 500.664 9.67188 500.664 9.71875V12.0156H502.375C502.734 12.0156 503.008 12.0234 503.195 12.0391C503.398 12.0391 503.508 12.0391 503.523 12.0391C503.648 12.0391 503.711 12.1094 503.711 12.25C503.711 12.6406 503.633 12.9844 503.477 13.2812H500.664V18.9297C500.664 19.5547 500.797 20.0312 501.062 20.3594C501.328 20.6875 501.695 20.8516 502.164 20.8516C502.492 20.8516 502.797 20.7891 503.078 20.6641C503.359 20.5234 503.516 20.4531 503.547 20.4531C503.609 20.4375 503.68 20.5078 503.758 20.6641C503.836 20.8203 503.867 20.9219 503.852 20.9688C503.789 21.1094 503.609 21.2734 503.312 21.4609C503.031 21.6484 502.695 21.8125 502.305 21.9531C501.93 22.0938 501.555 22.1641 501.18 22.1641ZM505.211 22.0938C505.148 22.0312 505.117 21.8828 505.117 21.6484C505.117 21.4141 505.148 21.2969 505.211 21.2969C505.336 21.2969 505.508 21.2734 505.727 21.2266C505.961 21.1641 506.172 21.0938 506.359 21.0156C506.562 20.9219 506.672 20.8438 506.688 20.7812C506.797 20.3438 506.852 19.7734 506.852 19.0703V15.25C506.852 14.5 506.727 14 506.477 13.75C506.336 13.5781 506.164 13.4609 505.961 13.3984C505.758 13.3203 505.57 13.2734 505.398 13.2578C505.242 13.2422 505.164 13.2188 505.164 13.1875C505.164 12.75 505.203 12.5156 505.281 12.4844C505.734 12.4531 506.227 12.3828 506.758 12.2734C507.305 12.1484 507.938 12.0156 508.656 11.875C508.891 11.8281 509.039 11.7969 509.102 11.7812C509.18 11.75 509.227 11.7344 509.242 11.7344C509.305 11.7344 509.359 11.7891 509.406 11.8984C509.453 11.9922 509.477 12.0781 509.477 12.1562C509.383 12.8125 509.336 13.1875 509.336 13.2812C509.617 12.8594 510 12.4844 510.484 12.1562C510.969 11.8125 511.461 11.6406 511.961 11.6406C512.82 11.6406 513.461 11.8984 513.883 12.4141C513.883 13.7422 513.508 14.4062 512.758 14.4062C512.492 14.4062 512.188 14.25 511.844 13.9375C511.5 13.625 511.164 13.4688 510.836 13.4688C510.508 13.4688 510.227 13.5859 509.992 13.8203C509.758 14.0547 509.578 14.3438 509.453 14.6875C509.344 15.0312 509.289 15.3828 509.289 15.7422V18.6719C509.289 19.6562 509.344 20.3594 509.453 20.7812C509.484 20.8438 509.594 20.9219 509.781 21.0156C509.969 21.0938 510.172 21.1641 510.391 21.2266C510.609 21.2734 510.766 21.2969 510.859 21.2969C510.906 21.2969 510.93 21.4141 510.93 21.6484C510.945 21.8672 510.945 22.0156 510.93 22.0938C510.852 22.0781 510.625 22.0547 510.25 22.0234C509.891 22.0078 509.5 21.9922 509.078 21.9766C508.672 21.9453 508.344 21.9297 508.094 21.9297C507.844 21.9297 507.508 21.9453 507.086 21.9766C506.664 21.9922 506.266 22.0078 505.891 22.0234C505.531 22.0547 505.305 22.0781 505.211 22.0938ZM519.625 22.1406C518.922 22.1406 518.352 21.9297 517.914 21.5078C517.477 21.0859 517.156 20.5469 516.953 19.8906C516.75 19.2344 516.648 18.5625 516.648 17.875V15.25C516.648 14.5 516.523 14 516.273 13.75C516.133 13.5781 515.953 13.4609 515.734 13.3984C515.531 13.3203 515.344 13.2734 515.172 13.2578C515.016 13.2422 514.938 13.2188 514.938 13.1875C514.938 12.75 514.977 12.5156 515.055 12.4844C515.43 12.4531 515.852 12.3984 516.32 12.3203C516.789 12.2422 517.227 12.1641 517.633 12.0859C518.039 11.9922 518.32 11.9219 518.477 11.875C518.602 11.8438 518.719 11.8125 518.828 11.7812C518.938 11.75 519 11.7344 519.016 11.7344C519.094 11.7344 519.148 11.7891 519.18 11.8984C519.227 12.0078 519.25 12.0938 519.25 12.1562C519.109 13.2031 519.039 13.8906 519.039 14.2188V17.0312C519.039 18.25 519.211 19.125 519.555 19.6562C519.898 20.1875 520.453 20.4531 521.219 20.4531C521.719 20.4531 522.141 20.3047 522.484 20.0078C522.828 19.6953 523 19.3984 523 19.1172V15.25C523 14.5 522.875 14 522.625 13.75C522.484 13.5781 522.305 13.4609 522.086 13.3984C521.883 13.3359 521.695 13.2969 521.523 13.2812C521.367 13.25 521.289 13.2188 521.289 13.1875C521.289 12.7344 521.336 12.5 521.43 12.4844C521.727 12.4531 522.102 12.3984 522.555 12.3203C523.008 12.2422 523.469 12.1562 523.938 12.0625C524.422 11.9531 524.836 11.8594 525.18 11.7812L525.367 11.7344C525.445 11.7344 525.508 11.7891 525.555 11.8984C525.602 12.0078 525.617 12.0938 525.602 12.1562C525.539 12.6875 525.492 13.125 525.461 13.4688C525.43 13.7969 525.414 14.0312 525.414 14.1719V18.8125C525.414 19.2031 525.43 19.5391 525.461 19.8203C525.492 20.1016 525.539 20.3125 525.602 20.4531C525.664 20.5781 525.789 20.6641 525.977 20.7109C526.164 20.7422 526.344 20.7578 526.516 20.7578C526.703 20.7578 526.82 20.7656 526.867 20.7812C526.93 20.7969 526.961 20.8672 526.961 20.9922C526.961 21.0547 526.945 21.1641 526.914 21.3203C526.883 21.4609 526.836 21.5312 526.773 21.5312C526.43 21.5312 525.914 21.5938 525.227 21.7188C524.555 21.8438 523.859 21.9844 523.141 22.1406C523.031 22.1406 522.977 22.0156 522.977 21.7656V20.7344C522.977 20.6562 522.953 20.6172 522.906 20.6172C522.547 21.0078 522.07 21.3594 521.477 21.6719C520.883 21.9844 520.266 22.1406 519.625 22.1406ZM533.219 22.1406C532.266 22.1406 531.406 21.9062 530.641 21.4375C529.875 20.9688 529.266 20.3359 528.812 19.5391C528.359 18.7422 528.133 17.8594 528.133 16.8906C528.133 15.9375 528.344 15.0703 528.766 14.2891C529.203 13.4922 529.805 12.8516 530.57 12.3672C531.336 11.8828 532.219 11.6406 533.219 11.6406C534.047 11.6406 534.781 11.7812 535.422 12.0625C536.078 12.3281 536.547 12.625 536.828 12.9531C536.828 13.4844 536.734 13.9297 536.547 14.2891C536.375 14.6328 536.109 14.8047 535.75 14.8047C535.453 14.8047 535.211 14.7266 535.023 14.5703C534.852 14.4141 534.672 14.1562 534.484 13.7969C534.141 13.0781 533.617 12.7188 532.914 12.7188C532.242 12.7188 531.703 13.0625 531.297 13.75C530.906 14.4219 530.711 15.2734 530.711 16.3047C530.711 17.7109 531 18.7578 531.578 19.4453C532.156 20.1172 532.891 20.4531 533.781 20.4531C534.188 20.4531 534.523 20.4219 534.789 20.3594C535.055 20.2969 535.312 20.2266 535.562 20.1484C535.688 20.1016 535.844 20.0234 536.031 19.9141C536.219 19.7891 536.391 19.6797 536.547 19.5859C536.703 19.4766 536.781 19.4219 536.781 19.4219C536.812 19.4375 536.852 19.4844 536.898 19.5625C536.945 19.6406 536.969 19.7188 536.969 19.7969C536.969 20.0938 536.781 20.4297 536.406 20.8047C536.047 21.1641 535.578 21.4766 535 21.7422C534.438 22.0078 533.844 22.1406 533.219 22.1406ZM542.664 22.1641C541.852 22.1641 541.156 21.9062 540.578 21.3906C540.016 20.8594 539.734 20.0469 539.734 18.9531V13.2812H538.305C538.195 13.2812 538.141 13.0781 538.141 12.6719C538.141 12.5469 538.148 12.4766 538.164 12.4609C538.477 12.3203 538.781 12.1484 539.078 11.9453C539.375 11.7266 539.672 11.4844 539.969 11.2188C540.422 10.7656 540.789 10.375 541.07 10.0469C541.352 9.70312 541.492 9.53125 541.492 9.53125C541.57 9.53125 541.648 9.53906 541.727 9.55469C541.805 9.55469 541.875 9.5625 541.938 9.57812C542.078 9.625 542.148 9.67188 542.148 9.71875V12.0156H543.859C544.219 12.0156 544.492 12.0234 544.68 12.0391C544.883 12.0391 544.992 12.0391 545.008 12.0391C545.133 12.0391 545.195 12.1094 545.195 12.25C545.195 12.6406 545.117 12.9844 544.961 13.2812H542.148V18.9297C542.148 19.5547 542.281 20.0312 542.547 20.3594C542.812 20.6875 543.18 20.8516 543.648 20.8516C543.977 20.8516 544.281 20.7891 544.562 20.6641C544.844 20.5234 545 20.4531 545.031 20.4531C545.094 20.4375 545.164 20.5078 545.242 20.6641C545.32 20.8203 545.352 20.9219 545.336 20.9688C545.273 21.1094 545.094 21.2734 544.797 21.4609C544.516 21.6484 544.18 21.8125 543.789 21.9531C543.414 22.0938 543.039 22.1641 542.664 22.1641ZM551.031 22.1406C550.328 22.1406 549.758 21.9297 549.32 21.5078C548.883 21.0859 548.562 20.5469 548.359 19.8906C548.156 19.2344 548.055 18.5625 548.055 17.875V15.25C548.055 14.5 547.93 14 547.68 13.75C547.539 13.5781 547.359 13.4609 547.141 13.3984C546.938 13.3203 546.75 13.2734 546.578 13.2578C546.422 13.2422 546.344 13.2188 546.344 13.1875C546.344 12.75 546.383 12.5156 546.461 12.4844C546.836 12.4531 547.258 12.3984 547.727 12.3203C548.195 12.2422 548.633 12.1641 549.039 12.0859C549.445 11.9922 549.727 11.9219 549.883 11.875C550.008 11.8438 550.125 11.8125 550.234 11.7812C550.344 11.75 550.406 11.7344 550.422 11.7344C550.5 11.7344 550.555 11.7891 550.586 11.8984C550.633 12.0078 550.656 12.0938 550.656 12.1562C550.516 13.2031 550.445 13.8906 550.445 14.2188V17.0312C550.445 18.25 550.617 19.125 550.961 19.6562C551.305 20.1875 551.859 20.4531 552.625 20.4531C553.125 20.4531 553.547 20.3047 553.891 20.0078C554.234 19.6953 554.406 19.3984 554.406 19.1172V15.25C554.406 14.5 554.281 14 554.031 13.75C553.891 13.5781 553.711 13.4609 553.492 13.3984C553.289 13.3359 553.102 13.2969 552.93 13.2812C552.773 13.25 552.695 13.2188 552.695 13.1875C552.695 12.7344 552.742 12.5 552.836 12.4844C553.133 12.4531 553.508 12.3984 553.961 12.3203C554.414 12.2422 554.875 12.1562 555.344 12.0625C555.828 11.9531 556.242 11.8594 556.586 11.7812L556.773 11.7344C556.852 11.7344 556.914 11.7891 556.961 11.8984C557.008 12.0078 557.023 12.0938 557.008 12.1562C556.945 12.6875 556.898 13.125 556.867 13.4688C556.836 13.7969 556.82 14.0312 556.82 14.1719V18.8125C556.82 19.2031 556.836 19.5391 556.867 19.8203C556.898 20.1016 556.945 20.3125 557.008 20.4531C557.07 20.5781 557.195 20.6641 557.383 20.7109C557.57 20.7422 557.75 20.7578 557.922 20.7578C558.109 20.7578 558.227 20.7656 558.273 20.7812C558.336 20.7969 558.367 20.8672 558.367 20.9922C558.367 21.0547 558.352 21.1641 558.32 21.3203C558.289 21.4609 558.242 21.5312 558.18 21.5312C557.836 21.5312 557.32 21.5938 556.633 21.7188C555.961 21.8438 555.266 21.9844 554.547 22.1406C554.438 22.1406 554.383 22.0156 554.383 21.7656V20.7344C554.383 20.6562 554.359 20.6172 554.312 20.6172C553.953 21.0078 553.477 21.3594 552.883 21.6719C552.289 21.9844 551.672 22.1406 551.031 22.1406ZM559.703 22.0938C559.641 22.0312 559.609 21.8828 559.609 21.6484C559.609 21.4141 559.641 21.2969 559.703 21.2969C559.828 21.2969 560 21.2734 560.219 21.2266C560.453 21.1641 560.664 21.0938 560.852 21.0156C561.055 20.9219 561.164 20.8438 561.18 20.7812C561.289 20.3438 561.344 19.7734 561.344 19.0703V15.25C561.344 14.5 561.219 14 560.969 13.75C560.828 13.5781 560.656 13.4609 560.453 13.3984C560.25 13.3203 560.062 13.2734 559.891 13.2578C559.734 13.2422 559.656 13.2188 559.656 13.1875C559.656 12.75 559.695 12.5156 559.773 12.4844C560.227 12.4531 560.719 12.3828 561.25 12.2734C561.797 12.1484 562.43 12.0156 563.148 11.875C563.383 11.8281 563.531 11.7969 563.594 11.7812C563.672 11.75 563.719 11.7344 563.734 11.7344C563.797 11.7344 563.852 11.7891 563.898 11.8984C563.945 11.9922 563.969 12.0781 563.969 12.1562C563.875 12.8125 563.828 13.1875 563.828 13.2812C564.109 12.8594 564.492 12.4844 564.977 12.1562C565.461 11.8125 565.953 11.6406 566.453 11.6406C567.312 11.6406 567.953 11.8984 568.375 12.4141C568.375 13.7422 568 14.4062 567.25 14.4062C566.984 14.4062 566.68 14.25 566.336 13.9375C565.992 13.625 565.656 13.4688 565.328 13.4688C565 13.4688 564.719 13.5859 564.484 13.8203C564.25 14.0547 564.07 14.3438 563.945 14.6875C563.836 15.0312 563.781 15.3828 563.781 15.7422V18.6719C563.781 19.6562 563.836 20.3594 563.945 20.7812C563.977 20.8438 564.086 20.9219 564.273 21.0156C564.461 21.0938 564.664 21.1641 564.883 21.2266C565.102 21.2734 565.258 21.2969 565.352 21.2969C565.398 21.2969 565.422 21.4141 565.422 21.6484C565.438 21.8672 565.438 22.0156 565.422 22.0938C565.344 22.0781 565.117 22.0547 564.742 22.0234C564.383 22.0078 563.992 21.9922 563.57 21.9766C563.164 21.9453 562.836 21.9297 562.586 21.9297C562.336 21.9297 562 21.9453 561.578 21.9766C561.156 21.9922 560.758 22.0078 560.383 22.0234C560.023 22.0547 559.797 22.0781 559.703 22.0938ZM574.609 22.1406C573.703 22.1406 572.867 21.9141 572.102 21.4609C571.352 20.9922 570.75 20.3672 570.297 19.5859C569.844 18.7891 569.617 17.9141 569.617 16.9609C569.617 15.8984 569.828 14.9688 570.25 14.1719C570.672 13.375 571.242 12.7578 571.961 12.3203C572.695 11.8672 573.531 11.6406 574.469 11.6406C575.234 11.6406 575.891 11.7812 576.438 12.0625C576.984 12.3438 577.43 12.7109 577.773 13.1641C578.133 13.6016 578.391 14.0703 578.547 14.5703C578.719 15.0547 578.805 15.5078 578.805 15.9297C578.805 16.2734 578.742 16.4922 578.617 16.5859C578.508 16.6641 578.273 16.7031 577.914 16.7031H572.312C572.203 16.7031 572.148 16.75 572.148 16.8438C572.148 17.4219 572.25 17.9688 572.453 18.4844C572.656 19.0156 573 19.4766 573.484 19.8672C573.984 20.2578 574.578 20.4531 575.266 20.4531C575.672 20.4531 576.008 20.4219 576.273 20.3594C576.539 20.2969 576.797 20.2266 577.047 20.1484C577.172 20.1016 577.328 20.0234 577.516 19.9141C577.703 19.7891 577.875 19.6797 578.031 19.5859C578.188 19.4766 578.266 19.4219 578.266 19.4219C578.297 19.4375 578.336 19.4844 578.383 19.5625C578.43 19.6406 578.453 19.7188 578.453 19.7969C578.453 19.9688 578.406 20.1172 578.312 20.2422C578.156 20.5234 577.891 20.8125 577.516 21.1094C577.156 21.3906 576.727 21.6328 576.227 21.8359C575.727 22.0391 575.188 22.1406 574.609 22.1406ZM572.312 15.5781H576.109C576.25 15.5781 576.32 15.4609 576.32 15.2266C576.32 14.8516 576.234 14.4766 576.062 14.1016C575.906 13.7109 575.672 13.3828 575.359 13.1172C575.062 12.8516 574.711 12.7188 574.305 12.7188C573.82 12.7188 573.414 12.8828 573.086 13.2109C572.773 13.5391 572.539 13.9141 572.383 14.3359C572.242 14.7578 572.172 15.1172 572.172 15.4141C572.172 15.5234 572.219 15.5781 572.312 15.5781ZM584.852 22.0703C584.789 22.0078 584.758 21.8828 584.758 21.6953C584.758 21.4297 584.789 21.2969 584.852 21.2969C585.023 21.2969 585.258 21.2656 585.555 21.2031C585.867 21.125 586.164 21.0234 586.445 20.8984C586.727 20.7578 586.891 20.6094 586.938 20.4531C587.094 20.1562 587.18 19.6328 587.195 18.8828C587.242 17.1172 587.289 15.5 587.336 14.0312C587.383 12.5625 587.422 11.3359 587.453 10.3516C587.5 9.35156 587.523 8.70312 587.523 8.40625C587.523 8.10938 587.5 7.89062 587.453 7.75C587.422 7.65625 587.281 7.57031 587.031 7.49219C586.797 7.41406 586.539 7.35156 586.258 7.30469C585.992 7.25781 585.789 7.23438 585.648 7.23438C585.586 7.23438 585.555 7.10156 585.555 6.83594C585.555 6.66406 585.586 6.54687 585.648 6.48438L586.867 6.55469C587.43 6.60156 587.914 6.625 588.32 6.625L590.617 6.48438C590.836 7.14062 591.172 8 591.625 9.0625C592.078 10.125 592.609 11.3594 593.219 12.7656C593.844 14.1719 594.492 15.7188 595.164 17.4062C595.164 17.4375 595.188 17.4531 595.234 17.4531C595.281 17.4531 595.305 17.4297 595.305 17.3828C595.992 15.7266 596.609 14.2266 597.156 12.8828C597.703 11.5234 598.18 10.3125 598.586 9.25L599.43 6.53125C599.898 6.57812 600.539 6.60156 601.352 6.60156C601.664 6.60156 602.047 6.59375 602.5 6.57812C602.969 6.54687 603.516 6.51563 604.141 6.48438C604.188 6.54687 604.211 6.67188 604.211 6.85938C604.211 7.125 604.18 7.25781 604.117 7.25781H604.07C603.648 7.25781 603.266 7.38281 602.922 7.63281C602.688 7.78906 602.586 8.21094 602.617 8.89844C602.648 9.58594 602.688 10.7422 602.734 12.3672C602.797 13.9766 602.867 16.0469 602.945 18.5781C602.977 19.4531 603.102 20.1719 603.32 20.7344C603.367 20.8281 603.484 20.9219 603.672 21.0156C603.875 21.0938 604.086 21.1641 604.305 21.2266C604.523 21.2734 604.68 21.2969 604.773 21.2969C604.836 21.2969 604.867 21.4375 604.867 21.7188C604.867 21.8281 604.852 21.9453 604.82 22.0703L601.938 21.9297C601.391 21.9297 600.828 21.9453 600.25 21.9766C599.672 22.0078 599.195 22.0391 598.82 22.0703C598.758 22.0078 598.727 21.8906 598.727 21.7188C598.727 21.4375 598.758 21.2969 598.82 21.2969C598.992 21.2969 599.242 21.25 599.57 21.1562C599.898 21.0469 600.117 20.9297 600.227 20.8047C600.383 20.6016 600.461 20.3281 600.461 19.9844V18.6719L600.227 11.5469C600.148 10.5781 600.055 10.0938 599.945 10.0938C599.898 10.0938 599.859 10.1406 599.828 10.2344L595.352 21.1562C595.086 21.75 594.789 22.0469 594.461 22.0469C594.43 22.0469 594.391 22.0391 594.344 22.0234C594.312 22.0234 594.273 22.0156 594.227 22L588.977 9.39062C588.914 11.3281 588.852 13.1719 588.789 14.9219C588.742 16.6719 588.68 18.3125 588.602 19.8438C588.602 20.1875 588.625 20.4297 588.672 20.5703C588.734 20.6797 588.906 20.7969 589.188 20.9219C589.469 21.0312 589.758 21.125 590.055 21.2031C590.367 21.2656 590.586 21.2969 590.711 21.2969C590.773 21.2969 590.805 21.4375 590.805 21.7188C590.805 21.8281 590.789 21.9453 590.758 22.0703L587.805 21.9297C587.383 21.9297 586.828 21.9531 586.141 22C585.438 22.0469 585.008 22.0703 584.852 22.0703ZM608.852 22.1641C608.07 22.1641 607.43 21.9531 606.93 21.5312C606.445 21.0938 606.203 20.5 606.203 19.75C606.203 19.2344 606.367 18.7656 606.695 18.3438C607.039 17.9219 607.516 17.5625 608.125 17.2656C608.344 17.1562 608.539 17.0703 608.711 17.0078C608.898 16.9297 609.07 16.8594 609.227 16.7969C609.773 16.625 610.227 16.4844 610.586 16.375C610.961 16.2656 611.227 16.1875 611.383 16.1406C611.523 16.0625 611.594 15.9375 611.594 15.7656V14.4766C611.594 13.9297 611.469 13.5 611.219 13.1875C610.969 12.875 610.633 12.7188 610.211 12.7188C609.742 12.7188 609.375 12.8672 609.109 13.1641C608.844 13.4453 608.711 13.8516 608.711 14.3828C608.711 14.6953 608.594 14.9297 608.359 15.0859C608.125 15.2266 607.859 15.2969 607.562 15.2969C606.984 15.2969 606.578 15.1094 606.344 14.7344C606.344 14.3594 606.484 13.9922 606.766 13.6328C607.047 13.2578 607.414 12.9219 607.867 12.625C608.336 12.3281 608.852 12.0938 609.414 11.9219C609.977 11.7344 610.539 11.6406 611.102 11.6406C612.07 11.6406 612.797 11.8984 613.281 12.4141C613.766 12.9141 614.008 13.7812 614.008 15.0156V19.6328C614.008 20.2734 614.266 20.5938 614.781 20.5938C615.016 20.5938 615.281 20.4922 615.578 20.2891C615.672 20.3047 615.719 20.3906 615.719 20.5469C615.719 20.8438 615.672 21.0781 615.578 21.25C615.344 21.4375 615.031 21.6328 614.641 21.8359C614.25 22.0391 613.875 22.1406 613.516 22.1406C613.156 22.1406 612.805 22.0078 612.461 21.7422C612.117 21.4766 611.891 21.1875 611.781 20.875C611.656 20.9844 611.562 21.0625 611.5 21.1094C611.438 21.1562 611.336 21.2344 611.195 21.3438C610.867 21.5625 610.508 21.7578 610.117 21.9297C609.727 22.0859 609.305 22.1641 608.852 22.1641ZM610.047 20.6406C610.469 20.6406 610.828 20.5312 611.125 20.3125C611.438 20.0938 611.594 19.8438 611.594 19.5625V17.1719L610.094 17.6875C609.734 17.8438 609.414 18.0312 609.133 18.25C608.852 18.4688 608.711 18.7812 608.711 19.1875C608.711 19.6875 608.836 20.0547 609.086 20.2891C609.336 20.5234 609.656 20.6406 610.047 20.6406ZM616.891 22.0938C616.828 22.0312 616.797 21.8828 616.797 21.6484C616.797 21.4141 616.828 21.2969 616.891 21.2969C617.016 21.2969 617.188 21.2734 617.406 21.2266C617.641 21.1641 617.852 21.0938 618.039 21.0156C618.242 20.9219 618.352 20.8438 618.367 20.7812C618.477 20.3438 618.531 19.7734 618.531 19.0703V15.25C618.531 14.5469 618.406 14.0469 618.156 13.75C618.016 13.5781 617.836 13.4688 617.617 13.4219C617.414 13.3594 617.234 13.3203 617.078 13.3047C616.922 13.2734 616.844 13.2344 616.844 13.1875C616.844 12.75 616.883 12.5156 616.961 12.4844C617.32 12.4531 617.844 12.375 618.531 12.25C619.234 12.125 619.891 11.9844 620.5 11.8281C620.531 11.8125 620.602 11.7969 620.711 11.7812C620.836 11.75 620.906 11.7344 620.922 11.7344C620.984 11.7344 621.039 11.7891 621.086 11.8984C621.133 12.0078 621.156 12.0938 621.156 12.1562C621.125 12.375 621.102 12.5547 621.086 12.6953C621.07 12.8359 621.062 12.9375 621.062 13C621.062 13.0781 621.078 13.1172 621.109 13.1172C621.125 13.1172 621.156 13.0938 621.203 13.0469C621.578 12.6719 622.055 12.3438 622.633 12.0625C623.227 11.7812 623.828 11.6406 624.438 11.6406C626.453 11.6406 627.461 13.2422 627.461 16.4453V18.6719C627.461 19.6562 627.516 20.3594 627.625 20.7812C627.656 20.8438 627.766 20.9219 627.953 21.0156C628.156 21.0938 628.367 21.1641 628.586 21.2266C628.82 21.2734 628.984 21.2969 629.078 21.2969C629.125 21.2969 629.148 21.4141 629.148 21.6484C629.164 21.8672 629.156 22.0156 629.125 22.0938C629.062 22.0781 628.844 22.0547 628.469 22.0234C628.109 22.0078 627.711 21.9922 627.273 21.9766C626.852 21.9453 626.516 21.9297 626.266 21.9297C626.016 21.9297 625.688 21.9453 625.281 21.9766C624.891 21.9922 624.516 22.0078 624.156 22.0234C623.812 22.0547 623.594 22.0781 623.5 22.0938C623.438 22.0312 623.406 21.8828 623.406 21.6484C623.406 21.4141 623.438 21.2969 623.5 21.2969C623.625 21.2969 623.789 21.2734 623.992 21.2266C624.195 21.1641 624.383 21.0938 624.555 21.0156C624.742 20.9219 624.844 20.8438 624.859 20.7812C624.922 20.5469 624.969 20.2891 625 20.0078C625.031 19.7266 625.047 19.4141 625.047 19.0703V16.8438C625.047 15.5469 624.867 14.6406 624.508 14.125C624.164 13.6094 623.609 13.3516 622.844 13.3516C622.344 13.3516 621.906 13.4922 621.531 13.7734C621.156 14.0391 620.969 14.3281 620.969 14.6406V18.6719C620.969 19.6562 621.023 20.3594 621.133 20.7812C621.164 20.8438 621.273 20.9219 621.461 21.0156C621.648 21.0938 621.852 21.1641 622.07 21.2266C622.289 21.2734 622.438 21.2969 622.516 21.2969C622.578 21.2969 622.609 21.4141 622.609 21.6484C622.625 21.8672 622.617 22.0156 622.586 22.0938C622.508 22.0781 622.281 22.0547 621.906 22.0234C621.547 22.0078 621.164 21.9922 620.758 21.9766C620.352 21.9453 620.023 21.9297 619.773 21.9297C619.523 21.9297 619.188 21.9453 618.766 21.9766C618.344 21.9922 617.945 22.0078 617.57 22.0234C617.211 22.0547 616.984 22.0781 616.891 22.0938ZM633.133 22.1641C632.352 22.1641 631.711 21.9531 631.211 21.5312C630.727 21.0938 630.484 20.5 630.484 19.75C630.484 19.2344 630.648 18.7656 630.977 18.3438C631.32 17.9219 631.797 17.5625 632.406 17.2656C632.625 17.1562 632.82 17.0703 632.992 17.0078C633.18 16.9297 633.352 16.8594 633.508 16.7969C634.055 16.625 634.508 16.4844 634.867 16.375C635.242 16.2656 635.508 16.1875 635.664 16.1406C635.805 16.0625 635.875 15.9375 635.875 15.7656V14.4766C635.875 13.9297 635.75 13.5 635.5 13.1875C635.25 12.875 634.914 12.7188 634.492 12.7188C634.023 12.7188 633.656 12.8672 633.391 13.1641C633.125 13.4453 632.992 13.8516 632.992 14.3828C632.992 14.6953 632.875 14.9297 632.641 15.0859C632.406 15.2266 632.141 15.2969 631.844 15.2969C631.266 15.2969 630.859 15.1094 630.625 14.7344C630.625 14.3594 630.766 13.9922 631.047 13.6328C631.328 13.2578 631.695 12.9219 632.148 12.625C632.617 12.3281 633.133 12.0938 633.695 11.9219C634.258 11.7344 634.82 11.6406 635.383 11.6406C636.352 11.6406 637.078 11.8984 637.562 12.4141C638.047 12.9141 638.289 13.7812 638.289 15.0156V19.6328C638.289 20.2734 638.547 20.5938 639.062 20.5938C639.297 20.5938 639.562 20.4922 639.859 20.2891C639.953 20.3047 640 20.3906 640 20.5469C640 20.8438 639.953 21.0781 639.859 21.25C639.625 21.4375 639.312 21.6328 638.922 21.8359C638.531 22.0391 638.156 22.1406 637.797 22.1406C637.438 22.1406 637.086 22.0078 636.742 21.7422C636.398 21.4766 636.172 21.1875 636.062 20.875C635.938 20.9844 635.844 21.0625 635.781 21.1094C635.719 21.1562 635.617 21.2344 635.477 21.3438C635.148 21.5625 634.789 21.7578 634.398 21.9297C634.008 22.0859 633.586 22.1641 633.133 22.1641ZM634.328 20.6406C634.75 20.6406 635.109 20.5312 635.406 20.3125C635.719 20.0938 635.875 19.8438 635.875 19.5625V17.1719L634.375 17.6875C634.016 17.8438 633.695 18.0312 633.414 18.25C633.133 18.4688 632.992 18.7812 632.992 19.1875C632.992 19.6875 633.117 20.0547 633.367 20.2891C633.617 20.5234 633.938 20.6406 634.328 20.6406ZM645.25 27.2031C644.5 27.2031 643.797 27.1016 643.141 26.8984C642.5 26.7109 641.977 26.4219 641.57 26.0312C641.18 25.6406 640.984 25.1719 640.984 24.625C640.984 24.1719 641.203 23.7344 641.641 23.3125C642.094 22.8906 642.578 22.5938 643.094 22.4219C642.688 22.2969 642.312 22.0625 641.969 21.7188C641.625 21.3594 641.453 20.9453 641.453 20.4766C641.453 19.8203 642.031 19.125 643.188 18.3906C642.891 18.25 642.594 18.0234 642.297 17.7109C642.016 17.3828 641.781 17.0078 641.594 16.5859C641.422 16.1484 641.336 15.7109 641.336 15.2734C641.336 14.5234 641.523 13.8828 641.898 13.3516C642.273 12.8203 642.773 12.4141 643.398 12.1328C644.039 11.8359 644.75 11.6875 645.531 11.6875C646.125 11.6875 646.773 11.7891 647.477 11.9922C648.18 12.1953 648.805 12.2969 649.352 12.2969H650.688C650.719 12.2969 650.773 12.3984 650.852 12.6016C650.93 12.8047 650.969 12.9609 650.969 13.0703C650.969 13.2891 650.922 13.3984 650.828 13.3984H649.305C649.242 13.3984 649.211 13.4219 649.211 13.4688L649.422 14.0781C649.562 14.4688 649.633 14.8438 649.633 15.2031C649.633 15.8125 649.453 16.3984 649.094 16.9609C648.75 17.5078 648.273 17.9531 647.664 18.2969C647.055 18.6406 646.359 18.8125 645.578 18.8125C645.297 18.8125 645.031 18.8047 644.781 18.7891C644.547 18.7734 644.328 18.75 644.125 18.7188C643.938 18.7969 643.766 18.9453 643.609 19.1641C643.453 19.3672 643.375 19.5547 643.375 19.7266C643.375 19.9453 643.516 20.1094 643.797 20.2188C644.078 20.3281 644.43 20.4062 644.852 20.4531C645.289 20.4844 645.711 20.5 646.117 20.5H646.375C647.938 20.5 649.078 20.7031 649.797 21.1094C650.531 21.5156 650.898 22.1016 650.898 22.8672C650.914 23.6484 650.656 24.3672 650.125 25.0234C649.594 25.6797 648.898 26.2031 648.039 26.5938C647.18 27 646.25 27.2031 645.25 27.2031ZM645.531 17.8047C646.109 17.8047 646.531 17.5859 646.797 17.1484C647.078 16.6953 647.219 16.1406 647.219 15.4844C647.219 14.6562 647.062 13.9844 646.75 13.4688C646.438 12.9531 645.984 12.6953 645.391 12.6953C644.828 12.6953 644.414 12.9375 644.148 13.4219C643.883 13.9062 643.75 14.4609 643.75 15.0859C643.75 15.8516 643.906 16.5 644.219 17.0312C644.531 17.5469 644.969 17.8047 645.531 17.8047ZM645.789 26.0781C646.664 26.0781 647.375 25.875 647.922 25.4688C648.484 25.0625 648.766 24.5547 648.766 23.9453C648.766 23.3984 648.375 23.0391 647.594 22.8672C647.203 22.7734 646.766 22.7031 646.281 22.6562C645.797 22.625 645.352 22.6094 644.945 22.6094C644.695 22.6094 644.406 22.6484 644.078 22.7266C643.766 22.8047 643.492 22.9531 643.258 23.1719C643.023 23.3906 642.906 23.7031 642.906 24.1094C642.906 24.4844 643.039 24.8203 643.305 25.1172C643.586 25.4141 643.945 25.6484 644.383 25.8203C644.836 25.9922 645.305 26.0781 645.789 26.0781ZM657.18 22.1406C656.273 22.1406 655.438 21.9141 654.672 21.4609C653.922 20.9922 653.32 20.3672 652.867 19.5859C652.414 18.7891 652.188 17.9141 652.188 16.9609C652.188 15.8984 652.398 14.9688 652.82 14.1719C653.242 13.375 653.812 12.7578 654.531 12.3203C655.266 11.8672 656.102 11.6406 657.039 11.6406C657.805 11.6406 658.461 11.7812 659.008 12.0625C659.555 12.3438 660 12.7109 660.344 13.1641C660.703 13.6016 660.961 14.0703 661.117 14.5703C661.289 15.0547 661.375 15.5078 661.375 15.9297C661.375 16.2734 661.312 16.4922 661.188 16.5859C661.078 16.6641 660.844 16.7031 660.484 16.7031H654.883C654.773 16.7031 654.719 16.75 654.719 16.8438C654.719 17.4219 654.82 17.9688 655.023 18.4844C655.227 19.0156 655.57 19.4766 656.055 19.8672C656.555 20.2578 657.148 20.4531 657.836 20.4531C658.242 20.4531 658.578 20.4219 658.844 20.3594C659.109 20.2969 659.367 20.2266 659.617 20.1484C659.742 20.1016 659.898 20.0234 660.086 19.9141C660.273 19.7891 660.445 19.6797 660.602 19.5859C660.758 19.4766 660.836 19.4219 660.836 19.4219C660.867 19.4375 660.906 19.4844 660.953 19.5625C661 19.6406 661.023 19.7188 661.023 19.7969C661.023 19.9688 660.977 20.1172 660.883 20.2422C660.727 20.5234 660.461 20.8125 660.086 21.1094C659.727 21.3906 659.297 21.6328 658.797 21.8359C658.297 22.0391 657.758 22.1406 657.18 22.1406ZM654.883 15.5781H658.68C658.82 15.5781 658.891 15.4609 658.891 15.2266C658.891 14.8516 658.805 14.4766 658.633 14.1016C658.477 13.7109 658.242 13.3828 657.93 13.1172C657.633 12.8516 657.281 12.7188 656.875 12.7188C656.391 12.7188 655.984 12.8828 655.656 13.2109C655.344 13.5391 655.109 13.9141 654.953 14.3359C654.812 14.7578 654.742 15.1172 654.742 15.4141C654.742 15.5234 654.789 15.5781 654.883 15.5781ZM662.57 22.0938C662.508 22.0312 662.477 21.8828 662.477 21.6484C662.477 21.4141 662.508 21.2969 662.57 21.2969C662.695 21.2969 662.867 21.2734 663.086 21.2266C663.32 21.1641 663.531 21.0938 663.719 21.0156C663.922 20.9219 664.031 20.8438 664.047 20.7812C664.156 20.3438 664.211 19.7734 664.211 19.0703V15.25C664.211 14.5 664.086 14 663.836 13.75C663.664 13.5625 663.469 13.4375 663.25 13.375C663.047 13.3125 662.867 13.2734 662.711 13.2578C662.57 13.2422 662.5 13.2188 662.5 13.1875C662.5 12.7344 662.547 12.5 662.641 12.4844C663 12.4531 663.484 12.3828 664.094 12.2734C664.719 12.1641 665.383 12.0234 666.086 11.8516C666.398 11.7734 666.562 11.7344 666.578 11.7344C666.656 11.7344 666.719 11.7891 666.766 11.8984C666.812 12.0078 666.828 12.0938 666.812 12.1562C666.781 12.375 666.758 12.5547 666.742 12.6953C666.727 12.8359 666.719 12.9375 666.719 13C666.719 13.0781 666.734 13.1172 666.766 13.1172C666.797 13.1172 666.836 13.0938 666.883 13.0469C667.258 12.6719 667.734 12.3438 668.312 12.0625C668.906 11.7812 669.508 11.6406 670.117 11.6406C670.711 11.6406 671.219 11.7969 671.641 12.1094C672.062 12.4062 672.375 12.7969 672.578 13.2812C673.031 12.8125 673.602 12.4219 674.289 12.1094C674.977 11.7969 675.711 11.6406 676.492 11.6406C677.242 11.6406 677.836 11.8516 678.273 12.2734C678.711 12.6797 679.023 13.2344 679.211 13.9375C679.414 14.625 679.516 15.3828 679.516 16.2109V18.6719C679.516 19.6562 679.57 20.3594 679.68 20.7812C679.711 20.8438 679.82 20.9219 680.008 21.0156C680.211 21.0938 680.422 21.1641 680.641 21.2266C680.859 21.2734 681.016 21.2969 681.109 21.2969C681.156 21.2969 681.18 21.4141 681.18 21.6484C681.195 21.8672 681.188 22.0156 681.156 22.0938C681.094 22.0781 680.875 22.0547 680.5 22.0234C680.141 22.0078 679.75 21.9922 679.328 21.9766C678.906 21.9453 678.57 21.9297 678.32 21.9297C678.07 21.9297 677.734 21.9453 677.312 21.9766C676.906 21.9922 676.516 22.0078 676.141 22.0234C675.781 22.0547 675.555 22.0781 675.461 22.0938C675.414 22.0156 675.391 21.8672 675.391 21.6484C675.391 21.4141 675.414 21.2969 675.461 21.2969C675.586 21.2969 675.758 21.2734 675.977 21.2266C676.195 21.1641 676.398 21.0938 676.586 21.0156C676.789 20.9219 676.898 20.8438 676.914 20.7812C677.023 20.3438 677.078 19.7969 677.078 19.1406V16.75C677.078 14.4844 676.352 13.3516 674.898 13.3516C674.383 13.3516 673.961 13.4766 673.633 13.7266C673.305 13.9766 673.102 14.2188 673.023 14.4531C673.023 14.6562 673.031 14.8359 673.047 14.9922C673.062 15.1328 673.07 15.4219 673.07 15.8594V18.7656C673.07 19.2031 673.078 19.5938 673.094 19.9375C673.125 20.2812 673.172 20.5625 673.234 20.7812C673.266 20.8438 673.375 20.9219 673.562 21.0156C673.766 21.0938 673.977 21.1641 674.195 21.2266C674.414 21.2734 674.57 21.2969 674.664 21.2969C674.711 21.2969 674.734 21.4141 674.734 21.6484C674.75 21.8672 674.742 22.0156 674.711 22.0938C674.648 22.0781 674.43 22.0547 674.055 22.0234C673.695 22.0078 673.305 21.9922 672.883 21.9766C672.461 21.9453 672.125 21.9297 671.875 21.9297C671.625 21.9297 671.289 21.9453 670.867 21.9766C670.461 21.9922 670.07 22.0078 669.695 22.0234C669.336 22.0547 669.109 22.0781 669.016 22.0938C668.969 22.0156 668.945 21.8672 668.945 21.6484C668.945 21.4141 668.969 21.2969 669.016 21.2969C669.141 21.2969 669.312 21.2734 669.531 21.2266C669.75 21.1641 669.953 21.0938 670.141 21.0156C670.344 20.9219 670.453 20.8438 670.469 20.7812C670.578 20.3438 670.633 19.7734 670.633 19.0703V16.8203C670.633 15.6016 670.453 14.7188 670.094 14.1719C669.734 13.625 669.203 13.3516 668.5 13.3516C668.031 13.3516 667.602 13.4844 667.211 13.75C666.82 14.0156 666.625 14.3125 666.625 14.6406V18.6719C666.625 19.6094 666.688 20.3125 666.812 20.7812C666.844 20.8438 666.953 20.9219 667.141 21.0156C667.328 21.0938 667.523 21.1641 667.727 21.2266C667.945 21.2734 668.102 21.2969 668.195 21.2969C668.258 21.2969 668.289 21.4141 668.289 21.6484C668.305 21.8672 668.297 22.0156 668.266 22.0938C668.188 22.0781 667.961 22.0547 667.586 22.0234C667.227 22.0078 666.844 21.9922 666.438 21.9766C666.031 21.9453 665.703 21.9297 665.453 21.9297C665.203 21.9297 664.859 21.9453 664.422 21.9766C664 21.9922 663.609 22.0078 663.25 22.0234C662.891 22.0547 662.664 22.0781 662.57 22.0938ZM687.18 22.1406C686.273 22.1406 685.438 21.9141 684.672 21.4609C683.922 20.9922 683.32 20.3672 682.867 19.5859C682.414 18.7891 682.188 17.9141 682.188 16.9609C682.188 15.8984 682.398 14.9688 682.82 14.1719C683.242 13.375 683.812 12.7578 684.531 12.3203C685.266 11.8672 686.102 11.6406 687.039 11.6406C687.805 11.6406 688.461 11.7812 689.008 12.0625C689.555 12.3438 690 12.7109 690.344 13.1641C690.703 13.6016 690.961 14.0703 691.117 14.5703C691.289 15.0547 691.375 15.5078 691.375 15.9297C691.375 16.2734 691.312 16.4922 691.188 16.5859C691.078 16.6641 690.844 16.7031 690.484 16.7031H684.883C684.773 16.7031 684.719 16.75 684.719 16.8438C684.719 17.4219 684.82 17.9688 685.023 18.4844C685.227 19.0156 685.57 19.4766 686.055 19.8672C686.555 20.2578 687.148 20.4531 687.836 20.4531C688.242 20.4531 688.578 20.4219 688.844 20.3594C689.109 20.2969 689.367 20.2266 689.617 20.1484C689.742 20.1016 689.898 20.0234 690.086 19.9141C690.273 19.7891 690.445 19.6797 690.602 19.5859C690.758 19.4766 690.836 19.4219 690.836 19.4219C690.867 19.4375 690.906 19.4844 690.953 19.5625C691 19.6406 691.023 19.7188 691.023 19.7969C691.023 19.9688 690.977 20.1172 690.883 20.2422C690.727 20.5234 690.461 20.8125 690.086 21.1094C689.727 21.3906 689.297 21.6328 688.797 21.8359C688.297 22.0391 687.758 22.1406 687.18 22.1406ZM684.883 15.5781H688.68C688.82 15.5781 688.891 15.4609 688.891 15.2266C688.891 14.8516 688.805 14.4766 688.633 14.1016C688.477 13.7109 688.242 13.3828 687.93 13.1172C687.633 12.8516 687.281 12.7188 686.875 12.7188C686.391 12.7188 685.984 12.8828 685.656 13.2109C685.344 13.5391 685.109 13.9141 684.953 14.3359C684.812 14.7578 684.742 15.1172 684.742 15.4141C684.742 15.5234 684.789 15.5781 684.883 15.5781ZM692.57 22.0938C692.508 22.0312 692.477 21.8828 692.477 21.6484C692.477 21.4141 692.508 21.2969 692.57 21.2969C692.695 21.2969 692.867 21.2734 693.086 21.2266C693.32 21.1641 693.531 21.0938 693.719 21.0156C693.922 20.9219 694.031 20.8438 694.047 20.7812C694.156 20.3438 694.211 19.7734 694.211 19.0703V15.25C694.211 14.5469 694.086 14.0469 693.836 13.75C693.695 13.5781 693.516 13.4688 693.297 13.4219C693.094 13.3594 692.914 13.3203 692.758 13.3047C692.602 13.2734 692.523 13.2344 692.523 13.1875C692.523 12.75 692.562 12.5156 692.641 12.4844C693 12.4531 693.523 12.375 694.211 12.25C694.914 12.125 695.57 11.9844 696.18 11.8281C696.211 11.8125 696.281 11.7969 696.391 11.7812C696.516 11.75 696.586 11.7344 696.602 11.7344C696.664 11.7344 696.719 11.7891 696.766 11.8984C696.812 12.0078 696.836 12.0938 696.836 12.1562C696.805 12.375 696.781 12.5547 696.766 12.6953C696.75 12.8359 696.742 12.9375 696.742 13C696.742 13.0781 696.758 13.1172 696.789 13.1172C696.805 13.1172 696.836 13.0938 696.883 13.0469C697.258 12.6719 697.734 12.3438 698.312 12.0625C698.906 11.7812 699.508 11.6406 700.117 11.6406C702.133 11.6406 703.141 13.2422 703.141 16.4453V18.6719C703.141 19.6562 703.195 20.3594 703.305 20.7812C703.336 20.8438 703.445 20.9219 703.633 21.0156C703.836 21.0938 704.047 21.1641 704.266 21.2266C704.5 21.2734 704.664 21.2969 704.758 21.2969C704.805 21.2969 704.828 21.4141 704.828 21.6484C704.844 21.8672 704.836 22.0156 704.805 22.0938C704.742 22.0781 704.523 22.0547 704.148 22.0234C703.789 22.0078 703.391 21.9922 702.953 21.9766C702.531 21.9453 702.195 21.9297 701.945 21.9297C701.695 21.9297 701.367 21.9453 700.961 21.9766C700.57 21.9922 700.195 22.0078 699.836 22.0234C699.492 22.0547 699.273 22.0781 699.18 22.0938C699.117 22.0312 699.086 21.8828 699.086 21.6484C699.086 21.4141 699.117 21.2969 699.18 21.2969C699.305 21.2969 699.469 21.2734 699.672 21.2266C699.875 21.1641 700.062 21.0938 700.234 21.0156C700.422 20.9219 700.523 20.8438 700.539 20.7812C700.602 20.5469 700.648 20.2891 700.68 20.0078C700.711 19.7266 700.727 19.4141 700.727 19.0703V16.8438C700.727 15.5469 700.547 14.6406 700.188 14.125C699.844 13.6094 699.289 13.3516 698.523 13.3516C698.023 13.3516 697.586 13.4922 697.211 13.7734C696.836 14.0391 696.648 14.3281 696.648 14.6406V18.6719C696.648 19.6562 696.703 20.3594 696.812 20.7812C696.844 20.8438 696.953 20.9219 697.141 21.0156C697.328 21.0938 697.531 21.1641 697.75 21.2266C697.969 21.2734 698.117 21.2969 698.195 21.2969C698.258 21.2969 698.289 21.4141 698.289 21.6484C698.305 21.8672 698.297 22.0156 698.266 22.0938C698.188 22.0781 697.961 22.0547 697.586 22.0234C697.227 22.0078 696.844 21.9922 696.438 21.9766C696.031 21.9453 695.703 21.9297 695.453 21.9297C695.203 21.9297 694.867 21.9453 694.445 21.9766C694.023 21.9922 693.625 22.0078 693.25 22.0234C692.891 22.0547 692.664 22.0781 692.57 22.0938ZM710.43 22.1641C709.617 22.1641 708.922 21.9062 708.344 21.3906C707.781 20.8594 707.5 20.0469 707.5 18.9531V13.2812H706.07C705.961 13.2812 705.906 13.0781 705.906 12.6719C705.906 12.5469 705.914 12.4766 705.93 12.4609C706.242 12.3203 706.547 12.1484 706.844 11.9453C707.141 11.7266 707.438 11.4844 707.734 11.2188C708.188 10.7656 708.555 10.375 708.836 10.0469C709.117 9.70312 709.258 9.53125 709.258 9.53125C709.336 9.53125 709.414 9.53906 709.492 9.55469C709.57 9.55469 709.641 9.5625 709.703 9.57812C709.844 9.625 709.914 9.67188 709.914 9.71875V12.0156H711.625C711.984 12.0156 712.258 12.0234 712.445 12.0391C712.648 12.0391 712.758 12.0391 712.773 12.0391C712.898 12.0391 712.961 12.1094 712.961 12.25C712.961 12.6406 712.883 12.9844 712.727 13.2812H709.914V18.9297C709.914 19.5547 710.047 20.0312 710.312 20.3594C710.578 20.6875 710.945 20.8516 711.414 20.8516C711.742 20.8516 712.047 20.7891 712.328 20.6641C712.609 20.5234 712.766 20.4531 712.797 20.4531C712.859 20.4375 712.93 20.5078 713.008 20.6641C713.086 20.8203 713.117 20.9219 713.102 20.9688C713.039 21.1094 712.859 21.2734 712.562 21.4609C712.281 21.6484 711.945 21.8125 711.555 21.9531C711.18 22.0938 710.805 22.1641 710.43 22.1641Z" fill="#313131"/>
<defs>
<linearGradient id="paint0_linear_480_4866" x1="196" y1="6" x2="189" y2="24.5" gradientUnits="userSpaceOnUse">
<stop stop-color="#69097A"/>
<stop offset="1" stop-color="#ED3237"/>
</linearGradient>
<linearGradient id="paint1_linear_480_4866" x1="388" y1="6" x2="381" y2="24.5" gradientUnits="userSpaceOnUse">
<stop stop-color="#69097A"/>
<stop offset="1" stop-color="#ED3237"/>
</linearGradient>
</defs>
</svg>
