<svg width="48" height="48" viewBox="0 0 48 48" fill="none" xmlns="http://www.w3.org/2000/svg">
<path d="M18.7953 10.7019V5.35094C18.7953 3.93178 19.3516 2.57075 20.3417 1.56725C21.3318 0.563758 22.6747 0 24.075 0C25.4753 0 26.8182 0.563758 27.8083 1.56725C28.7984 2.57075 29.3547 3.93178 29.3547 5.35094V10.7019C29.3547 12.121 28.7984 13.4821 27.8083 14.4856C26.8182 15.4891 25.4753 16.0528 24.075 16.0528C22.6747 16.0528 21.3318 15.4891 20.3417 14.4856C19.3516 13.4821 18.7953 12.121 18.7953 10.7019ZM9.76706 20.2444C10.3088 20.6841 10.9307 21.0113 11.5974 21.2072C12.264 21.403 12.9621 21.4638 13.6519 21.3859C14.3417 21.308 15.0096 21.0931 15.6174 20.7534C16.2251 20.4137 16.7608 19.9558 17.1938 19.4061C17.6277 18.857 17.9505 18.2267 18.1438 17.5511C18.337 16.8755 18.397 16.1679 18.3201 15.4688C18.2433 14.7696 18.0312 14.0928 17.696 13.4768C17.3608 12.8608 16.9091 12.3179 16.3667 11.8791L12.2309 8.54366C11.1315 7.75004 9.77401 7.41329 8.43726 7.6026C7.10051 7.7919 5.88606 8.49289 5.04343 9.56152C4.20081 10.6302 3.79401 11.9853 3.90662 13.3485C4.01922 14.7117 4.64269 15.9794 5.6489 16.8911L9.76706 20.2444ZM15.5043 26.9509C15.3507 26.2639 15.0647 25.6145 14.6628 25.0398C14.2609 24.4651 13.7511 23.9765 13.1624 23.602C12.5738 23.2275 11.918 22.9744 11.2327 22.8574C10.5473 22.7403 9.84592 22.7615 9.16869 22.9198L4.0298 24.1149C2.68308 24.4475 1.51942 25.3035 0.790048 26.4981C0.0606757 27.6927 -0.1759 29.1301 0.131394 30.5C0.438689 31.8699 1.2652 33.0623 2.4325 33.8199C3.5998 34.5775 5.01424 34.8394 6.37046 34.5492L11.527 33.3542C12.8921 33.0394 14.078 32.188 14.8239 30.9872C15.5698 29.7864 15.8145 28.3346 15.5043 26.9509ZM20.256 32.9439C18.9956 32.3306 17.5465 32.2491 16.2268 32.7172C14.907 33.1853 13.8244 34.1649 13.2164 35.441L10.911 40.3282C10.3042 41.6078 10.2238 43.0793 10.6875 44.419C11.1513 45.7587 12.1211 46.8568 13.3836 47.4717C14.6462 48.0867 16.0981 48.1682 17.4199 47.6982C18.7418 47.2282 19.8252 46.2453 20.432 44.9657L22.7199 40.1499C23.0305 39.5138 23.2132 38.8214 23.2574 38.1131C23.3015 37.4048 23.2061 36.6946 22.9768 36.024C22.7475 35.3534 22.3889 34.7357 21.9218 34.2069C21.4547 33.6781 20.8884 33.2488 20.256 32.9439ZM34.9336 35.441C34.2878 34.2312 33.2072 33.3199 31.916 32.8963C30.6248 32.4726 29.2222 32.5691 27.9994 33.1659C26.7766 33.7626 25.8275 34.8136 25.349 36.1008C24.8706 37.388 24.8997 38.8125 25.4301 40.0785L27.718 44.8944C28.0184 45.528 28.4391 46.0954 28.9559 46.5642C29.4727 47.0331 30.0756 47.3941 30.7301 47.6268C31.3846 47.8595 32.0779 47.9593 32.7704 47.9205C33.463 47.8816 34.1412 47.7049 34.7664 47.4004C35.3915 47.0959 35.9514 46.6696 36.414 46.1458C36.8766 45.622 37.2328 45.011 37.4625 44.3476C37.6921 43.6843 37.7905 42.9816 37.7522 42.2797C37.7138 41.5779 37.5395 40.8905 37.239 40.2569L34.9336 35.441ZM44.1202 24.0614C41.6212 23.6333 37.327 21.7426 34.9864 23.562C34.1051 24.1262 33.4083 24.9422 32.9839 25.9072C32.5595 26.8721 32.4264 27.9428 32.6014 28.9843C32.7765 30.0258 33.2518 30.9914 33.9674 31.7596C34.6831 32.5277 35.6071 33.0639 36.6231 33.3007C38.7047 33.8531 40.8136 34.2937 42.9411 34.6206C44.1989 34.5672 45.3965 34.0601 46.3179 33.1907C47.2393 32.3213 47.8239 31.1468 47.9662 29.8791C48.1084 28.6114 47.7991 27.3338 47.0939 26.2769C46.3887 25.22 45.3341 24.4532 44.1202 24.1149V24.0614ZM30.9562 19.3526C31.8303 20.4576 33.101 21.1664 34.4898 21.3235C35.8787 21.4807 37.2723 21.0734 38.3653 20.1909L42.5011 16.8911C43.5621 15.9955 44.2347 14.7143 44.3747 13.3221C44.5147 11.9299 44.111 10.5374 43.2501 9.44329C42.3893 8.34915 41.1397 7.64036 39.7693 7.46886C38.3989 7.29736 37.0167 7.67679 35.9191 8.52583L31.7833 11.8791C31.2409 12.3179 30.7892 12.8608 30.454 13.4768C30.1188 14.0928 29.9067 14.7696 29.8299 15.4688C29.753 16.1679 29.813 16.8755 30.0062 17.5511C30.1995 18.2267 30.5223 18.857 30.9562 19.4061V19.3526Z" fill="#1E7AD0"/>
</svg>
