<svg width="101" height="45" viewBox="0 0 101 45" fill="none" xmlns="http://www.w3.org/2000/svg">
<path d="M23.3616 16.5641C23.3761 16.5652 23.3906 16.5664 23.4056 16.5676C23.6203 16.5851 23.8302 16.6156 24.0417 16.6566C24.0614 16.6604 24.081 16.6642 24.1012 16.6681C24.6682 16.7817 25.2207 16.9873 25.7254 17.2694C25.7752 17.2971 25.8257 17.3236 25.8761 17.3504C26.073 17.4587 26.2559 17.5864 26.4372 17.7186C26.4613 17.7359 26.4857 17.7528 26.5102 17.7695C26.5439 17.7926 26.5767 17.8171 26.6093 17.8417C26.6093 17.8547 26.6093 17.8678 26.6093 17.8812C26.6204 17.8862 26.6314 17.8912 26.6428 17.8963C26.8392 18.0015 26.9979 18.1864 27.152 18.3442C27.1786 18.3714 27.2056 18.3984 27.2326 18.4253C27.2872 18.48 27.3405 18.5357 27.3932 18.5922C27.4076 18.6073 27.4076 18.6073 27.4222 18.6226C27.4769 18.6814 27.5135 18.7326 27.5376 18.8095C27.5507 18.8095 27.5637 18.8095 27.5771 18.8095C27.602 18.8374 27.602 18.8374 27.6302 18.8768C27.6406 18.8913 27.6511 18.9059 27.6619 18.9208C27.673 18.9366 27.6841 18.9524 27.6956 18.9687C27.7071 18.9848 27.7185 19.0009 27.7303 19.0175C27.8819 19.2313 28.0306 19.4447 28.1499 19.6785C28.1574 19.6929 28.165 19.7073 28.1728 19.7222C28.9206 21.1505 29.0885 22.8199 28.6158 24.3654C28.4548 24.8663 28.2437 25.3616 27.9524 25.8012C27.9397 25.8209 27.927 25.8406 27.9139 25.8609C27.7322 26.139 27.5266 26.3989 27.3027 26.644C27.266 26.6846 27.2308 26.7259 27.1957 26.7678C26.8728 27.1377 26.4303 27.4736 25.9981 27.7035C25.943 27.7339 25.8895 27.7663 25.836 27.7995C25.6662 27.9045 25.4899 27.99 25.3083 28.0728C25.2728 28.0893 25.2377 28.1067 25.2027 28.1243C24.9115 28.2691 24.5868 28.3573 24.2708 28.4303C24.2327 28.4397 24.1947 28.4495 24.1575 28.4619C24.03 28.5042 23.9106 28.5188 23.7768 28.5251C23.756 28.5263 23.7351 28.5275 23.7137 28.5287C23.6478 28.5324 23.5818 28.5358 23.5159 28.5392C23.4498 28.5428 23.3837 28.5464 23.3176 28.5501C23.2767 28.5523 23.2358 28.5545 23.1948 28.5566C23.1122 28.561 23.0302 28.5661 22.9481 28.5768C22.6451 28.6162 22.3354 28.5847 22.0347 28.5417C20.4871 28.3219 18.6715 28.751 17.3365 29.534C17.2895 29.5615 17.2419 29.5864 17.1929 29.6102C17.0895 29.6612 16.9916 29.721 16.8932 29.781C16.8734 29.7931 16.8535 29.8051 16.8331 29.8175C16.6927 29.9037 16.5568 29.9947 16.4242 30.0924C16.3582 30.1407 16.299 30.1798 16.2204 30.2057C16.2204 30.2187 16.2204 30.2317 16.2204 30.2452C16.1897 30.2699 16.1578 30.2931 16.1254 30.3155C15.9273 30.4563 15.7475 30.6143 15.5687 30.7784C15.5396 30.8049 15.5104 30.8312 15.481 30.8574C15.4692 30.868 15.4574 30.8786 15.4453 30.8895C15.4106 30.9167 15.4106 30.9167 15.368 30.9364C15.3247 30.9546 15.3247 30.9546 15.3119 31.0154C15.2844 31.0391 15.2569 31.0628 15.2283 31.085C15.1366 31.1617 15.0602 31.2515 14.9835 31.3426C14.9065 31.4335 14.828 31.5223 14.7465 31.6092C14.6367 31.7275 14.5386 31.8535 14.4429 31.9832C14.4331 31.9963 14.4234 32.0094 14.4134 32.0229C14.174 32.3458 13.9544 32.6808 13.7547 33.0297C13.7322 33.0689 13.7093 33.1078 13.6864 33.1468C13.5142 33.4419 13.3834 33.7563 13.2559 34.0728C13.2428 34.1049 13.2292 34.1368 13.2155 34.1687C13.149 34.3243 13.0934 34.4823 13.0418 34.6434C13.0375 34.6566 13.0333 34.6698 13.0289 34.6834C12.9467 34.9391 12.8808 35.1971 12.8233 35.4594C12.8173 35.4859 12.8112 35.5124 12.8051 35.5388C12.6962 36.0242 12.6376 36.5226 12.6258 37.0197C12.625 37.0467 12.625 37.0467 12.6242 37.0744C12.6146 37.4263 12.6504 37.7697 12.6912 38.1189C12.7368 38.5367 12.7002 38.9599 12.6702 39.3774C12.6687 39.4002 12.6671 39.423 12.6655 39.4464C12.648 39.7001 12.625 39.9368 12.5468 40.1798C12.535 40.2212 12.5232 40.2626 12.5116 40.3041C12.4777 40.4208 12.4433 40.5374 12.4085 40.6538C12.4014 40.6778 12.3943 40.7018 12.3869 40.7265C12.3412 40.872 12.2777 41.0079 12.2115 41.1449C12.1896 41.1906 12.1683 41.2365 12.147 41.2824C12.0777 41.4317 12.009 41.5788 11.9211 41.7182C11.8949 41.7601 11.8714 41.8027 11.8481 41.8463C11.7516 42.0214 11.6335 42.1834 11.515 42.344C11.4863 42.3835 11.4594 42.4234 11.4333 42.4647C11.4174 42.4873 11.4174 42.4873 11.4012 42.5104C11.3882 42.5104 11.3752 42.5104 11.3617 42.5104C11.3568 42.5214 11.3519 42.5323 11.3469 42.5436C11.2496 42.7242 11.0839 42.8735 10.9396 43.0165C10.9224 43.0338 10.9052 43.0511 10.8876 43.069C10.7687 43.1875 10.6437 43.2946 10.5125 43.3992C10.4909 43.4172 10.4693 43.4352 10.4479 43.4534C9.65934 44.1043 8.6793 44.5176 7.67321 44.676C7.63367 44.6822 7.59422 44.6889 7.55478 44.6957C7.28984 44.74 7.02463 44.7459 6.7567 44.7459C6.70584 44.7459 6.65498 44.7463 6.60412 44.7467C6.38324 44.7474 6.16899 44.7306 5.95003 44.7027C5.90067 44.6975 5.85129 44.6928 5.8019 44.6879C5.45819 44.6443 5.11357 44.5547 4.78473 44.446C4.77081 44.4414 4.75688 44.4368 4.74253 44.4321C4.01251 44.1869 3.30778 43.7911 2.74076 43.2669C2.69999 43.2295 2.65864 43.1933 2.61678 43.1572C2.39935 42.9673 2.19501 42.7595 2.01963 42.5301C2.0015 42.5072 1.98334 42.4842 1.96516 42.4612C1.94668 42.4377 1.92821 42.4142 1.90976 42.3907C1.89665 42.374 1.89665 42.374 1.88327 42.3571C1.82212 42.2779 1.82212 42.2779 1.82212 42.2339C1.80908 42.2339 1.79605 42.2339 1.78262 42.2339C1.75034 42.1871 1.72052 42.1405 1.69127 42.0919C1.67804 42.0703 1.67804 42.0703 1.66454 42.0482C1.6465 42.0187 1.6285 41.9891 1.61056 41.9596C1.58845 41.9233 1.56587 41.8874 1.54322 41.8515C1.38071 41.5939 1.24373 41.3257 1.12613 41.0449C1.11223 41.012 1.09783 40.9793 1.08339 40.9466C1.02963 40.8232 0.988975 40.6997 0.953702 40.5698C0.93962 40.5186 0.925016 40.4681 0.909263 40.4175C0.822164 40.1363 0.767293 39.8508 0.722248 39.5601C0.719889 39.5451 0.717531 39.5301 0.715101 39.5147C0.676688 39.2544 0.672518 38.9931 0.672871 38.7306C0.672883 38.7141 0.672895 38.6977 0.672907 38.6807C0.673933 38.1571 0.716561 37.6402 0.874082 37.1382C0.887776 37.0905 0.901354 37.0428 0.914818 36.995C0.921386 36.9721 0.927955 36.9493 0.934723 36.9257C0.945889 36.8868 0.95693 36.8478 0.967744 36.8087C0.998094 36.702 1.0364 36.6008 1.08031 36.4989C1.10375 36.4443 1.12641 36.3895 1.14866 36.3344C1.37365 35.7843 1.69906 35.2669 2.09066 34.8196C2.10986 34.7976 2.1289 34.7754 2.14779 34.7532C2.24393 34.6409 2.34693 34.5359 2.45138 34.4314C2.48122 34.4015 2.51089 34.3715 2.54055 34.3415C2.65033 34.2311 2.76278 34.1294 2.88866 34.0373C2.90921 34.0216 2.92975 34.0059 2.95092 33.9898C3.00899 33.9461 3.06726 33.9028 3.12567 33.8596C3.14056 33.8484 3.15546 33.8373 3.1708 33.8258C3.64795 33.48 4.20468 33.1929 4.76498 33.0103C4.78482 33.0037 4.80465 32.9971 4.82508 32.9903C4.97467 32.9423 5.12632 32.904 5.27894 32.8671C5.29506 32.8632 5.31119 32.8592 5.3278 32.8552C5.3421 32.8518 5.35639 32.8483 5.37112 32.8448C5.41866 32.8328 5.41866 32.8328 5.47078 32.8124C5.55021 32.7885 5.62541 32.7823 5.70785 32.7769C5.72442 32.7757 5.74099 32.7745 5.75807 32.7732C5.81094 32.7694 5.86382 32.7658 5.9167 32.7622C5.95138 32.7597 5.98606 32.7572 6.02074 32.7546C6.53042 32.7179 7.02661 32.6912 7.53518 32.7588C8.58361 32.8974 9.71675 32.724 10.7119 32.3905C10.7643 32.3734 10.8174 32.3587 10.8704 32.3437C11.1742 32.2508 11.4708 32.1208 11.7568 31.9832C11.7872 31.9692 11.8177 31.9552 11.8483 31.9412C12.3749 31.698 12.8853 31.3994 13.3418 31.0397C13.3763 31.0154 13.3763 31.0154 13.4158 31.0154C13.4158 31.0024 13.4158 30.9894 13.4158 30.9759C13.4457 30.952 13.4768 30.9297 13.5084 30.908C13.8268 30.6818 14.1084 30.4055 14.384 30.1299C14.4183 30.0956 14.4528 30.0616 14.4872 30.0275C14.6197 29.8957 14.7415 29.7598 14.8576 29.6131C14.8804 29.5859 14.9034 29.5587 14.9264 29.5317C15.0858 29.3432 15.2277 29.147 15.3644 28.9416C15.3969 28.8931 15.4308 28.8457 15.465 28.7984C15.6133 28.5872 15.7382 28.358 15.8627 28.1321C15.877 28.1061 15.8914 28.0802 15.9059 28.0543C16.2059 27.5165 16.423 26.9437 16.5957 26.3543C16.6013 26.3354 16.6069 26.3166 16.6126 26.2971C16.6989 26.0036 16.7604 25.7074 16.813 25.4062C16.816 25.389 16.8191 25.3717 16.8223 25.354C16.9528 24.6128 16.9934 23.7471 16.8419 23.0039C16.8268 22.9269 16.8289 22.8502 16.829 22.772C16.829 22.7537 16.829 22.7353 16.829 22.7165C16.8303 22.5674 16.8409 22.4202 16.8555 22.2719C16.8677 22.1464 16.8763 22.0211 16.883 21.8951C16.8968 21.6356 16.9177 21.3905 16.9907 21.1401C17.0011 21.0973 17.0114 21.0545 17.0216 21.0117C17.0414 20.93 17.0667 20.8512 17.0937 20.7717C17.1081 20.7285 17.1219 20.6851 17.1355 20.6417C17.2036 20.431 17.2903 20.2316 17.387 20.0328C17.3928 20.0207 17.3987 20.0086 17.4047 19.9962C17.5132 19.7735 17.6302 19.5566 17.7573 19.344C17.7674 19.327 17.7776 19.31 17.7881 19.2925C17.8606 19.1727 17.9383 19.06 18.0248 18.95C18.0578 18.9103 18.0578 18.9103 18.077 18.8687C18.09 18.8687 18.1031 18.8687 18.1165 18.8687C18.1212 18.8545 18.1258 18.8403 18.1306 18.8257C18.1603 18.7606 18.1968 18.7205 18.2461 18.6687C18.3136 18.5971 18.3769 18.5243 18.4375 18.4465C18.5477 18.3099 18.6772 18.1953 18.8078 18.0787C18.8291 18.0592 18.8291 18.0592 18.8509 18.0393C19.035 17.8738 19.2346 17.7232 19.4398 17.5849C19.4563 17.5737 19.4563 17.5737 19.4732 17.5622C19.8536 17.3031 20.2525 17.0944 20.6841 16.9331C20.6963 16.9285 20.7084 16.9238 20.721 16.919C21.564 16.5968 22.4658 16.4912 23.3616 16.5641Z" fill="#1E7AD0"/>
<path d="M26.2341 1.31029C26.283 1.34188 26.3321 1.37334 26.3813 1.40457C26.3913 1.41257 26.4014 1.42056 26.4118 1.4288C26.4118 1.44183 26.4118 1.45487 26.4118 1.4683C26.4249 1.47237 26.4379 1.47645 26.4513 1.48064C26.5317 1.5175 26.6032 1.56657 26.6686 1.62631C26.6686 1.63934 26.6686 1.65238 26.6686 1.66581C26.6797 1.67067 26.6909 1.67553 26.7024 1.68054C26.7555 1.70963 26.7945 1.74448 26.8389 1.78555C26.9078 1.84887 26.9773 1.91138 27.0475 1.97318C27.1202 2.03844 27.1852 2.10641 27.2481 2.18102C27.2821 2.22024 27.3179 2.25655 27.3549 2.29289C27.4006 2.33799 27.4439 2.38143 27.4784 2.43609C27.4784 2.44912 27.4784 2.46216 27.4784 2.47559C27.4914 2.47559 27.5044 2.47559 27.5179 2.47559C27.5558 2.52132 27.5914 2.5672 27.6265 2.61508C27.637 2.62932 27.6476 2.64355 27.6584 2.65822C27.7535 2.78763 27.8435 2.92007 27.9309 3.0548C27.9505 3.085 27.9705 3.11499 27.9905 3.14495C28.074 3.27188 28.1429 3.40376 28.2088 3.54058C28.2242 3.57212 28.2401 3.60348 28.256 3.63476C28.3265 3.77301 28.389 3.91263 28.4461 4.05688C28.4546 4.07827 28.4631 4.09965 28.4719 4.12169C28.5448 4.30782 28.609 4.49533 28.6634 4.68767C28.6671 4.70064 28.6708 4.71361 28.6746 4.72697C28.742 4.96693 28.7822 5.21213 28.8214 5.45795C28.8237 5.4722 28.826 5.48644 28.8284 5.50111C29.0002 6.5898 28.8231 7.80328 28.3474 8.79583C28.3355 8.82187 28.3235 8.84792 28.3117 8.87399C28.1173 9.29814 27.87 9.69647 27.5771 10.0599C27.5684 10.0711 27.5596 10.0822 27.5506 10.0938C27.4094 10.2738 27.2597 10.4422 27.0982 10.6043C27.074 10.6286 27.074 10.6286 27.0494 10.6534C26.9415 10.76 26.828 10.8559 26.7081 10.9487C26.6871 10.9654 26.6661 10.9822 26.6451 10.999C25.9338 11.5562 25.0953 11.9845 24.2102 12.1767C24.1421 12.191 24.1421 12.191 24.0853 12.2136C23.9939 12.2408 23.9033 12.2448 23.8084 12.251C23.7626 12.2542 23.7168 12.2574 23.6709 12.2605C23.6454 12.2623 23.6199 12.264 23.5937 12.2658C23.5157 12.2713 23.4379 12.2776 23.36 12.284C23.2893 12.2898 23.2186 12.2955 23.1478 12.3011C23.1131 12.3038 23.0785 12.3067 23.0438 12.3096C22.7282 12.3364 22.4247 12.3296 22.1114 12.2813C21.8527 12.2439 21.5904 12.2483 21.3297 12.2485C21.2995 12.2485 21.2995 12.2485 21.2686 12.2485C20.9667 12.2489 20.6681 12.2548 20.3681 12.2917C20.3518 12.2936 20.3356 12.2955 20.3188 12.2975C19.9164 12.3462 19.5125 12.4343 19.1238 12.5485C19.0987 12.5558 19.0987 12.5558 19.073 12.5634C18.6547 12.6866 18.2429 12.8241 17.848 13.0105C17.8008 13.0328 17.7536 13.0545 17.7061 13.0758C17.3243 13.2484 16.9663 13.466 16.6154 13.694C16.5982 13.7051 16.5982 13.7051 16.5805 13.7164C16.3934 13.8367 16.219 13.9718 16.0454 14.1104C16.0328 14.1204 16.0202 14.1305 16.0072 14.1408C15.9827 14.1603 15.9582 14.1799 15.9339 14.1996C15.8496 14.2668 15.8496 14.2668 15.8057 14.2668C15.8057 14.2798 15.8057 14.2929 15.8057 14.3063C15.7733 14.335 15.7397 14.3624 15.7057 14.389C15.6264 14.4524 15.5531 14.5168 15.4827 14.5897C15.4497 14.6227 15.4154 14.6527 15.3798 14.6828C15.2121 14.8276 15.0528 14.9882 14.9096 15.1573C14.8707 15.2029 14.8302 15.2471 14.7897 15.2914C14.7028 15.3878 14.6214 15.4877 14.5416 15.5901C14.5337 15.6002 14.5259 15.6102 14.5177 15.6206C14.3362 15.8529 14.1705 16.0945 14.0083 16.3406C14.0003 16.3528 13.9923 16.3649 13.9841 16.3774C13.9608 16.4128 13.9376 16.4483 13.9145 16.4838C13.9012 16.5043 13.8878 16.5248 13.8741 16.5458C13.8155 16.6394 13.7643 16.7372 13.7121 16.8344C13.7028 16.8516 13.6935 16.8687 13.6839 16.8864C13.4904 17.2452 13.309 17.6133 13.1788 18.0004C13.1635 18.0459 13.1473 18.0907 13.1304 18.1356C12.9713 18.557 12.8526 18.9937 12.7721 19.4369C12.7645 19.4786 12.7564 19.5203 12.7482 19.5619C12.6733 19.9517 12.635 20.3485 12.6258 20.745C12.625 20.7731 12.625 20.7731 12.6242 20.8017C12.6153 21.1421 12.6455 21.4737 12.685 21.8116C12.7349 22.2411 12.7011 22.6719 12.6702 23.1016C12.6687 23.1244 12.6671 23.1472 12.6655 23.1707C12.648 23.425 12.6243 23.6614 12.5468 23.9052C12.5351 23.9478 12.5236 23.9904 12.5123 24.0331C12.4542 24.2453 12.3952 24.4527 12.3098 24.6557C12.2998 24.6812 12.2898 24.7068 12.2799 24.7324C12.1024 25.1855 11.8561 25.6329 11.5592 26.0185C11.5337 26.0543 11.5082 26.0901 11.4827 26.1259C11.3952 26.2463 11.3003 26.3596 11.2037 26.4728C11.1917 26.487 11.1797 26.5012 11.1674 26.5159C11.0739 26.6253 10.9754 26.7324 10.868 26.8283C10.8549 26.8283 10.8419 26.8283 10.8285 26.8283C10.8285 26.8413 10.8285 26.8544 10.8285 26.8678C10.8029 26.8942 10.8029 26.8942 10.7655 26.9258C10.7511 26.938 10.7367 26.9502 10.7218 26.9628C10.6964 26.9842 10.6964 26.9842 10.6705 27.006C10.6504 27.0233 10.6304 27.0406 10.6104 27.0579C9.75731 27.7932 8.72254 28.2321 7.61896 28.4219C7.60553 28.4243 7.59209 28.4266 7.57825 28.4291C7.3791 28.4622 7.17895 28.4707 6.97737 28.4709C6.95566 28.471 6.93395 28.471 6.91158 28.4711C6.86597 28.4712 6.82036 28.4713 6.77475 28.4713C6.70594 28.4713 6.63713 28.4717 6.56832 28.472C6.33218 28.4726 6.10433 28.4656 5.87102 28.4281C5.83588 28.4233 5.80072 28.4187 5.76555 28.4141C5.4355 28.3673 5.12313 28.2892 4.80667 28.185C4.76994 28.173 4.7331 28.1613 4.69624 28.1497C4.58285 28.1134 4.47551 28.0708 4.36788 28.02C4.30549 27.9912 4.2422 27.9653 4.17863 27.9393C4.03058 27.8763 3.89312 27.7983 3.75408 27.7178C3.70451 27.6895 3.65395 27.6633 3.60339 27.6368C3.50805 27.5852 3.42239 27.5242 3.33567 27.4593C3.28791 27.4239 3.23946 27.3906 3.18985 27.3579C3.03808 27.2575 3.03808 27.2575 2.96766 27.2035C2.96766 27.1905 2.96766 27.1775 2.96766 27.164C2.95449 27.1604 2.94133 27.1567 2.92777 27.1529C2.84317 27.1121 2.78415 27.0512 2.71707 26.9863C2.69526 26.9654 2.69526 26.9654 2.67302 26.9442C2.62618 26.8992 2.57963 26.8539 2.53314 26.8085C2.50963 26.7857 2.50963 26.7857 2.48564 26.7623C2.0259 26.3138 2.0259 26.3138 1.98012 26.1765C1.96708 26.1765 1.95405 26.1765 1.94062 26.1765C1.91382 26.1436 1.91382 26.1436 1.88337 26.0979C1.86672 26.0732 1.86672 26.0732 1.84973 26.0479C1.83817 26.0305 1.82662 26.013 1.81471 25.995C1.73086 25.8681 1.73086 25.8681 1.63988 25.7464C1.6018 25.6987 1.57405 25.6503 1.5456 25.5963C1.50771 25.5249 1.46875 25.4543 1.42851 25.3841C1.30634 25.1697 1.1975 24.9514 1.10244 24.7236C1.09429 24.7041 1.08614 24.6846 1.07775 24.6646C1.02871 24.5448 0.988361 24.4247 0.953079 24.3002C0.943468 24.2681 0.933823 24.2361 0.924148 24.2041C0.83343 23.8979 0.76869 23.5914 0.722242 23.2756C0.719882 23.2597 0.717523 23.2437 0.715091 23.2273C0.6794 22.9709 0.672496 22.7143 0.672865 22.456C0.672877 22.4404 0.672889 22.4249 0.672901 22.4089C0.674116 21.8234 0.754422 21.2691 0.913578 20.7055C0.917349 20.692 0.92112 20.6786 0.925006 20.6646C0.962662 20.5312 1.00869 20.4036 1.06371 20.2764C1.08373 20.2296 1.1029 20.1828 1.12142 20.1355C1.20817 19.9153 1.31275 19.7078 1.4271 19.5007C1.44512 19.4681 1.44512 19.4681 1.46351 19.4348C1.66026 19.0891 1.89859 18.7744 2.15788 18.4737C2.16936 18.46 2.18084 18.4463 2.19267 18.4321C2.37135 18.221 2.57291 18.0322 2.7899 17.8614C2.84781 17.8132 2.90566 17.7648 2.96341 17.7163C3.00716 17.6837 3.00716 17.6837 3.04666 17.6837C3.04666 17.6706 3.04666 17.6576 3.04666 17.6442C3.0786 17.6193 3.0786 17.6193 3.12319 17.5911C3.19044 17.5479 3.25593 17.5034 3.3207 17.4565C3.40375 17.3982 3.48885 17.3487 3.57854 17.3014C3.63439 17.2715 3.6892 17.2401 3.74399 17.2083C4.04337 17.0358 4.3561 16.8796 4.68597 16.7751C4.71473 16.7656 4.74348 16.7561 4.77223 16.7465C4.95683 16.6859 5.14245 16.634 5.33139 16.5887C5.35505 16.583 5.35505 16.583 5.37918 16.5772C5.40011 16.5723 5.40011 16.5723 5.42146 16.5673C5.45799 16.5586 5.45799 16.5586 5.49576 16.5381C5.52499 16.5342 5.55436 16.5313 5.58375 16.529C5.60204 16.5274 5.62033 16.5259 5.63917 16.5244C5.65909 16.5228 5.679 16.5212 5.69951 16.5196C5.73046 16.5171 5.73046 16.5171 5.76202 16.5145C5.80594 16.511 5.84986 16.5075 5.89378 16.504C5.95984 16.4987 6.02589 16.4934 6.09194 16.488C6.52112 16.4533 6.93612 16.42 7.36475 16.4758C7.6227 16.5093 7.87679 16.5216 8.13662 16.521C8.18645 16.5209 8.23627 16.521 8.28609 16.5211C8.59805 16.5212 8.90536 16.504 9.21507 16.4653C9.22844 16.4636 9.2418 16.462 9.25558 16.4603C9.54017 16.4243 9.81852 16.3669 10.0977 16.3011C10.1322 16.2933 10.1667 16.2856 10.2011 16.2778C11.3779 16.0062 12.6231 15.4159 13.5431 14.6238C13.5936 14.5828 13.5936 14.5828 13.6331 14.5828C13.6331 14.5698 13.6331 14.5567 13.6331 14.5433C13.6685 14.5169 13.704 14.4906 13.7398 14.4647C13.8371 14.389 13.9251 14.3027 14.015 14.2184C14.0557 14.1804 14.097 14.1431 14.1383 14.1057C14.3088 13.9511 14.4758 13.7916 14.6251 13.6161C14.6686 13.5657 14.7137 13.517 14.7589 13.4681C14.8431 13.3756 14.9205 13.2803 14.9959 13.1805C15.0192 13.1506 15.0425 13.1206 15.0658 13.0907C15.2232 12.8879 15.3709 12.6787 15.5143 12.4658C15.5239 12.4517 15.5334 12.4377 15.5433 12.4232C15.6184 12.3107 15.6826 12.1936 15.7464 12.0745C15.7656 12.0396 15.7849 12.0048 15.8043 11.97C15.9186 11.7632 16.0274 11.5556 16.1249 11.3403C16.1399 11.3075 16.1555 11.2749 16.1711 11.2424C16.3501 10.8682 16.4801 10.4773 16.5957 10.0796C16.6012 10.061 16.6067 10.0424 16.6124 10.0233C16.7013 9.72317 16.7607 9.42023 16.8129 9.11185C16.816 9.09439 16.8191 9.07694 16.8223 9.05896C16.8972 8.63329 16.9153 8.2027 16.9154 7.77126C16.9154 7.7563 16.9154 7.74133 16.9155 7.72592C16.9155 7.68306 16.9153 7.64022 16.915 7.59736C16.9148 7.56048 16.9148 7.56048 16.9146 7.52285C16.9117 7.45217 16.9027 7.38439 16.8919 7.31453C16.8886 7.26183 16.8857 7.20926 16.8833 7.15652C16.8779 7.04824 16.868 6.94282 16.8512 6.83557C16.8116 6.55266 16.8288 6.26793 16.8555 5.98451C16.8662 5.86971 16.8746 5.75521 16.8801 5.64003C16.8931 5.37427 16.9115 5.12462 16.9964 4.87091C17.0183 4.80067 17.0351 4.72926 17.0527 4.65782C17.1074 4.43608 17.1764 4.22563 17.2672 4.01615C17.2752 3.99772 17.2752 3.99772 17.2833 3.97891C17.4757 3.53981 17.7117 3.11675 17.9961 2.73073C18.038 2.67445 18.038 2.67445 18.0702 2.61608C18.079 2.60231 18.0877 2.58853 18.0967 2.57434C18.1098 2.57434 18.1228 2.57434 18.1362 2.57434C18.1402 2.56082 18.1442 2.5473 18.1484 2.53338C18.1853 2.45549 18.2384 2.4025 18.298 2.34104C18.3201 2.31789 18.3422 2.29472 18.3642 2.27152C18.3755 2.25975 18.3867 2.24798 18.3983 2.23585C18.4332 2.1983 18.4667 2.15978 18.5001 2.12085C18.5722 2.03783 18.6497 1.96189 18.73 1.88677C18.7447 1.87304 18.7593 1.85931 18.7744 1.84517C18.8942 1.73419 19.018 1.63103 19.1488 1.53337C19.1839 1.50712 19.2187 1.48051 19.2536 1.45387C19.8879 0.973239 20.6795 0.571116 21.4684 0.433467C21.5169 0.424551 21.5634 0.414344 21.611 0.402144C23.1337 0.0137435 24.9598 0.409491 26.2341 1.31029Z" fill="#313131"/>
<path d="M39.6059 16.5628C39.6209 16.5641 39.636 16.5655 39.6515 16.5668C40.3685 16.6306 41.0735 16.8067 41.7192 17.1307C41.7451 17.1432 41.771 17.1556 41.7969 17.1681C42.4168 17.4682 42.9465 17.8847 43.4333 18.3674C43.4613 18.3951 43.4894 18.4227 43.5174 18.4504C43.6368 18.5697 43.7537 18.6918 43.8523 18.8292C43.8523 18.8423 43.8523 18.8553 43.8523 18.8687C43.8653 18.8687 43.8784 18.8687 43.8918 18.8687C43.9432 18.9378 43.9816 19.0048 44.0103 19.086C44.0233 19.086 44.0364 19.086 44.0498 19.086C44.0821 19.1327 44.1119 19.1794 44.1411 19.2279C44.1591 19.2574 44.1771 19.2868 44.1951 19.3163C44.204 19.331 44.2129 19.3456 44.222 19.3607C44.2435 19.3957 44.2656 19.4304 44.2878 19.4649C44.4724 19.7526 44.6269 20.0673 44.7411 20.3895C44.7485 20.4103 44.7559 20.4311 44.7635 20.4525C44.8779 20.7762 44.9759 21.0979 45.0373 21.4363C45.0403 21.4523 45.0433 21.4683 45.0463 21.4847C45.0651 21.5868 45.0823 21.689 45.0966 21.7918C45.0999 21.8148 45.1033 21.8379 45.1067 21.8616C45.1393 22.0984 45.1431 22.3333 45.1423 22.572C45.1422 22.592 45.1422 22.612 45.1422 22.6326C45.1414 22.9358 45.1294 23.2307 45.0768 23.5299C45.0739 23.5479 45.0709 23.5658 45.0679 23.5843C44.9802 24.1125 44.8279 24.6527 44.5831 25.1297C44.5698 25.1565 44.5567 25.1832 44.5436 25.21C44.3349 25.6345 44.0847 26.022 43.793 26.3938C43.7778 26.4136 43.7625 26.4334 43.7468 26.4538C43.7327 26.4719 43.7187 26.4899 43.7041 26.5086C43.6917 26.5246 43.6793 26.5406 43.6665 26.5571C43.6509 26.574 43.6509 26.574 43.635 26.5913C43.622 26.5913 43.6089 26.5913 43.5955 26.5913C43.5908 26.6022 43.5862 26.6131 43.5813 26.6243C43.4958 26.7798 43.347 26.9038 43.2069 27.009C43.1591 27.0456 43.1591 27.0456 43.1136 27.0931C43.0585 27.1481 43.0001 27.1966 42.9388 27.2443C42.9211 27.2582 42.9211 27.2582 42.9029 27.2723C42.2806 27.7539 41.5544 28.1723 40.7862 28.3642C40.7225 28.3803 40.6597 28.3982 40.597 28.4176C40.3232 28.5007 40.0624 28.5305 39.7774 28.5429C39.716 28.546 39.6545 28.5493 39.5931 28.5526C39.5553 28.5545 39.5176 28.5564 39.4799 28.5581C39.3829 28.5627 39.2871 28.5704 39.1907 28.5818C38.8663 28.6174 38.5389 28.5763 38.2177 28.5336C36.7327 28.3467 35.0484 28.7461 33.7459 29.4592C33.6926 29.4882 33.639 29.5153 33.5844 29.5415C33.1078 29.7775 32.6519 30.0885 32.2438 30.4286C32.1993 30.4624 32.1993 30.4624 32.1598 30.4624C32.1598 30.4755 32.1598 30.4885 32.1598 30.5019C32.13 30.5277 32.13 30.5277 32.087 30.5587C31.9705 30.6468 31.8656 30.7457 31.7592 30.8455C31.714 30.8878 31.6684 30.9295 31.6228 30.9713C31.4862 31.0967 31.3543 31.2229 31.2334 31.3636C31.2006 31.4008 31.1673 31.4372 31.1334 31.4734C31.1229 31.4846 31.1125 31.4958 31.1017 31.5073C31.081 31.5295 31.0601 31.5515 31.0392 31.5735C30.9912 31.6248 30.9485 31.6749 30.9108 31.7343C30.8993 31.7513 30.8879 31.7683 30.876 31.7857C30.863 31.7857 30.85 31.7857 30.8365 31.7857C30.8317 31.7999 30.8269 31.8141 30.8219 31.8287C30.7938 31.8917 30.7592 31.9347 30.7143 31.9869C30.6433 32.0717 30.578 32.1579 30.5157 32.2492C30.4781 32.3034 30.4389 32.3562 30.3995 32.4091C30.343 32.4865 30.2941 32.5642 30.2496 32.6489C30.2253 32.6924 30.1989 32.7324 30.1705 32.7733C30.0963 32.8836 30.0337 32.9993 29.9712 33.1164C29.9591 33.1391 29.9469 33.1617 29.9345 33.1851C29.5674 33.8758 29.2795 34.6021 29.1103 35.3667C29.1023 35.4026 29.0942 35.4384 29.086 35.4742C29.03 35.7178 28.9874 35.962 28.9553 36.2099C28.952 36.2346 28.9488 36.2593 28.9455 36.2848C28.9092 36.5786 28.8959 36.872 28.8948 37.1678C28.8947 37.1916 28.8947 37.1916 28.8945 37.2158C28.8939 37.5091 28.9171 37.7976 28.9518 38.0887C28.9882 38.3977 28.9854 38.6992 28.9639 39.0096C28.9621 39.0355 28.9604 39.0613 28.9585 39.088C28.9529 39.1689 28.9467 39.2497 28.9405 39.3305C28.9389 39.3503 28.9389 39.3504 28.9374 39.3706C28.9146 39.6685 28.8871 39.9546 28.7944 40.2396C28.7782 40.2923 28.7658 40.3456 28.7534 40.3992C28.7157 40.5618 28.663 40.7155 28.601 40.8704C28.5849 40.9108 28.5692 40.9513 28.5535 40.9919C28.4207 41.3309 28.2412 41.6472 28.0517 41.9574C28.0433 41.971 28.035 41.9847 28.0264 41.9988C28.0021 42.0382 27.9776 42.0774 27.9529 42.1166C27.9455 42.1285 27.9381 42.1404 27.9305 42.1527C27.9127 42.1805 27.8935 42.2073 27.8739 42.2339C27.8609 42.2339 27.8478 42.2339 27.8344 42.2339C27.8295 42.2477 27.8246 42.2616 27.8196 42.2759C27.7915 42.3404 27.7579 42.3947 27.7159 42.4511C27.7029 42.4511 27.6898 42.4511 27.6764 42.4511C27.6722 42.4649 27.668 42.4786 27.6637 42.4927C27.6295 42.5656 27.5798 42.6174 27.5246 42.6746C27.5029 42.6975 27.4812 42.7204 27.4596 42.7433C27.444 42.7598 27.444 42.7598 27.4281 42.7765C27.3941 42.8128 27.3617 42.8502 27.3295 42.8881C27.1946 43.0438 27.0449 43.1886 26.8864 43.3202C26.8721 43.332 26.8579 43.3439 26.8432 43.3561C26.1626 43.9102 25.4019 44.3087 24.5558 44.5447C24.5384 44.5497 24.5211 44.5546 24.5032 44.5597C24.0202 44.6955 23.5279 44.746 23.0275 44.7448C22.9758 44.7447 22.9241 44.7448 22.8723 44.7449C22.1906 44.7453 21.5227 44.621 20.8821 44.3867C20.8596 44.3786 20.8371 44.3706 20.8139 44.3623C20.317 44.178 19.8494 43.9132 19.4223 43.6012C19.38 43.5706 19.3381 43.5423 19.2942 43.5144C19.2773 43.5025 19.2603 43.4905 19.2428 43.4782C19.2428 43.4651 19.2428 43.4521 19.2428 43.4387C19.2318 43.4337 19.2208 43.4287 19.2094 43.4236C19.0198 43.322 18.864 43.1446 18.714 42.993C18.6795 42.9581 18.6449 42.9234 18.6102 42.8887C18.588 42.8664 18.5657 42.844 18.5435 42.8217C18.5333 42.8114 18.523 42.8012 18.5125 42.7906C18.3738 42.6501 18.3738 42.6501 18.3738 42.5894C18.3542 42.5829 18.3347 42.5764 18.3145 42.5696C18.2732 42.5227 18.2732 42.5227 18.2257 42.4598C18.2171 42.4485 18.2086 42.4372 18.1998 42.4256C18.1035 42.297 18.0129 42.1644 17.923 42.0312C17.9035 42.0023 17.8837 41.9736 17.8639 41.945C17.7884 41.8348 17.7243 41.7204 17.6628 41.6019C17.6549 41.5867 17.647 41.5716 17.6389 41.5561C17.3224 40.946 17.1028 40.3051 16.9986 39.6243C16.995 39.6006 16.995 39.6006 16.9913 39.5765C16.9524 39.3123 16.9481 39.0503 16.9481 38.7837C16.948 38.7202 16.9477 38.6568 16.9473 38.5934C16.9463 38.2328 16.9675 37.88 17.0443 37.527C17.052 37.4909 17.052 37.4909 17.0599 37.454C17.1658 36.9709 17.3229 36.5153 17.5356 36.0692C17.5461 36.0472 17.5566 36.0252 17.5673 36.0025C17.6281 35.8778 17.6944 35.7601 17.7709 35.6444C17.7984 35.6017 17.8224 35.5588 17.8455 35.5137C17.9485 35.3239 18.0925 35.1528 18.226 34.9838C18.2617 34.9375 18.295 34.8898 18.3277 34.8412C18.3654 34.7931 18.4094 34.7519 18.4528 34.7088C18.4875 34.6712 18.5221 34.6333 18.5565 34.5953C18.8184 34.3084 18.8184 34.3084 18.9679 34.2049C19.0084 34.175 19.0084 34.175 19.0488 34.1311C19.121 34.0608 19.1997 34.0028 19.2811 33.9435C19.3062 33.9251 19.3062 33.9251 19.3318 33.9064C19.47 33.8061 19.6102 33.711 19.7563 33.6225C19.7699 33.6143 19.7834 33.606 19.7973 33.5975C20.0518 33.4429 20.3156 33.3126 20.5859 33.188C20.6041 33.1795 20.6223 33.171 20.641 33.1622C20.757 33.1083 20.8731 33.0613 20.9945 33.0214C21.0119 33.0156 21.0292 33.0098 21.0471 33.0039C21.2418 32.9409 21.4402 32.8925 21.6393 32.8457C21.6775 32.8361 21.7154 32.8248 21.7529 32.8125C21.8544 32.7833 21.959 32.7793 22.0639 32.7719C22.0867 32.7702 22.1094 32.7685 22.1329 32.7667C22.1811 32.7632 22.2293 32.7597 22.2776 32.7563C22.3496 32.7512 22.4217 32.7457 22.4937 32.7402C22.8814 32.7115 23.2772 32.6831 23.6633 32.7424C23.9733 32.7844 24.2824 32.7997 24.5953 32.793C24.619 32.7926 24.619 32.7926 24.6433 32.7923C25.1795 32.7825 25.7117 32.7132 26.2346 32.5955C26.2696 32.5879 26.3047 32.5804 26.3398 32.5728C26.6131 32.5123 26.878 32.428 27.1431 32.3387C27.159 32.3334 27.1749 32.3281 27.1913 32.3226C27.5208 32.2115 27.8427 32.0846 28.1514 31.9241C28.2044 31.8968 28.2579 31.8704 28.3113 31.844C28.6131 31.6946 28.6131 31.6946 28.8989 31.517C28.9409 31.4892 28.9837 31.4651 29.0281 31.4413C29.1297 31.3861 29.2219 31.3197 29.3157 31.2525C29.3478 31.2302 29.3799 31.208 29.412 31.1858C29.5847 31.0647 29.7519 30.9373 29.9143 30.8027C29.9487 30.7743 29.9833 30.7461 30.0183 30.7184C30.2568 30.5283 30.4736 30.3133 30.6896 30.0983C30.7042 30.0838 30.7188 30.0693 30.7338 30.0544C30.8601 29.9277 30.9785 29.7977 31.0823 29.6518C31.113 29.6131 31.113 29.6131 31.16 29.5666C31.2143 29.5119 31.2602 29.4548 31.3068 29.3934C31.3153 29.3823 31.3237 29.3713 31.3324 29.3598C31.4711 29.1873 31.4711 29.1873 31.5871 29.0009C31.6001 29.0009 31.6131 29.0009 31.6266 29.0009C31.6311 28.9876 31.6356 28.9744 31.6403 28.9608C31.6732 28.8859 31.7169 28.8218 31.7623 28.754C31.9406 28.4828 32.0969 28.1995 32.2475 27.9121C32.257 27.8939 32.2666 27.8756 32.2764 27.8569C32.3741 27.6685 32.4596 27.4761 32.5376 27.2788C32.5442 27.2623 32.5507 27.2458 32.5575 27.2287C32.6767 26.9289 32.7867 26.6265 32.8709 26.3148C32.8773 26.2915 32.8838 26.2682 32.8905 26.2442C32.9714 25.9487 33.0372 25.6491 33.0881 25.347C33.0906 25.3325 33.0932 25.318 33.0958 25.303C33.1394 25.0452 33.1573 24.7869 33.1708 24.5261C33.1717 24.51 33.1725 24.4939 33.1734 24.4773C33.1864 24.2233 33.1927 23.9704 33.1795 23.7163C33.1786 23.6999 33.1778 23.6834 33.1769 23.6665C33.17 23.5417 33.1597 23.4173 33.1474 23.2929C33.1449 23.2679 33.1449 23.2679 33.1424 23.2425C33.1344 23.1598 33.1344 23.1598 33.1179 23.0787C33.0619 22.8419 33.094 22.5878 33.114 22.3486C33.1169 22.3125 33.1198 22.2764 33.1227 22.2404C33.127 22.1866 33.1313 22.1328 33.1357 22.079C33.1438 21.9791 33.1507 21.8792 33.156 21.7791C33.1718 21.4942 33.2219 21.235 33.3054 20.9623C33.311 20.9435 33.3167 20.9246 33.3225 20.9052C33.4745 20.3992 33.6823 19.9134 33.9571 19.4612C33.9694 19.4406 33.9816 19.42 33.9943 19.3988C34.0697 19.2735 34.1493 19.1515 34.2312 19.0304C34.2406 19.0164 34.25 19.0023 34.2597 18.9878C34.2829 18.9539 34.3075 18.9211 34.3324 18.8885C34.3454 18.8885 34.3585 18.8885 34.3719 18.8885C34.3759 18.8752 34.3799 18.8618 34.384 18.8481C34.4214 18.7685 34.4752 18.7104 34.5336 18.6453C34.551 18.6256 34.551 18.6256 34.5688 18.6055C34.5916 18.5796 34.6145 18.5538 34.6375 18.528C34.6745 18.4864 34.7108 18.4443 34.7472 18.4021C34.7979 18.3445 34.8485 18.2885 34.9052 18.2367C34.9182 18.2367 34.9313 18.2367 34.9447 18.2367C34.9512 18.2171 34.9577 18.1976 34.9644 18.1774C34.9912 18.1498 34.9912 18.1498 35.0274 18.1194C35.0417 18.1074 35.056 18.0953 35.0707 18.0829C35.0963 18.0612 35.0963 18.0612 35.1224 18.0392C35.1432 18.021 35.164 18.0027 35.1847 17.9844C35.6356 17.5883 36.1665 17.254 36.7229 17.028C36.7619 17.0121 36.8007 16.9957 36.8395 16.9793C37.4395 16.7311 38.0532 16.6116 38.6973 16.5579C38.7316 16.5549 38.7316 16.5549 38.7665 16.5519C39.0482 16.5293 39.3249 16.5379 39.6059 16.5628Z" fill="#313131"/>
<path d="M6.46367 0.557219C7.05117 0.548371 7.66063 0.607257 8.22255 0.784604C8.26172 0.796908 8.30105 0.808549 8.34046 0.820074C8.64431 0.910149 8.93291 1.02755 9.21389 1.17385C9.2637 1.19942 9.31436 1.22319 9.36487 1.24734C9.79067 1.46053 10.1917 1.74502 10.5387 2.07047C10.5815 2.11042 10.625 2.14887 10.6697 2.18673C10.8402 2.33482 11.0007 2.49936 11.1449 2.6731C11.1607 2.69173 11.1764 2.71037 11.1927 2.72957C11.3227 2.88517 11.3227 2.88517 11.3227 2.92986C11.3357 2.92986 11.3487 2.92986 11.3622 2.92986C11.3925 2.96804 11.3925 2.96804 11.4282 3.02174C11.4413 3.0414 11.4545 3.06106 11.468 3.08132C11.4819 3.10262 11.4959 3.12393 11.5103 3.14588C11.5318 3.17845 11.5318 3.17845 11.5537 3.21168C11.7944 3.5792 12.0341 3.9658 12.17 4.38617C12.1881 4.43984 12.208 4.49137 12.2294 4.54371C12.3533 4.85042 12.4324 5.17207 12.488 5.49746C12.4908 5.51397 12.4937 5.53048 12.4966 5.5475C12.5402 5.80367 12.57 6.05511 12.5703 6.31542C12.5703 6.33623 12.5704 6.35705 12.5705 6.37849C12.5706 6.42228 12.5706 6.46606 12.5706 6.50985C12.5707 6.57576 12.571 6.64167 12.5714 6.70758C12.572 6.94616 12.5622 7.17726 12.5275 7.41328C12.5227 7.45098 12.518 7.48868 12.5134 7.52639C12.4862 7.7314 12.4481 7.92575 12.3892 8.12431C12.3834 8.146 12.3775 8.16769 12.3715 8.19004C12.1317 9.07105 11.6942 9.90842 11.0737 10.581C11.0352 10.6231 10.9979 10.6657 10.961 10.7092C10.8123 10.88 10.6476 11.0412 10.4734 11.1857C10.4546 11.2016 10.4359 11.2175 10.4166 11.2338C10.3746 11.2647 10.3746 11.2647 10.3351 11.2647C10.3351 11.2777 10.3351 11.2908 10.3351 11.3042C10.2983 11.3356 10.2617 11.3645 10.2228 11.3931C10.2123 11.401 10.2018 11.409 10.191 11.4172C10.1297 11.4628 10.0717 11.4967 9.99937 11.5214C9.99937 11.5345 9.99937 11.5475 9.99937 11.5609C9.97143 11.5826 9.97143 11.5826 9.93201 11.6061C9.91751 11.6148 9.903 11.6236 9.88805 11.6326C9.87223 11.642 9.85642 11.6513 9.84013 11.6609C9.80713 11.6807 9.77414 11.7004 9.74114 11.7201C9.71634 11.7348 9.71634 11.7348 9.69104 11.7499C9.64973 11.7747 9.60886 11.8 9.56817 11.8258C9.3851 11.9409 9.1937 12.0292 8.99539 12.115C8.94315 12.1378 8.89172 12.1623 8.84024 12.1868C8.63991 12.2778 8.42871 12.3491 8.21416 12.3976C8.16214 12.4094 8.16214 12.4094 8.1117 12.4284C8.01098 12.4601 7.90811 12.4789 7.80456 12.4991C7.78353 12.5033 7.7625 12.5075 7.74084 12.5118C7.67737 12.5244 7.61385 12.5365 7.55027 12.5485C7.53123 12.5521 7.51219 12.5558 7.49257 12.5596C7.34257 12.5868 7.19257 12.5991 7.04054 12.6078C6.99989 12.6102 6.95927 12.6128 6.91863 12.6154C5.3525 12.7123 3.84099 12.2017 2.63233 11.2054C2.59913 11.1728 2.56622 11.1399 2.53358 11.1067C2.49282 11.0684 2.45144 11.0308 2.41013 10.9931C2.25155 10.8472 2.10192 10.7002 1.96705 10.5315C1.91992 10.4729 1.87132 10.4158 1.82255 10.3586C1.73104 10.2488 1.64843 10.1349 1.56938 10.0158C1.54537 9.97989 1.52088 9.94432 1.49635 9.90874C1.05949 9.26517 0.770334 8.52908 0.617753 7.7688C0.614701 7.75375 0.611649 7.7387 0.608504 7.72319C0.307704 6.20227 0.642727 4.57782 1.48432 3.28414C1.57669 3.1481 1.67601 3.01717 1.77571 2.88647C1.79976 2.85485 1.82355 2.82305 1.84732 2.79122C1.86561 2.76697 1.86561 2.76697 1.88427 2.74222C1.89451 2.72858 1.90474 2.71493 1.91529 2.70087C1.92379 2.69171 1.93229 2.68254 1.94105 2.6731C1.95409 2.6731 1.96713 2.6731 1.98056 2.6731C1.98506 2.66233 1.98957 2.65156 1.99421 2.64046C2.02748 2.58078 2.07114 2.53373 2.11758 2.48423C2.12716 2.47393 2.13674 2.46363 2.14661 2.45301C2.43302 2.14689 2.43302 2.14689 2.57601 2.04925C2.61595 2.02005 2.61595 2.02005 2.65933 1.97434C2.75341 1.88067 2.86169 1.80404 2.96809 1.72506C2.98063 1.7157 2.99317 1.70634 3.00609 1.6967C3.32238 1.46215 3.66407 1.26395 4.02353 1.10291C4.03939 1.09578 4.05525 1.08865 4.07159 1.08131C4.10218 1.06756 4.10218 1.06756 4.13339 1.05353C4.15653 1.04252 4.15653 1.04252 4.18013 1.03128C4.31482 0.968008 4.45058 0.918689 4.59259 0.874543C4.61439 0.867699 4.63618 0.860855 4.65863 0.853804C5.25486 0.66802 5.84084 0.57737 6.46367 0.557219Z" fill="#1E7AD0"/>
<path d="M39.7743 32.6992C39.7898 32.7005 39.8052 32.7018 39.8211 32.7032C40.1903 32.7349 40.5481 32.7904 40.9033 32.898C40.9513 32.9124 40.9995 32.9262 41.0476 32.94C41.3347 33.0227 41.6029 33.1294 41.8729 33.2572C41.8917 33.2661 41.9106 33.275 41.93 33.2841C42.0398 33.3369 42.1446 33.3944 42.2483 33.4581C42.2979 33.4883 42.3485 33.5155 42.4 33.5423C42.5082 33.601 42.6068 33.6685 42.7061 33.7411C42.7292 33.7575 42.7522 33.774 42.7753 33.7905C42.9149 33.8908 43.0496 33.9948 43.1794 34.1076C43.2353 34.1567 43.2353 34.1567 43.2986 34.1953C43.2986 34.2084 43.2986 34.2214 43.2986 34.2348C43.3182 34.2413 43.3377 34.2479 43.3579 34.2546C43.3917 34.2866 43.4244 34.3197 43.4566 34.3533C43.4769 34.3735 43.4972 34.3936 43.5176 34.4136C43.5392 34.4351 43.5609 34.4565 43.5825 34.478C43.5932 34.4885 43.6038 34.499 43.6148 34.5098C43.9071 34.8004 44.2063 35.143 44.3982 35.5099C44.4258 35.5608 44.456 35.6097 44.4865 35.6589C44.5845 35.8179 44.6658 35.9814 44.7425 36.1515C44.7584 36.1863 44.7749 36.2208 44.7915 36.2553C45.1488 37 45.3063 37.8398 45.3001 38.6619C45.2996 38.7286 45.2997 38.7953 45.2998 38.8621C45.2995 39.0941 45.2899 39.3184 45.2539 39.5478C45.2496 39.5815 45.2454 39.6153 45.2413 39.6491C45.2072 39.9043 45.1465 40.1495 45.0762 40.3971C45.0723 40.4112 45.0684 40.4253 45.0643 40.4399C44.9597 40.8151 44.8049 41.1795 44.6219 41.5229C44.6102 41.5455 44.5984 41.5681 44.5863 41.5914C44.5127 41.7313 44.4323 41.8649 44.3454 41.9969C44.3366 42.0107 44.3278 42.0245 44.3187 42.0388C43.8768 42.7224 43.2868 43.3092 42.6073 43.7547C42.595 43.7629 42.5827 43.771 42.5701 43.7794C42.1073 44.0849 41.598 44.3265 41.0668 44.4855C41.0501 44.4905 41.0333 44.4955 41.0161 44.5007C40.7462 44.5804 40.4754 44.6375 40.1977 44.683C40.1731 44.6872 40.1485 44.6915 40.1231 44.6959C39.8595 44.7396 39.5963 44.7455 39.3297 44.7448C39.2794 44.7447 39.2291 44.7448 39.1788 44.7449C38.3496 44.7454 37.5545 44.5605 36.7969 44.2275C36.7752 44.2179 36.7535 44.2084 36.7312 44.1986C36.6026 44.1407 36.4807 44.0761 36.3599 44.0034C36.3085 43.9729 36.2563 43.945 36.2032 43.9176C36.0521 43.8359 35.9132 43.7358 35.7736 43.6362C35.7426 43.6142 35.7426 43.6142 35.7111 43.5917C35.5587 43.4802 35.4169 43.3576 35.2757 43.2325C35.251 43.211 35.2259 43.1898 35.2007 43.1689C35.188 43.1584 35.1754 43.1479 35.1623 43.1371C35.1508 43.1277 35.1392 43.1183 35.1273 43.1086C35.1021 43.0832 35.1021 43.0832 35.1021 43.0437C35.0911 43.0396 35.0801 43.0355 35.0687 43.0313C35.0172 43.0007 34.9875 42.963 34.9507 42.9164C34.922 42.8811 34.922 42.8811 34.87 42.8425C34.7745 42.766 34.7036 42.665 34.628 42.5696C34.6088 42.5461 34.6088 42.5461 34.5891 42.522C33.9939 41.7914 33.5722 40.9294 33.3737 40.0073C33.3652 39.968 33.3561 39.9288 33.3469 39.8896C33.3305 39.8155 33.3167 39.7412 33.3047 39.6663C33.302 39.6495 33.2993 39.6327 33.2965 39.6154C33.1139 38.4181 33.3006 37.1569 33.838 36.0716C33.8451 36.0573 33.8522 36.043 33.8595 36.0282C34.0604 35.6276 34.3022 35.2512 34.5885 34.9063C34.6041 34.8871 34.6197 34.8679 34.6357 34.848C34.7635 34.6927 34.9023 34.5489 35.044 34.4064C35.071 34.3792 35.071 34.3792 35.0985 34.3514C35.4338 34.0176 35.4338 34.0176 35.5168 34.0176C35.5168 34.0045 35.5168 33.9915 35.5168 33.9781C35.5447 33.9531 35.5447 33.9531 35.5842 33.925C35.5987 33.9145 35.6132 33.9041 35.6282 33.8933C35.644 33.8822 35.6598 33.871 35.6761 33.8596C35.6921 33.8481 35.7082 33.8366 35.7248 33.8248C35.8255 33.7535 35.9268 33.6829 36.0291 33.6139C36.04 33.6065 36.0509 33.5991 36.0622 33.5914C36.2362 33.4757 36.4244 33.3846 36.613 33.2954C36.6413 33.2819 36.6413 33.2819 36.6702 33.2682C36.7267 33.2412 36.7834 33.2146 36.8401 33.188C36.8672 33.1752 36.8672 33.1752 36.8948 33.1621C37.021 33.1032 37.1485 33.0548 37.2808 33.0115C37.3013 33.0048 37.3218 32.9981 37.3429 32.9911C37.8151 32.8381 38.2803 32.7425 38.7745 32.6992C38.7889 32.6979 38.8033 32.6966 38.8182 32.6953C39.139 32.6672 39.4537 32.6715 39.7743 32.6992Z" fill="#1E7AD0"/>
<path d="M39.002 0.379541C39.0154 0.379584 39.0288 0.379628 39.0427 0.379673C39.3891 0.380995 39.7169 0.411002 40.0583 0.47028C40.1141 0.479885 40.1699 0.488974 40.2257 0.497968C40.589 0.559024 40.9452 0.673291 41.2845 0.816526C41.2973 0.821908 41.3101 0.82729 41.3233 0.832834C41.788 1.02937 42.2206 1.27556 42.6236 1.5794C42.6654 1.61042 42.708 1.64037 42.7513 1.66913C42.8104 1.70873 42.8544 1.75324 42.904 1.80406C42.9269 1.82442 42.95 1.84456 42.9732 1.86455C43.5083 2.33056 43.5083 2.33056 43.6546 2.55459C43.6546 2.56763 43.6546 2.58066 43.6546 2.5941C43.6741 2.60061 43.6937 2.60713 43.7138 2.61385C43.7465 2.65219 43.7465 2.65219 43.7829 2.70396C43.7968 2.72364 43.8107 2.74332 43.825 2.7636C43.8325 2.77443 43.84 2.78527 43.8478 2.79643C43.8731 2.83289 43.8986 2.86914 43.9242 2.9054C44.2699 3.39841 44.5676 3.93616 44.7388 4.51563C44.7545 4.56848 44.7712 4.62012 44.7892 4.67217C45.0957 5.58457 45.1312 6.65043 44.9278 7.58656C44.9196 7.62573 44.9127 7.66516 44.9059 7.70461C44.8634 7.95042 44.7805 8.18459 44.7013 8.42057C44.6959 8.43716 44.6904 8.45375 44.6847 8.47084C44.5433 8.89724 44.3384 9.31096 44.0891 9.68462C44.0735 9.70937 44.058 9.73417 44.0426 9.75899C44.0345 9.77183 44.0265 9.78466 44.0182 9.79788C44.0023 9.82317 43.9866 9.84851 43.9709 9.87391C43.9521 9.90367 43.9318 9.93251 43.9113 9.96113C43.8983 9.96113 43.8852 9.96113 43.8718 9.96113C43.8651 9.98179 43.8651 9.98179 43.8583 10.0029C43.8266 10.0723 43.7821 10.1252 43.7323 10.1821C43.667 10.2546 43.667 10.2546 43.6151 10.3364C43.602 10.3364 43.589 10.3364 43.5756 10.3364C43.5713 10.3469 43.567 10.3575 43.5626 10.3683C43.5264 10.4325 43.4777 10.4831 43.4274 10.5364C43.4116 10.5533 43.4116 10.5533 43.3955 10.5705C43.114 10.8702 43.114 10.8702 42.983 10.9684C42.97 10.9684 42.957 10.9684 42.9435 10.9684C42.937 10.988 42.9305 11.0075 42.9238 11.0277C42.8846 11.0625 42.8456 11.0946 42.804 11.1264C42.7917 11.136 42.7794 11.1455 42.7666 11.1553C42.327 11.4914 41.8415 11.7961 41.324 11.9955C41.2894 12.0097 41.2549 12.024 41.2204 12.0383C41.1565 12.0644 41.0922 12.0893 41.0277 12.114C41.0089 12.1212 41.0089 12.1212 40.9897 12.1285C39.5423 12.6729 37.8529 12.5285 36.461 11.9017C36.3484 11.8499 36.2409 11.7925 36.1358 11.7267C36.0895 11.6989 36.0425 11.6755 35.9937 11.6523C35.4808 11.3998 35.0362 10.9814 34.6346 10.582C34.6233 10.5708 34.6119 10.5595 34.6002 10.5479C34.4309 10.378 34.4309 10.378 34.4309 10.3166C34.4114 10.3101 34.3918 10.3036 34.3717 10.2969C34.3364 10.2564 34.3039 10.2162 34.2717 10.1735C34.2629 10.1621 34.2541 10.1508 34.245 10.1391C34.1967 10.0757 34.1601 10.0179 34.1347 9.94138C34.1217 9.94138 34.1086 9.94138 34.0952 9.94138C34.0687 9.90635 34.0687 9.90635 34.0372 9.85497C34.0249 9.83511 34.0127 9.81525 34.0001 9.79479C33.9932 9.78358 33.9864 9.77236 33.9794 9.76081C33.9551 9.72115 33.9305 9.68174 33.9058 9.64234C33.74 9.37628 33.5863 9.10426 33.4632 8.81559C33.458 8.8039 33.4529 8.79222 33.4476 8.78018C33.3481 8.55334 33.2729 8.32324 33.2064 8.08481C33.1998 8.06151 33.1998 8.06151 33.193 8.03775C32.7519 6.48613 32.9821 4.84062 33.7521 3.4326C33.9855 3.01504 34.2734 2.64208 34.5987 2.29297C34.6336 2.25467 34.6668 2.21642 34.6995 2.1764C34.7373 2.13155 34.7726 2.09444 34.8173 2.05712C34.8755 2.00769 34.9319 1.95695 34.9875 1.9047C35.8579 1.09136 37.0115 0.593205 38.1836 0.428918C38.2092 0.425268 38.2092 0.425268 38.2354 0.421545C38.4902 0.387298 38.7452 0.378579 39.002 0.379541Z" fill="#1E7AD0"/>
<path d="M49.3789 12.8418C50.5456 12.8418 51.7123 12.8418 52.9143 12.8418C52.999 12.9591 53.0838 13.0764 53.1711 13.1973C53.2166 13.2595 53.2622 13.3217 53.3081 13.3837C53.3313 13.4151 53.3545 13.4466 53.3777 13.478C53.3893 13.4936 53.4008 13.5092 53.4127 13.5253C53.482 13.6192 53.5511 13.7131 53.6203 13.807C53.6781 13.8855 53.736 13.9639 53.7939 14.0423C53.9171 14.2092 54.0395 14.3766 54.1607 14.5449C54.2723 14.6997 54.3856 14.8532 54.499 15.0066C54.5568 15.0849 54.6144 15.1632 54.6721 15.2415C54.6952 15.2728 54.7182 15.304 54.7412 15.3353C54.7873 15.3978 54.8334 15.4604 54.8795 15.5229C54.8909 15.5384 54.9023 15.5539 54.9141 15.5698C54.9371 15.6011 54.9601 15.6324 54.9831 15.6636C55.0409 15.7421 55.0988 15.8205 55.1567 15.8989C55.2799 16.0658 55.4023 16.2332 55.5235 16.4015C55.6351 16.5563 55.7484 16.7098 55.8618 16.8632C55.9196 16.9414 55.9772 17.0197 56.0349 17.0981C56.058 17.1293 56.081 17.1606 56.104 17.1919C56.1501 17.2544 56.1962 17.317 56.2423 17.3795C56.2537 17.395 56.2651 17.4105 56.2769 17.4264C56.2999 17.4577 56.3229 17.4889 56.3459 17.5202C56.4037 17.5986 56.4616 17.6771 56.5195 17.7555C56.6427 17.9223 56.7651 18.0897 56.8863 18.2581C56.9979 18.4128 57.1112 18.5663 57.2246 18.7198C57.2939 18.8136 57.363 18.9075 57.4321 19.0014C57.4903 19.0804 57.5486 19.1594 57.6072 19.2382C58.1227 19.9327 58.5285 20.6792 58.8888 21.4642C58.9433 21.5828 58.9992 21.7007 59.0555 21.8185C59.0638 21.8358 59.0721 21.8532 59.0807 21.8711C59.099 21.9095 59.1174 21.948 59.1358 21.9864C59.129 21.858 59.1173 21.7321 59.0965 21.6054C59.0632 21.4028 59.0424 21.1996 59.0247 20.9951C59.0235 20.9814 59.0222 20.9676 59.021 20.9535C58.9773 20.4611 58.9749 19.9683 58.9755 19.4744C58.9756 19.3851 58.9755 19.2958 58.9755 19.2065C58.9755 19.0523 58.9756 18.8981 58.9757 18.744C58.9759 18.5211 58.9759 18.2982 58.9759 18.0753C58.976 17.7136 58.9761 17.3518 58.9763 16.9901C58.9765 16.639 58.9766 16.2879 58.9767 15.9369C58.9767 15.9149 58.9767 15.893 58.9767 15.8704C58.9768 15.699 58.9768 15.5275 58.9768 15.3561C58.977 14.518 58.9774 13.6799 58.9778 12.8418C60.1314 12.8418 61.2851 12.8418 62.4737 12.8418C62.4737 17.2543 62.4737 21.6668 62.4737 26.213C61.3135 26.213 60.1533 26.213 58.958 26.213C58.68 25.8423 58.68 25.8423 58.584 25.7119C58.5726 25.6963 58.5611 25.6808 58.5494 25.6649C58.4593 25.5424 58.3704 25.4192 58.2816 25.2958C58.2025 25.186 58.1216 25.0775 58.04 24.9695C57.955 24.8566 57.8723 24.742 57.7899 24.6273C57.7195 24.5295 57.648 24.4328 57.5755 24.3367C57.4917 24.2258 57.4097 24.1138 57.3286 24.0009C57.2478 23.8886 57.1662 23.777 57.0829 23.6664C56.8936 23.4151 56.7076 23.1614 56.5238 22.9059C56.4446 22.7961 56.3637 22.6877 56.2822 22.5797C56.1972 22.4667 56.1145 22.3522 56.0321 22.2374C55.9617 22.1397 55.8902 22.043 55.8177 21.9469C55.7339 21.836 55.6519 21.724 55.5708 21.6111C55.49 21.4987 55.4084 21.3871 55.3251 21.2766C55.1358 21.0253 54.9498 20.7716 54.766 20.5161C54.6868 20.4063 54.6059 20.2979 54.5244 20.1898C54.4505 20.0917 54.3784 19.9925 54.3067 19.8928C54.2251 19.7792 54.1426 19.6664 54.0586 19.5546C54.0489 19.5416 54.0392 19.5287 54.0292 19.5153C53.9807 19.4508 53.9318 19.3866 53.8822 19.3229C53.5903 18.9459 53.3655 18.5259 53.1711 18.0918C53.1585 18.064 53.146 18.0363 53.1335 18.0086C52.9865 17.6827 52.8417 17.3558 52.697 17.0289C52.7009 17.0558 52.7009 17.0558 52.7048 17.0832C52.7576 17.4524 52.8046 17.8217 52.8402 18.193C52.8419 18.2099 52.8435 18.2268 52.8452 18.2442C52.8499 18.2931 52.8545 18.3421 52.8591 18.391C52.8604 18.405 52.8617 18.419 52.863 18.4334C52.8672 18.4787 52.871 18.5241 52.8748 18.5695C52.8764 18.5889 52.8781 18.6082 52.8798 18.6282C52.8938 18.8053 52.8973 18.9814 52.8969 19.1589C52.8969 19.1896 52.8969 19.2202 52.897 19.2508C52.897 19.3342 52.8969 19.4176 52.8968 19.5009C52.8967 19.5911 52.8968 19.6813 52.8968 19.7715C52.8968 19.9275 52.8967 20.0836 52.8966 20.2396C52.8965 20.4652 52.8964 20.6907 52.8964 20.9163C52.8964 21.2823 52.8962 21.6484 52.896 22.0144C52.8959 22.3698 52.8957 22.7253 52.8956 23.0807C52.8956 23.1028 52.8956 23.125 52.8956 23.1478C52.8956 23.3211 52.8955 23.4944 52.8955 23.6677C52.8953 24.5161 52.8949 25.3646 52.8945 26.213C51.7344 26.213 50.5742 26.213 49.3789 26.213C49.3789 21.8005 49.3789 17.388 49.3789 12.8418Z" fill="#1E7AD0"/>
<path d="M65.2197 12.8418C67.9246 12.8418 70.6295 12.8418 73.4163 12.8418C73.4163 13.8064 73.4163 14.771 73.4163 15.7649C71.8911 15.7649 70.366 15.7649 68.7946 15.7649C68.7946 16.534 68.7946 17.3031 68.7946 18.0955C70.2285 18.0955 71.6624 18.0955 73.1398 18.0955C73.1398 19.034 73.1398 19.9726 73.1398 20.9396C71.7059 20.9396 70.272 20.9396 68.7946 20.9396C68.7946 21.6891 68.7946 22.4387 68.7946 23.2109C70.3198 23.2109 71.8449 23.2109 73.4163 23.2109C73.4163 24.2016 73.4163 25.1923 73.4163 26.213C70.7114 26.213 68.0066 26.213 65.2197 26.213C65.2197 21.8005 65.2197 17.388 65.2197 12.8418Z" fill="#1E7AD0"/>
<path d="M81.8321 12.5801C81.85 12.5827 81.8679 12.5854 81.8863 12.5881C82.9349 12.7452 83.9854 13.1215 84.8713 13.7108C84.8605 13.7905 84.8435 13.8557 84.8089 13.9282C84.7999 13.9473 84.7909 13.9664 84.7816 13.9861C84.7667 14.0172 84.7667 14.0172 84.7516 14.049C84.7297 14.0955 84.7079 14.142 84.6862 14.1885C84.6804 14.2009 84.6747 14.2132 84.6687 14.2259C84.5984 14.3767 84.5312 14.5289 84.4639 14.6811C84.3481 14.9428 84.2311 15.204 84.1134 15.4649C83.9885 15.7417 83.8652 16.0191 83.7455 16.2981C83.651 16.2671 83.5812 16.2134 83.5023 16.155C82.8743 15.7015 82.143 15.3086 81.3557 15.2711C81.3406 15.2703 81.3256 15.2696 81.3101 15.2688C80.8079 15.2458 80.4352 15.405 80.0538 15.7358C79.8725 15.9059 79.7162 16.1226 79.6906 16.377C79.6901 16.5079 79.7049 16.6122 79.7558 16.7327C79.7613 16.7473 79.7668 16.7618 79.7725 16.7769C79.9301 17.1703 80.3072 17.3684 80.6764 17.5267C80.8178 17.5857 80.9631 17.6332 81.1088 17.6807C81.1403 17.6911 81.1718 17.7014 81.2034 17.7118C81.5563 17.8274 81.9102 17.9294 82.2716 18.0152C83.3154 18.2631 84.2915 18.6751 84.8767 19.6241C85.2341 20.2204 85.4807 20.8978 85.489 21.5991C85.4892 21.6185 85.4895 21.6378 85.4897 21.6577C85.4941 22.0811 85.4899 22.4823 85.3848 22.8949C85.3799 22.9155 85.3799 22.9155 85.3749 22.9364C85.3558 23.0162 85.3316 23.0935 85.3058 23.1714C85.295 23.2064 85.2842 23.2415 85.2734 23.2765C85.0474 23.9965 84.6856 24.6479 84.1672 25.1972C84.1428 25.2231 84.1186 25.2492 84.0945 25.2754C83.5932 25.8015 82.9153 26.089 82.2247 26.2723C82.1974 26.2801 82.1702 26.2881 82.143 26.296C81.9223 26.3603 81.701 26.4123 81.4742 26.45C81.4566 26.4531 81.439 26.4561 81.4209 26.4592C80.7425 26.5695 79.9965 26.5583 79.3213 26.4303C79.2987 26.4261 79.276 26.4218 79.2527 26.4175C78.1155 26.1984 77.0133 25.7039 76.1019 24.9885C76.086 24.9761 76.07 24.9637 76.0536 24.9509C75.9079 24.8362 75.7681 24.7147 75.6279 24.5935C75.6541 24.5229 75.6855 24.4616 75.7257 24.398C75.7374 24.3794 75.7491 24.3608 75.7612 24.3416C75.7802 24.3117 75.7802 24.3117 75.7995 24.2812C75.8265 24.2382 75.8536 24.1953 75.8806 24.1524C75.8944 24.1305 75.9083 24.1086 75.9225 24.086C75.9859 23.9854 76.0489 23.8846 76.1118 23.7837C76.1364 23.7443 76.161 23.7049 76.1857 23.6656C76.2358 23.5853 76.286 23.505 76.3361 23.4247C76.458 23.2295 76.5801 23.0346 76.7031 22.8402C76.8211 22.6535 76.938 22.4661 77.0549 22.2788C77.1055 22.1978 77.1561 22.1168 77.2068 22.0357C77.2226 22.0104 77.2384 21.9851 77.2542 21.9598C77.265 21.9425 77.2758 21.9252 77.287 21.9074C77.4063 21.9609 77.4858 22.0629 77.5697 22.1604C77.6889 22.2984 77.8192 22.4257 77.9577 22.5441C78.0025 22.5828 78.0458 22.6228 78.0894 22.6628C78.2008 22.7634 78.3183 22.8552 78.4371 22.9468C78.4708 22.973 78.5043 22.9995 78.5378 23.0261C79.03 23.4154 79.536 23.5961 80.1509 23.6849C80.1798 23.6894 80.2088 23.694 80.2378 23.6985C80.7656 23.7769 81.2443 23.6226 81.6758 23.3184C81.8918 23.1459 82.065 22.8617 82.1019 22.5855C82.1279 22.1817 82.0944 21.8717 81.8383 21.5407C81.3231 20.9791 80.5243 20.7177 79.8064 20.5531C79.316 20.4404 78.8491 20.2855 78.393 20.0705C78.3676 20.0586 78.3676 20.0586 78.3417 20.0465C77.5109 19.6535 76.8354 19.1043 76.5167 18.2169C76.503 18.1765 76.49 18.1361 76.4772 18.0955C76.4723 18.0798 76.4673 18.0641 76.4622 18.048C76.2426 17.337 76.2093 16.6077 76.3785 15.8834C76.3819 15.8681 76.3854 15.8527 76.389 15.837C76.4085 15.7525 76.4319 15.6699 76.4575 15.5871C76.4611 15.5744 76.4648 15.5617 76.4686 15.5486C76.605 15.0769 76.8446 14.6611 77.129 14.2638C77.1387 14.2502 77.1485 14.2365 77.1585 14.2225C77.2727 14.0641 77.4014 13.9197 77.5362 13.7788C77.5604 13.7535 77.5844 13.7279 77.6083 13.7023C78.6656 12.5999 80.394 12.3646 81.8321 12.5801Z" fill="#1E7AD0"/>
<path d="M88.0312 12.8418C91.2054 12.8418 94.3795 12.8418 97.6499 12.8418C97.6499 13.8911 97.6499 14.9405 97.6499 16.0216C96.6657 16.0216 95.6815 16.0216 94.6675 16.0216C94.6675 19.3848 94.6675 22.748 94.6675 26.213C93.4617 26.213 92.2559 26.213 91.0136 26.213C91.0136 22.8499 91.0136 19.4867 91.0136 16.0216C90.0294 16.0216 89.0453 16.0216 88.0312 16.0216C88.0312 14.9723 88.0312 13.9229 88.0312 12.8418Z" fill="#1E7AD0"/>
<path d="M56.0352 27.8721C56.4262 27.8721 56.8173 27.8721 57.2202 27.8721C57.5197 28.2571 57.5197 28.2571 57.6427 28.4316C57.7031 28.5171 57.7653 28.6013 57.8275 28.6856C57.8451 28.7094 57.8451 28.7094 57.863 28.7336C57.887 28.766 57.9109 28.7985 57.9349 28.8309C57.993 28.9095 58.051 28.9883 58.109 29.067C58.132 29.0983 58.1551 29.1296 58.1781 29.1608C58.2242 29.2234 58.2703 29.2859 58.3164 29.3485C58.3278 29.3639 58.3392 29.3794 58.351 29.3954C58.3739 29.4266 58.3969 29.4577 58.4198 29.4889C58.4786 29.5687 58.5374 29.6483 58.5964 29.7279C58.6547 29.8066 58.7126 29.8855 58.7704 29.9646C58.7957 29.999 58.8215 30.0331 58.8474 30.067C59.0294 30.314 59.1573 30.6007 59.294 30.8742C59.2912 30.8484 59.2884 30.8226 59.2855 30.796C59.2538 30.4835 59.2492 30.1733 59.2505 29.8594C59.2508 29.7892 59.2508 29.719 59.2508 29.6488C59.251 29.5167 59.2513 29.3846 59.2517 29.2525C59.2522 29.0734 59.2524 28.8943 59.2527 28.7152C59.253 28.4341 59.2538 28.1531 59.2545 27.8721C59.6391 27.8721 60.0236 27.8721 60.4198 27.8721C60.4198 29.3516 60.4198 30.8311 60.4198 32.3555C60.0353 32.3555 59.6507 32.3555 59.2545 32.3555C58.9623 31.9733 58.9623 31.9733 58.8706 31.8445C58.8492 31.8146 58.8278 31.7848 58.8064 31.755C58.7957 31.7401 58.785 31.7252 58.774 31.7098C58.7178 31.6321 58.6609 31.555 58.604 31.4778C58.5925 31.4623 58.5811 31.4468 58.5692 31.4307C58.5343 31.3835 58.4994 31.3362 58.4645 31.289C58.318 31.0907 58.172 30.8922 58.0281 30.6921C57.9607 30.5985 57.8925 30.5055 57.8239 30.4129C57.7774 30.35 57.7312 30.2869 57.6849 30.2238C57.6594 30.1893 57.6335 30.1551 57.6075 30.121C57.4256 29.874 57.2976 29.5874 57.1609 29.3139C57.1627 29.3257 57.1645 29.3375 57.1663 29.3496C57.216 29.6915 57.2284 30.0271 57.2262 30.3722C57.2258 30.4423 57.2258 30.5124 57.2257 30.5825C57.2256 30.7143 57.2251 30.8462 57.2245 30.978C57.2237 31.1568 57.2234 31.3355 57.223 31.5143C57.2225 31.7947 57.2213 32.0751 57.2202 32.3555C56.8291 32.3555 56.4381 32.3555 56.0352 32.3555C56.0352 30.876 56.0352 29.3964 56.0352 27.8721Z" fill="#ED3237"/>
<path d="M64.0738 27.8721C64.5821 27.8721 65.0905 27.8721 65.6143 27.8721C65.7032 28.0942 65.7032 28.0942 65.73 28.1721C65.7391 28.1985 65.7391 28.1985 65.7484 28.2254C65.7579 28.253 65.7579 28.253 65.7675 28.2811C65.7778 28.3107 65.7778 28.3107 65.7882 28.3409C65.8026 28.3827 65.8171 28.4246 65.8315 28.4665C65.8691 28.5758 65.9069 28.6851 65.9448 28.7944C65.9522 28.8157 65.9595 28.8371 65.9672 28.8591C66.029 29.0377 66.0923 29.2158 66.1563 29.3936C66.2114 29.547 66.2651 29.7007 66.318 29.8548C66.3265 29.8794 66.335 29.9041 66.3437 29.9295C66.4007 30.0949 66.4575 30.2603 66.5143 30.4257C66.5272 30.4634 66.5402 30.5011 66.5532 30.5389C66.5596 30.5576 66.5596 30.5576 66.5662 30.5768C66.5749 30.6021 66.5836 30.6274 66.5923 30.6528C66.6141 30.7162 66.6359 30.7796 66.6576 30.843C66.6836 30.9188 66.7097 30.9947 66.7358 31.0706C66.7401 31.083 66.7443 31.0954 66.7487 31.1082C66.8188 31.3117 66.8907 31.5146 66.9646 31.7168C67.041 31.9281 67.1063 32.1407 67.1746 32.3555C66.7705 32.3555 66.3664 32.3555 65.9501 32.3555C65.8118 31.9012 65.8118 31.9012 65.7328 31.5457C65.1527 31.5457 64.5727 31.5457 63.975 31.5457C63.9489 31.65 63.9229 31.7543 63.896 31.8617C63.8722 31.9471 63.8482 32.0323 63.8232 32.1173C63.8171 32.1383 63.811 32.1593 63.8048 32.181C63.796 32.2108 63.796 32.2108 63.7871 32.2412C63.782 32.259 63.7768 32.2767 63.7714 32.295C63.7578 32.3358 63.7578 32.3358 63.738 32.3555C63.7004 32.3574 63.6628 32.3578 63.6252 32.3578C63.601 32.3578 63.5769 32.3577 63.5521 32.3577C63.5256 32.3576 63.499 32.3575 63.4725 32.3574C63.4455 32.3574 63.4186 32.3574 63.3916 32.3574C63.3204 32.3573 63.2493 32.3571 63.1781 32.3569C63.1056 32.3567 63.0331 32.3566 62.9605 32.3565C62.8181 32.3563 62.6756 32.3559 62.5332 32.3555C62.6711 31.9394 62.8107 31.5238 62.9517 31.1087C62.959 31.0872 62.9663 31.0656 62.9739 31.0433C63.0753 30.7445 63.178 30.446 63.2814 30.1478C63.3176 30.0434 63.3537 29.939 63.3897 29.8346C63.3969 29.8138 63.4041 29.793 63.4115 29.7716C63.4263 29.7287 63.4411 29.6859 63.4559 29.6431C63.4795 29.5746 63.5032 29.5061 63.5269 29.4376C63.6044 29.2134 63.6818 28.9891 63.7591 28.7647C63.7939 28.6639 63.8287 28.563 63.8635 28.4622C63.8802 28.4137 63.8969 28.3652 63.9136 28.3168C63.9368 28.2495 63.96 28.1822 63.9832 28.1149C63.9901 28.0948 63.997 28.0747 64.0041 28.0539C64.0105 28.0357 64.0168 28.0174 64.0233 27.9986C64.0288 27.9826 64.0343 27.9667 64.0399 27.9503C64.054 27.9116 64.054 27.9116 64.0738 27.8721Z" fill="#ED3237"/>
<path d="M50.8404 27.8721C51.3487 27.8721 51.8571 27.8721 52.3809 27.8721C52.4698 28.0942 52.4698 28.0942 52.4966 28.1721C52.5057 28.1985 52.5057 28.1985 52.515 28.2254C52.5245 28.253 52.5245 28.253 52.5341 28.2811C52.5444 28.3107 52.5444 28.3107 52.5548 28.3409C52.5692 28.3827 52.5837 28.4246 52.5981 28.4665C52.6357 28.5758 52.6735 28.6851 52.7114 28.7944C52.7188 28.8157 52.7262 28.8371 52.7338 28.8591C52.7956 29.0377 52.8589 29.2158 52.9229 29.3936C52.978 29.547 53.0317 29.7007 53.0846 29.8548C53.0931 29.8794 53.1016 29.9041 53.1103 29.9295C53.1673 30.0949 53.2241 30.2603 53.2809 30.4257C53.2938 30.4634 53.3068 30.5011 53.3198 30.5389C53.3262 30.5576 53.3262 30.5576 53.3328 30.5768C53.3415 30.6021 53.3502 30.6274 53.3589 30.6528C53.3807 30.7162 53.4025 30.7796 53.4242 30.843C53.4502 30.9188 53.4763 30.9947 53.5024 31.0706C53.5067 31.083 53.5109 31.0954 53.5153 31.1082C53.5854 31.3117 53.6573 31.5146 53.7312 31.7168C53.8076 31.9281 53.8729 32.1407 53.9412 32.3555C53.5371 32.3555 53.133 32.3555 52.7167 32.3555C52.5784 31.9012 52.5784 31.9012 52.4994 31.5457C51.9193 31.5457 51.3393 31.5457 50.7416 31.5457C50.7155 31.65 50.6895 31.7543 50.6626 31.8617C50.6388 31.9471 50.6148 32.0323 50.5898 32.1173C50.5837 32.1383 50.5776 32.1593 50.5714 32.181C50.5626 32.2108 50.5626 32.2108 50.5537 32.2412C50.5486 32.259 50.5434 32.2767 50.538 32.295C50.5244 32.3358 50.5244 32.3358 50.5046 32.3555C50.467 32.3574 50.4294 32.3578 50.3918 32.3578C50.3676 32.3578 50.3435 32.3577 50.3187 32.3577C50.2922 32.3576 50.2656 32.3575 50.2391 32.3574C50.2121 32.3574 50.1852 32.3574 50.1582 32.3574C50.087 32.3573 50.0159 32.3571 49.9447 32.3569C49.8722 32.3567 49.7997 32.3566 49.7271 32.3565C49.5847 32.3563 49.4422 32.3559 49.2998 32.3555C49.4377 31.9394 49.5773 31.5238 49.7183 31.1087C49.7256 31.0872 49.7329 31.0656 49.7405 31.0433C49.8419 30.7445 49.9446 30.446 50.048 30.1478C50.0842 30.0434 50.1203 29.939 50.1563 29.8346C50.1635 29.8138 50.1707 29.793 50.1781 29.7716C50.1929 29.7287 50.2077 29.6859 50.2225 29.6431C50.2461 29.5746 50.2698 29.5061 50.2935 29.4376C50.371 29.2134 50.4484 28.9891 50.5257 28.7647C50.5605 28.6639 50.5953 28.563 50.6301 28.4622C50.6468 28.4137 50.6635 28.3652 50.6802 28.3168C50.7034 28.2495 50.7266 28.1822 50.7498 28.1149C50.7567 28.0948 50.7636 28.0747 50.7707 28.0539C50.7771 28.0357 50.7834 28.0174 50.7899 27.9986C50.7954 27.9826 50.8009 27.9667 50.8065 27.9503C50.8206 27.9116 50.8206 27.9116 50.8404 27.8721Z" fill="#ED3237"/>
<path d="M96.7813 28.1288C96.8082 28.2094 96.7845 28.2383 96.7503 28.3152C96.7421 28.3339 96.7421 28.3339 96.7337 28.3531C96.716 28.3932 96.698 28.4332 96.6801 28.4733C96.6627 28.5125 96.6453 28.5518 96.628 28.5911C96.6166 28.6169 96.6052 28.6427 96.5937 28.6684C96.5424 28.7841 96.4935 28.9006 96.4456 29.0176C96.3769 29.0025 96.3392 28.9799 96.2838 28.9362C96.0186 28.7443 95.7208 28.6748 95.3988 28.7016C95.2632 28.7312 95.1801 28.8063 95.1025 28.9189C95.0577 29.0084 95.0773 29.1159 95.1025 29.209C95.2455 29.4459 95.5794 29.4947 95.8267 29.569C96.2448 29.6949 96.6633 29.8245 96.885 30.2335C97.0739 30.6428 97.0647 31.1013 96.9146 31.5223C96.7542 31.9084 96.4662 32.1731 96.0877 32.3406C95.9801 32.3838 95.8673 32.4098 95.7543 32.4345C95.7397 32.438 95.7251 32.4415 95.7101 32.4451C95.5758 32.4754 95.4461 32.4809 95.3086 32.4802C95.2861 32.4801 95.2635 32.48 95.2402 32.4799C94.7583 32.4733 94.3307 32.3231 93.9446 32.037C93.9315 32.0273 93.9184 32.0177 93.9049 32.0077C93.8248 31.9463 93.762 31.8823 93.7002 31.8025C94.0603 31.2075 94.0603 31.2075 94.2335 30.9335C94.3057 30.9634 94.3473 31.0062 94.4001 31.0631C94.6539 31.3213 94.9622 31.5005 95.3259 31.5149C95.4867 31.5123 95.6289 31.4795 95.7544 31.3743C95.8637 31.2558 95.8837 31.1315 95.88 30.9737C95.8661 30.858 95.8231 30.7766 95.7332 30.7022C95.5405 30.5771 95.3128 30.5216 95.0939 30.4607C94.7011 30.3508 94.2845 30.1986 94.0605 29.8335C93.8917 29.5199 93.8664 29.1372 93.9588 28.7949C94.0729 28.4157 94.3214 28.1124 94.6681 27.9214C95.3075 27.6017 96.2039 27.7126 96.7813 28.1288Z" fill="#ED3237"/>
<path d="M91.6856 28.0301C91.6856 28.4668 91.6856 28.9035 91.6856 29.3534C91.64 29.3143 91.5944 29.2752 91.5474 29.2349C91.2137 28.957 90.8999 28.8319 90.4611 28.8596C90.1646 28.9018 89.9135 29.0518 89.729 29.2869C89.5586 29.5394 89.486 29.8129 89.4883 30.1138C89.4882 30.1332 89.488 30.1525 89.4879 30.1725C89.4886 30.4566 89.5756 30.727 89.75 30.9532C89.7601 30.9668 89.7703 30.9803 89.7807 30.9943C89.9469 31.2019 90.2025 31.324 90.4611 31.368C90.7999 31.4023 91.1105 31.3419 91.3818 31.1252C91.4386 31.0786 91.4944 31.0309 91.5497 30.9826C91.5935 30.9447 91.6392 30.909 91.6856 30.8742C91.6856 31.3109 91.6856 31.7476 91.6856 32.1975C91.3634 32.3356 91.3634 32.3356 91.2425 32.3691C91.2283 32.373 91.2142 32.377 91.1996 32.3811C91.1576 32.3926 91.1155 32.4037 91.0733 32.4148C91.0391 32.4243 91.0391 32.4243 91.0042 32.4341C90.4544 32.5678 89.8338 32.4664 89.35 32.1794C88.8208 31.8513 88.4882 31.366 88.323 30.7717C88.3179 30.7534 88.3128 30.7351 88.3076 30.7163C88.144 30.1052 88.2478 29.4237 88.5514 28.8744C88.8551 28.3813 89.3066 27.973 89.8781 27.8288C89.901 27.8235 89.9239 27.8183 89.9475 27.8128C89.9819 27.804 89.9819 27.804 90.017 27.795C90.578 27.6677 91.1752 27.7749 91.6856 28.0301Z" fill="#ED3237"/>
<path d="M73.1396 27.8721C73.6089 27.8721 74.0782 27.8721 74.5617 27.8721C74.653 28.0481 74.7442 28.224 74.8382 28.4054C74.9655 28.6478 74.9655 28.6478 75.094 28.8896C75.1137 28.9265 75.1333 28.9634 75.153 29.0003C75.1621 29.0172 75.1712 29.0341 75.1806 29.0514C75.2361 29.156 75.2787 29.2596 75.3122 29.3731C75.3175 29.3583 75.3227 29.3435 75.3282 29.3282C75.3961 29.1434 75.4813 28.9719 75.5727 28.7979C75.5878 28.769 75.6028 28.74 75.6179 28.7111C75.6542 28.6412 75.6907 28.5714 75.7273 28.5017C75.7544 28.4499 75.7814 28.3982 75.8085 28.3464C75.8917 28.1874 75.9768 28.0297 76.0628 27.8721C76.532 27.8721 77.0013 27.8721 77.4848 27.8721C77.4164 27.9796 77.4164 27.9796 77.3466 28.0893C77.3129 28.1435 77.3129 28.1435 77.2793 28.1977C77.153 28.4017 77.0213 28.6022 76.8899 28.8029C76.8329 28.89 76.7762 28.9773 76.7195 29.0645C76.7089 29.0807 76.6984 29.097 76.6875 29.1137C76.6207 29.2165 76.554 29.3195 76.4874 29.4225C76.4081 29.5452 76.3287 29.6678 76.2492 29.7904C76.2394 29.8054 76.2297 29.8205 76.2196 29.836C76.2098 29.8511 76.2 29.8663 76.1898 29.8819C76.1801 29.8973 76.1704 29.9128 76.1604 29.9287C76.122 29.9854 76.122 29.9854 76.073 30.0434C75.8903 30.2672 75.897 30.4853 75.9009 30.7643C75.9008 30.8103 75.9007 30.8564 75.9004 30.9025C75.9 31.0228 75.9008 31.1431 75.9018 31.2634C75.9028 31.4082 75.9023 31.5531 75.902 31.6979C75.9018 31.9171 75.9035 32.1363 75.9048 32.3555C75.5137 32.3555 75.1226 32.3555 74.7197 32.3555C74.7206 32.2092 74.7214 32.063 74.7223 31.9123C74.7224 31.8191 74.7225 31.726 74.7223 31.6328C74.7221 31.4852 74.722 31.3376 74.7233 31.1901C74.7243 31.071 74.7243 30.9519 74.7237 30.8328C74.7236 30.7875 74.7239 30.7423 74.7245 30.6971C74.7284 30.3981 74.6969 30.2154 74.5025 29.9854C74.4793 29.9513 74.4566 29.9168 74.4346 29.8819C74.4248 29.8667 74.415 29.8516 74.4049 29.836C74.3951 29.821 74.3854 29.8059 74.3753 29.7904C74.3645 29.7737 74.3537 29.7571 74.3426 29.74C74.2652 29.6206 74.1879 29.5012 74.1107 29.3817C74.0406 29.2734 73.9704 29.1653 73.9001 29.0571C73.8201 28.9342 73.7402 28.8112 73.6606 28.688C73.6518 28.6744 73.643 28.6609 73.6339 28.6468C73.5891 28.5775 73.5443 28.5082 73.4996 28.4388C73.4812 28.4103 73.4629 28.3819 73.4446 28.3535C73.4313 28.3329 73.4313 28.3329 73.4177 28.3119C73.346 28.2011 73.2729 28.0911 73.1988 27.9818C73.1396 27.8939 73.1396 27.8939 73.1396 27.8721Z" fill="#ED3237"/>
<path d="M78.9854 27.8721C80.0543 27.8721 81.1232 27.8721 82.2245 27.8721C82.2245 28.224 82.2245 28.576 82.2245 28.9386C81.8921 28.9386 81.5597 28.9386 81.2172 28.9386C81.2172 30.0662 81.2172 31.1938 81.2172 32.3555C80.8131 32.3555 80.409 32.3555 79.9926 32.3555C79.9926 31.2279 79.9926 30.1004 79.9926 28.9386C79.6602 28.9386 79.3278 28.9386 78.9854 28.9386C78.9854 28.5867 78.9854 28.2347 78.9854 27.8721Z" fill="#ED3237"/>
<path d="M69.248 27.8721C69.6521 27.8721 70.0562 27.8721 70.4726 27.8721C70.4726 29.0062 70.4726 30.1403 70.4726 31.3087C70.9745 31.3087 71.4763 31.3087 71.9934 31.3087C71.9934 31.6542 71.9934 31.9996 71.9934 32.3555C71.0874 32.3555 70.1815 32.3555 69.248 32.3555C69.248 30.876 69.248 29.3964 69.248 27.8721Z" fill="#ED3237"/>
<path d="M84.5352 27.8721C84.9458 27.8721 85.3564 27.8721 85.7795 27.8721C85.7795 29.3516 85.7795 30.8311 85.7795 32.3555C85.3688 32.3555 84.9582 32.3555 84.5352 32.3555C84.5352 30.876 84.5352 29.3964 84.5352 27.8721Z" fill="#ED3237"/>
<path d="M64.8435 28.6226C64.8899 28.669 64.8942 28.6939 64.9092 28.757C64.9141 28.7771 64.919 28.7973 64.9241 28.8181C64.9322 28.8515 64.9322 28.8515 64.9405 28.8856C64.9967 29.1099 65.0608 29.3308 65.1298 29.5514C65.1346 29.5667 65.1393 29.5819 65.1442 29.5975C65.1783 29.7067 65.2127 29.8158 65.2472 29.9249C65.2821 30.0357 65.3169 30.1465 65.3516 30.2573C65.3653 30.3011 65.3792 30.3449 65.3931 30.3886C65.4014 30.4152 65.4098 30.4418 65.4181 30.4685C65.4254 30.4916 65.4327 30.5147 65.4402 30.5385C65.4558 30.5977 65.4558 30.5977 65.4558 30.6767C65.0582 30.6767 64.6606 30.6767 64.251 30.6767C64.2654 30.5759 64.2817 30.4938 64.3113 30.3982C64.3154 30.3849 64.3195 30.3716 64.3237 30.3579C64.3325 30.3292 64.3414 30.3006 64.3503 30.2719C64.3645 30.2262 64.3786 30.1805 64.3927 30.1347C64.4227 30.0372 64.4529 29.9397 64.483 29.8422C64.5225 29.7146 64.562 29.5869 64.6012 29.4592C64.606 29.4439 64.6107 29.4286 64.6155 29.4128C64.677 29.2127 64.7359 29.0125 64.7863 28.8093C64.8028 28.7459 64.822 28.6844 64.8435 28.6226Z" fill="#FDFBFB"/>
<path d="M51.6111 28.6226C51.6575 28.669 51.6618 28.6939 51.6767 28.757C51.6817 28.7771 51.6866 28.7973 51.6917 28.8181C51.6998 28.8515 51.6998 28.8515 51.7081 28.8856C51.7643 29.1099 51.8283 29.3308 51.8974 29.5514C51.9021 29.5667 51.9069 29.5819 51.9118 29.5975C51.9459 29.7067 51.9803 29.8158 52.0147 29.9249C52.0497 30.0357 52.0845 30.1465 52.1192 30.2573C52.1329 30.3011 52.1468 30.3449 52.1606 30.3886C52.169 30.4152 52.1773 30.4418 52.1857 30.4685C52.193 30.4916 52.2003 30.5147 52.2078 30.5385C52.2234 30.5977 52.2234 30.5977 52.2234 30.6767C51.8258 30.6767 51.4282 30.6767 51.0186 30.6767C51.033 30.5759 51.0493 30.4938 51.0789 30.3982C51.083 30.3849 51.087 30.3716 51.0912 30.3579C51.1001 30.3292 51.1089 30.3006 51.1178 30.2719C51.1321 30.2262 51.1462 30.1805 51.1602 30.1347C51.1903 30.0372 51.2204 29.9397 51.2506 29.8422C51.2901 29.7146 51.3295 29.5869 51.3688 29.4592C51.3735 29.4439 51.3783 29.4286 51.3831 29.4128C51.4446 29.2127 51.5035 29.0125 51.5539 28.8093C51.5703 28.7459 51.5895 28.6844 51.6111 28.6226Z" fill="#FDFBFB"/>
</svg>
