<svg width="4079" height="4079" viewBox="0 0 4079 4079" fill="none" xmlns="http://www.w3.org/2000/svg">
<g clip-path="url(#clip0_608_196)">
<path d="M2055.56 1107.31C2056.3 1107.37 2057.04 1107.43 2057.79 1107.49C2068.67 1108.38 2079.29 1109.92 2090 1112C2090.99 1112.19 2091.99 1112.38 2093.01 1112.58C2121.72 1118.33 2149.69 1128.74 2175.25 1143.02C2177.77 1144.43 2180.33 1145.77 2182.88 1147.13C2192.84 1152.61 2202.11 1159.08 2211.29 1165.77C2212.51 1166.65 2213.74 1167.5 2214.98 1168.35C2216.69 1169.52 2218.35 1170.75 2220 1172C2220 1172.66 2220 1173.32 2220 1174C2220.56 1174.25 2221.12 1174.51 2221.7 1174.77C2231.64 1180.09 2239.67 1189.45 2247.48 1197.44C2248.83 1198.82 2250.19 1200.19 2251.56 1201.55C2254.32 1204.32 2257.02 1207.14 2259.69 1210C2260.42 1210.76 2260.42 1210.76 2261.16 1211.54C2263.93 1214.52 2265.78 1217.11 2267 1221C2267.66 1221 2268.32 1221 2269 1221C2270.26 1222.41 2270.26 1222.41 2271.69 1224.41C2272.22 1225.15 2272.75 1225.88 2273.29 1226.64C2273.86 1227.44 2274.42 1228.24 2275 1229.06C2275.58 1229.88 2276.16 1230.69 2276.76 1231.53C2284.43 1242.36 2291.96 1253.16 2298 1265C2298.38 1265.73 2298.77 1266.46 2299.16 1267.21C2337.02 1339.53 2345.53 1424.05 2321.59 1502.3C2313.44 1527.66 2302.75 1552.74 2288 1575C2287.36 1576 2286.71 1576.99 2286.05 1578.02C2276.85 1592.1 2266.45 1605.26 2255.11 1617.67C2253.25 1619.72 2251.47 1621.82 2249.69 1623.94C2233.34 1642.67 2210.94 1659.67 2189.06 1671.31C2186.27 1672.85 2183.56 1674.49 2180.85 1676.17C2172.25 1681.49 2163.32 1685.82 2154.13 1690.01C2152.33 1690.85 2150.55 1691.73 2148.78 1692.62C2134.04 1699.95 2117.6 1704.42 2101.6 1708.11C2099.67 1708.59 2097.75 1709.08 2095.86 1709.71C2089.41 1711.85 2083.36 1712.59 2076.59 1712.91C2075.53 1712.97 2074.48 1713.03 2073.39 1713.1C2070.05 1713.28 2066.71 1713.46 2063.38 1713.63C2060.03 1713.81 2056.68 1713.99 2053.34 1714.18C2051.27 1714.29 2049.19 1714.4 2047.12 1714.51C2042.94 1714.73 2038.79 1714.99 2034.63 1715.53C2019.29 1717.52 2003.61 1715.93 1988.38 1713.75C1910.03 1702.62 1818.1 1724.35 1750.51 1763.99C1748.13 1765.38 1745.72 1766.65 1743.24 1767.85C1738 1770.43 1733.05 1773.46 1728.06 1776.5C1727.06 1777.11 1726.06 1777.72 1725.02 1778.35C1717.91 1782.71 1711.03 1787.32 1704.32 1792.27C1700.98 1794.71 1697.98 1796.69 1694 1798C1694 1798.66 1694 1799.32 1694 1800C1692.45 1801.25 1690.83 1802.43 1689.19 1803.56C1679.16 1810.69 1670.05 1818.69 1661 1827C1659.53 1828.34 1658.05 1829.67 1656.56 1831C1655.97 1831.54 1655.37 1832.07 1654.75 1832.63C1653 1834 1653 1834 1650.84 1835C1648.65 1835.92 1648.65 1835.92 1648 1839C1646.61 1840.2 1645.22 1841.4 1643.77 1842.52C1639.13 1846.4 1635.26 1850.95 1631.38 1855.56C1627.48 1860.16 1623.5 1864.66 1619.38 1869.06C1613.82 1875.05 1608.85 1881.43 1604 1888C1603.51 1888.66 1603.02 1889.32 1602.51 1890.01C1590.39 1906.36 1579.27 1923.32 1569.16 1940.98C1568.02 1942.97 1566.86 1944.94 1565.7 1946.91C1556.98 1961.85 1550.36 1977.77 1543.91 1993.8C1543.24 1995.42 1542.55 1997.04 1541.86 1998.65C1538.49 2006.53 1535.68 2014.53 1533.06 2022.69C1532.85 2023.36 1532.63 2024.02 1532.41 2024.71C1528.25 2037.66 1524.91 2050.72 1522 2064C1521.69 2065.34 1521.39 2066.68 1521.08 2068.02C1515.57 2092.6 1512.6 2117.83 1512 2143C1511.96 2144.37 1511.96 2144.37 1511.92 2145.77C1511.43 2163.59 1513.25 2180.98 1515.31 2198.66C1517.62 2219.81 1515.77 2241.24 1514.25 2262.38C1514.17 2263.53 1514.09 2264.68 1514.01 2265.87C1513.13 2278.71 1511.96 2290.7 1508 2303C1507.4 2305.1 1506.81 2307.19 1506.22 2309.29C1504.51 2315.2 1502.76 2321.1 1501 2327C1500.64 2328.21 1500.28 2329.43 1499.91 2330.68C1497.59 2338.05 1494.38 2344.93 1491.02 2351.87C1489.92 2354.18 1488.84 2356.5 1487.76 2358.83C1484.25 2366.38 1480.77 2373.83 1476.32 2380.89C1474.99 2383.01 1473.81 2385.17 1472.63 2387.38C1467.74 2396.24 1461.76 2404.44 1455.76 2412.57C1454.31 2414.58 1452.95 2416.6 1451.63 2418.69C1450.82 2419.83 1450.82 2419.83 1450 2421C1449.34 2421 1448.68 2421 1448 2421C1447.75 2421.56 1447.51 2422.11 1447.25 2422.68C1442.32 2431.83 1433.93 2439.38 1426.63 2446.63C1425.76 2447.5 1424.89 2448.38 1423.99 2449.28C1417.97 2455.28 1411.64 2460.7 1405 2466C1403.91 2466.91 1402.82 2467.83 1401.73 2468.75C1361.81 2501.7 1312.19 2522.63 1261.25 2530.65C1259.25 2530.96 1257.25 2531.3 1255.25 2531.64C1241.84 2533.89 1228.41 2534.19 1214.84 2534.19C1212.27 2534.19 1209.69 2534.21 1207.12 2534.22C1195.93 2534.26 1185.09 2533.41 1174 2532C1171.5 2531.74 1169 2531.5 1166.5 2531.25C1149.1 2529.04 1131.65 2524.5 1115 2519C1114.3 2518.77 1113.59 2518.54 1112.86 2518.3C1075.9 2505.88 1040.22 2485.84 1011.51 2459.3C1009.45 2457.41 1007.35 2455.57 1005.24 2453.75C994.227 2444.14 983.881 2433.61 975.001 2422C974.083 2420.84 973.164 2419.67 972.243 2418.51C971.307 2417.32 970.373 2416.13 969.438 2414.94C968.774 2414.1 968.774 2414.1 968.097 2413.24C965.001 2409.23 965.001 2409.23 965.001 2407C964.341 2407 963.681 2407 963.001 2407C961.367 2404.63 959.857 2402.27 958.376 2399.81C957.706 2398.72 957.706 2398.72 957.023 2397.6C956.109 2396.1 955.198 2394.61 954.29 2393.11C953.17 2391.28 952.027 2389.46 950.88 2387.64C942.652 2374.6 935.716 2361.02 929.762 2346.8C929.058 2345.14 928.33 2343.48 927.599 2341.82C924.876 2335.58 922.818 2329.32 921.032 2322.75C920.319 2320.16 919.58 2317.6 918.782 2315.04C914.372 2300.8 911.594 2286.34 909.313 2271.63C909.194 2270.87 909.075 2270.11 908.952 2269.33C907.007 2256.15 906.796 2242.92 906.813 2229.63C906.814 2228.79 906.815 2227.96 906.815 2227.1C906.867 2200.59 909.026 2174.42 917.001 2149C917.694 2146.59 918.382 2144.17 919.063 2141.75C919.396 2140.59 919.729 2139.43 920.071 2138.24C920.637 2136.27 921.196 2134.3 921.743 2132.32C923.28 2126.92 925.219 2121.79 927.442 2116.63C928.629 2113.87 929.776 2111.1 930.903 2108.3C942.294 2080.45 958.77 2054.25 978.598 2031.61C979.57 2030.49 980.533 2029.37 981.49 2028.25C986.358 2022.56 991.573 2017.24 996.861 2011.95C998.372 2010.44 999.874 2008.92 1001.38 2007.4C1006.93 2001.81 1012.63 1996.66 1019 1992C1020.04 1991.21 1021.08 1990.41 1022.15 1989.59C1025.09 1987.38 1028.04 1985.19 1031 1983C1031.76 1982.44 1032.51 1981.87 1033.29 1981.29C1057.44 1963.78 1085.63 1949.25 1114 1940C1115.01 1939.67 1116.01 1939.33 1117.04 1938.99C1124.62 1936.56 1132.3 1934.62 1140.02 1932.75C1140.84 1932.55 1141.66 1932.35 1142.5 1932.15C1143.22 1931.97 1143.94 1931.8 1144.69 1931.62C1147.1 1931.01 1147.1 1931.01 1149.74 1929.98C1153.76 1928.77 1157.57 1928.46 1161.74 1928.18C1162.58 1928.12 1163.42 1928.06 1164.28 1928C1166.96 1927.8 1169.64 1927.62 1172.31 1927.44C1174.07 1927.31 1175.83 1927.18 1177.58 1927.06C1203.39 1925.2 1228.51 1923.84 1254.26 1927.27C1307.34 1934.28 1364.71 1925.51 1415.1 1908.62C1417.75 1907.75 1420.44 1907.01 1423.13 1906.25C1438.51 1901.54 1453.52 1894.97 1468 1888C1469.54 1887.29 1471.09 1886.58 1472.63 1885.87C1499.3 1873.56 1525.14 1858.44 1548.25 1840.23C1550 1839 1550 1839 1552 1839C1552 1838.34 1552 1837.68 1552 1837C1553.51 1835.79 1555.09 1834.66 1556.69 1833.56C1572.81 1822.11 1587.07 1808.12 1601.02 1794.16C1602.76 1792.43 1604.5 1790.7 1606.25 1788.98C1612.95 1782.3 1619.12 1775.43 1625 1768C1626.16 1766.62 1627.32 1765.24 1628.49 1763.88C1636.55 1754.33 1643.74 1744.4 1650.66 1734C1652.31 1731.55 1654.02 1729.15 1655.75 1726.75C1663.26 1716.05 1669.58 1704.45 1675.89 1693.02C1676.61 1691.7 1677.34 1690.39 1678.08 1689.07C1693.27 1661.85 1704.26 1632.84 1713 1603C1713.28 1602.05 1713.57 1601.09 1713.86 1600.11C1718.22 1585.25 1721.34 1570.25 1724 1555C1724.16 1554.13 1724.31 1553.25 1724.47 1552.35C1731.08 1514.83 1733.14 1471 1725.46 1433.37C1724.7 1429.47 1724.81 1425.59 1724.81 1421.63C1724.81 1420.7 1724.82 1419.77 1724.82 1418.82C1724.88 1411.27 1725.41 1403.82 1726.15 1396.31C1726.77 1389.95 1727.21 1383.61 1727.55 1377.23C1728.25 1364.09 1729.3 1351.68 1733 1339C1733.53 1336.84 1734.05 1334.67 1734.56 1332.5C1735.57 1328.37 1736.85 1324.37 1738.21 1320.35C1738.95 1318.16 1739.64 1315.97 1740.33 1313.77C1743.78 1303.1 1748.17 1293.01 1753.06 1282.94C1753.36 1282.33 1753.66 1281.71 1753.96 1281.08C1759.46 1269.81 1765.38 1258.83 1771.81 1248.06C1772.33 1247.2 1772.84 1246.34 1773.37 1245.46C1777.04 1239.39 1780.98 1233.69 1785.36 1228.12C1787.03 1226.11 1787.03 1226.11 1788 1224C1788.66 1224 1789.32 1224 1790 1224C1790.24 1223.28 1790.47 1222.56 1790.72 1221.82C1792.22 1218.52 1794.07 1216.49 1796.56 1213.88C1799.98 1210.25 1803.18 1206.56 1806.25 1202.63C1811.83 1195.71 1818.39 1189.91 1825 1184C1826.08 1183.01 1826.08 1183.01 1827.18 1182.01C1836.51 1173.63 1846.61 1166 1857 1159C1857.84 1158.43 1857.84 1158.43 1858.69 1157.85C1877.95 1144.73 1898.15 1134.16 1920 1126C1920.62 1125.76 1921.23 1125.53 1921.87 1125.28C1964.55 1108.97 2010.21 1103.62 2055.56 1107.31Z" fill="#1E7AD0"/>
<path d="M2201 335C2203.48 336.599 2205.96 338.192 2208.45 339.773C2208.96 340.178 2209.47 340.583 2210 341C2210 341.66 2210 342.32 2210 343C2210.66 343.206 2211.32 343.412 2212 343.625C2216.07 345.491 2219.69 347.976 2223 351C2223 351.66 2223 352.32 2223 353C2223.57 353.246 2224.13 353.492 2224.71 353.746C2227.4 355.218 2229.37 356.983 2231.63 359.062C2235.11 362.269 2238.63 365.433 2242.19 368.562C2245.87 371.867 2249.16 375.308 2252.34 379.086C2254.06 381.071 2255.88 382.91 2257.75 384.75C2260.07 387.033 2262.26 389.233 2264 392C2264 392.66 2264 393.32 2264 394C2264.66 394 2265.32 394 2266 394C2267.92 396.315 2269.72 398.638 2271.5 401.062C2272.03 401.783 2272.57 402.504 2273.12 403.247C2277.93 409.799 2282.49 416.504 2286.91 423.326C2287.91 424.855 2288.92 426.373 2289.93 427.891C2294.16 434.317 2297.65 440.994 2300.98 447.922C2301.76 449.518 2302.57 451.106 2303.38 452.69C2306.94 459.69 2310.11 466.759 2313 474.062C2313.43 475.145 2313.86 476.228 2314.3 477.343C2318 486.768 2321.24 496.262 2324 506C2324.19 506.657 2324.38 507.313 2324.57 507.99C2327.98 520.139 2330.02 532.553 2332 545C2332.12 545.721 2332.23 546.442 2332.35 547.185C2341.05 602.306 2332.09 663.746 2308 714C2307.4 715.318 2306.79 716.637 2306.19 717.957C2296.35 739.432 2283.83 759.6 2269 778C2268.56 778.566 2268.11 779.132 2267.66 779.715C2260.51 788.833 2252.93 797.356 2244.75 805.562C2243.53 806.793 2243.53 806.793 2242.28 808.048C2236.82 813.449 2231.07 818.301 2225 823C2223.94 823.847 2222.87 824.696 2221.81 825.547C2185.8 853.76 2143.34 875.444 2098.53 885.176C2095.08 885.901 2095.08 885.901 2092.21 887.047C2087.58 888.423 2082.99 888.626 2078.19 888.937C2075.87 889.098 2073.55 889.26 2071.23 889.422C2069.94 889.51 2068.64 889.598 2067.31 889.689C2063.37 889.967 2059.43 890.285 2055.49 890.61C2051.9 890.905 2048.32 891.189 2044.74 891.472C2042.98 891.613 2041.23 891.758 2039.48 891.908C2023.5 893.26 2008.13 892.918 1992.26 890.472C1979.17 888.578 1965.89 888.799 1952.69 888.812C1951.16 888.813 1951.16 888.813 1949.6 888.813C1934.31 888.832 1919.19 889.132 1904 891C1903.18 891.096 1902.35 891.193 1901.51 891.292C1881.13 893.76 1860.68 898.218 1841 904C1839.73 904.373 1839.73 904.373 1838.43 904.753C1817.25 910.992 1796.4 917.956 1776.41 927.394C1774.02 928.52 1771.63 929.621 1769.22 930.699C1749.89 939.439 1731.76 950.457 1714 962C1713.13 962.562 1713.13 962.562 1712.23 963.135C1702.76 969.222 1693.93 976.063 1685.14 983.082C1684.5 983.589 1683.86 984.097 1683.2 984.62C1681.96 985.607 1680.73 986.6 1679.49 987.597C1675.22 991 1675.22 991 1673 991C1673 991.66 1673 992.32 1673 993C1671.36 994.454 1669.66 995.838 1667.94 997.187C1663.92 1000.39 1660.21 1003.66 1656.65 1007.35C1654.98 1009.02 1653.24 1010.54 1651.44 1012.06C1642.95 1019.39 1634.88 1027.53 1627.63 1036.09C1625.66 1038.4 1623.61 1040.63 1621.56 1042.87C1617.16 1047.76 1613.04 1052.81 1609 1058C1608.6 1058.51 1608.2 1059.02 1607.79 1059.54C1598.6 1071.31 1590.21 1083.54 1582 1096C1581.59 1096.61 1581.19 1097.23 1580.77 1097.86C1579.59 1099.66 1578.42 1101.45 1577.25 1103.25C1576.58 1104.29 1575.9 1105.32 1575.2 1106.39C1572.24 1111.13 1569.64 1116.08 1567 1121C1566.53 1121.87 1566.06 1122.74 1565.57 1123.63C1555.78 1141.8 1546.59 1160.44 1540 1180.04C1539.22 1182.34 1538.41 1184.61 1537.55 1186.88C1529.5 1208.22 1523.48 1230.33 1519.41 1252.77C1519.02 1254.88 1518.61 1256.99 1518.2 1259.1C1514.41 1278.83 1512.47 1298.92 1512 1319C1511.96 1320.42 1511.96 1320.42 1511.92 1321.87C1511.47 1339.1 1513 1355.89 1515 1373C1517.52 1394.75 1515.81 1416.56 1514.25 1438.31C1514.17 1439.47 1514.09 1440.62 1514.01 1441.81C1513.12 1454.69 1511.92 1466.66 1508 1479C1507.41 1481.16 1506.83 1483.32 1506.25 1485.48C1503.32 1496.22 1500.33 1506.72 1496 1517C1495.49 1518.29 1494.99 1519.59 1494.49 1520.88C1485.5 1543.83 1473.03 1566.47 1458 1586C1456.71 1587.81 1455.41 1589.62 1454.13 1591.44C1449.69 1597.53 1444.89 1603.27 1440 1609C1439.39 1609.72 1438.79 1610.44 1438.16 1611.18C1433.43 1616.72 1428.44 1622.15 1423 1627C1422.34 1627 1421.68 1627 1421 1627C1421 1627.66 1421 1628.32 1421 1629C1419.71 1630.34 1419.71 1630.34 1417.81 1631.94C1417.08 1632.56 1416.35 1633.17 1415.6 1633.81C1414.31 1634.9 1414.31 1634.9 1413 1636C1411.99 1636.87 1410.97 1637.75 1409.96 1638.62C1366.77 1675.85 1314.38 1698.08 1258.5 1707.69C1257.82 1707.81 1257.14 1707.93 1256.44 1708.05C1246.36 1709.72 1236.22 1710.16 1226.02 1710.17C1224.92 1710.17 1223.82 1710.17 1222.69 1710.18C1220.38 1710.18 1218.07 1710.19 1215.76 1710.19C1212.27 1710.19 1208.79 1710.21 1205.31 1710.22C1193.35 1710.25 1181.81 1709.9 1170 1708C1168.22 1707.76 1166.44 1707.52 1164.66 1707.29C1147.95 1704.92 1132.13 1700.97 1116.11 1695.69C1114.25 1695.08 1112.39 1694.49 1110.52 1693.9C1104.78 1692.07 1099.34 1689.91 1093.9 1687.34C1090.74 1685.88 1087.53 1684.57 1084.31 1683.25C1076.82 1680.06 1069.86 1676.12 1062.82 1672.04C1060.31 1670.61 1057.75 1669.28 1055.19 1667.94C1050.36 1665.32 1046.02 1662.23 1041.63 1658.95C1039.22 1657.16 1036.76 1655.47 1034.25 1653.81C1026.57 1648.73 1026.57 1648.73 1023 1646C1023 1645.34 1023 1644.68 1023 1644C1022.33 1643.81 1021.67 1643.63 1020.98 1643.44C1016.7 1641.37 1013.71 1638.29 1010.31 1635C1009.21 1633.94 1009.21 1633.94 1008.08 1632.87C1005.71 1630.59 1003.35 1628.3 1001 1626C999.81 1624.84 999.81 1624.84 998.596 1623.66C975.319 1600.95 975.319 1600.95 973.001 1594C972.341 1594 971.681 1594 971.001 1594C969.644 1592.34 969.644 1592.34 968.102 1590.02C967.259 1588.77 967.259 1588.77 966.399 1587.49C965.814 1586.61 965.229 1585.72 964.626 1584.81C960.381 1578.39 960.381 1578.39 955.774 1572.22C953.846 1569.81 952.441 1567.36 951.001 1564.62C949.082 1561.01 947.11 1557.43 945.072 1553.88C938.887 1543.03 933.376 1531.97 928.563 1520.44C928.151 1519.45 927.738 1518.47 927.313 1517.45C924.83 1511.38 922.787 1505.3 921.001 1499C920.514 1497.38 920.026 1495.75 919.536 1494.13C914.943 1478.63 911.665 1463.11 909.313 1447.12C909.194 1446.32 909.074 1445.51 908.951 1444.68C907.144 1431.7 906.794 1418.71 906.813 1405.62C906.814 1404.84 906.814 1404.05 906.815 1403.24C906.877 1373.6 910.942 1345.53 919.001 1317C919.192 1316.32 919.383 1315.63 919.579 1314.93C921.486 1308.17 923.816 1301.71 926.602 1295.27C927.615 1292.9 928.586 1290.53 929.524 1288.14C933.916 1276.99 939.211 1266.48 945.001 1256C945.913 1254.35 945.913 1254.35 946.844 1252.66C956.806 1235.16 968.873 1219.23 982.001 1204C982.582 1203.31 983.163 1202.61 983.762 1201.89C992.809 1191.21 1003.01 1181.65 1014 1173C1016.93 1170.56 1019.86 1168.11 1022.79 1165.65C1025 1164 1025 1164 1027 1164C1027 1163.34 1027 1162.68 1027 1162C1028.62 1160.74 1028.62 1160.74 1030.88 1159.31C1034.28 1157.13 1037.6 1154.87 1040.88 1152.5C1045.08 1149.55 1049.39 1147.04 1053.93 1144.64C1056.76 1143.13 1059.53 1141.54 1062.31 1139.93C1077.46 1131.2 1093.3 1123.29 1110 1118C1111.46 1117.52 1112.91 1117.03 1114.37 1116.55C1123.71 1113.48 1133.11 1110.85 1142.68 1108.56C1143.88 1108.27 1143.88 1108.27 1145.1 1107.98C1146.16 1107.73 1146.16 1107.73 1147.24 1107.48C1149.09 1107.04 1149.09 1107.04 1151 1106C1152.48 1105.8 1153.97 1105.66 1155.46 1105.54C1156.38 1105.46 1157.31 1105.38 1158.26 1105.3C1159.27 1105.22 1160.28 1105.14 1161.32 1105.06C1162.88 1104.93 1162.88 1104.93 1164.48 1104.8C1166.71 1104.62 1168.93 1104.45 1171.15 1104.27C1174.5 1104.01 1177.84 1103.73 1181.19 1103.46C1202.92 1101.7 1223.93 1100.02 1245.63 1102.84C1258.69 1104.54 1271.55 1105.16 1284.71 1105.13C1287.23 1105.12 1289.76 1105.13 1292.28 1105.14C1308.07 1105.14 1323.63 1104.27 1339.31 1102.31C1339.99 1102.23 1340.67 1102.14 1341.36 1102.06C1355.77 1100.24 1369.87 1097.33 1384 1094C1385.75 1093.61 1387.49 1093.21 1389.24 1092.82C1448.82 1079.07 1511.86 1049.18 1558.45 1009.07C1561 1007 1561 1007 1563 1007C1563 1006.34 1563 1005.68 1563 1005C1564.79 1003.66 1566.59 1002.33 1568.4 1001.02C1573.33 997.188 1577.79 992.817 1582.34 988.549C1584.4 986.627 1586.49 984.735 1588.58 982.844C1597.22 975.016 1605.67 966.94 1613.23 958.055C1615.43 955.504 1617.72 953.039 1620 950.562C1624.27 945.879 1628.19 941.052 1632 936C1633.18 934.484 1634.36 932.969 1635.54 931.454C1643.51 921.183 1650.99 910.594 1658.25 899.812C1658.73 899.101 1659.22 898.389 1659.72 897.655C1663.52 891.96 1666.77 886.033 1670 880C1670.97 878.235 1671.95 876.472 1672.93 874.711C1678.72 864.24 1684.23 853.729 1689.16 842.828C1689.92 841.167 1690.71 839.518 1691.5 837.871C1700.57 818.927 1707.15 799.132 1713 779C1713.28 778.058 1713.56 777.116 1713.85 776.145C1718.35 760.952 1721.36 745.614 1724 730C1724.16 729.116 1724.31 728.233 1724.47 727.322C1728.27 705.77 1729.18 683.969 1729.19 662.125C1729.19 661.367 1729.19 660.61 1729.19 659.829C1729.19 657.659 1729.18 655.49 1729.17 653.32C1729.16 651.453 1729.16 651.453 1729.15 649.547C1729 645.969 1728.54 642.537 1728 639C1727.83 636.332 1727.68 633.67 1727.56 631C1727.29 625.517 1726.79 620.18 1725.94 614.75C1723.93 600.426 1724.8 586.01 1726.15 571.66C1726.7 565.847 1727.12 560.05 1727.4 554.219C1728.06 540.763 1728.99 528.123 1733.29 515.277C1734.4 511.721 1735.25 508.106 1736.14 504.488C1738.91 493.262 1742.4 482.606 1747 472C1747.4 471.067 1747.4 471.067 1747.82 470.115C1757.56 447.882 1769.51 426.462 1783.91 406.918C1786.03 404.068 1786.03 404.068 1787.66 401.113C1788.1 400.416 1788.54 399.718 1789 399C1789.66 399 1790.32 399 1791 399C1791.2 398.315 1791.41 397.631 1791.61 396.926C1793.48 392.982 1796.17 390.299 1799.19 387.187C1800.31 386.015 1801.43 384.842 1802.54 383.668C1803.11 383.072 1803.68 382.476 1804.27 381.861C1806.04 379.961 1807.73 378.01 1809.42 376.039C1813.08 371.836 1817 367.991 1821.06 364.187C1821.8 363.492 1822.55 362.797 1823.31 362.081C1829.37 356.462 1835.65 351.239 1842.27 346.294C1844.05 344.966 1845.81 343.618 1847.57 342.269C1879.69 317.935 1919.77 297.575 1959.71 290.605C1962.16 290.154 1964.52 289.637 1966.93 289.019C2044.03 269.354 2136.48 289.391 2201 335Z" fill="#313131"/>
<path d="M2878 1107.25C2878.76 1107.32 2879.53 1107.38 2880.31 1107.45C2916.61 1110.68 2952.31 1119.6 2985 1136C2986.31 1136.63 2987.62 1137.26 2988.93 1137.89C3020.32 1153.09 3047.14 1174.18 3071.79 1198.62C3073.21 1200.02 3074.63 1201.42 3076.05 1202.82C3082.09 1208.86 3088.01 1215.04 3093 1222C3093 1222.66 3093 1223.32 3093 1224C3093.66 1224 3094.32 1224 3095 1224C3097.6 1227.5 3099.55 1230.89 3101 1235C3101.66 1235 3102.32 1235 3103 1235C3104.63 1237.37 3106.14 1239.73 3107.62 1242.19C3108.53 1243.68 3109.45 1245.17 3110.36 1246.66C3110.81 1247.4 3111.26 1248.15 3111.72 1248.91C3112.81 1250.68 3113.92 1252.44 3115.05 1254.18C3124.4 1268.75 3132.22 1284.69 3138 1301C3138.37 1302.05 3138.75 1303.1 3139.14 1304.19C3144.93 1320.58 3149.89 1336.86 3153 1354C3153.15 1354.81 3153.3 1355.62 3153.45 1356.45C3154.4 1361.62 3155.28 1366.79 3156 1372C3156.17 1373.17 3156.34 1374.33 3156.51 1375.53C3158.16 1387.52 3158.36 1399.41 3158.31 1411.5C3158.31 1412.51 3158.31 1413.53 3158.31 1414.57C3158.27 1429.92 3157.66 1444.85 3155 1460C3154.85 1460.91 3154.7 1461.82 3154.55 1462.75C3150.11 1489.5 3142.39 1516.85 3130 1541C3129.33 1542.35 3128.66 1543.71 3128 1545.07C3117.44 1566.56 3104.77 1586.18 3090 1605C3089.23 1606 3088.46 1607.01 3087.66 1608.04C3086.95 1608.95 3086.23 1609.87 3085.5 1610.81C3084.87 1611.62 3084.24 1612.43 3083.59 1613.27C3082.8 1614.13 3082.8 1614.13 3082 1615C3081.34 1615 3080.68 1615 3080 1615C3079.76 1615.55 3079.53 1616.1 3079.28 1616.67C3074.95 1624.54 3067.42 1630.82 3060.32 1636.15C3057.91 1638 3057.91 1638 3055.6 1640.41C3052.81 1643.19 3049.85 1645.65 3046.75 1648.06C3045.85 1648.77 3045.85 1648.77 3044.93 1649.48C3013.42 1673.86 2976.66 1695.05 2937.76 1704.76C2934.54 1705.58 2931.36 1706.49 2928.18 1707.47C2914.32 1711.67 2901.12 1713.19 2886.69 1713.81C2883.57 1713.97 2880.46 1714.14 2877.35 1714.3C2875.44 1714.4 2873.53 1714.5 2871.62 1714.58C2866.71 1714.81 2861.86 1715.21 2856.98 1715.78C2840.56 1717.58 2823.98 1715.51 2807.72 1713.34C2732.53 1703.88 2647.25 1724.1 2581.3 1760.21C2578.6 1761.67 2575.89 1763.05 2573.12 1764.38C2549 1776.32 2525.91 1792.07 2505.25 1809.29C2503 1811 2503 1811 2501 1811C2501 1811.66 2501 1812.32 2501 1813C2499.49 1814.3 2499.49 1814.3 2497.31 1815.88C2491.41 1820.33 2486.1 1825.34 2480.72 1830.4C2478.43 1832.54 2476.12 1834.65 2473.81 1836.77C2466.89 1843.11 2460.22 1849.5 2454.09 1856.63C2452.43 1858.51 2450.75 1860.35 2449.03 1862.19C2448.5 1862.75 2447.97 1863.32 2447.43 1863.9C2446.38 1865.02 2445.32 1866.14 2444.26 1867.26C2441.83 1869.85 2439.67 1872.39 2437.76 1875.4C2437.18 1876.26 2436.6 1877.12 2436 1878C2435.34 1878 2434.68 1878 2434 1878C2433.76 1878.72 2433.51 1879.44 2433.26 1880.18C2431.84 1883.36 2430.08 1885.54 2427.81 1888.19C2424.22 1892.48 2420.91 1896.84 2417.75 1901.47C2415.85 1904.21 2413.87 1906.88 2411.87 1909.56C2409.01 1913.48 2406.54 1917.41 2404.28 1921.7C2403.05 1923.9 2401.71 1925.93 2400.28 1928C2396.52 1933.58 2393.35 1939.44 2390.19 1945.38C2389.57 1946.52 2388.96 1947.67 2388.33 1948.85C2369.74 1983.82 2355.17 2020.59 2346.6 2059.31C2346.19 2061.12 2345.78 2062.94 2345.37 2064.75C2342.53 2077.09 2340.38 2089.45 2338.75 2102C2338.59 2103.25 2338.42 2104.5 2338.26 2105.79C2336.42 2120.67 2335.74 2135.52 2335.69 2150.5C2335.68 2151.7 2335.68 2151.7 2335.68 2152.93C2335.64 2167.78 2336.82 2182.39 2338.58 2197.12C2340.42 2212.77 2340.28 2228.03 2339.19 2243.75C2339.1 2245.06 2339.01 2246.37 2338.92 2247.72C2338.63 2251.82 2338.32 2255.91 2338 2260C2337.92 2261 2337.92 2261 2337.85 2262.03C2336.69 2277.11 2335.3 2291.6 2330.61 2306.03C2329.79 2308.7 2329.16 2311.39 2328.53 2314.11C2326.62 2322.34 2323.95 2330.13 2320.81 2337.97C2320 2340.01 2319.2 2342.06 2318.41 2344.12C2311.68 2361.28 2302.6 2377.29 2293 2393C2292.58 2393.69 2292.15 2394.38 2291.72 2395.1C2290.49 2397.09 2289.25 2399.08 2288 2401.06C2287.63 2401.67 2287.25 2402.27 2286.87 2402.89C2285.97 2404.3 2284.99 2405.65 2284 2407C2283.34 2407 2282.68 2407 2282 2407C2281.75 2407.7 2281.5 2408.4 2281.25 2409.13C2279.83 2412.4 2278.13 2415.14 2276 2418C2275.34 2418 2274.68 2418 2274 2418C2273.79 2418.7 2273.57 2419.39 2273.36 2420.11C2271.63 2423.8 2269.11 2426.42 2266.31 2429.31C2265.22 2430.47 2264.12 2431.63 2263.02 2432.79C2262.23 2433.63 2262.23 2433.63 2261.43 2434.47C2259.71 2436.31 2258.07 2438.21 2256.44 2440.13C2249.6 2448.01 2242.02 2455.34 2234 2462C2233.28 2462.6 2232.56 2463.2 2231.81 2463.82C2197.35 2491.87 2158.84 2512.05 2116 2524C2115.12 2524.25 2114.24 2524.5 2113.34 2524.76C2088.88 2531.64 2063.96 2534.19 2038.62 2534.13C2036 2534.13 2033.38 2534.13 2030.77 2534.14C1996.25 2534.15 1962.43 2527.86 1930 2516C1928.86 2515.59 1927.72 2515.18 1926.55 2514.76C1901.39 2505.43 1877.71 2492.02 1856.09 2476.23C1853.94 2474.68 1851.83 2473.25 1849.6 2471.84C1848.74 2471.23 1847.88 2470.62 1847 2470C1847 2469.34 1847 2468.68 1847 2468C1846.44 2467.75 1845.88 2467.5 1845.31 2467.24C1835.71 2462.09 1827.82 2453.11 1820.23 2445.43C1818.48 2443.67 1816.72 2441.91 1814.97 2440.15C1813.84 2439.02 1812.72 2437.89 1811.59 2436.76C1811.07 2436.24 1810.56 2435.72 1810.02 2435.19C1803 2428.07 1803 2428.07 1803 2425C1802.01 2424.67 1801.02 2424.34 1800 2424C1797.91 2421.62 1797.91 2421.62 1795.5 2418.44C1795.07 2417.87 1794.64 2417.3 1794.19 2416.71C1789.31 2410.19 1784.73 2403.48 1780.18 2396.74C1779.19 2395.28 1778.19 2393.82 1777.18 2392.37C1773.36 2386.79 1770.11 2381 1767 2375C1766.6 2374.24 1766.2 2373.47 1765.79 2372.68C1749.77 2341.79 1738.65 2309.34 1733.37 2274.88C1733.19 2273.68 1733.19 2273.68 1733 2272.45C1731.03 2259.08 1730.81 2245.81 1730.81 2232.31C1730.81 2229.1 1730.79 2225.89 1730.78 2222.68C1730.72 2204.42 1731.8 2186.56 1735.69 2168.69C1736.08 2166.86 1736.08 2166.86 1736.48 2164.99C1741.84 2140.53 1749.79 2117.46 1760.56 2094.88C1761.09 2093.76 1761.62 2092.65 1762.17 2091.5C1765.24 2085.18 1768.6 2079.23 1772.48 2073.37C1773.87 2071.21 1775.08 2069.04 1776.25 2066.75C1781.47 2057.14 1788.76 2048.48 1795.52 2039.92C1797.33 2037.58 1799.01 2035.16 1800.66 2032.7C1802.58 2030.27 1804.8 2028.18 1807 2026C1808.76 2024.09 1810.51 2022.17 1812.25 2020.25C1825.51 2005.72 1825.51 2005.72 1833.08 2000.48C1835.13 1998.97 1835.13 1998.97 1837.18 1996.75C1840.83 1993.19 1844.82 1990.25 1848.94 1987.25C1850.21 1986.32 1850.21 1986.32 1851.51 1985.37C1858.5 1980.29 1865.6 1975.48 1873 1971C1873.68 1970.58 1874.37 1970.16 1875.07 1969.73C1887.96 1961.91 1901.32 1955.31 1915 1949C1915.92 1948.57 1916.84 1948.14 1917.79 1947.69C1923.66 1944.96 1929.54 1942.59 1935.69 1940.56C1936.57 1940.27 1937.45 1939.98 1938.35 1939.68C1948.21 1936.49 1958.25 1934.04 1968.34 1931.67C1970.27 1931.18 1972.19 1930.61 1974.08 1929.99C1979.23 1928.51 1984.52 1928.31 1989.84 1927.93C1990.99 1927.84 1992.14 1927.76 1993.33 1927.67C1995.77 1927.49 1998.21 1927.31 2000.65 1927.14C2004.3 1926.88 2007.95 1926.6 2011.59 1926.32C2031.22 1924.87 2051.26 1923.44 2070.81 1926.44C2086.51 1928.56 2102.16 1929.34 2118 1929C2119.2 1928.98 2119.2 1928.98 2120.43 1928.96C2147.58 1928.47 2174.52 1924.96 2201 1919C2202.77 1918.62 2204.55 1918.23 2206.32 1917.85C2220.16 1914.79 2233.57 1910.52 2247 1906C2247.8 1905.73 2248.61 1905.46 2249.44 1905.18C2266.12 1899.56 2282.42 1893.13 2298.05 1885C2300.73 1883.62 2303.44 1882.29 2306.15 1880.95C2321.43 1873.39 2321.43 1873.39 2335.89 1864.39C2338.02 1862.99 2340.19 1861.77 2342.44 1860.56C2347.58 1857.77 2352.25 1854.41 2357 1851C2358.62 1849.87 2360.25 1848.75 2361.87 1847.63C2370.62 1841.49 2379.08 1835.04 2387.3 1828.23C2389.05 1826.79 2390.8 1825.36 2392.57 1823.96C2404.65 1814.33 2415.63 1803.45 2426.56 1792.56C2427.3 1791.83 2428.04 1791.1 2428.8 1790.34C2435.19 1783.93 2441.19 1777.34 2446.45 1769.96C2448 1768 2448 1768 2450.38 1765.64C2453.13 1762.87 2455.45 1759.98 2457.81 1756.88C2458.24 1756.31 2458.67 1755.75 2459.11 1755.17C2466.13 1746.44 2466.13 1746.44 2472 1737C2472.66 1737 2473.32 1737 2474 1737C2474.23 1736.33 2474.46 1735.66 2474.7 1734.97C2476.36 1731.18 2478.57 1727.93 2480.87 1724.5C2489.9 1710.77 2497.81 1696.42 2505.44 1681.88C2505.92 1680.95 2506.41 1680.03 2506.9 1679.08C2511.85 1669.54 2516.18 1659.8 2520.12 1649.81C2520.46 1648.98 2520.79 1648.14 2521.14 1647.28C2527.17 1632.09 2532.74 1616.78 2537 1601C2537.33 1599.82 2537.65 1598.64 2537.99 1597.43C2542.09 1582.47 2545.42 1567.3 2548 1552C2548.13 1551.27 2548.26 1550.53 2548.39 1549.77C2550.6 1536.72 2551.5 1523.64 2552.19 1510.44C2552.23 1509.62 2552.27 1508.81 2552.32 1507.97C2552.98 1495.11 2553.3 1482.3 2552.62 1469.44C2552.58 1468.61 2552.54 1467.77 2552.5 1466.92C2552.15 1460.6 2551.62 1454.3 2551 1448C2550.88 1446.74 2550.88 1446.74 2550.75 1445.45C2550.35 1441.26 2550.35 1441.26 2549.51 1437.15C2546.67 1425.17 2548.3 1412.3 2549.31 1400.19C2549.46 1398.36 2549.61 1396.54 2549.75 1394.71C2549.97 1391.99 2550.19 1389.26 2550.41 1386.54C2550.82 1381.48 2551.17 1376.43 2551.44 1371.36C2552.24 1356.93 2554.77 1343.81 2559 1330C2559.29 1329.05 2559.57 1328.09 2559.87 1327.11C2567.56 1301.49 2578.08 1276.89 2592 1254C2592.62 1252.96 2593.24 1251.91 2593.88 1250.84C2597.7 1244.5 2601.73 1238.32 2605.87 1232.19C2606.35 1231.48 2606.83 1230.76 2607.32 1230.03C2608.49 1228.31 2609.74 1226.65 2611 1225C2611.66 1225 2612.32 1225 2613 1225C2613.2 1224.33 2613.4 1223.65 2613.61 1222.96C2615.5 1218.92 2618.23 1215.99 2621.19 1212.69C2622.07 1211.69 2622.07 1211.69 2622.97 1210.67C2624.12 1209.36 2625.28 1208.05 2626.45 1206.75C2628.32 1204.64 2630.16 1202.51 2632 1200.38C2634.57 1197.46 2637.13 1194.62 2640 1192C2640.66 1192 2641.32 1192 2642 1192C2642.33 1191.01 2642.66 1190.02 2643 1189C2644.36 1187.6 2644.36 1187.6 2646.19 1186.06C2646.91 1185.45 2647.63 1184.84 2648.38 1184.21C2649.68 1183.12 2649.68 1183.12 2651 1182C2652.05 1181.08 2653.1 1180.15 2654.15 1179.23C2676.98 1159.17 2703.86 1142.25 2732.03 1130.8C2734.01 1130 2735.97 1129.17 2737.94 1128.34C2768.32 1115.77 2799.39 1109.72 2832 1107C2833.73 1106.85 2833.73 1106.85 2835.5 1106.7C2849.77 1105.55 2863.78 1105.99 2878 1107.25Z" fill="#313131"/>
<path d="M846 2654C905.07 2654 964.14 2654 1025 2654C1029.29 2659.94 1033.58 2665.88 1038 2672C1040.31 2675.15 1042.61 2678.3 1044.94 2681.44C1046.11 2683.03 1047.29 2684.62 1048.46 2686.21C1049.05 2687 1049.63 2687.79 1050.23 2688.61C1053.74 2693.36 1057.24 2698.12 1060.75 2702.87C1063.67 2706.85 1066.6 2710.82 1069.54 2714.79C1075.77 2723.23 1081.97 2731.71 1088.11 2740.23C1093.76 2748.07 1099.49 2755.84 1105.23 2763.61C1108.16 2767.57 1111.08 2771.54 1114 2775.5C1115.17 2777.08 1116.33 2778.67 1117.5 2780.25C1119.83 2783.42 1122.17 2786.58 1124.5 2789.75C1125.08 2790.53 1125.66 2791.32 1126.25 2792.13C1127.42 2793.71 1128.58 2795.29 1129.75 2796.87C1132.67 2800.85 1135.6 2804.82 1138.54 2808.79C1144.77 2817.23 1150.97 2825.71 1157.11 2834.23C1162.76 2842.07 1168.49 2849.84 1174.23 2857.61C1177.16 2861.57 1180.08 2865.54 1183 2869.5C1184.17 2871.08 1185.33 2872.67 1186.5 2874.25C1188.83 2877.42 1191.17 2880.58 1193.5 2883.75C1194.08 2884.53 1194.66 2885.32 1195.25 2886.13C1196.42 2887.71 1197.58 2889.29 1198.75 2890.87C1201.67 2894.85 1204.6 2898.82 1207.54 2902.79C1213.77 2911.23 1219.97 2919.71 1226.11 2928.23C1231.76 2936.07 1237.49 2943.84 1243.23 2951.61C1246.74 2956.36 1250.24 2961.11 1253.74 2965.87C1256.69 2969.87 1259.64 2973.87 1262.61 2977.86C1288.71 3013.02 1309.25 3050.81 1327.49 3090.56C1330.25 3096.57 1333.09 3102.54 1335.94 3108.5C1336.36 3109.38 1336.78 3110.26 1337.21 3111.16C1338.14 3113.11 1339.07 3115.05 1340 3117C1339.66 3110.5 1339.06 3104.13 1338.01 3097.71C1336.32 3087.45 1335.27 3077.16 1334.38 3066.81C1334.31 3066.12 1334.25 3065.42 1334.19 3064.7C1331.98 3039.77 1331.85 3014.82 1331.88 2989.82C1331.89 2985.3 1331.89 2980.77 1331.89 2976.25C1331.89 2968.44 1331.89 2960.64 1331.89 2952.83C1331.9 2941.55 1331.9 2930.26 1331.91 2918.98C1331.91 2900.66 1331.92 2882.35 1331.92 2864.03C1331.93 2846.26 1331.94 2828.48 1331.95 2810.71C1331.95 2809.6 1331.95 2808.49 1331.95 2807.34C1331.95 2798.66 1331.95 2789.98 1331.95 2781.3C1331.96 2738.87 1331.98 2696.43 1332 2654C1390.41 2654 1448.82 2654 1509 2654C1509 2877.41 1509 3100.82 1509 3331C1450.26 3331 1391.52 3331 1331 3331C1316.92 3312.23 1316.92 3312.23 1312.06 3305.62C1311.48 3304.84 1310.91 3304.05 1310.31 3303.24C1305.75 3297.05 1301.25 3290.81 1296.75 3284.56C1292.75 3279 1288.65 3273.51 1284.52 3268.04C1280.21 3262.32 1276.03 3256.52 1271.86 3250.71C1268.29 3245.76 1264.67 3240.87 1261 3236C1256.76 3230.38 1252.61 3224.71 1248.5 3219C1244.41 3213.31 1240.28 3207.66 1236.06 3202.06C1226.48 3189.34 1217.06 3176.49 1207.75 3163.56C1203.75 3158 1199.65 3152.51 1195.52 3147.04C1191.21 3141.32 1187.03 3135.52 1182.86 3129.71C1179.29 3124.76 1175.67 3119.87 1172 3115C1167.76 3109.38 1163.61 3103.71 1159.5 3098C1155.41 3092.31 1151.28 3086.66 1147.06 3081.06C1137.48 3068.34 1128.06 3055.49 1118.75 3042.56C1114.75 3037 1110.65 3031.51 1106.52 3026.04C1102.78 3021.07 1099.13 3016.05 1095.5 3011C1091.37 3005.25 1087.19 2999.54 1082.94 2993.88C1082.45 2993.22 1081.96 2992.56 1081.45 2991.89C1078.99 2988.62 1076.52 2985.37 1074 2982.15C1059.23 2963.06 1047.84 2941.79 1038 2919.81C1037.37 2918.41 1036.73 2917.01 1036.1 2915.6C1028.66 2899.1 1021.33 2882.55 1014 2866C1014.2 2867.36 1014.2 2867.36 1014.4 2868.75C1017.06 2887.44 1019.44 2906.14 1021.25 2924.94C1021.33 2925.79 1021.42 2926.65 1021.5 2927.53C1021.74 2930.01 1021.97 2932.49 1022.2 2934.96C1022.27 2935.67 1022.34 2936.38 1022.4 2937.11C1022.61 2939.4 1022.81 2941.7 1023 2944C1023.08 2944.98 1023.17 2945.96 1023.25 2946.97C1023.96 2955.94 1024.14 2964.86 1024.12 2973.84C1024.12 2975.39 1024.12 2976.95 1024.12 2978.5C1024.13 2982.72 1024.12 2986.94 1024.12 2991.16C1024.11 2995.73 1024.11 3000.29 1024.11 3004.86C1024.11 3012.76 1024.11 3020.66 1024.11 3028.56C1024.1 3039.98 1024.09 3051.4 1024.09 3062.82C1024.09 3081.35 1024.08 3099.89 1024.08 3118.42C1024.07 3136.41 1024.06 3154.41 1024.05 3172.41C1024.05 3173.53 1024.05 3174.65 1024.05 3175.81C1024.05 3184.58 1024.05 3193.35 1024.05 3202.13C1024.04 3245.08 1024.02 3288.04 1024 3331C965.26 3331 906.52 3331 846 3331C846 3107.59 846 2884.18 846 2654Z" fill="#1E7AD0"/>
<path d="M1199.99 296.871C1229.73 296.423 1260.59 299.405 1289.04 308.384C1291.02 309.007 1293.01 309.596 1295.01 310.18C1310.39 314.74 1325.01 320.684 1339.23 328.092C1341.75 329.387 1344.32 330.59 1346.88 331.813C1368.43 342.607 1388.74 357.011 1406.31 373.489C1408.48 375.512 1410.68 377.458 1412.94 379.375C1421.57 386.873 1429.7 395.204 1437 404C1437.8 404.944 1438.6 405.887 1439.42 406.86C1446 414.738 1446 414.738 1446 417C1446.66 417 1447.32 417 1448 417C1449.54 418.934 1449.54 418.934 1451.34 421.653C1452.01 422.648 1452.67 423.643 1453.36 424.669C1454.06 425.747 1454.77 426.826 1455.5 427.938C1456.59 429.587 1456.59 429.587 1457.7 431.269C1469.89 449.877 1482.02 469.451 1488.9 490.735C1489.82 493.452 1490.83 496.061 1491.91 498.711C1498.18 514.24 1502.19 530.526 1505 547C1505.15 547.836 1505.29 548.672 1505.44 549.534C1507.65 562.504 1509.15 575.235 1509.17 588.414C1509.17 589.468 1509.18 590.522 1509.18 591.608C1509.18 593.825 1509.19 596.042 1509.19 598.259C1509.19 601.596 1509.21 604.933 1509.23 608.27C1509.26 620.35 1508.76 632.05 1507 644C1506.76 645.909 1506.52 647.818 1506.29 649.727C1504.91 660.107 1502.98 669.947 1500 680C1499.7 681.099 1499.41 682.197 1499.1 683.328C1486.97 727.934 1464.81 770.332 1433.4 804.387C1431.44 806.516 1429.56 808.674 1427.69 810.875C1420.16 819.524 1411.82 827.683 1403 835C1402.05 835.805 1401.1 836.609 1400.13 837.438C1398 839 1398 839 1396 839C1396 839.66 1396 840.32 1396 841C1394.14 842.593 1392.28 844.054 1390.31 845.5C1389.78 845.904 1389.25 846.307 1388.71 846.723C1385.6 849.032 1382.66 850.75 1379 852C1379 852.66 1379 853.32 1379 854C1377.59 855.094 1377.59 855.094 1375.59 856.285C1374.86 856.729 1374.12 857.173 1373.36 857.63C1372.56 858.103 1371.76 858.576 1370.94 859.063C1369.27 860.061 1367.6 861.06 1365.93 862.059C1364.67 862.805 1364.67 862.805 1363.39 863.566C1361.3 864.822 1359.23 866.104 1357.17 867.41C1347.9 873.239 1338.21 877.71 1328.17 882.052C1325.52 883.209 1322.92 884.446 1320.31 885.688C1310.17 890.297 1299.48 893.907 1288.61 896.36C1285.98 896.958 1285.98 896.958 1283.43 897.922C1278.33 899.527 1273.12 900.475 1267.88 901.5C1266.81 901.713 1265.75 901.926 1264.65 902.145C1261.44 902.78 1258.22 903.395 1255 904C1254.04 904.186 1253.07 904.371 1252.08 904.562C1244.48 905.939 1236.89 906.563 1229.19 907.006C1227.13 907.125 1225.08 907.255 1223.02 907.387C1143.73 912.296 1067.2 886.443 1006 836C1004.32 834.348 1002.65 832.681 1001 831C998.937 829.062 996.842 827.159 994.751 825.25C986.722 817.861 979.146 810.418 972.317 801.879C969.931 798.913 967.47 796.022 965.001 793.125C960.368 787.564 956.185 781.798 952.183 775.769C950.967 773.95 949.727 772.149 948.485 770.348C926.367 737.763 911.726 700.494 904.001 662C903.846 661.238 903.692 660.476 903.533 659.691C888.303 582.686 905.265 500.438 947.876 434.938C952.553 428.05 957.581 421.421 962.629 414.803C963.847 413.203 965.052 411.592 966.255 409.981C967.181 408.753 967.181 408.753 968.126 407.5C968.644 406.809 969.162 406.118 969.696 405.406C970.127 404.942 970.557 404.478 971.001 404C971.661 404 972.321 404 973.001 404C973.229 403.455 973.457 402.91 973.692 402.348C975.377 399.326 977.587 396.944 979.938 394.438C980.424 393.916 980.909 393.395 981.408 392.857C995.91 377.358 995.91 377.358 1003.15 372.414C1005.17 370.936 1005.17 370.936 1007.37 368.621C1012.13 363.879 1017.61 359.999 1023 356C1023.64 355.526 1024.27 355.052 1024.92 354.564C1040.94 342.689 1058.24 332.654 1076.44 324.5C1077.24 324.139 1078.04 323.778 1078.87 323.406C1080.42 322.71 1080.42 322.71 1082 322C1083.17 321.443 1083.17 321.443 1084.37 320.874C1091.19 317.67 1098.06 315.173 1105.25 312.938C1106.35 312.591 1107.46 312.245 1108.59 311.888C1138.78 302.481 1168.45 297.892 1199.99 296.871Z" fill="#1E7AD0"/>
<path d="M2886.56 1924.25C2887.34 1924.32 2888.12 1924.38 2888.93 1924.45C2907.62 1926.06 2925.74 1928.87 2943.72 1934.32C2946.15 1935.05 2948.59 1935.75 2951.03 1936.44C2965.57 1940.63 2979.14 1946.03 2992.81 1952.5C2993.77 1952.95 2994.72 1953.4 2995.71 1953.87C3001.26 1956.54 3006.57 1959.45 3011.82 1962.67C3014.33 1964.2 3016.9 1965.58 3019.5 1966.94C3024.98 1969.91 3029.97 1973.33 3035 1977C3036.17 1977.84 3037.33 1978.67 3038.5 1979.5C3045.57 1984.58 3052.39 1989.85 3058.96 1995.56C3061.8 1998.05 3061.8 1998.05 3065 2000C3065 2000.66 3065 2001.32 3065 2002C3065.99 2002.33 3066.98 2002.66 3068 2003C3069.71 2004.62 3071.37 2006.3 3073 2008C3074.03 2009.02 3075.05 2010.04 3076.09 2011.05C3077.18 2012.14 3078.28 2013.23 3079.37 2014.31C3079.91 2014.84 3080.45 2015.37 3081.01 2015.92C3095.81 2030.63 3110.96 2047.98 3120.67 2066.56C3122.07 2069.13 3123.6 2071.61 3125.14 2074.1C3130.11 2082.15 3134.22 2090.43 3138.11 2099.04C3138.91 2100.8 3139.75 2102.55 3140.59 2104.3C3158.67 2142 3166.65 2184.53 3166.34 2226.15C3166.31 2229.53 3166.32 2232.9 3166.32 2236.28C3166.31 2248.03 3165.82 2259.39 3164 2271C3163.78 2272.71 3163.57 2274.42 3163.36 2276.13C3161.63 2289.05 3158.56 2301.47 3155 2314C3154.8 2314.72 3154.6 2315.43 3154.4 2316.17C3149.1 2335.16 3141.26 2353.62 3132 2371C3131.4 2372.15 3130.81 2373.29 3130.19 2374.47C3126.47 2381.55 3122.4 2388.32 3118 2395C3117.55 2395.7 3117.11 2396.4 3116.65 2397.12C3094.27 2431.73 3064.4 2461.45 3030 2484C3029.38 2484.41 3028.75 2484.83 3028.11 2485.25C3004.68 2500.72 2978.9 2512.95 2952 2521C2951.15 2521.25 2950.31 2521.51 2949.43 2521.77C2935.77 2525.81 2922.06 2528.7 2908 2531C2906.75 2531.22 2905.51 2531.43 2904.22 2531.65C2890.87 2533.87 2877.55 2534.16 2864.05 2534.13C2861.5 2534.12 2858.96 2534.13 2856.41 2534.14C2814.43 2534.16 2774.17 2524.8 2735.81 2507.94C2734.71 2507.46 2733.62 2506.97 2732.48 2506.48C2725.98 2503.54 2719.8 2500.27 2713.69 2496.59C2711.08 2495.05 2708.44 2493.63 2705.75 2492.25C2698.1 2488.11 2691.07 2483.04 2684 2478C2682.43 2476.88 2682.43 2476.88 2680.84 2475.75C2673.12 2470.1 2665.94 2463.89 2658.79 2457.56C2657.54 2456.47 2656.27 2455.4 2654.99 2454.34C2654.35 2453.81 2653.71 2453.28 2653.05 2452.73C2652.47 2452.25 2651.88 2451.78 2651.28 2451.29C2650 2450 2650 2450 2650 2448C2649.44 2447.79 2648.89 2447.59 2648.31 2447.38C2645.7 2445.82 2644.2 2443.92 2642.34 2441.55C2640.89 2439.77 2640.89 2439.77 2638.25 2437.81C2633.41 2433.94 2629.82 2428.83 2626 2424C2625.02 2422.81 2625.02 2422.81 2624.03 2421.59C2593.89 2384.6 2572.54 2340.95 2562.49 2294.27C2562.06 2292.28 2561.6 2290.29 2561.14 2288.31C2560.3 2284.55 2559.61 2280.8 2559 2277C2558.86 2276.15 2558.73 2275.3 2558.58 2274.42C2549.34 2213.81 2558.79 2149.95 2586 2095C2586.36 2094.27 2586.72 2093.55 2587.09 2092.8C2597.26 2072.52 2609.5 2053.46 2624 2036C2624.79 2035.03 2625.58 2034.05 2626.39 2033.05C2632.86 2025.19 2639.89 2017.9 2647.06 2010.69C2648.43 2009.31 2648.43 2009.31 2649.82 2007.9C2666.8 1991 2666.8 1991 2671 1991C2671 1990.34 2671 1989.68 2671 1989C2672.41 1987.74 2672.41 1987.74 2674.41 1986.31C2675.14 1985.78 2675.88 1985.25 2676.64 1984.71C2677.44 1984.15 2678.24 1983.58 2679.06 1983C2679.88 1982.42 2680.69 1981.84 2681.53 1981.24C2686.63 1977.63 2691.76 1974.06 2696.94 1970.56C2697.49 1970.19 2698.04 1969.81 2698.61 1969.42C2707.42 1963.57 2716.95 1958.95 2726.5 1954.44C2727.93 1953.75 2727.93 1953.75 2729.39 1953.06C2732.26 1951.69 2735.13 1950.35 2738 1949C2739.37 1948.35 2739.37 1948.35 2740.77 1947.69C2747.16 1944.7 2753.61 1942.25 2760.31 1940.06C2761.35 1939.72 2762.39 1939.38 2763.46 1939.03C2787.36 1931.28 2810.92 1926.44 2835.94 1924.25C2836.67 1924.18 2837.4 1924.12 2838.15 1924.05C2854.39 1922.63 2870.33 1922.85 2886.56 1924.25Z" fill="#1E7AD0"/>
<path d="M2847.44 287.875C2848.12 287.877 2848.8 287.88 2849.5 287.882C2867.04 287.949 2883.63 289.468 2900.92 292.469C2903.74 292.956 2906.57 293.416 2909.39 293.871C2927.79 296.963 2945.82 302.748 2963 310C2963.65 310.273 2964.3 310.545 2964.97 310.826C2988.49 320.776 3010.4 333.241 3030.8 348.625C3032.92 350.196 3035.07 351.712 3037.27 353.168C3040.26 355.173 3042.49 357.427 3045 360C3046.16 361.031 3047.33 362.051 3048.5 363.063C3075.6 386.657 3075.6 386.657 3083 398C3083 398.66 3083 399.32 3083 400C3083.99 400.33 3084.98 400.66 3086 401C3087.66 402.942 3087.66 402.942 3089.5 405.563C3090.2 406.559 3090.91 407.556 3091.63 408.582C3092.01 409.131 3092.39 409.679 3092.78 410.245C3094.06 412.09 3095.36 413.926 3096.65 415.762C3114.16 440.723 3129.23 467.95 3137.89 497.289C3138.69 499.965 3139.54 502.58 3140.45 505.215C3155.97 551.411 3157.76 605.376 3147.47 652.774C3147.05 654.757 3146.7 656.753 3146.36 658.75C3144.2 671.196 3140.01 683.052 3136 695C3135.72 695.84 3135.44 696.68 3135.16 697.545C3128 719.135 3117.62 740.081 3105 759C3104.21 760.253 3103.43 761.509 3102.64 762.766C3102.24 763.416 3101.83 764.065 3101.41 764.735C3100.61 766.015 3099.81 767.298 3099.02 768.584C3098.07 770.091 3097.04 771.551 3096 773C3095.34 773 3094.68 773 3094 773C3093.66 774.046 3093.66 774.046 3093.32 775.113C3091.71 778.63 3089.46 781.305 3086.94 784.188C3083.63 787.859 3083.63 787.859 3081 792C3080.34 792 3079.68 792 3079 792C3078.78 792.534 3078.57 793.067 3078.34 793.617C3076.51 796.868 3074.05 799.428 3071.5 802.125C3070.7 802.981 3070.7 802.981 3069.88 803.854C3055.63 819.027 3055.63 819.027 3049 824C3048.34 824 3047.68 824 3047 824C3046.67 824.99 3046.34 825.98 3046 827C3044.02 828.766 3042.04 830.391 3039.94 832C3039.31 832.483 3038.69 832.966 3038.04 833.463C3015.78 850.481 2991.21 865.905 2965 876C2963.25 876.723 2961.5 877.445 2959.76 878.169C2956.52 879.491 2953.26 880.754 2950 882C2949.05 882.366 2949.05 882.366 2948.08 882.738C2874.79 910.298 2789.26 902.987 2718.79 871.254C2713.08 868.631 2707.64 865.724 2702.32 862.391C2699.97 860.983 2697.59 859.799 2695.13 858.625C2669.16 845.842 2646.64 824.655 2626.31 804.438C2625.74 803.866 2625.16 803.295 2624.57 802.706C2616 794.106 2616 794.106 2616 791C2615.01 790.67 2614.02 790.34 2613 790C2611.21 787.951 2609.57 785.917 2607.94 783.75C2607.49 783.176 2607.04 782.603 2606.58 782.012C2604.14 778.803 2602.29 775.872 2601 772C2600.34 772 2599.68 772 2599 772C2597.66 770.227 2597.66 770.227 2596.06 767.625C2595.44 766.62 2594.82 765.614 2594.18 764.578C2593.84 764.01 2593.49 763.443 2593.14 762.858C2591.91 760.849 2590.66 758.854 2589.41 756.859C2581.02 743.389 2573.24 729.616 2567 715C2566.74 714.409 2566.48 713.817 2566.21 713.208C2561.17 701.722 2557.37 690.072 2554 678C2553.66 676.821 2553.66 676.821 2553.32 675.617C2530.99 597.057 2542.64 513.744 2581.63 442.454C2593.44 421.313 2608.02 402.429 2624.49 384.754C2626.26 382.815 2627.94 380.878 2629.6 378.852C2631.51 376.581 2633.3 374.702 2635.56 372.813C2638.51 370.31 2641.36 367.741 2644.18 365.096C2688.25 323.915 2746.66 298.693 2806 290.375C2807.3 290.19 2807.3 290.19 2808.62 290.002C2821.52 288.268 2834.43 287.826 2847.44 287.875Z" fill="#1E7AD0"/>
<path d="M1648 2654C1784.95 2654 1921.9 2654 2063 2654C2063 2702.84 2063 2751.68 2063 2802C1985.78 2802 1908.56 2802 1829 2802C1829 2840.94 1829 2879.88 1829 2920C1901.6 2920 1974.2 2920 2049 2920C2049 2967.52 2049 3015.04 2049 3064C1976.4 3064 1903.8 3064 1829 3064C1829 3101.95 1829 3139.9 1829 3179C1906.22 3179 1983.44 3179 2063 3179C2063 3229.16 2063 3279.32 2063 3331C1926.05 3331 1789.1 3331 1648 3331C1648 3107.59 1648 2884.18 1648 2654Z" fill="#1E7AD0"/>
<path d="M2489.12 2640.75C2490.03 2640.88 2490.94 2641.02 2491.87 2641.16C2544.96 2649.11 2598.15 2668.16 2643 2698C2642.45 2702.04 2641.59 2705.34 2639.84 2709.01C2639.38 2709.97 2638.93 2710.94 2638.46 2711.94C2637.71 2713.52 2637.71 2713.52 2636.94 2715.13C2635.83 2717.48 2634.73 2719.83 2633.63 2722.19C2633.34 2722.81 2633.04 2723.44 2632.74 2724.08C2629.18 2731.71 2625.78 2739.42 2622.38 2747.13C2616.51 2760.38 2610.59 2773.6 2604.62 2786.81C2598.3 2800.83 2592.06 2814.87 2586 2829C2581.22 2827.43 2577.68 2824.71 2573.69 2821.75C2541.89 2798.79 2504.86 2778.9 2465 2777C2464.24 2776.96 2463.48 2776.92 2462.69 2776.88C2437.27 2775.72 2418.39 2783.78 2399.09 2800.53C2389.9 2809.14 2381.99 2820.11 2380.7 2832.99C2380.67 2839.62 2381.42 2844.9 2384 2851C2384.28 2851.74 2384.56 2852.48 2384.84 2853.24C2392.82 2873.16 2411.92 2883.19 2430.61 2891.2C2437.77 2894.19 2445.13 2896.6 2452.5 2899C2454.1 2899.53 2455.69 2900.05 2457.29 2900.58C2475.16 2906.43 2493.08 2911.59 2511.38 2915.94C2564.22 2928.49 2613.65 2949.35 2643.27 2997.39C2661.37 3027.59 2673.86 3061.88 2674.27 3097.39C2674.29 3098.37 2674.3 3099.35 2674.31 3100.36C2674.53 3121.8 2674.32 3142.11 2669 3163C2668.75 3164.04 2668.75 3164.04 2668.5 3165.1C2667.53 3169.14 2666.31 3173.06 2665 3177C2664.45 3178.77 2663.91 3180.55 2663.36 3182.32C2651.92 3218.77 2633.6 3251.75 2607.35 3279.57C2606.11 3280.88 2604.89 3282.2 2603.67 3283.53C2578.29 3310.16 2543.97 3324.72 2509 3334C2507.62 3334.4 2506.24 3334.8 2504.86 3335.2C2493.69 3338.46 2482.48 3341.09 2471 3343C2470.11 3343.15 2469.22 3343.3 2468.3 3343.46C2433.95 3349.05 2396.18 3348.48 2362 3342C2360.85 3341.79 2359.71 3341.57 2358.52 3341.35C2300.95 3330.26 2245.14 3305.22 2199 3269C2198.19 3268.37 2197.38 3267.74 2196.55 3267.1C2189.18 3261.29 2182.1 3255.14 2175 3249C2176.33 3245.43 2177.92 3242.32 2179.95 3239.11C2180.54 3238.16 2181.14 3237.22 2181.75 3236.25C2182.71 3234.73 2182.71 3234.73 2183.69 3233.19C2185.06 3231.01 2186.42 3228.84 2187.79 3226.67C2188.49 3225.56 2189.19 3224.45 2189.92 3223.31C2193.13 3218.21 2196.31 3213.11 2199.5 3208C2200.75 3206.01 2201.99 3204.01 2203.24 3202.02C2205.78 3197.96 2208.32 3193.89 2210.86 3189.82C2217.02 3179.94 2223.21 3170.07 2229.44 3160.23C2235.41 3150.78 2241.33 3141.29 2247.25 3131.81C2249.81 3127.7 2252.37 3123.6 2254.94 3119.5C2255.74 3118.22 2256.54 3116.94 2257.34 3115.66C2257.89 3114.78 2258.44 3113.9 2259 3113C2265.04 3115.71 2269.06 3120.87 2273.31 3125.81C2279.35 3132.8 2285.95 3139.24 2292.96 3145.24C2295.23 3147.2 2297.42 3149.22 2299.62 3151.25C2305.27 3156.34 2311.21 3160.99 2317.23 3165.63C2318.94 3166.95 2320.63 3168.29 2322.33 3169.64C2347.25 3189.36 2372.87 3198.5 2404 3203C2405.47 3203.23 2406.94 3203.46 2408.4 3203.69C2435.12 3207.66 2459.36 3199.85 2481.21 3184.44C2492.15 3175.71 2500.92 3161.32 2502.79 3147.34C2504.1 3126.89 2502.4 3111.19 2489.44 3094.44C2463.35 3066 2422.91 3052.77 2386.56 3044.43C2361.73 3038.72 2338.09 3030.88 2315 3020C2313.71 3019.4 2313.71 3019.4 2312.4 3018.78C2270.34 2998.88 2236.14 2971.08 2220 2926.15C2219.31 2924.11 2218.65 2922.06 2218 2920C2217.75 2919.21 2217.5 2918.41 2217.24 2917.59C2206.12 2881.6 2204.43 2844.67 2213 2808C2213.18 2807.22 2213.35 2806.45 2213.53 2805.65C2214.52 2801.38 2215.71 2797.19 2217 2793C2217.19 2792.36 2217.37 2791.71 2217.56 2791.05C2224.47 2767.17 2236.6 2746.11 2251 2726C2251.49 2725.31 2251.99 2724.62 2252.49 2723.91C2258.28 2715.89 2264.79 2708.58 2271.62 2701.44C2272.85 2700.16 2274.06 2698.87 2275.27 2697.57C2328.8 2641.76 2416.31 2629.84 2489.12 2640.75Z" fill="#1E7AD0"/>
<path d="M2803 2654C2963.71 2654 3124.42 2654 3290 2654C3290 2707.13 3290 2760.26 3290 2815C3240.17 2815 3190.34 2815 3139 2815C3139 2985.28 3139 3155.56 3139 3331C3077.95 3331 3016.9 3331 2954 3331C2954 3160.72 2954 2990.44 2954 2815C2904.17 2815 2854.34 2815 2803 2815C2803 2761.87 2803 2708.74 2803 2654Z" fill="#1E7AD0"/>
<path d="M1183 3415C1202.8 3415 1222.6 3415 1243 3415C1258.16 3434.49 1258.16 3434.49 1264.39 3443.33C1267.45 3447.66 1270.6 3451.92 1273.75 3456.19C1274.64 3457.39 1274.64 3457.39 1275.55 3458.62C1276.76 3460.26 1277.97 3461.9 1279.19 3463.54C1282.13 3467.53 1285.06 3471.51 1288 3475.5C1289.17 3477.08 1290.33 3478.67 1291.5 3480.25C1293.83 3483.42 1296.17 3486.58 1298.5 3489.75C1299.08 3490.53 1299.66 3491.32 1300.25 3492.13C1301.41 3493.7 1302.58 3495.28 1303.74 3496.86C1306.71 3500.9 1309.69 3504.93 1312.68 3508.96C1315.63 3512.94 1318.56 3516.94 1321.49 3520.94C1322.77 3522.69 1324.08 3524.41 1325.39 3526.13C1334.6 3538.64 1341.08 3553.15 1348 3567C1347.86 3565.69 1347.72 3564.39 1347.57 3563.04C1345.96 3547.22 1345.73 3531.51 1345.8 3515.62C1345.81 3512.07 1345.81 3508.51 1345.81 3504.96C1345.82 3498.27 1345.84 3491.58 1345.86 3484.89C1345.88 3475.82 1345.89 3466.75 1345.9 3457.69C1345.92 3443.46 1345.96 3429.23 1346 3415C1365.47 3415 1384.94 3415 1405 3415C1405 3489.91 1405 3564.82 1405 3642C1385.53 3642 1366.06 3642 1346 3642C1331.2 3622.65 1331.2 3622.65 1326.56 3616.12C1325.48 3614.62 1324.4 3613.11 1323.31 3611.6C1322.77 3610.84 1322.23 3610.09 1321.67 3609.31C1318.83 3605.37 1315.95 3601.47 1313.06 3597.56C1312.48 3596.78 1311.9 3595.99 1311.3 3595.18C1309.54 3592.79 1307.77 3590.39 1306 3588C1298.58 3577.96 1291.19 3567.91 1283.9 3557.78C1280.49 3553.04 1277.04 3548.33 1273.57 3543.64C1271.21 3540.46 1268.87 3537.27 1266.53 3534.07C1265.24 3532.32 1263.93 3530.59 1262.61 3528.86C1253.4 3516.36 1246.92 3501.85 1240 3488C1240.09 3488.6 1240.18 3489.19 1240.27 3489.81C1242.79 3507.12 1243.42 3524.11 1243.3 3541.58C1243.29 3545.13 1243.28 3548.68 1243.28 3552.23C1243.27 3558.9 1243.25 3565.58 1243.22 3572.25C1243.18 3581.31 1243.16 3590.36 1243.14 3599.41C1243.11 3613.61 1243.05 3627.8 1243 3642C1223.2 3642 1203.4 3642 1183 3642C1183 3567.09 1183 3492.18 1183 3415Z" fill="#ED3237"/>
<path d="M1590 3415C1615.74 3415 1641.48 3415 1668 3415C1672.5 3426.25 1672.5 3426.25 1673.86 3430.19C1674.32 3431.53 1674.32 3431.53 1674.79 3432.89C1675.27 3434.29 1675.27 3434.29 1675.76 3435.71C1676.27 3437.21 1676.27 3437.21 1676.8 3438.73C1677.53 3440.85 1678.27 3442.97 1679 3445.1C1680.9 3450.63 1682.82 3456.16 1684.73 3461.7C1685.1 3462.78 1685.48 3463.86 1685.86 3464.97C1689 3474.02 1692.2 3483.03 1695.44 3492.04C1698.23 3499.8 1700.95 3507.59 1703.63 3515.39C1704.06 3516.63 1704.49 3517.88 1704.93 3519.17C1707.81 3527.54 1710.69 3535.92 1713.57 3544.29C1714.22 3546.2 1714.88 3548.11 1715.53 3550.02C1715.86 3550.97 1715.86 3550.97 1716.19 3551.94C1716.64 3553.22 1717.08 3554.51 1717.52 3555.79C1718.62 3559 1719.72 3562.21 1720.82 3565.42C1722.14 3569.26 1723.46 3573.1 1724.78 3576.94C1725 3577.57 1725.21 3578.2 1725.44 3578.85C1728.98 3589.15 1732.62 3599.42 1736.36 3609.66C1740.23 3620.36 1743.54 3631.12 1747 3642C1726.54 3642 1706.08 3642 1685 3642C1678 3619 1678 3619 1674 3601C1644.63 3601 1615.26 3601 1585 3601C1583.68 3606.28 1582.36 3611.56 1581 3617C1579.8 3621.32 1578.58 3625.63 1577.31 3629.94C1577.01 3631 1576.7 3632.07 1576.38 3633.16C1575.94 3634.67 1575.94 3634.67 1575.49 3636.21C1575.23 3637.11 1574.96 3638.01 1574.69 3638.94C1574 3641 1574 3641 1573 3642C1571.1 3642.09 1569.19 3642.12 1567.29 3642.11C1566.07 3642.11 1564.84 3642.11 1563.59 3642.11C1562.24 3642.11 1560.9 3642.1 1559.56 3642.1C1558.19 3642.1 1556.83 3642.09 1555.46 3642.09C1551.86 3642.09 1548.26 3642.08 1544.65 3642.07C1540.98 3642.06 1537.31 3642.05 1533.63 3642.05C1526.42 3642.04 1519.21 3642.02 1512 3642C1518.98 3620.93 1526.05 3599.89 1533.19 3578.88C1533.56 3577.78 1533.93 3576.69 1534.31 3575.56C1539.45 3560.43 1544.65 3545.32 1549.88 3530.22C1551.71 3524.94 1553.54 3519.65 1555.37 3514.36C1555.73 3513.31 1556.09 3512.26 1556.47 3511.17C1557.22 3509 1557.97 3506.84 1558.72 3504.67C1559.91 3501.2 1561.11 3497.73 1562.31 3494.26C1566.23 3482.91 1570.15 3471.55 1574.07 3460.2C1575.83 3455.09 1577.59 3449.98 1579.35 3444.88C1580.2 3442.42 1581.04 3439.97 1581.89 3437.52C1583.06 3434.11 1584.24 3430.7 1585.41 3427.29C1585.76 3426.27 1586.11 3425.26 1586.48 3424.21C1586.79 3423.28 1587.11 3422.36 1587.44 3421.4C1587.72 3420.6 1588 3419.79 1588.29 3418.96C1589 3417 1589 3417 1590 3415Z" fill="#ED3237"/>
<path d="M920 3415C945.74 3415 971.48 3415 998 3415C1002.5 3426.25 1002.5 3426.25 1003.86 3430.19C1004.32 3431.53 1004.32 3431.53 1004.79 3432.89C1005.27 3434.29 1005.27 3434.29 1005.76 3435.71C1006.27 3437.21 1006.27 3437.21 1006.8 3438.73C1007.53 3440.85 1008.27 3442.97 1009 3445.1C1010.9 3450.63 1012.82 3456.16 1014.73 3461.7C1015.1 3462.78 1015.48 3463.86 1015.86 3464.97C1019 3474.02 1022.2 3483.03 1025.44 3492.04C1028.23 3499.8 1030.95 3507.59 1033.63 3515.39C1034.06 3516.63 1034.49 3517.88 1034.93 3519.17C1037.81 3527.54 1040.69 3535.92 1043.57 3544.29C1044.22 3546.2 1044.88 3548.11 1045.53 3550.02C1045.86 3550.97 1045.86 3550.97 1046.19 3551.94C1046.64 3553.22 1047.08 3554.51 1047.52 3555.79C1048.62 3559 1049.72 3562.21 1050.82 3565.42C1052.14 3569.26 1053.46 3573.1 1054.78 3576.94C1055 3577.57 1055.21 3578.2 1055.44 3578.85C1058.98 3589.15 1062.62 3599.42 1066.36 3609.66C1070.23 3620.36 1073.54 3631.12 1077 3642C1056.54 3642 1036.08 3642 1015 3642C1008 3619 1008 3619 1004 3601C974.63 3601 945.26 3601 915 3601C913.68 3606.28 912.36 3611.56 911 3617C909.796 3621.32 908.578 3625.63 907.312 3629.94C907.005 3631 906.698 3632.07 906.381 3633.16C905.939 3634.67 905.939 3634.67 905.488 3636.21C905.226 3637.11 904.963 3638.01 904.693 3638.94C904 3641 904 3641 903 3642C901.098 3642.09 899.192 3642.12 897.287 3642.11C896.066 3642.11 894.844 3642.11 893.586 3642.11C892.244 3642.11 890.901 3642.1 889.559 3642.1C888.192 3642.1 886.826 3642.09 885.46 3642.09C881.858 3642.09 878.256 3642.08 874.654 3642.07C870.981 3642.06 867.308 3642.05 863.635 3642.05C856.423 3642.04 849.212 3642.02 842 3642C848.981 3620.93 856.051 3599.89 863.188 3578.88C863.558 3577.78 863.929 3576.69 864.311 3575.56C869.447 3560.43 874.645 3545.32 879.883 3530.22C881.715 3524.94 883.541 3519.65 885.367 3514.36C885.731 3513.31 886.094 3512.26 886.469 3511.17C887.218 3509 887.967 3506.84 888.716 3504.67C889.914 3501.2 891.112 3497.73 892.31 3494.26C896.233 3482.91 900.155 3471.55 904.07 3460.2C905.83 3455.09 907.592 3449.98 909.353 3444.88C910.199 3442.42 911.045 3439.97 911.89 3437.52C913.063 3434.11 914.238 3430.7 915.414 3427.29C915.764 3426.27 916.114 3425.26 916.475 3424.21C916.795 3423.28 917.114 3422.36 917.444 3421.4C917.722 3420.6 918 3419.79 918.286 3418.96C919 3417 919 3417 920 3415Z" fill="#ED3237"/>
<path d="M3246 3428C3247.36 3432.08 3246.16 3433.54 3244.43 3437.43C3244.01 3438.38 3244.01 3438.38 3243.59 3439.35C3242.69 3441.38 3241.78 3443.41 3240.88 3445.44C3239.99 3447.43 3239.11 3449.42 3238.24 3451.41C3237.66 3452.71 3237.08 3454.02 3236.5 3455.32C3233.91 3461.17 3231.43 3467.08 3229 3473C3225.53 3472.23 3223.62 3471.09 3220.81 3468.88C3207.38 3459.16 3192.31 3455.64 3176 3457C3169.14 3458.5 3164.93 3462.3 3161 3468C3158.73 3472.53 3159.72 3477.97 3161 3482.69C3168.24 3494.68 3185.15 3497.15 3197.67 3500.91C3218.83 3507.29 3240.02 3513.85 3251.25 3534.56C3260.81 3555.28 3260.35 3578.5 3252.75 3599.81C3244.63 3619.36 3230.05 3632.77 3210.88 3641.25C3205.43 3643.43 3199.72 3644.75 3194 3646C3193.26 3646.18 3192.52 3646.35 3191.76 3646.54C3184.96 3648.07 3178.39 3648.35 3171.44 3648.31C3170.29 3648.31 3169.15 3648.3 3167.97 3648.3C3143.57 3647.96 3121.92 3640.36 3102.38 3625.88C3101.71 3625.38 3101.05 3624.89 3100.37 3624.39C3096.31 3621.28 3093.13 3618.04 3090 3614C3108.23 3583.87 3108.23 3583.87 3117 3570C3120.66 3571.52 3122.76 3573.68 3125.44 3576.56C3138.29 3589.64 3153.89 3598.71 3172.31 3599.44C3180.45 3599.31 3187.65 3597.65 3194 3592.32C3199.54 3586.32 3200.55 3580.03 3200.36 3572.04C3199.66 3566.18 3197.48 3562.06 3192.93 3558.29C3183.18 3551.96 3171.65 3549.15 3160.56 3546.06C3140.68 3540.5 3119.58 3532.79 3108.24 3514.31C3099.7 3498.43 3098.41 3479.05 3103.09 3461.72C3108.87 3442.52 3121.45 3427.17 3139.01 3417.5C3171.38 3401.31 3216.77 3406.92 3246 3428Z" fill="#ED3237"/>
<path d="M2988 3423C2988 3445.11 2988 3467.22 2988 3490C2985.69 3488.02 2983.38 3486.04 2981 3484C2964.11 3469.93 2948.22 3463.59 2926 3465C2910.99 3467.14 2898.28 3474.73 2888.93 3486.63C2880.3 3499.42 2876.63 3513.26 2876.75 3528.5C2876.74 3529.48 2876.73 3530.46 2876.73 3531.47C2876.76 3545.86 2881.17 3559.55 2890 3571C2890.51 3571.69 2891.02 3572.37 2891.55 3573.08C2899.97 3583.59 2912.91 3589.77 2926 3592C2943.16 3593.74 2958.88 3590.68 2972.62 3579.71C2975.49 3577.35 2978.32 3574.94 2981.12 3572.49C2983.34 3570.57 2985.65 3568.76 2988 3567C2988 3589.11 2988 3611.22 2988 3634C2971.69 3640.99 2971.69 3640.99 2965.56 3642.69C2964.85 3642.89 2964.13 3643.09 2963.39 3643.29C2961.27 3643.88 2959.13 3644.44 2957 3645C2955.27 3645.48 2955.27 3645.48 2953.5 3645.98C2925.66 3652.75 2894.24 3647.61 2869.75 3633.08C2842.95 3616.47 2826.11 3591.9 2817.75 3561.81C2817.49 3560.89 2817.23 3559.96 2816.97 3559C2808.68 3528.07 2813.94 3493.56 2829.31 3465.75C2844.69 3440.78 2867.55 3420.11 2896.48 3412.81C2897.64 3412.54 2898.8 3412.27 2900 3412C2901.74 3411.55 2901.74 3411.55 2903.52 3411.1C2931.92 3404.65 2962.16 3410.08 2988 3423Z" fill="#ED3237"/>
<path d="M2049 3415C2072.76 3415 2096.52 3415 2121 3415C2125.62 3423.91 2130.24 3432.82 2135 3442C2141.44 3454.28 2141.44 3454.28 2147.95 3466.52C2148.95 3468.39 2149.94 3470.26 2150.94 3472.12C2151.4 3472.98 2151.86 3473.83 2152.33 3474.71C2155.14 3480.01 2157.3 3485.25 2159 3491C2159.27 3490.25 2159.53 3489.5 2159.81 3488.72C2163.25 3479.37 2167.56 3470.69 2172.19 3461.88C2172.95 3460.41 2173.71 3458.95 2174.47 3457.48C2176.31 3453.94 2178.16 3450.41 2180.02 3446.88C2181.39 3444.26 2182.76 3441.64 2184.12 3439.02C2188.34 3430.97 2192.65 3422.98 2197 3415C2220.76 3415 2244.52 3415 2269 3415C2265.54 3420.45 2265.54 3420.45 2262 3426C2260.29 3428.74 2260.29 3428.74 2258.59 3431.49C2252.2 3441.81 2245.53 3451.96 2238.88 3462.13C2235.99 3466.54 2233.12 3470.96 2230.25 3475.38C2229.72 3476.2 2229.18 3477.02 2228.63 3477.86C2225.25 3483.07 2221.87 3488.28 2218.5 3493.5C2214.48 3499.71 2210.46 3505.92 2206.44 3512.12C2205.94 3512.89 2205.45 3513.65 2204.94 3514.44C2204.44 3515.2 2203.95 3515.97 2203.43 3516.76C2202.94 3517.54 2202.45 3518.32 2201.94 3519.13C2200 3522 2200 3522 2197.52 3524.93C2188.27 3536.27 2188.61 3547.31 2188.8 3561.43C2188.8 3563.77 2188.79 3566.1 2188.78 3568.43C2188.76 3574.52 2188.8 3580.61 2188.85 3586.7C2188.9 3594.04 2188.87 3601.37 2188.86 3608.71C2188.85 3619.81 2188.93 3630.9 2189 3642C2169.2 3642 2149.4 3642 2129 3642C2129.04 3634.59 2129.09 3627.19 2129.13 3619.56C2129.14 3614.84 2129.14 3610.13 2129.13 3605.41C2129.12 3597.94 2129.12 3590.46 2129.18 3582.99C2129.23 3576.96 2129.23 3570.93 2129.2 3564.9C2129.2 3562.61 2129.21 3560.32 2129.24 3558.03C2129.44 3542.9 2127.85 3533.65 2118 3522C2116.83 3520.27 2115.68 3518.53 2114.57 3516.76C2114.07 3515.99 2113.57 3515.23 2113.06 3514.44C2112.56 3513.67 2112.07 3512.91 2111.56 3512.12C2111.02 3511.28 2110.47 3510.44 2109.91 3509.57C2105.99 3503.53 2102.07 3497.48 2098.16 3491.43C2094.62 3485.95 2091.06 3480.47 2087.5 3475C2083.45 3468.78 2079.41 3462.55 2075.38 3456.31C2074.93 3455.62 2074.48 3454.94 2074.03 3454.23C2071.76 3450.72 2069.49 3447.21 2067.22 3443.69C2066.29 3442.25 2065.37 3440.81 2064.44 3439.38C2063.76 3438.33 2063.76 3438.33 2063.08 3437.27C2059.45 3431.66 2055.75 3426.09 2052 3420.56C2049 3416.11 2049 3416.11 2049 3415Z" fill="#ED3237"/>
<path d="M2345 3415C2399.12 3415 2453.24 3415 2509 3415C2509 3432.82 2509 3450.64 2509 3469C2492.17 3469 2475.34 3469 2458 3469C2458 3526.09 2458 3583.18 2458 3642C2437.54 3642 2417.08 3642 2396 3642C2396 3584.91 2396 3527.82 2396 3469C2379.17 3469 2362.34 3469 2345 3469C2345 3451.18 2345 3433.36 2345 3415Z" fill="#ED3237"/>
<path d="M1852 3415C1872.46 3415 1892.92 3415 1914 3415C1914 3472.42 1914 3529.84 1914 3589C1939.41 3589 1964.82 3589 1991 3589C1991 3606.49 1991 3623.98 1991 3642C1945.13 3642 1899.26 3642 1852 3642C1852 3567.09 1852 3492.18 1852 3415Z" fill="#ED3237"/>
<path d="M2626 3415C2646.79 3415 2667.58 3415 2689 3415C2689 3489.91 2689 3564.82 2689 3642C2668.21 3642 2647.42 3642 2626 3642C2626 3567.09 2626 3492.18 2626 3415Z" fill="#ED3237"/>
<path d="M1629 3453C1631.35 3455.35 1631.57 3456.61 1632.32 3459.8C1632.57 3460.82 1632.82 3461.84 1633.08 3462.9C1633.49 3464.59 1633.49 3464.59 1633.91 3466.32C1636.76 3477.67 1640 3488.86 1643.5 3500.03C1643.74 3500.8 1643.98 3501.57 1644.22 3502.36C1645.95 3507.89 1647.69 3513.41 1649.44 3518.94C1651.21 3524.55 1652.97 3530.15 1654.72 3535.77C1655.42 3537.98 1656.12 3540.2 1656.83 3542.41C1657.25 3543.76 1657.67 3545.11 1658.09 3546.46C1658.46 3547.63 1658.83 3548.8 1659.21 3550.01C1660 3553 1660 3553 1660 3557C1639.87 3557 1619.74 3557 1599 3557C1599.73 3551.9 1600.55 3547.74 1602.05 3542.9C1602.26 3542.22 1602.47 3541.55 1602.68 3540.86C1603.13 3539.41 1603.58 3537.96 1604.03 3536.51C1604.75 3534.19 1605.46 3531.88 1606.17 3529.56C1607.69 3524.62 1609.22 3519.69 1610.75 3514.75C1612.75 3508.29 1614.75 3501.82 1616.73 3495.36C1616.97 3494.58 1617.21 3493.81 1617.46 3493.01C1620.57 3482.88 1623.55 3472.74 1626.11 3462.45C1626.94 3459.24 1627.91 3456.13 1629 3453Z" fill="#FDFBFB"/>
<path d="M959 3453C961.348 3455.35 961.567 3456.61 962.324 3459.8C962.575 3460.82 962.825 3461.84 963.082 3462.9C963.492 3464.59 963.492 3464.59 963.91 3466.32C966.757 3477.67 970 3488.86 973.496 3500.03C973.737 3500.8 973.977 3501.57 974.225 3502.36C975.953 3507.89 977.695 3513.41 979.438 3518.94C981.206 3524.55 982.97 3530.15 984.725 3535.77C985.42 3537.98 986.122 3540.2 986.825 3542.41C987.248 3543.76 987.67 3545.11 988.092 3546.46C988.461 3547.63 988.831 3548.8 989.212 3550.01C990 3553 990 3553 990 3557C969.87 3557 949.74 3557 929 3557C929.729 3551.9 930.554 3547.74 932.054 3542.9C932.26 3542.22 932.467 3541.55 932.68 3540.86C933.127 3539.41 933.576 3537.96 934.027 3536.51C934.748 3534.19 935.461 3531.88 936.174 3529.56C937.693 3524.62 939.222 3519.69 940.75 3514.75C942.75 3508.29 944.746 3501.82 946.734 3495.36C946.973 3494.58 947.212 3493.81 947.459 3493.01C950.572 3482.88 953.552 3472.74 956.106 3462.45C956.938 3459.24 957.91 3456.13 959 3453Z" fill="#FDFBFB"/>
</g>
<defs>
<clipPath id="clip0_608_196">
<rect width="4079" height="4079" fill="white"/>
</clipPath>
</defs>
</svg>
