<svg width="48" height="48" viewBox="0 0 48 48" fill="none" xmlns="http://www.w3.org/2000/svg">
<path d="M23.8572 27.0871C23.3952 27.1742 22.9331 27.3484 22.3941 27.6097C22.0091 27.871 21.624 28.1323 21.316 28.5677C21.008 29.0032 20.854 29.5258 20.931 30.1355C21.008 30.6581 21.316 31.1806 21.8551 31.529C22.3941 31.8774 22.9331 32.0516 23.6262 32.2258C23.7802 32.2258 23.9342 32.3129 24.0882 32.3129C23.9342 30.1355 23.8572 28.2194 23.8572 27.0871ZM27.3995 35.0129C27.1684 34.4903 26.7064 34.0548 26.1674 33.7065C25.7823 33.5323 25.3203 33.3581 24.8583 33.271C25.0123 35.1871 25.1663 36.8419 25.3203 37.8C25.6283 37.7129 25.9363 37.6258 26.3214 37.4516C26.7064 37.2774 27.0914 36.929 27.3225 36.4935C27.5535 36.0581 27.6305 35.4484 27.3995 35.0129ZM27.3995 35.0129C27.1684 34.4903 26.7064 34.0548 26.1674 33.7065C25.7823 33.5323 25.3203 33.3581 24.8583 33.271C25.0123 35.1871 25.1663 36.8419 25.3203 37.8C25.6283 37.7129 25.9363 37.6258 26.3214 37.4516C26.7064 37.2774 27.0914 36.929 27.3225 36.4935C27.5535 36.0581 27.6305 35.4484 27.3995 35.0129ZM22.3941 27.6097C22.0091 27.871 21.624 28.1323 21.316 28.5677C21.008 29.0032 20.854 29.5258 20.931 30.1355C21.008 30.6581 21.316 31.1806 21.8551 31.529C22.3941 31.8774 22.9331 32.0516 23.6262 32.2258C23.7802 32.2258 23.9342 32.3129 24.0882 32.3129C23.9342 30.2226 23.9342 28.2194 23.8572 27.1742C23.3952 27.1742 22.9331 27.3484 22.3941 27.6097ZM38.1802 29.2645C37.9492 28.1323 37.6412 27 37.1792 25.9548C36.3321 23.7774 35.023 21.6871 33.3289 20.0323C31.5578 18.3774 29.3246 17.2452 27.0914 16.8968C24.8583 16.5484 22.6251 16.8097 20.623 17.5935C16.6187 19.1613 13.6925 22.5581 11.9213 25.7806C11.0743 27.4355 10.4582 29.0903 10.1502 30.571C9.84219 32.1387 9.76518 33.5323 9.91919 34.6645C10.1502 37.0161 10.7663 38.4097 10.9203 38.9323C11.8443 41.371 13.3074 43.2871 14.4625 44.3323C15.3866 45.2032 16.1566 45.7258 16.3877 45.9H16.6187C16.6957 45.7258 17.6197 46.1613 19.0829 46.6839C20.546 47.2065 22.7021 47.9032 25.0893 47.9903C25.5513 47.9903 26.7834 48.0774 28.7085 47.729C30.5567 47.2935 33.0979 46.2484 35.177 43.6355C37.2562 41.1097 38.6423 37.0161 38.4883 32.5742C38.5653 31.529 38.4113 30.3968 38.1802 29.2645ZM33.2519 38.9323C31.7888 41.8065 28.9396 44.1581 25.5513 44.5065C24.7043 44.5936 23.7802 44.5065 22.9331 44.3323C22.0861 44.1581 21.239 43.8097 20.546 43.4613C19.0058 42.6774 17.6968 41.4581 16.6187 40.1516C14.5395 37.4516 13.6155 34.0548 13.8465 31.1806C13.9235 29.7 14.3085 28.3935 14.8475 27.3484C15.3096 26.3032 15.9256 25.4323 16.4647 24.8226C17.6197 23.5161 18.5438 22.9935 18.7748 22.8194C20.3149 21.8613 21.9321 21.4258 23.0101 21.2516C24.1652 21.0774 24.8583 21.1645 24.8583 21.3387C24.8583 21.5129 24.1652 21.6871 23.0871 22.0355C22.0091 22.3839 20.546 22.9065 19.1599 23.7774C18.9288 23.9516 18.0818 24.3871 17.1577 25.4323C16.2336 26.4774 15.0786 28.1323 14.6935 30.4839C14.3085 32.8355 14.7705 35.7968 16.3107 38.4097C17.7738 40.9355 20.469 43.2 23.5492 43.6355C25.1663 43.8968 26.7834 43.5484 28.1695 42.8516C29.6326 42.1548 30.7877 41.0226 31.7118 39.7161C33.5599 37.1032 34.1759 33.8806 34.1759 31.2677C34.1759 28.5677 33.3289 26.4774 32.4818 25.171C31.5578 23.8645 30.7877 23.3419 30.5567 23.0806C29.1706 22.0355 27.7845 21.5129 26.7064 21.3387C25.6283 21.1645 24.9353 21.1645 24.9353 21.0774C24.9353 20.9903 25.6283 20.6419 26.7834 20.6419C27.9385 20.6419 29.6326 21.0774 31.0957 22.2097C31.3267 22.471 32.1738 23.0806 33.0979 24.3C33.5599 24.9097 34.0219 25.7806 34.407 26.8258C34.792 27.871 35.023 29.0032 35.1 30.3097C35.254 32.9226 34.792 36.0581 33.2519 38.9323ZM24.7813 32.2258V32.4C25.0893 32.4871 25.3973 32.4871 25.7053 32.5742C26.4754 32.7484 27.1684 33.271 27.7075 33.8806C27.9385 34.229 28.1695 34.5774 28.2465 35.0129C28.3235 35.4484 28.3235 35.8839 28.1695 36.3194C27.9385 37.1032 27.3995 37.7129 26.9374 38.0613C26.3984 38.4097 25.8593 38.671 25.3973 38.7581C25.4743 39.5419 25.3203 40.1516 25.0893 40.1516C24.8583 40.2387 24.5502 39.629 24.4732 38.8452H24.1652C23.3952 38.7581 23.0101 38.5839 22.8561 38.4968C22.0861 38.1484 21.47 37.6258 21.162 37.1032C20.854 36.5806 20.777 36.2323 20.854 36.1452C21.085 35.971 21.8551 37.0161 23.1641 37.5387C23.3182 37.6258 23.6262 37.7129 24.1652 37.8H24.3962C24.3192 36.7548 24.1652 35.1 24.0112 33.0968C23.3182 33.0097 22.7021 32.9226 22.0091 32.6613C21.316 32.3129 20.623 31.7903 20.2379 31.0065C19.8529 30.2226 19.9299 29.1774 20.2379 28.4806C20.546 27.7839 21.085 27.2613 21.624 26.9129C22.3941 26.3903 23.1641 26.129 23.7802 26.0419C23.7802 25.2581 24.0112 24.5613 24.2422 24.6484C24.4732 24.6484 24.6273 25.2581 24.7043 25.9548C25.2433 25.9548 25.5513 25.9548 25.7053 26.0419C26.5524 26.2161 27.2454 26.6516 27.5535 27.0871C27.9385 27.5226 28.0155 27.9581 27.8615 28.0452C27.6305 28.2194 26.8604 27.2613 25.4743 27.0871C25.3973 27.0871 25.0893 27 24.6273 27C24.7043 28.0452 24.7043 29.9613 24.7813 32.2258ZM26.3214 37.4516C26.7064 37.2774 27.0914 36.929 27.3225 36.4935C27.5535 36.0581 27.6305 35.5355 27.4765 35.0129C27.2454 34.4903 26.7834 34.0548 26.2444 33.7065C25.8593 33.5323 25.3973 33.3581 24.9353 33.271C25.0893 35.1871 25.2433 36.8419 25.3973 37.8C25.6283 37.8 25.9363 37.6258 26.3214 37.4516ZM22.3941 27.6097C22.0091 27.871 21.624 28.1323 21.316 28.5677C21.008 29.0032 20.854 29.5258 20.931 30.1355C21.008 30.6581 21.316 31.1806 21.8551 31.529C22.3941 31.8774 22.9331 32.0516 23.6262 32.2258C23.7802 32.2258 23.9342 32.3129 24.0882 32.3129C23.9342 30.2226 23.9342 28.2194 23.8572 27.1742C23.3952 27.1742 22.9331 27.3484 22.3941 27.6097ZM47.9599 12.9774C48.114 13.2387 47.8059 13.6742 47.3439 14.1097C47.1899 14.2839 45.6498 15.329 43.9557 16.8968C42.1845 18.4645 40.7214 20.1194 40.5674 20.2935C40.1054 20.729 39.6433 20.9032 39.4893 20.729C39.3353 20.5548 39.4893 19.9452 39.9514 19.5097C40.1054 19.3355 41.4915 18.029 43.1856 16.4613C44.9567 14.8065 46.5738 13.4129 46.8049 13.3258C47.3439 12.8032 47.8059 12.7161 47.9599 12.9774ZM25.0893 0C25.3203 0 25.5513 0.435484 25.5513 1.04516C25.5513 1.21935 25.4743 3.04839 25.4743 5.22581C25.4743 7.49032 25.5513 9.49355 25.5513 9.66774C25.5513 10.2774 25.3203 10.7129 25.0893 10.7129C24.8583 10.7129 24.6273 10.2774 24.6273 9.66774C24.6273 9.49355 24.7043 7.66452 24.7043 5.4871C24.7043 3.22258 24.6273 1.21935 24.6273 0.958064C24.6273 0.435484 24.7813 0 25.0893 0ZM0.139487 12.9774C0.370504 12.8032 0.755531 12.9774 0.986548 13.4129C1.06355 13.5871 1.91061 14.8935 3.21971 16.2C4.5288 17.5935 5.99191 18.4645 6.06891 18.5516C6.45394 18.8129 6.68496 19.2484 6.53095 19.5097C6.37694 19.771 5.99191 19.771 5.52988 19.4226C5.37586 19.3355 4.14378 18.3774 2.83468 17.071C1.44858 15.6774 0.370504 14.2839 0.216493 14.1097C-0.0145241 13.5871 -0.0915297 13.0645 0.139487 12.9774Z" fill="#1E7AD0"/>
</svg>
