<svg width="48" height="48" viewBox="0 0 48 48" fill="none" xmlns="http://www.w3.org/2000/svg">
<g clip-path="url(#clip0_112_1481)">
<path d="M41.5269 6.1743L40.6869 5.80096C40.973 5.91173 41.2545 6.03481 41.5269 6.1743Z" stroke="white"/>
<path d="M11.7851 27.3518C11.9144 26.9825 12.0482 26.6174 12.1867 26.2523C12.6159 25.1405 13.1051 24.0451 13.6544 22.9702C14.259 21.7641 14.9375 20.5866 15.6898 19.4338C17.3328 16.9148 19.2621 14.5969 21.4867 12.48C23.7067 10.3589 26.079 8.65227 28.6082 7.35586C31.1236 6.06355 33.4913 5.3374 35.7113 5.16919H35.7298C37.5805 5.03381 39.2328 5.24304 40.6867 5.80099L41.5267 6.17432C43.1698 7.00714 44.4713 8.31176 45.4267 10.0841C46.3867 11.8605 46.8667 14.0348 46.8667 16.6112C46.8667 19.1877 46.3867 21.8543 45.4267 24.6112C44.4713 27.3723 43.1698 30.0102 41.5267 32.5292C39.8836 35.0482 37.9498 37.3661 35.7298 39.483C33.5052 41.6041 31.1328 43.3108 28.6082 44.6072C26.079 45.9036 23.7067 46.6297 21.4867 46.7938C19.9082 46.9087 18.4775 46.7733 17.1944 46.3877L17.1759 46.3795C16.8482 46.2851 16.5344 46.1703 16.2298 46.039L15.9436 45.9118C15.8605 45.8708 15.7728 45.8297 15.6898 45.7887C15.5098 45.6985 15.3344 45.6 15.1636 45.4933C14.0144 44.8123 13.0544 43.8769 12.2698 42.6913C12.099 42.4328 11.9375 42.1621 11.7851 41.879C10.8251 40.1025 10.3451 37.9282 10.3451 35.3518C10.3451 32.7753 10.8251 30.1087 11.7851 27.3518ZM21.8282 30.7856C22.179 30.9661 22.6128 30.921 23.1298 30.6543L28.9728 27.6553L27.3298 30.1743C26.9928 30.6912 26.8267 31.2082 26.8267 31.7374C26.8267 32.2666 26.9928 32.6153 27.3298 32.7835C27.6621 32.9518 28.0913 32.9066 28.6082 32.64C29.1252 32.3733 29.5498 31.9835 29.8867 31.4707L34.6313 24.1928C34.9959 23.6348 35.1805 23.1056 35.1805 22.6092C35.1805 22.1128 34.9959 21.7723 34.6313 21.5877L29.8867 19.1794C29.5498 19.0112 29.1252 19.0564 28.6082 19.323C28.0913 19.5897 27.6621 19.9794 27.3298 20.4923C26.9928 21.0051 26.8267 21.5261 26.8267 22.0512C26.8267 22.5764 26.9928 22.9292 27.3298 23.0974L28.9728 23.9302L25.0821 25.9282L23.1298 26.9292C22.6128 27.1959 22.179 27.5979 21.8282 28.1353C21.4775 28.6687 21.3021 29.202 21.3021 29.7312C21.3021 30.2605 21.4775 30.6092 21.8282 30.7856Z" fill="#1E7AD0" stroke="white"/>
<path d="M1.1148 31.2492C1.1148 33.8256 1.5948 36 2.5547 37.7764C3.5147 39.5487 4.81624 40.8533 6.45932 41.6862C6.56086 41.7395 6.65778 41.7846 6.76394 41.8339L6.99471 41.9364L15.9439 45.9118C15.8609 45.8708 15.7732 45.8298 15.6901 45.7887C15.5101 45.6985 15.3347 45.6 15.1639 45.4933C14.0147 44.8123 13.0547 43.8769 12.2701 42.6913C12.0993 42.4328 11.9378 42.1621 11.7855 41.879C10.8255 40.1025 10.3455 37.9282 10.3455 35.3518C10.3455 32.7753 10.8255 30.1087 11.7855 27.3518C11.9147 26.9825 12.0485 26.6174 12.187 26.2523C12.6162 25.1405 13.1055 24.0451 13.6547 22.9702C14.2593 21.7641 14.9378 20.5866 15.6901 19.4338C17.3332 16.9148 19.2624 14.5969 21.487 12.48C23.707 10.3589 26.0793 8.65227 28.6085 7.35586C31.1239 6.06355 33.4916 5.3374 35.7116 5.16919H35.7301C37.5809 5.03381 39.2332 5.24304 40.687 5.80099L32.2962 2.07174C30.6532 1.23892 28.7193 0.906614 26.4993 1.06661C24.2747 1.23072 21.9024 1.95687 19.3778 3.25328C16.8485 4.54971 14.4762 6.25637 12.2562 8.3774C10.0316 10.4943 8.10239 12.8123 6.45932 15.3312C4.81624 17.8502 3.5147 20.4923 2.5547 23.2492C1.5948 26.0061 1.1148 28.6728 1.1148 31.2492Z" fill="#B9D6F0" stroke="white"/>
<path d="M16.2298 46.039L16.3682 46.1005" stroke="white"/>
</g>
<defs>
<clipPath id="clip0_112_1481">
<rect width="48" height="48" fill="white" transform="matrix(-1 0 0 1 48 0)"/>
</clipPath>
</defs>
</svg>
