<svg width="32" height="33" viewBox="0 0 32 33" fill="none" xmlns="http://www.w3.org/2000/svg">
<g clip-path="url(#clip0_129_1426)">
<rect width="32" height="32" transform="translate(0 0.5)" fill="url(#paint0_linear_129_1426)"/>
<path d="M24.3998 20.5C22.1998 20.3 20.9998 23.3 19.3998 24.1C16.7998 25.5 11.9998 20.5 11.9998 20.5C11.9998 20.5 6.99978 15.7 8.19978 13.1C9.19978 11.5 12.1998 10.3 11.9998 8.09999C11.7998 6.09999 7.39978 -1.10001 5.19978 0.899995C0.399782 5.29999 -0.000217788 7.09999 -0.000217788 10.7C-0.200218 16.9 7.79978 24.7 7.79978 24.7C8.59978 25.5 15.5998 32.7 21.7998 32.5C25.3998 32.5 27.1998 32.1 31.5998 27.3C33.5998 25.1 26.5998 20.7 24.3998 20.5Z" fill="#F4FAFE"/>
</g>
<defs>
<linearGradient id="paint0_linear_129_1426" x1="16" y1="0" x2="16" y2="32" gradientUnits="userSpaceOnUse">
<stop stop-color="#EF497A"/>
<stop offset="1" stop-color="#1E7AD0"/>
</linearGradient>
<clipPath id="clip0_129_1426">
<rect width="32" height="32" fill="white" transform="translate(0 0.5)"/>
</clipPath>
</defs>
</svg>
