<svg width="48" height="48" viewBox="0 0 48 48" fill="none" xmlns="http://www.w3.org/2000/svg">
<g clip-path="url(#clip0_112_1476)">
<path d="M6.47314 6.1743L7.31314 5.80096C7.02699 5.91173 6.74545 6.03481 6.47314 6.1743Z" stroke="white"/>
<path d="M36.2149 27.3518C36.0856 26.9825 35.9518 26.6174 35.8133 26.2523C35.3841 25.1405 34.8949 24.0451 34.3456 22.9702C33.741 21.7641 33.0625 20.5866 32.3102 19.4338C30.6672 16.9148 28.7379 14.5969 26.5133 12.48C24.2933 10.3589 21.921 8.65227 19.3918 7.35586C16.8764 6.06355 14.5087 5.3374 12.2887 5.16919H12.2702C10.4195 5.03381 8.76716 5.24304 7.31331 5.80099L6.47331 6.17432C4.83023 7.00714 3.52869 8.31176 2.57331 10.0841C1.61331 11.8605 1.1333 14.0348 1.1333 16.6112C1.1333 19.1877 1.61331 21.8543 2.57331 24.6112C3.52869 27.3723 4.83023 30.0102 6.47331 32.5292C8.11639 35.0482 10.0502 37.3661 12.2702 39.483C14.4948 41.6041 16.8672 43.3108 19.3918 44.6072C21.921 45.9036 24.2933 46.6297 26.5133 46.7938C28.0918 46.9087 29.5225 46.7733 30.8056 46.3877L30.8241 46.3795C31.1518 46.2851 31.4656 46.1703 31.7702 46.039L32.0564 45.9118C32.1395 45.8708 32.2272 45.8297 32.3102 45.7887C32.4902 45.6985 32.6656 45.6 32.8364 45.4933C33.9856 44.8123 34.9456 43.8769 35.7302 42.6913C35.901 42.4328 36.0625 42.1621 36.2149 41.879C37.1749 40.1025 37.6549 37.9282 37.6549 35.3518C37.6549 32.7753 37.1749 30.1087 36.2149 27.3518ZM26.1718 30.7856C25.821 30.9661 25.3872 30.921 24.8702 30.6543L19.0272 27.6553L20.6702 30.1743C21.0072 30.6912 21.1733 31.2082 21.1733 31.7374C21.1733 32.2666 21.0072 32.6153 20.6702 32.7835C20.3379 32.9518 19.9087 32.9066 19.3918 32.64C18.8748 32.3733 18.4502 31.9835 18.1133 31.4707L13.3687 24.1928C13.0041 23.6348 12.8195 23.1056 12.8195 22.6092C12.8195 22.1128 13.0041 21.7723 13.3687 21.5877L18.1133 19.1794C18.4502 19.0112 18.8748 19.0564 19.3918 19.323C19.9087 19.5897 20.3379 19.9794 20.6702 20.4923C21.0072 21.0051 21.1733 21.5261 21.1733 22.0512C21.1733 22.5764 21.0072 22.9292 20.6702 23.0974L19.0272 23.9302L22.9179 25.9282L24.8702 26.9292C25.3872 27.1959 25.821 27.5979 26.1718 28.1353C26.5225 28.6687 26.6979 29.202 26.6979 29.7312C26.6979 30.2605 26.5225 30.6092 26.1718 30.7856Z" fill="#1E7AD0" stroke="white"/>
<path d="M46.8852 31.2492C46.8852 33.8256 46.4052 36 45.4453 37.7764C44.4853 39.5487 43.1838 40.8533 41.5407 41.6862C41.4391 41.7395 41.3422 41.7846 41.2361 41.8339L41.0053 41.9364L32.0561 45.9118C32.1391 45.8708 32.2268 45.8298 32.3099 45.7887C32.4899 45.6985 32.6653 45.6 32.8361 45.4933C33.9853 44.8123 34.9453 43.8769 35.7299 42.6913C35.9007 42.4328 36.0622 42.1621 36.2145 41.879C37.1745 40.1025 37.6545 37.9282 37.6545 35.3518C37.6545 32.7753 37.1745 30.1087 36.2145 27.3518C36.0853 26.9825 35.9515 26.6174 35.813 26.2523C35.3838 25.1405 34.8945 24.0451 34.3453 22.9702C33.7407 21.7641 33.0622 20.5866 32.3099 19.4338C30.6668 16.9148 28.7376 14.5969 26.513 12.48C24.293 10.3589 21.9207 8.65227 19.3915 7.35586C16.8761 6.06355 14.5084 5.3374 12.2884 5.16919H12.2699C10.4191 5.03381 8.76683 5.24304 7.31299 5.80099L15.7038 2.07174C17.3468 1.23892 19.2807 0.906614 21.5007 1.06661C23.7253 1.23072 26.0976 1.95687 28.6222 3.25328C31.1515 4.54971 33.5238 6.25637 35.7438 8.3774C37.9684 10.4943 39.8976 12.8123 41.5407 15.3312C43.1838 17.8502 44.4853 20.4923 45.4453 23.2492C46.4052 26.0061 46.8852 28.6728 46.8852 31.2492Z" fill="#B9D6F0" stroke="white"/>
<path d="M31.7702 46.039L31.6318 46.1005" stroke="white"/>
</g>
<defs>
<clipPath id="clip0_112_1476">
<rect width="48" height="48" fill="white"/>
</clipPath>
</defs>
</svg>
