<svg width="48" height="48" viewBox="0 0 48 48" fill="none" xmlns="http://www.w3.org/2000/svg">
<path d="M31.3242 24H38.6484V29.8594C38.6484 33.0912 36.0209 35.7188 32.7891 35.7188H32.0567C31.7679 35.7181 31.4819 35.7744 31.215 35.8846C30.9481 35.9948 30.7056 36.1566 30.5014 36.3608C30.2972 36.565 30.1354 36.8075 30.0252 37.0744C29.915 37.3413 29.8587 37.6273 29.8594 37.9161V42.3106C29.8587 42.5993 29.915 42.8854 30.0252 43.1523C30.1354 43.4192 30.2972 43.6617 30.5014 43.8659C30.7056 44.07 30.9481 44.2319 31.215 44.3421C31.4819 44.4522 31.7679 44.5086 32.0567 44.5079H32.7891C40.8823 44.5079 47.4375 37.9527 47.4375 29.8595V7.88672C47.4375 5.46056 45.4691 3.49219 43.043 3.49219H31.3242C28.8981 3.49219 26.9297 5.46056 26.9297 7.88672V19.6055C26.9297 22.0316 28.8981 24 31.3242 24ZM4.95703 24H12.2812V29.8594C12.2812 33.0912 9.65372 35.7188 6.42188 35.7188H5.6895C5.40075 35.7181 5.11471 35.7744 4.84781 35.8846C4.5809 35.9948 4.3384 36.1566 4.13422 36.3608C3.93004 36.565 3.76822 36.8075 3.65804 37.0744C3.54786 37.3413 3.4915 37.6273 3.49219 37.9161V42.3106C3.4915 42.5993 3.54786 42.8854 3.65804 43.1523C3.76822 43.4192 3.93004 43.6617 4.13422 43.8659C4.3384 44.07 4.5809 44.2319 4.84781 44.3421C5.11471 44.4522 5.40075 44.5086 5.6895 44.5079H6.42188C14.5151 44.5079 21.0703 37.9527 21.0703 29.8595V7.88672C21.0703 5.46056 19.1019 3.49219 16.6758 3.49219H4.95703C2.53087 3.49219 0.5625 5.46056 0.5625 7.88672V19.6055C0.5625 22.0316 2.53087 24 4.95703 24Z" fill="#077158"/>
</svg>
