<svg width="375" height="503" viewBox="0 0 375 503" fill="none" xmlns="http://www.w3.org/2000/svg">
<path d="M-22.7058 283.006C-23.2493 282.429 -23.7821 281.828 -24.2891 281.218L-20.0551 277.698C-19.5025 278.364 -18.9191 279.01 -18.3159 279.63C-16.8102 281.174 -15.1576 282.606 -13.4019 283.888L-16.6487 288.335C-18.6523 286.873 -20.5388 285.237 -22.2561 283.477C-22.4065 283.322 -22.5564 283.164 -22.7058 283.006ZM-31.7783 267.508C-32.8373 264.272 -33.5491 260.858 -33.8959 257.36L-28.4165 256.818C-28.1096 259.918 -27.4801 262.94 -26.5454 265.796L-31.7783 267.508ZM-2.78513 295.278L-1.13148 290.027C1.75739 290.936 4.80164 291.579 7.91712 291.935L7.29091 297.406C3.8278 297.009 0.437751 296.294 -2.78513 295.278ZM-33.0506 241.914C-32.3289 238.478 -31.2562 235.16 -29.8626 232.053L-24.8385 234.305C-26.0715 237.055 -27.0214 239.995 -27.6621 243.046L-33.0506 241.914ZM22.649 297.125L21.8411 291.679C24.9147 291.223 27.9652 290.504 30.9074 289.542L32.6183 294.776C29.382 295.834 26.0281 296.624 22.649 297.125ZM125.636 384.709C124.39 383.387 123.202 381.99 122.106 380.553L126.482 377.212C128.341 379.647 130.482 381.941 132.78 383.966L129.139 388.096C127.928 387.028 126.749 385.889 125.636 384.709ZM142.166 396.452L144.365 391.405C147.239 392.657 150.165 393.532 153.062 394.007L152.174 399.44C148.825 398.893 145.458 397.887 142.166 396.452ZM114.741 366.909C113.588 363.537 112.867 360.095 112.599 356.68L118.088 356.249C118.32 359.205 118.947 362.192 119.951 365.128L114.741 366.909ZM-20.9801 219.192C-20.8513 219.067 -20.7217 218.943 -20.5913 218.821C-18.1195 216.49 -15.3672 214.537 -12.412 213.017L-9.89317 217.912C-12.3896 219.197 -14.7185 220.85 -16.8146 222.826C-16.9259 222.931 -17.0363 223.037 -17.1463 223.143L-20.9801 219.192ZM46.4772 288.126L43.4471 283.529C45.7619 282.004 47.9312 280.291 49.8942 278.441C50.143 278.206 50.3889 277.969 50.6318 277.729L54.4976 281.65C54.2248 281.919 53.9495 282.184 53.6713 282.447C51.4778 284.515 49.0568 286.426 46.4772 288.126ZM167.945 398.477L166.328 393.213C168.353 392.591 170.32 391.722 172.175 390.63C172.929 390.185 173.684 389.723 174.418 389.253L177.383 393.894C176.592 394.399 175.78 394.897 174.968 395.375C172.743 396.685 170.38 397.728 167.945 398.477ZM114.051 341.238C114.876 337.963 116.034 334.701 117.493 331.546L122.491 333.856C121.175 336.702 120.132 339.638 119.392 342.582L114.051 341.238ZM-74.0884 140.912L-74.1653 135.407C-70.7939 135.359 -67.4765 135.355 -64.305 135.395L-64.3727 140.901C-67.4966 140.862 -70.7655 140.866 -74.0884 140.912ZM3.4468 212.911L1.70842 207.686C4.83993 206.644 8.01331 205.65 11.1416 204.731L12.6935 210.013C9.62758 210.915 6.51626 211.889 3.4468 212.911ZM59.1868 266.733C60.751 264.094 62.1346 261.271 63.298 258.341L68.4151 260.373C67.1452 263.57 65.6341 266.654 63.9232 269.54L59.1868 266.733ZM-49.8356 141.426L-49.4956 135.931C-46.1424 136.139 -42.8241 136.41 -39.6306 136.735L-40.1895 142.213C-43.31 141.894 -46.5559 141.63 -49.8356 141.426ZM125.607 318.558C127.637 316.033 129.899 313.59 132.331 311.298L132.531 311.11L136.294 315.129L136.108 315.304C133.859 317.424 131.771 319.678 129.899 322.007L125.607 318.558ZM185.544 380.534C187.802 378.391 189.97 376.066 191.989 373.624L196.232 377.133C194.073 379.745 191.752 382.233 189.335 384.527L185.544 380.534ZM26.7409 206.312L25.4904 200.95C28.7156 200.198 31.9731 199.506 35.1742 198.893L36.2087 204.302C33.0794 204.899 29.8942 205.576 26.7409 206.312ZM67.0363 244.78C67.5432 241.715 67.8502 238.562 67.9496 235.407L73.4529 235.579C73.3465 238.976 73.0153 242.374 72.4689 245.678L67.0363 244.78ZM-25.8375 144.173L-24.8941 138.749C-21.5843 139.324 -18.3068 139.985 -15.1529 140.713L-16.3906 146.078C-19.4469 145.373 -22.6254 144.732 -25.8375 144.173ZM-2.5008 149.955L-0.769514 144.728C1.85695 145.598 4.46345 146.543 6.97676 147.538C7.5145 147.751 8.05298 147.968 8.58919 148.189L6.49698 153.281C5.98257 153.07 5.46767 152.862 4.95088 152.658C2.53427 151.701 0.0270985 150.792 -2.5008 149.955ZM67.0303 221.303C66.5262 218.196 65.8182 215.105 64.9242 212.116L70.1999 210.539C71.1608 213.755 71.9229 217.08 72.4651 220.421L67.0303 221.303ZM147.502 306.52L144.574 301.857C147.419 300.071 150.407 298.44 153.456 297.01L155.795 301.995C152.948 303.33 150.158 304.853 147.502 306.52ZM200.072 361.947C201.632 359.237 203.077 356.387 204.368 353.477L209.401 355.709C208.032 358.795 206.498 361.819 204.843 364.694L200.072 361.947ZM50.5343 202.026L49.8486 196.563C52.4731 196.233 55.1136 195.95 57.7232 195.718C56.7722 194.093 55.7603 192.488 54.6947 190.92L59.2502 187.826C61.1529 190.628 62.9 193.542 64.4419 196.486L59.9717 198.828L60.1472 201.039C56.9797 201.291 53.7453 201.623 50.5343 202.026ZM19.4266 159.505L22.1047 154.694C25.0304 156.323 27.9047 158.079 30.6473 159.914L27.585 164.49C24.9667 162.737 22.2216 161.06 19.4266 159.505ZM38.937 173.203L42.5733 169.068C45.05 171.246 47.4277 173.541 49.6402 175.888L49.7922 176.049L45.786 179.826L45.6341 179.665C43.5391 177.443 41.2851 175.269 38.937 173.203ZM74.6107 200.42L74.5793 194.914C77.8936 194.895 81.234 194.962 84.5083 195.114L84.2533 200.614C81.0733 200.466 77.8294 200.401 74.6107 200.42ZM209.149 340.043C209.983 337.004 210.682 333.876 211.225 330.748L216.65 331.69C216.076 334.991 215.339 338.292 214.458 341.5L209.149 340.043ZM169.104 297.2L167.736 291.866C168.114 291.769 168.491 291.676 168.869 291.586C171.71 290.904 174.652 290.335 177.611 289.895L178.42 295.341C175.62 295.758 172.839 296.295 170.153 296.94C169.802 297.024 169.453 297.111 169.104 297.2ZM98.6436 201.881L99.3577 196.422C102.652 196.853 105.956 197.383 109.178 197.998L108.145 203.406C105.028 202.811 101.831 202.298 98.6436 201.881ZM212.656 316.541C212.748 313.368 212.687 310.165 212.475 307.023L217.968 306.652C218.193 309.971 218.257 313.352 218.16 316.701L212.656 316.541ZM192.682 294.205L192.595 288.699C195.828 288.649 199.188 288.724 202.581 288.922L202.26 294.418C199.002 294.228 195.78 294.156 192.682 294.205ZM122.159 206.765L123.705 201.48C126.878 202.408 130.065 203.459 133.177 204.603L131.277 209.771C128.281 208.67 125.214 207.659 122.159 206.765ZM210.46 292.911C209.773 289.805 208.921 286.727 207.929 283.762L213.151 282.014C214.204 285.162 215.108 288.427 215.836 291.721L210.46 292.911ZM216.61 295.932L217.42 290.486C220.554 290.953 223.841 291.523 227.189 292.18L226.128 297.583C222.863 296.941 219.66 296.386 216.61 295.932ZM144.527 215.411L146.935 210.46C149.921 211.912 152.887 213.482 155.751 215.124L153.013 219.9C150.256 218.32 147.401 216.81 144.527 215.411ZM202.429 270.582C201.022 267.772 199.457 264.97 197.777 262.255L202.46 259.36C204.225 262.214 205.871 265.16 207.352 268.115L202.429 270.582ZM165.11 227.694L168.33 223.228C171.033 225.177 173.686 227.238 176.215 229.353L172.682 233.577C170.254 231.545 167.707 229.566 165.11 227.694ZM189.478 250.582C187.61 248.275 185.618 245.997 183.556 243.811L183.166 243.399L187.148 239.597L187.567 240.039C189.717 242.32 191.802 244.702 193.756 247.115L189.478 250.582ZM240.315 300.776L241.652 295.434C244.655 296.186 247.772 297.006 251.181 297.942L249.723 303.252C246.355 302.327 243.278 301.517 240.315 300.776ZM263.866 307.187L265.323 301.877C268.537 302.758 271.67 303.605 274.747 304.422L273.335 309.743C270.244 308.923 267.096 308.073 263.866 307.187ZM287.588 313.418L288.923 308.077C292.084 308.866 295.273 309.645 298.399 310.39L297.123 315.745C293.977 314.996 290.769 314.213 287.588 313.418ZM311.468 319.045L312.662 313.67C315.739 314.353 318.948 315.05 322.199 315.741L321.055 321.126C317.788 320.432 314.562 319.732 311.468 319.045Z" fill="url(#paint0_linear_401_1825)"/>
<path d="M297.774 357.88L295.153 351.023L354.339 328.401L320.071 276.646L326.192 272.594L365.518 331.988L297.774 357.88Z" fill="url(#paint1_linear_401_1825)"/>
<defs>
<linearGradient id="paint0_linear_401_1825" x1="235.798" y1="273.234" x2="-46.8562" y2="239.391" gradientUnits="userSpaceOnUse">
<stop stop-color="#ED3237"/>
<stop offset="1" stop-color="#1E7AD0"/>
</linearGradient>
<linearGradient id="paint1_linear_401_1825" x1="354.586" y1="319.736" x2="299.612" y2="295.576" gradientUnits="userSpaceOnUse">
<stop stop-color="#ED3237"/>
<stop offset="1" stop-color="#1E7AD0"/>
</linearGradient>
</defs>
</svg>
