<svg width="80" height="80" viewBox="0 0 80 80" fill="none" xmlns="http://www.w3.org/2000/svg">
<path d="M58.7192 12.6108H21.1494C16.4204 12.6108 12.6108 16.4204 12.6108 21.1494V58.7192C12.6108 63.4483 16.4204 67.2578 21.1494 67.2578H58.7192C63.4483 67.2578 67.2578 63.4483 67.2578 58.7192V21.1494C67.3892 16.4204 63.4483 12.6108 58.7192 12.6108ZM62.6601 58.7192C62.6601 60.821 60.9524 62.6601 58.7192 62.6601H21.1494C19.0476 62.6601 17.2085 60.9524 17.2085 58.7192V21.1494C17.2085 19.0476 18.9163 17.2085 21.1494 17.2085H58.7192C60.821 17.2085 62.6601 18.9163 62.6601 21.1494V58.7192ZM14.844 11.0345C16.1576 11.0345 17.2085 9.98358 17.2085 8.66995V2.36453C17.2085 1.0509 16.1576 0 14.844 0C13.5304 0 12.4795 1.0509 12.4795 2.36453V8.66995C12.6108 9.98358 13.6617 11.0345 14.844 11.0345ZM8.66995 12.6108H2.36453C1.0509 12.6108 0 13.6617 0 14.9754C0 16.289 1.0509 17.3399 2.36453 17.3399H8.66995C9.98358 17.3399 11.0345 16.289 11.0345 14.9754C10.9031 13.6617 9.85222 12.6108 8.66995 12.6108ZM65.0246 68.9655C63.711 68.9655 62.6601 70.0164 62.6601 71.3301V77.6355C62.6601 78.9491 63.711 80 65.0246 80C66.3383 80 67.3892 78.9491 67.3892 77.6355V71.3301C67.3892 70.0164 66.3383 68.9655 65.0246 68.9655ZM77.5041 62.6601H71.1987C69.8851 62.6601 68.8342 63.711 68.8342 65.0246C68.8342 66.3383 69.8851 67.3892 71.1987 67.3892H77.5041C78.8177 67.3892 79.8686 66.3383 79.8686 65.0246C79.8686 63.711 78.8177 62.6601 77.5041 62.6601ZM71.33 17.3399H77.6355C78.9491 17.3399 80 16.289 80 14.9754C80 13.6617 78.9491 12.6108 77.6355 12.6108H71.33C70.0164 12.6108 68.9655 13.6617 68.9655 14.9754C68.9655 16.289 70.0164 17.3399 71.33 17.3399ZM65.0246 0.131363C63.711 0.131363 62.6601 1.18227 62.6601 2.49589V8.80131C62.6601 10.1149 63.711 11.1658 65.0246 11.1658C66.3383 11.1658 67.3892 10.1149 67.3892 8.80131V2.36453C67.3892 1.0509 66.3383 0.131363 65.0246 0.131363ZM8.66995 62.6601H2.36453C1.0509 62.6601 0 63.711 0 65.0246C0 66.3383 1.0509 67.3892 2.36453 67.3892H8.66995C9.98358 67.3892 11.0345 66.3383 11.0345 65.0246C10.9031 63.711 9.85222 62.6601 8.66995 62.6601ZM14.844 68.9655C13.5304 68.9655 12.4795 70.0164 12.4795 71.3301V77.6355C12.4795 78.9491 13.5304 80 14.844 80C16.1576 80 17.2085 78.9491 17.2085 77.6355V71.3301C17.2085 70.0164 16.1576 68.9655 14.844 68.9655Z" fill="url(#paint0_linear_112_1465)"/>
<defs>
<linearGradient id="paint0_linear_112_1465" x1="40" y1="5.50447e-07" x2="21.5301" y2="80" gradientUnits="userSpaceOnUse">
<stop stop-color="#150E42"/>
<stop offset="1" stop-color="#E23739"/>
</linearGradient>
</defs>
</svg>
