<svg width="80" height="80" viewBox="0 0 80 80" fill="none" xmlns="http://www.w3.org/2000/svg">
<g clip-path="url(#clip0_112_1466)">
<path d="M10.4155 45.5973V76.6237C10.4155 77.4043 9.78273 78.0371 9.00211 78.0371H3.37633C2.5957 78.0371 1.96289 77.4043 1.96289 76.6237V45.5973C1.96289 44.8167 2.5957 44.1838 3.37633 44.1838H9.00211C9.78273 44.1838 10.4155 44.8167 10.4155 45.5973ZM44.2265 45.5973V76.6237C44.2265 77.4043 43.5937 78.0371 42.813 78.0371H37.1873C36.4066 78.0371 35.7738 77.4043 35.7738 76.6237V45.5973C35.7738 44.8167 36.4066 44.1838 37.1873 44.1838H42.813C43.5937 44.1838 44.2265 44.8167 44.2265 45.5973ZM78.0374 36.5553V76.6237C78.0374 77.4043 77.4046 78.0371 76.624 78.0371H70.9982C70.2176 78.0371 69.5848 77.4043 69.5848 76.6237V36.5553C69.5848 35.7746 70.2176 35.1418 70.9982 35.1418H76.624C77.4044 35.1418 78.0374 35.7746 78.0374 36.5553Z" fill="#FEFFFF"/>
<path d="M27.3208 54.965V76.6238C27.3208 77.4044 26.688 78.0372 25.9074 78.0372H20.2816C19.501 78.0372 18.8682 77.4044 18.8682 76.6238V54.965C18.8682 54.1844 19.501 53.5516 20.2816 53.5516H25.9074C26.688 53.5516 27.3208 54.1844 27.3208 54.965ZM61.1318 50.8219V76.6238C61.1318 77.4044 60.4989 78.0372 59.7183 78.0372H54.0925C53.3119 78.0372 52.6791 77.4044 52.6791 76.6238V50.8219C52.6791 50.0413 53.3119 49.4085 54.0925 49.4085H59.7183C60.4988 49.4083 61.1318 50.0413 61.1318 50.8219Z" fill="url(#paint0_linear_112_1466)"/>
<path d="M38.231 15.5115C38.231 22.9998 32.1565 29.0604 24.668 29.0604C17.1938 29.0604 11.1191 22.9998 11.1191 15.5115C11.1191 8.02326 17.1938 1.96263 24.668 1.96263C32.1565 1.96279 38.231 8.02326 38.231 15.5115Z" fill="#FEFFFF"/>
<path d="M9.00256 42.9573H3.37678C1.92084 42.9573 0.73584 44.1412 0.73584 45.597V76.6232C0.73584 78.0792 1.92084 79.2642 3.37678 79.2642H9.00256C10.4585 79.2642 11.6422 78.0792 11.6422 76.6232V45.597C11.6422 44.141 10.4583 42.9573 9.00256 42.9573ZM9.18818 76.6232C9.18818 76.7263 9.10428 76.8101 9.0024 76.8101H3.37678C3.27365 76.8101 3.1899 76.7262 3.1899 76.6232V45.597C3.1899 45.4951 3.27381 45.4112 3.37678 45.4112H9.00256C9.10443 45.4112 9.18834 45.4951 9.18834 45.597L9.18818 76.6232ZM25.9074 52.324H20.2816C18.8257 52.324 17.6407 53.509 17.6407 54.9649V76.6234C17.6407 78.0793 18.8257 79.2643 20.2816 79.2643H25.9074C27.3633 79.2643 28.5483 78.0793 28.5483 76.6234V54.9649C28.5483 53.509 27.3633 52.324 25.9074 52.324ZM26.0944 76.6232C26.0944 76.7263 26.0105 76.8101 25.9076 76.8101H20.2818C20.1786 76.8101 20.0949 76.7262 20.0949 76.6232V54.9649C20.0949 54.8618 20.1788 54.7781 20.2818 54.7781H25.9076C26.0107 54.7781 26.0944 54.862 26.0944 54.9649V76.6232ZM42.8124 42.9573H37.1879C35.7319 42.9573 34.5469 44.1412 34.5469 45.597V76.6232C34.5469 78.0792 35.7319 79.2642 37.1879 79.2642H42.8124C44.2683 79.2642 45.4533 78.0792 45.4533 76.6232V45.597C45.4533 44.141 44.2682 42.9573 42.8124 42.9573ZM42.9993 76.6232C42.9993 76.7263 42.9154 76.8101 42.8124 76.8101H37.1879C37.0847 76.8101 37.001 76.7262 37.001 76.6232V45.597C37.001 45.4951 37.0849 45.4112 37.1879 45.4112H42.8124C42.9155 45.4112 42.9993 45.4951 42.9993 45.597V76.6232ZM59.7185 48.1817H54.0927C52.6368 48.1817 51.4518 49.3656 51.4518 50.8213V76.6232C51.4518 78.0792 52.6368 79.2642 54.0927 79.2642H59.7185C61.1744 79.2642 62.3594 78.0792 62.3594 76.6232V50.8213C62.3594 49.3654 61.1743 48.1817 59.7185 48.1817ZM59.9054 76.6232C59.9054 76.7263 59.8215 76.8101 59.7185 76.8101H54.0927C53.9896 76.8101 53.9058 76.7262 53.9058 76.6232V50.8213C53.9058 50.7195 53.9897 50.6356 54.0927 50.6356H59.7185C59.8216 50.6356 59.9054 50.7195 59.9054 50.8213V76.6232ZM76.6233 33.9153H70.9976C69.5416 33.9153 68.3579 35.0992 68.3579 36.5549V76.6232C68.3579 78.0792 69.5418 79.2642 70.9976 79.2642H76.6233C78.0793 79.2642 79.2643 78.0792 79.2643 76.6232V36.5549C79.2643 35.0992 78.0793 33.9153 76.6233 33.9153ZM76.8104 76.6232C76.8104 76.7263 76.7265 76.8101 76.6235 76.8101H70.9977C70.8958 76.8101 70.8119 76.7262 70.8119 76.6232V36.5549C70.8119 36.4531 70.8958 36.3692 70.9977 36.3692H76.6235C76.7266 36.3692 76.8104 36.4531 76.8104 36.5549V76.6232Z" fill="url(#paint1_linear_112_1466)"/>
<path d="M22.3688 46.5305C22.7966 46.8465 23.3883 46.8503 23.8211 46.5305L40.1521 34.5384L56.4063 41.7639C56.9083 41.9844 57.4991 41.8478 57.8514 41.4236L72.5858 23.5844L72.585 27.2903C72.585 27.9673 73.1338 28.5173 73.8121 28.5173C74.4891 28.5173 75.0391 27.9686 75.0391 27.2903L75.0403 20.1762C75.0403 19.5206 74.4288 18.873 73.6742 18.958C73.6735 18.958 73.6727 18.9576 73.6719 18.9576L66.595 19.7797C65.9216 19.8575 65.4399 20.4662 65.5178 21.1397C65.5957 21.8131 66.2033 22.3067 66.8778 22.2169L70.9193 21.7478L56.5525 39.1434L40.4983 32.0064C40.0969 31.829 39.6296 31.877 39.2736 32.1394L23.0949 44.02L6.91503 32.1395C6.36628 31.7381 5.5994 31.8567 5.20034 32.4019C4.79894 32.9483 4.91628 33.7164 5.46269 34.1165L22.3688 46.5305Z" fill="url(#paint2_linear_112_1466)"/>
<path d="M24.6682 30.287C32.8235 30.287 39.4582 23.6582 39.4582 15.5114C39.4582 7.36448 32.8235 0.735733 24.6682 0.735733C16.5213 0.735733 9.89258 7.36448 9.89258 15.5114C9.89258 23.6582 16.5212 30.287 24.6682 30.287ZM24.6682 3.18964C31.4707 3.18964 37.0041 8.71714 37.0041 15.5112C37.0041 22.3053 31.4705 27.8328 24.6682 27.8328C17.8741 27.8328 12.3466 22.3053 12.3466 15.5112C12.3466 8.71714 17.8741 3.18964 24.6682 3.18964Z" fill="url(#paint3_linear_112_1466)"/>
<path d="M24.9032 19.6382H21.771C21.0927 19.6382 20.5439 20.1869 20.5439 20.8652C20.5439 21.5435 21.0927 22.0922 21.771 22.0922H23.4521V22.738C23.4521 23.4163 24.0008 23.965 24.6791 23.965C25.3574 23.965 25.9061 23.4163 25.9061 22.738V21.945C27.5705 21.4989 28.806 19.9914 28.806 18.1882C28.806 16.0361 27.0554 14.2842 24.9033 14.2842C24.7685 14.2842 24.3244 14.2842 24.448 14.2842C23.6488 14.2842 22.9982 13.6336 22.9982 12.8344C22.9982 12.0352 23.6488 11.3856 24.448 11.3856H27.5791C28.2574 11.3856 28.8061 10.8369 28.8061 10.1586C28.8061 9.48034 28.2574 8.93159 27.5791 8.93159H25.9061V8.28596C25.9061 7.60768 25.3574 7.05893 24.6791 7.05893C24.0008 7.05893 23.4521 7.60768 23.4521 8.28596V9.07659C21.7836 9.52002 20.5439 11.0299 20.5439 12.8356C20.5439 14.9877 22.2958 16.7383 24.4479 16.7383H24.9032C25.7024 16.7383 26.3519 17.3889 26.3519 18.1882C26.3519 18.9874 25.7024 19.6382 24.9032 19.6382Z" fill="url(#paint4_linear_112_1466)"/>
</g>
<defs>
<linearGradient id="paint0_linear_112_1466" x1="40" y1="49.4085" x2="40" y2="78.0372" gradientUnits="userSpaceOnUse">
<stop stop-color="#E23739"/>
<stop offset="1" stop-color="#69097A"/>
</linearGradient>
<linearGradient id="paint1_linear_112_1466" x1="40.0001" y1="33.9153" x2="40.0001" y2="79.2643" gradientUnits="userSpaceOnUse">
<stop stop-color="#69097A"/>
<stop offset="1" stop-color="#150E42"/>
</linearGradient>
<linearGradient id="paint2_linear_112_1466" x1="40.0011" y1="18.9504" x2="40.0011" y2="46.7689" gradientUnits="userSpaceOnUse">
<stop stop-color="#69097A"/>
<stop offset="1" stop-color="#150E42"/>
</linearGradient>
<linearGradient id="paint3_linear_112_1466" x1="24.6754" y1="0.735733" x2="24.6754" y2="30.287" gradientUnits="userSpaceOnUse">
<stop stop-color="#69097A"/>
<stop offset="1" stop-color="#150E42"/>
</linearGradient>
<linearGradient id="paint4_linear_112_1466" x1="24.675" y1="7.05893" x2="24.675" y2="23.965" gradientUnits="userSpaceOnUse">
<stop stop-color="#69097A"/>
<stop offset="1" stop-color="#150E42"/>
</linearGradient>
<clipPath id="clip0_112_1466">
<rect width="80" height="80" fill="white"/>
</clipPath>
</defs>
</svg>
