<svg width="419" height="261" viewBox="0 0 419 261" fill="none" xmlns="http://www.w3.org/2000/svg">
<path d="M116.694 261C115.902 261 115.099 260.975 114.307 260.925L114.651 255.43C115.514 255.485 116.385 255.504 117.25 255.49C119.406 255.453 121.581 255.233 123.719 254.836L124.727 260.249C122.288 260.703 119.805 260.954 117.345 260.996C117.129 260.999 116.912 261 116.694 261ZM99.1944 256.969C96.1135 255.52 93.1409 253.696 90.3579 251.548L93.7221 247.19C96.1888 249.093 98.8188 250.708 101.538 251.987L99.1944 256.969ZM139.289 254.924L136.603 250.119C139.246 248.641 141.802 246.867 144.198 244.844L147.749 249.052C145.085 251.3 142.239 253.276 139.289 254.924ZM79.6989 240.337C77.6942 237.455 76.016 234.399 74.7111 231.253L79.7968 229.143C80.9513 231.926 82.4391 234.634 84.2194 237.193L79.6989 240.337ZM158.081 237.686L153.564 234.537C155.341 231.988 156.911 229.276 158.229 226.475L163.211 228.82C161.76 231.901 160.034 234.883 158.081 237.686ZM292.456 222.835C290.64 222.835 288.808 222.741 287.011 222.553L287.582 217.077C290.629 217.395 293.766 217.411 296.816 217.128L297.323 222.61C295.716 222.759 294.078 222.835 292.456 222.835ZM312.34 218.864L310.176 213.802C313.059 212.57 315.703 211.041 318.036 209.258L321.38 213.632C318.684 215.693 315.643 217.453 312.34 218.864ZM272.031 218.552C268.787 217.078 265.788 215.241 263.119 213.093L266.571 208.804C268.881 210.662 271.485 212.255 274.309 213.539L272.031 218.552ZM71.4473 215.968C71.4449 215.788 71.4436 215.609 71.4436 215.43C71.4436 212.033 71.911 208.691 72.8318 205.497L78.1218 207.023C77.3442 209.721 76.949 212.549 76.949 215.43C76.949 215.583 76.9502 215.736 76.9521 215.889L71.4473 215.968ZM167.88 214.175L162.456 213.226C162.934 210.495 163.176 207.742 163.176 205.044C163.176 204.702 163.173 204.361 163.165 204.02L168.67 203.897C168.678 204.28 168.682 204.662 168.682 205.044C168.682 208.059 168.412 211.132 167.88 214.175ZM331.498 201.496L326.559 199.062C327.495 197.162 328.213 195.134 328.69 193.036C328.884 192.182 329.065 191.315 329.228 190.459L334.638 191.486C334.463 192.407 334.268 193.34 334.059 194.258C333.485 196.776 332.624 199.211 331.498 201.496ZM252.88 201.443C251.062 198.597 249.484 195.517 248.189 192.291L253.298 190.239C254.467 193.148 255.887 195.921 257.521 198.48L252.88 201.443ZM-21.9415 200.909L-26 197.188C-23.7217 194.702 -21.449 192.286 -19.2442 190.006L-15.2847 193.832C-17.4559 196.078 -19.6956 198.459 -21.9415 200.909ZM83.6339 193.886L78.64 191.566C80.0299 188.573 81.4835 185.582 82.9609 182.675L87.8692 185.17C86.4217 188.019 84.9963 190.951 83.6339 193.886ZM161.033 190.252C160.186 187.303 159.081 184.36 157.747 181.503L162.736 179.174C164.191 182.291 165.398 185.507 166.325 188.731L161.033 190.252ZM-4.92983 183.615L-8.6947 179.598C-6.24331 177.301 -3.76991 175.072 -1.34238 172.972L2.25975 177.136C-0.112713 179.188 -2.53167 181.369 -4.92983 183.615ZM244.305 177.477C243.86 174.268 243.635 170.946 243.635 167.604L243.636 167.33L249.142 167.349L249.141 167.604C249.141 170.694 249.349 173.761 249.759 176.72L244.305 177.477ZM330.515 176.383C330.505 173.269 330.301 170.097 329.91 166.953L335.373 166.273C335.793 169.635 336.01 173.031 336.021 176.364L330.515 176.383ZM94.8123 172.41L90.0532 169.641C91.7185 166.779 93.4498 163.934 95.2001 161.185L99.8447 164.142C98.133 166.829 96.4402 169.611 94.8123 172.41ZM150.445 169.481C148.562 167.009 146.479 164.622 144.251 162.386L148.152 158.5C150.551 160.908 152.796 163.48 154.825 166.144L150.445 169.481ZM13.5317 168.039L10.2318 163.631C12.9212 161.617 15.6503 159.686 18.3433 157.89L21.3979 162.471C18.7887 164.212 16.1416 166.085 13.5317 168.039ZM33.7472 155.025L31.1319 150.18C33.5668 148.866 36.0426 147.618 38.4903 146.471C39.014 146.226 39.5414 145.983 40.0699 145.744L42.3402 150.76C41.8337 150.99 41.329 151.222 40.8261 151.458C38.472 152.559 36.0903 153.76 33.7472 155.025ZM133.359 153.38C130.752 151.615 128.018 150.01 125.23 148.61L127.701 143.689C130.7 145.196 133.642 146.923 136.445 148.82L133.359 153.38ZM250.567 153.288L245.165 152.219C245.817 148.924 246.681 145.631 247.732 142.432L252.963 144.15C251.981 147.137 251.175 150.212 250.567 153.288ZM326.958 153.061C326.057 150.067 324.975 147.061 323.742 144.126L328.819 141.994C330.126 145.107 331.273 148.297 332.23 151.474L326.958 153.061ZM108.017 152.158L103.571 148.909C105.132 146.773 106.737 144.658 108.358 142.6C106.523 142.177 104.662 141.812 102.79 141.512L103.664 136.075C107.008 136.613 110.326 137.34 113.526 138.238L112.163 143.097L113.893 144.487C111.903 146.964 109.926 149.545 108.017 152.158ZM55.7381 145.622L54.0747 140.373C57.267 139.362 60.5167 138.475 63.7334 137.739L64.9619 143.106C61.8908 143.809 58.7872 144.655 55.7381 145.622ZM79.089 140.823L78.5751 135.341C81.8591 135.033 85.1597 134.877 88.3849 134.877H88.6064V140.383H88.3849C85.331 140.383 82.2029 140.532 79.089 140.823ZM123.364 133.538L119.337 129.784C121.596 127.359 123.937 124.975 126.294 122.697L130.121 126.656C127.832 128.868 125.559 131.183 123.364 133.538ZM317.247 131.431C315.608 128.739 313.812 126.085 311.909 123.544L316.315 120.243C318.324 122.924 320.22 125.725 321.95 128.568L317.247 131.431ZM258.604 131.177L253.785 128.513C253.974 128.172 254.165 127.833 254.358 127.496C255.811 124.961 257.415 122.431 259.125 119.976L263.643 123.123C262.025 125.446 260.508 127.839 259.135 130.235C258.955 130.548 258.779 130.862 258.604 131.177ZM140.914 117.054L137.432 112.79C140.005 110.688 142.658 108.648 145.316 106.726L148.542 111.188C145.971 113.047 143.404 115.021 140.914 117.054ZM302.554 112.757C300.308 110.513 297.936 108.36 295.504 106.359L299.003 102.108C301.571 104.221 304.075 106.493 306.446 108.862L302.554 112.757ZM272.599 111.967L268.534 108.253C270.715 105.866 273.075 103.473 275.546 101.14L279.325 105.144C276.952 107.384 274.689 109.68 272.599 111.967ZM160.6 103.294L157.815 98.5446C160.667 96.8726 163.617 95.2746 166.585 93.7947L169.041 98.7226C166.185 100.147 163.345 101.685 160.6 103.294ZM283.854 98.1439C281.123 96.5129 278.299 95.0214 275.461 93.7092L277.771 88.7109C280.784 90.1039 283.78 91.6866 286.676 93.4161L283.854 98.1439ZM290.271 95.7414L286.865 91.4162C289.354 89.4561 292.023 87.4556 294.798 85.4703L298.001 89.9485C295.295 91.8842 292.694 93.8339 290.271 95.7414ZM182.235 92.9518L180.285 87.803C183.389 86.6266 186.566 85.5456 189.726 84.5876L191.322 89.8568C188.281 90.7781 185.224 91.82 182.235 92.9518ZM262.099 88.6693C259.088 87.7657 255.976 86.9826 252.848 86.3415L253.954 80.9481C257.242 81.6223 260.514 82.4451 263.681 83.3952L262.099 88.6693ZM205.292 86.4015L204.252 80.9946C207.524 80.3651 210.843 79.8481 214.117 79.459L214.767 84.9271C211.623 85.3002 208.436 85.7964 205.292 86.4015ZM238.662 84.3722C235.702 84.1495 232.678 84.0363 229.672 84.0363L229.105 84.0375L229.071 78.5316L229.68 78.5304C232.814 78.5304 235.978 78.6484 239.074 78.8815L238.662 84.3722ZM310.057 81.8168L307.087 77.1796C309.695 75.51 312.429 73.805 315.449 71.9666L318.312 76.6699C315.329 78.4863 312.629 80.1699 310.057 81.8168ZM330.878 69.0791L328.014 64.3769C330.86 62.6425 333.626 60.9437 336.33 59.2656L339.233 63.9432C336.516 65.6299 333.738 67.3373 330.878 69.0791ZM351.685 56.0935L348.714 51.458C351.458 49.6998 354.211 47.9141 356.898 46.1503L359.919 50.7527C357.216 52.528 354.446 54.3242 351.685 56.0935ZM372.161 42.5788L369.069 38.0229C371.677 36.2524 374.386 34.3956 377.119 32.504L380.252 37.0312C377.506 38.932 374.784 40.7991 372.161 42.5788Z" fill="url(#paint0_linear_289_3514)"/>
<path d="M391.022 79.1834L384.235 76.3863L408.378 17.8045L347.213 7.23362L348.463 0L418.656 12.1315L391.022 79.1834Z" fill="url(#paint1_linear_289_3514)"/>
<defs>
<linearGradient id="paint0_linear_289_3514" x1="286.919" y1="66.2093" x2="68.3932" y2="248.652" gradientUnits="userSpaceOnUse">
<stop stop-color="#ED3237"/>
<stop offset="1" stop-color="#1E7AD0"/>
</linearGradient>
<linearGradient id="paint1_linear_289_3514" x1="402.243" y1="11.6803" x2="346.951" y2="35.1059" gradientUnits="userSpaceOnUse">
<stop stop-color="#ED3237"/>
<stop offset="1" stop-color="#1E7AD0"/>
</linearGradient>
</defs>
</svg>
