<svg width="33" height="33" viewBox="0 0 33 33" fill="none" xmlns="http://www.w3.org/2000/svg">
<g clip-path="url(#clip0_129_1412)">
<rect width="32" height="32" transform="translate(0.5 0.5)" fill="url(#paint0_linear_129_1412)"/>
<path d="M29.5182 25.8382C29.4757 24.7418 29.124 23.6798 28.5037 22.7747C27.8835 21.8696 27.0199 21.1583 26.0128 20.723L21.2661 18.8176L20.4467 17.4697V16.6842C20.9897 16.0841 21.4171 15.3888 21.7073 14.6333C21.8897 14.0994 22.0275 13.5512 22.1194 12.9945H22.2261H22.3182C22.5303 12.992 22.7358 12.92 22.9031 12.7895C23.0703 12.659 23.1902 12.4773 23.2443 12.2721H23.2879L23.7728 12.3254H23.8406C24.0184 12.3302 24.1915 12.2679 24.3255 12.1509C24.4665 12.0205 24.5546 11.8427 24.5728 11.6515L24.7425 9.62484C24.7616 9.4253 24.7017 9.22622 24.5757 9.07031C24.4497 8.91441 24.2676 8.8141 24.0685 8.7909L23.5837 8.74242H23.5546C23.5221 8.59386 23.4552 8.45502 23.3592 8.33711C23.2632 8.21919 23.1408 8.12551 23.0019 8.06363V7.99575C23.5352 5.83333 22.8031 4.6406 21.8334 3.13272C20.7909 1.41151 17.8867 0.645448 14.2843 1.12545C13.8543 1.14921 13.4333 1.25783 13.0455 1.44507C12.6578 1.6323 12.3109 1.89443 12.0249 2.21636C11.8575 2.43564 11.7401 2.6888 11.6806 2.95818C11.2825 3.01641 10.9172 3.21192 10.6479 3.5109C9.67822 4.58242 9.71701 6.87575 9.91094 8.11211C9.79649 8.18053 9.69737 8.27181 9.61979 8.38026C9.5422 8.48871 9.48782 8.612 9.46004 8.74242H9.42125L8.9364 8.7909C8.73693 8.81411 8.55438 8.91424 8.42761 9.06999C8.30084 9.22574 8.23985 9.42481 8.25761 9.62484L8.44185 11.6515C8.45441 11.7545 8.48749 11.8538 8.53912 11.9438C8.59075 12.0337 8.6599 12.1124 8.74246 12.1751C8.8776 12.2896 9.05029 12.35 9.22731 12.3448H9.30004L9.78488 12.2964C9.83549 12.4875 9.94592 12.6574 10.1 12.7812C10.2635 12.9193 10.4681 12.9994 10.6819 13.0091H10.7691H10.8467C10.9346 13.565 11.0725 14.1119 11.2588 14.643C11.5472 15.4009 11.9747 16.0981 12.5194 16.6988V17.4697L11.6516 18.8418L7.13761 20.6648C6.08932 21.1214 5.19059 21.8636 4.54413 22.8067C3.89768 23.7498 3.52956 24.8558 3.48185 25.9982L3.26367 31.5303C3.26367 31.6589 3.31475 31.7822 3.40568 31.8731C3.49661 31.9641 3.61993 32.0151 3.74852 32.0151H29.2516C29.3801 32.0151 29.5035 31.9641 29.5944 31.8731C29.6853 31.7822 29.7364 31.6589 29.7364 31.5303L29.5182 25.8382ZM16.1025 19.9618C15.2055 19.2248 14.2406 18.3715 13.7752 17.8867C14.5354 18.4795 15.4697 18.8055 16.4336 18.8142C17.3976 18.823 18.3377 18.5141 19.1085 17.9351C18.6237 18.42 17.654 19.2539 16.7764 19.9618H16.1025ZM17.7412 20.4467C18.5115 19.8465 19.2434 19.1988 19.9328 18.5073L20.4176 19.2685L19.2152 22.0515C18.7897 21.4567 18.2949 20.9147 17.7412 20.437V20.4467ZM22.3182 12.0394L21.8916 12.0103L22.1679 8.90727H22.2988H22.3182H22.5994L22.3182 12.0394ZM23.7728 9.73636L23.637 11.3558L23.4188 11.3315H23.3606L23.4964 9.71212L23.7728 9.73636ZM11.3558 4.1703C11.4439 4.06797 11.556 3.98914 11.6821 3.9409C11.8082 3.89265 11.9443 3.87652 12.0782 3.89393C12.1504 3.90058 12.2231 3.89097 12.2911 3.8658C12.3591 3.84062 12.4205 3.80053 12.4709 3.74848C12.5219 3.7001 12.5617 3.64122 12.5877 3.57592C12.6136 3.51062 12.6251 3.44046 12.6212 3.3703C12.6212 3.26848 12.5728 2.33757 14.4249 2.0903C17.6006 1.66363 20.1994 2.27454 21.0479 3.64181C21.8964 5.00908 22.5025 6.00302 22.0709 7.76302C22.0709 7.82605 22.0467 7.88908 22.0322 7.95212C21.8168 7.98473 21.6187 8.08891 21.4697 8.24787C21.3571 7.71962 21.1813 7.20685 20.9461 6.7206C20.1073 5.15939 18.8516 5.20302 17.9303 5.23696H17.7073C17.407 5.25049 17.1076 5.27962 16.8103 5.32424C15.8406 5.45514 14.517 5.62969 13.237 5.09151C13.1633 5.06068 13.0832 5.04853 13.0037 5.05614C12.9241 5.06376 12.8477 5.09089 12.7812 5.13515C11.846 5.80469 11.2038 6.80795 10.9873 7.93757H10.8806C10.6819 6.7303 10.7109 4.86363 11.3558 4.1703ZM9.39216 11.3558L9.2564 9.73636L9.48428 9.71212L9.63458 11.3364C9.61689 11.3339 9.59894 11.3339 9.58125 11.3364L9.39216 11.3558ZM10.6819 12.0394L10.3861 8.94605L10.8176 8.89757L11.1182 12.0006L10.6819 12.0394ZM11.7728 12.7085L11.8552 12.6261C12.0175 12.4295 12.0959 12.1769 12.0734 11.923L11.8455 9.43575C11.8455 9.08666 11.8746 8.73272 11.8891 8.40787C11.9273 7.96135 12.0547 7.52702 12.2637 7.1306C12.4728 6.73418 12.7592 6.38373 13.1061 6.09999C14.3391 6.47851 15.6464 6.5468 16.9122 6.29878C17.2273 6.25515 17.4988 6.22121 17.7073 6.21151H17.9546C18.837 6.18242 19.5303 6.15333 20.0831 7.18121C20.5679 8.10242 20.8782 10.2939 20.9606 11.4915L20.9219 11.9279C20.9026 12.1123 20.9398 12.2983 21.0285 12.4612C21.0082 12.4998 20.992 12.5404 20.98 12.5824C20.6746 13.8527 18.7982 14.6285 17.717 14.9339C17.5839 14.688 17.3702 14.4955 17.1118 14.3886C16.8534 14.2818 16.5661 14.2672 16.2982 14.3473C16.0303 14.4273 15.7982 14.5972 15.6408 14.8283C15.4835 15.0595 15.4105 15.3377 15.4342 15.6163C15.4579 15.8949 15.5767 16.1569 15.7709 16.3581C15.965 16.5594 16.2225 16.6876 16.5 16.7213C16.7776 16.7551 17.0583 16.6922 17.2949 16.5432C17.5316 16.3943 17.7097 16.1685 17.7994 15.9036C18.8468 15.6482 19.8348 15.1921 20.7085 14.5606C20.2301 15.538 19.5353 16.3935 18.677 17.0624C18.0655 17.5584 17.302 17.8291 16.5146 17.8291C15.7272 17.8291 14.9637 17.5584 14.3522 17.0624C13.4081 16.3376 12.6681 15.3804 12.2043 14.2842C12.0137 13.7736 11.8725 13.246 11.7825 12.7085H11.7728ZM16.8879 15.5303C16.8879 15.5792 16.8734 15.627 16.8462 15.6677C16.8191 15.7083 16.7805 15.74 16.7353 15.7587C16.6901 15.7775 16.6404 15.7824 16.5924 15.7728C16.5444 15.7633 16.5004 15.7397 16.4658 15.7051C16.4312 15.6706 16.4077 15.6265 16.3981 15.5785C16.3886 15.5306 16.3935 15.4809 16.4122 15.4357C16.4309 15.3905 16.4626 15.3519 16.5033 15.3247C16.5439 15.2975 16.5917 15.283 16.6406 15.283C16.7062 15.283 16.7691 15.3091 16.8155 15.3554C16.8619 15.4018 16.8879 15.4647 16.8879 15.5303ZM13.0091 18.4976C13.6677 19.1692 14.369 19.7976 15.1085 20.3788C14.5559 20.7908 14.066 21.2807 13.654 21.8333L12.5146 19.2442L13.0091 18.4976ZM4.44185 26.0467C4.4762 24.9925 4.83895 23.9755 5.47943 23.1376C6.00706 22.4441 6.70296 21.8967 7.50125 21.5473L11.7146 19.8406L12.9073 22.5412C12.9365 22.6741 13.0032 22.7959 13.0994 22.8921C13.1957 22.9883 13.3174 23.055 13.4503 23.0842C13.5036 23.089 13.5571 23.089 13.6103 23.0842C13.7368 23.084 13.861 23.0507 13.9707 22.9878C14.0803 22.9249 14.1717 22.8345 14.2358 22.7255C14.3792 22.4974 14.5414 22.2817 14.7206 22.0806L15.3994 22.8224L14.5606 31.0455H4.25276L4.44185 26.0467ZM15.5303 31.0455L16.34 22.7303C16.347 22.6631 16.3398 22.5951 16.3189 22.5308C16.298 22.4665 16.2639 22.4073 16.2188 22.357L15.3849 21.4261C15.5908 21.2528 15.8061 21.0909 16.0297 20.9412H16.8249C16.9509 21.043 17.1546 21.2127 17.3873 21.4261L16.6503 22.3618C16.5724 22.4606 16.5359 22.5857 16.5485 22.7109L17.3873 31.0455H15.5303ZM18.3425 31.0455L17.5328 22.803L18.0612 22.1339C18.2758 22.3901 18.4703 22.6625 18.6431 22.9485C18.7058 23.0591 18.7967 23.151 18.9066 23.2149C19.0165 23.2788 19.1414 23.3123 19.2685 23.3121C19.316 23.3078 19.363 23.2997 19.4091 23.2879C19.5427 23.2583 19.6649 23.1909 19.7612 23.0937C19.8575 22.9966 19.9238 22.8738 19.9522 22.74L21.174 19.8309L25.62 21.6151C26.3642 21.9352 27.0173 22.435 27.5206 23.0697C28.1377 23.8682 28.4903 24.8394 28.5291 25.8479L28.7473 31.0455H18.3425Z" fill="#F4FAFE"/>
</g>
<defs>
<linearGradient id="paint0_linear_129_1412" x1="16" y1="0" x2="16" y2="32" gradientUnits="userSpaceOnUse">
<stop stop-color="#EF497A"/>
<stop offset="1" stop-color="#1C194E"/>
</linearGradient>
<clipPath id="clip0_129_1412">
<rect width="32" height="32" fill="white" transform="translate(0.5 0.5)"/>
</clipPath>
</defs>
</svg>
