<svg width="136" height="156" viewBox="0 0 136 156" fill="none" xmlns="http://www.w3.org/2000/svg">
<g clip-path="url(#clip0_363_785)">
<path d="M40.5281 43.3447C40.5281 48.5358 38.6049 52.044 34.7726 53.881C30.9261 55.7181 26.316 55.3269 20.9281 52.7195C15.5402 50.1121 10.916 46.0231 7.08368 40.4765C3.23722 34.9298 1.32812 29.561 1.32812 24.3818C1.32812 19.2025 3.23722 15.6824 7.08368 13.8453L8.08772 13.4188C11.7079 12.0914 16.0069 12.6246 20.9281 15.0068C25.5948 17.2587 29.6675 20.6246 33.1605 25.0809C33.712 25.7802 34.2493 26.5032 34.7726 27.2499C35.6069 28.4469 36.3423 29.6321 36.9786 30.8055C39.3402 35.0958 40.5281 39.2795 40.5281 43.3447Z" stroke="black"/>
<path d="M127.908 142.367L128.12 142.674L134.978 139.404L127.908 142.367Z" stroke="black"/>
<path d="M40.5281 95.1965C40.5281 100.388 38.6049 103.896 34.7726 105.721C30.9261 107.558 26.316 107.179 20.9281 104.559C15.5402 101.952 10.916 97.875 7.08368 92.3283C3.23722 86.7816 1.32812 81.4127 1.32812 76.2216C1.32812 71.0305 3.23722 67.5342 7.08368 65.6972L7.98873 65.318C11.6372 63.9314 15.9503 64.4527 20.9281 66.8587C25.5807 69.1105 29.6534 72.4528 33.1463 76.8972C33.712 77.5965 34.2493 78.3314 34.7726 79.0899C35.6069 80.2869 36.3423 81.4839 36.9928 82.669C39.3402 86.9594 40.5281 91.1313 40.5281 95.1965Z" stroke="black"/>
<path d="M94.4495 69.4306C94.4495 74.6217 92.5263 78.13 88.6798 79.967C84.8475 81.8041 80.2232 81.413 74.8354 78.8055C71.7242 77.3004 68.8818 75.3091 66.2798 72.8202C64.3848 71.0069 62.6172 68.921 60.9909 66.5625C59.6899 64.6899 58.6152 62.8291 57.7667 60.9921C56.0697 57.401 55.2354 53.8928 55.2354 50.4676C55.2354 48.3225 55.5606 46.4617 56.2253 44.8973C56.4798 44.2573 56.7909 43.6765 57.1727 43.1432C58.1061 41.7802 59.3646 40.7136 60.9909 39.9313L61.896 39.5522C63.4374 38.9715 65.0919 38.7225 66.8737 38.8291C69.3061 38.9476 71.9505 39.7062 74.8354 41.0928C79.4879 43.3447 83.5747 46.7106 87.0677 51.1551C87.6192 51.8543 88.1566 52.5773 88.6798 53.3358C89.5141 54.5328 90.2495 55.718 90.8859 56.8914C93.2616 61.1817 94.4495 65.3654 94.4495 69.4306Z" stroke="black"/>
<path d="M68.8117 31.4929C68.8117 33.6381 68.4864 35.4869 67.8218 37.0632L61.8965 39.5522C61.5854 39.6588 61.2884 39.7892 60.9915 39.9314C59.3652 40.7136 58.1066 41.7802 57.1733 43.1432C56.7915 43.6765 56.4803 44.2574 56.2258 44.8855L34.7733 53.8811C38.6056 52.044 40.5288 48.5359 40.5288 43.3448C40.5288 39.2796 39.3409 35.0959 36.9793 30.8055C36.343 29.6322 35.6076 28.447 34.7733 27.2499C34.25 26.5033 33.7127 25.7802 33.1611 25.0809C29.6682 20.6246 25.5955 17.2587 20.9288 15.0069C16.0076 12.6246 11.7086 12.0914 8.08838 13.4188L35.3672 1.99359C39.1995 0.156549 43.8238 0.547636 49.2117 3.15504C54.5995 5.76245 59.2096 9.85144 63.0561 15.3981C66.8884 20.9448 68.8117 26.3136 68.8117 31.4929Z" fill="url(#paint0_linear_363_785)" stroke="black"/>
<path d="M68.8111 83.3447C68.8111 85.4899 68.4858 87.3506 67.8211 88.9151L62.0514 91.3447L60.9908 91.7832C59.3787 92.5536 58.106 93.6203 57.1727 94.9832C56.805 95.5166 56.4939 96.0974 56.2252 96.7256L34.7727 105.721C38.605 103.896 40.5282 100.388 40.5282 95.1966C40.5282 91.1314 39.3403 86.9595 36.9929 82.6691C36.3424 81.484 35.607 80.287 34.7727 79.09C34.2494 78.3315 33.7121 77.5966 33.1464 76.8973C29.6535 72.4529 25.5807 69.1106 20.9282 66.8588C15.9504 64.4529 11.6373 63.9315 7.98877 65.3182L35.3666 53.8454C39.1989 52.0084 43.8232 52.3995 49.211 55.0069C52.3222 56.5121 55.1646 58.5032 57.7666 60.9921C58.6151 62.8292 59.6898 64.6899 60.9908 66.5625C62.6171 68.921 64.3848 71.0069 66.2797 72.8203C67.9767 76.4114 68.8111 79.9195 68.8111 83.3447Z" fill="url(#paint1_linear_363_785)" stroke="black"/>
<path d="M122.732 57.5788C122.732 62.7699 120.809 66.2782 116.963 68.1152L88.6798 79.967C92.5263 78.13 94.4495 74.6217 94.4495 69.4306C94.4495 65.3654 93.2617 61.1817 90.8859 56.8914C90.2495 55.718 89.5142 54.5329 88.6798 53.3358C88.1566 52.5773 87.6192 51.8543 87.0677 51.1551C83.5748 46.7106 79.4879 43.3447 74.8354 41.0929C71.9505 39.7062 69.3061 38.9477 66.8738 38.8291C65.092 38.7225 63.4374 38.9715 61.896 39.5522L67.8212 37.0632L89.2738 28.0795C93.1202 26.2543 97.7303 26.6336 103.118 29.241C108.506 31.8484 113.13 35.9373 116.963 41.484C120.809 47.0306 122.732 52.3995 122.732 57.5788Z" fill="url(#paint2_linear_363_785)" stroke="black"/>
<path d="M91.6212 129.579C92.5263 128.607 93.2192 127.422 93.7141 126.059C94.195 124.684 94.4495 123.096 94.4495 121.283C94.4495 117.218 93.2616 113.045 90.9 108.743C90.2495 107.57 89.5141 106.373 88.6798 105.176C88.1566 104.417 87.6051 103.682 87.0535 102.971C83.5606 98.5388 79.4879 95.1966 74.8354 92.9447C71.9646 91.558 69.3061 90.7877 66.8737 90.6692C65.1626 90.5743 63.5505 90.8115 62.0515 91.3448L60.9909 91.7834C59.3788 92.5537 58.1061 93.6203 57.1727 94.9832C56.8051 95.5166 56.4939 96.0974 56.2253 96.7256C55.5606 98.3019 55.2354 100.151 55.2354 102.308C55.2354 107.499 57.1586 112.868 60.9909 118.415C64.8374 123.961 69.4475 128.039 74.8354 130.646C76.6313 131.523 78.3707 132.151 80.0394 132.519C81.7222 132.898 83.2919 133.016 84.7626 132.862L99.8374 154.527L106.696 151.256L91.6212 129.579ZM81.7646 121.804C79.8414 122.717 77.5364 122.527 74.8354 121.224C72.1485 119.92 69.8293 117.881 67.9202 115.108C65.997 112.334 65.0354 109.644 65.0354 107.06C65.0354 104.477 65.997 102.711 67.9202 101.786C69.8293 100.874 72.1485 101.063 74.8354 102.367C77.5364 103.671 79.8414 105.709 81.7646 108.494C83.6879 111.268 84.6354 113.946 84.6354 116.542C84.6354 119.138 83.6879 120.892 81.7646 121.804Z" stroke="black"/>
<path d="M84.6352 116.542C84.6352 119.138 83.6877 120.891 81.7644 121.803C79.8412 122.716 77.5362 122.526 74.8352 121.223C72.1483 119.919 69.8291 117.881 67.92 115.108C65.9968 112.334 65.0352 109.644 65.0352 107.06C65.0352 104.476 65.9968 102.71 67.92 101.786C69.8291 100.873 72.1483 101.063 74.8352 102.367C77.5362 103.671 79.8412 105.709 81.7644 108.494C83.6877 111.268 84.6352 113.946 84.6352 116.542Z" stroke="black"/>
<path d="M122.733 109.431C122.733 111.244 122.479 112.832 121.998 114.207C121.503 115.57 120.81 116.756 119.905 117.727L91.622 129.579C92.527 128.607 93.2199 127.422 93.7149 126.059C94.1957 124.684 94.4502 123.096 94.4502 121.283C94.4502 117.218 93.2624 113.045 90.9007 108.743C90.2502 107.57 89.5149 106.373 88.6805 105.176C88.1573 104.417 87.6058 103.682 87.0543 102.971C83.5613 98.5387 79.4886 95.1964 74.8361 92.9446C71.9654 91.5579 69.3068 90.7875 66.8745 90.669C65.1634 90.5742 63.5512 90.8114 62.0522 91.3447L67.8219 88.9268L89.2745 79.9314C93.1209 78.0943 97.731 78.4853 103.119 81.0927C108.507 83.7001 113.131 87.7773 116.963 93.324C120.81 98.8825 122.733 104.251 122.733 109.431Z" fill="url(#paint3_linear_363_785)" stroke="black"/>
<path d="M134.978 139.404L106.695 151.256L91.6206 129.579L119.903 117.727L134.978 139.404Z" fill="#1E7AD0" stroke="black"/>
<path d="M99.8379 154.527L128.121 142.676" stroke="black"/>
</g>
<defs>
<linearGradient id="paint0_linear_363_785" x1="38.45" y1="0.856812" x2="38.45" y2="53.8811" gradientUnits="userSpaceOnUse">
<stop stop-color="#A737D5"/>
<stop offset="0.615" stop-color="#150E42"/>
</linearGradient>
<linearGradient id="paint1_linear_363_785" x1="38.3999" y1="52.7087" x2="38.3999" y2="105.721" gradientUnits="userSpaceOnUse">
<stop stop-color="#1E7AD0"/>
<stop offset="1" stop-color="#1C194E"/>
</linearGradient>
<linearGradient id="paint2_linear_363_785" x1="92.3142" y1="26.9478" x2="92.3142" y2="79.967" gradientUnits="userSpaceOnUse">
<stop stop-color="#1C194E"/>
<stop offset="1" stop-color="#69097A"/>
</linearGradient>
<linearGradient id="paint3_linear_363_785" x1="92.3927" y1="78.7946" x2="92.3927" y2="129.579" gradientUnits="userSpaceOnUse">
<stop stop-color="#E23739"/>
<stop offset="0.465" stop-color="#1C194E"/>
<stop offset="1" stop-color="#1C194E"/>
</linearGradient>
<clipPath id="clip0_363_785">
<rect width="136" height="156" fill="white"/>
</clipPath>
</defs>
</svg>
