<svg width="60" height="61" viewBox="0 0 60 61" fill="none" xmlns="http://www.w3.org/2000/svg">
<path d="M43.1214 23.7429L29.4902 37.3742L26.0823 40.782L22.6757 37.3742L16.9956 31.6941L20.4035 28.2863L26.0835 33.9663L39.7136 20.3351L43.1214 23.7429Z" fill="#1E7AD0"/>
<path d="M11.6015 31.6836H2.10938C1.81101 31.6836 1.52486 31.5651 1.31388 31.3541C1.1029 31.1432 0.984375 30.857 0.984375 30.5586C0.984375 30.2603 1.1029 29.9741 1.31388 29.7631C1.52486 29.5522 1.81101 29.4336 2.10938 29.4336H11.6015C11.8999 29.4336 12.186 29.5522 12.397 29.7631C12.608 29.9741 12.7265 30.2603 12.7265 30.5586C12.7265 30.857 12.608 31.1432 12.397 31.3541C12.186 31.5651 11.8999 31.6836 11.6015 31.6836ZM58.006 31.6836H48.5155C48.3677 31.6837 48.2214 31.6546 48.0849 31.598C47.9484 31.5415 47.8244 31.4586 47.7199 31.3542C47.6155 31.2497 47.5326 31.1257 47.4761 30.9892C47.4195 30.8527 47.3905 30.7064 47.3905 30.5586C47.3905 30.2603 47.509 29.9741 47.72 29.7631C47.931 29.5522 48.2171 29.4336 48.5155 29.4336H58.006C58.3043 29.4336 58.5905 29.5522 58.8015 29.7631C59.0125 29.9741 59.131 30.2603 59.131 30.5586C59.131 30.857 59.0125 31.1432 58.8015 31.3541C58.5905 31.5651 58.3043 31.6836 58.006 31.6836ZM30.0586 13.2266C29.7602 13.2266 29.4741 13.1081 29.2631 12.8971C29.0521 12.6861 28.9336 12.4 28.9336 12.1016V2.60944C28.9336 2.31107 29.0521 2.02492 29.2631 1.81394C29.4741 1.60296 29.7602 1.48444 30.0586 1.48444C30.3569 1.48444 30.6431 1.60296 30.8541 1.81394C31.0651 2.02492 31.1836 2.31107 31.1836 2.60944V12.1016C31.1836 12.4 31.0651 12.6861 30.8541 12.8971C30.6431 13.1081 30.3569 13.2266 30.0586 13.2266ZM30.0586 59.7047C29.7602 59.7047 29.4741 59.5862 29.2631 59.3752C29.0521 59.1642 28.9336 58.8781 28.9336 58.5797V49.0155C28.9336 48.7172 29.0521 48.431 29.2631 48.22C29.4741 48.0091 29.7602 47.8905 30.0586 47.8905C30.68 47.8905 31.1836 48.3941 31.1836 49.0155V58.5797C31.1836 58.8781 31.0651 59.1642 30.8541 59.3752C30.6431 59.5862 30.3569 59.7047 30.0586 59.7047ZM49.8881 51.38C49.7404 51.3802 49.594 51.3512 49.4575 51.2946C49.3209 51.2381 49.1969 51.1552 49.0925 51.0506L42.38 44.3381C42.169 44.1271 42.0505 43.8409 42.0505 43.5426C42.0505 43.2442 42.169 42.958 42.38 42.747C42.591 42.536 42.8772 42.4175 43.1756 42.4175C43.4739 42.4175 43.7601 42.536 43.9711 42.747L50.6836 49.4595C50.8409 49.6169 50.948 49.8173 50.9914 50.0355C51.0348 50.2537 51.0126 50.4799 50.9274 50.6855C50.8423 50.891 50.6981 51.0667 50.5131 51.1904C50.3281 51.314 50.1106 51.38 49.8881 51.38ZM9.79598 50.9466C9.57348 50.9466 9.35599 50.8806 9.17101 50.757C8.98602 50.6334 8.84184 50.4577 8.7567 50.2521C8.67156 50.0466 8.64928 49.8204 8.69268 49.6022C8.73608 49.384 8.84321 49.1835 9.00053 49.0262L15.7223 42.3044C15.9345 42.0993 16.2188 41.9857 16.5139 41.9883C16.809 41.9908 17.0913 42.1091 17.3 42.3178C17.5086 42.5265 17.627 42.8088 17.6294 43.1039C17.6319 43.399 17.5184 43.6833 17.3132 43.8954L10.5914 50.6171C10.4871 50.7217 10.3631 50.8047 10.2266 50.8612C10.0901 50.9178 9.94374 50.9468 9.79598 50.9466ZM42.596 18.1398C42.3735 18.1398 42.156 18.0739 41.971 17.9503C41.786 17.8267 41.6418 17.651 41.5566 17.4454C41.4715 17.2398 41.4492 17.0136 41.4926 16.7954C41.536 16.5772 41.6431 16.3767 41.8004 16.2194L48.5119 9.50794C48.7232 9.29847 49.0088 9.18123 49.3063 9.18187C49.6038 9.18251 49.889 9.30097 50.0994 9.51134C50.3098 9.7217 50.4283 10.0068 50.4289 10.3044C50.4296 10.6019 50.3124 10.8875 50.1029 11.0988L43.3915 17.8103C43.2871 17.9149 43.1631 17.9979 43.0266 18.0544C42.8901 18.111 42.7438 18.14 42.596 18.1398ZM16.9858 18.6545C16.838 18.6547 16.6917 18.6257 16.5552 18.5691C16.4186 18.5126 16.2947 18.4296 16.1903 18.3249L9.48638 11.6211C9.27542 11.4102 9.15692 11.124 9.15692 10.8257C9.15692 10.5273 9.27542 10.2412 9.48638 10.0302C9.69735 9.81928 9.98348 9.70078 10.2818 9.70078C10.5802 9.70078 10.8663 9.81928 11.0773 10.0302L17.7811 16.734C17.9384 16.8914 18.0455 17.0918 18.0889 17.31C18.1323 17.5282 18.1101 17.7544 18.0249 17.9599C17.9398 18.1655 17.7957 18.3412 17.6107 18.4648C17.4257 18.5884 17.2083 18.6544 16.9858 18.6545Z" fill="#3A9BD5"/>
<path d="M23.089 14.589C22.8637 14.589 22.6437 14.5215 22.4573 14.3951C22.2709 14.2686 22.1268 14.0892 22.0435 13.88L20.2729 9.43398C20.1625 9.15677 20.1667 8.84707 20.2847 8.57299C20.4026 8.29892 20.6246 8.08292 20.9018 7.97253C21.179 7.86213 21.4887 7.86638 21.7628 7.98433C22.0369 8.10228 22.2529 8.32427 22.3633 8.60148L24.1339 13.0475C24.2019 13.2181 24.2271 13.4029 24.2072 13.5855C24.1874 13.7682 24.1231 13.9432 24.02 14.0952C23.917 14.2473 23.7782 14.3718 23.6159 14.4579C23.4536 14.544 23.2727 14.589 23.089 14.589ZM12.8776 24.9267C12.7418 24.9267 12.6072 24.902 12.4804 24.8538L8.519 23.3576C8.38079 23.3054 8.25421 23.2265 8.1465 23.1254C8.03878 23.0243 7.95204 22.9029 7.89123 22.7683C7.83041 22.6336 7.79671 22.4883 7.79206 22.3407C7.78741 22.193 7.81189 22.0459 7.8641 21.9077C7.91629 21.7695 7.99519 21.6429 8.09631 21.5352C8.19742 21.4275 8.31876 21.3407 8.4534 21.2799C8.58804 21.2191 8.73334 21.1854 8.881 21.1807C9.02867 21.1761 9.1758 21.2006 9.314 21.2528L13.2754 22.749C13.4136 22.8012 13.5401 22.8801 13.6479 22.9812C13.7556 23.0823 13.8423 23.2037 13.9031 23.3383C13.9639 23.473 13.9976 23.6183 14.0023 23.7659C14.007 23.9136 13.9825 24.0607 13.9303 24.1989C13.8495 24.4128 13.7055 24.597 13.5174 24.727C13.3294 24.857 13.1062 24.9267 12.8776 24.9267ZM8.9174 40.7481C8.66997 40.7484 8.42934 40.6672 8.23277 40.5169C8.0362 40.3666 7.89465 40.1557 7.83004 39.9169C7.76544 39.678 7.78138 39.4245 7.87539 39.1957C7.96941 38.9668 8.13626 38.7753 8.3501 38.6508L12.3115 36.3435C12.5691 36.1957 12.8748 36.1558 13.1618 36.2326C13.4488 36.3093 13.6938 36.4964 13.8433 36.7531C13.9929 37.0098 14.0348 37.3152 13.96 37.6027C13.8851 37.8902 13.6996 38.1364 13.444 38.2877L9.4826 40.595C9.31114 40.6953 9.11606 40.7482 8.9174 40.7481ZM20.5646 52.707C20.3799 52.707 20.1981 52.6615 20.0351 52.5745C19.8722 52.4875 19.7332 52.3618 19.6304 52.2084C19.5275 52.0549 19.4641 51.8786 19.4455 51.6948C19.427 51.511 19.454 51.3255 19.5242 51.1547L21.2743 46.8902C21.3303 46.7535 21.4128 46.6292 21.5169 46.5243C21.621 46.4195 21.7447 46.3362 21.8811 46.2792C22.0174 46.2222 22.1636 46.1927 22.3113 46.1922C22.4591 46.1917 22.6055 46.2204 22.7422 46.2765C22.8788 46.3326 23.0031 46.4151 23.1079 46.5192C23.2127 46.6233 23.296 46.7471 23.353 46.8834C23.41 47.0197 23.4396 47.1659 23.44 47.3136C23.4405 47.4614 23.4119 47.6078 23.3558 47.7444L21.6058 52.0089C21.521 52.2154 21.3768 52.392 21.1914 52.5163C21.006 52.6407 20.7878 52.707 20.5646 52.707ZM39.6553 52.707C39.4359 52.7071 39.2213 52.643 39.0379 52.5227C38.8545 52.4024 38.7102 52.2311 38.6228 52.0299L36.7703 47.7654C36.6531 47.492 36.6489 47.1834 36.7586 46.9069C36.8684 46.6304 37.0832 46.4087 37.356 46.2902C37.6289 46.1716 37.9375 46.166 38.2145 46.2745C38.4915 46.383 38.7142 46.5967 38.834 46.869L40.6865 51.1335C40.7609 51.3047 40.7916 51.4916 40.7757 51.6776C40.7599 51.8635 40.698 52.0426 40.5957 52.1987C40.4934 52.3548 40.3539 52.483 40.1897 52.5717C40.0255 52.6604 39.8419 52.7069 39.6553 52.707ZM51.037 40.0841C50.8835 40.084 50.7317 40.0524 50.5909 39.9914L46.7929 38.3484C46.6564 38.2904 46.5328 38.2059 46.4291 38.0999C46.3254 37.9938 46.2437 37.8684 46.1887 37.7306C46.1337 37.5929 46.1065 37.4457 46.1086 37.2974C46.1106 37.1492 46.142 37.0028 46.2009 36.8667C46.2598 36.7306 46.345 36.6074 46.4516 36.5044C46.5582 36.4013 46.6842 36.3204 46.8222 36.2662C46.9602 36.2119 47.1076 36.1856 47.2559 36.1885C47.4041 36.1915 47.5504 36.2237 47.6861 36.2834L51.4841 37.9263C51.7218 38.029 51.9168 38.2105 52.0362 38.4402C52.1556 38.67 52.1921 38.9338 52.1395 39.1874C52.087 39.4409 51.9486 39.6685 51.7478 39.8319C51.5469 39.9952 51.2959 40.0843 51.037 40.0841ZM46.9262 24.1785C46.7078 24.1786 46.4941 24.1151 46.3112 23.9958C46.1283 23.8765 45.9841 23.7066 45.8962 23.5067C45.7759 23.2336 45.769 22.924 45.877 22.6459C45.985 22.3677 46.1991 22.1439 46.4722 22.0236L50.5841 20.2125C50.8564 20.0967 51.1634 20.0927 51.4386 20.2016C51.7138 20.3105 51.935 20.5234 52.0543 20.7943C52.1736 21.0651 52.1814 21.3721 52.076 21.6486C51.9706 21.9251 51.7605 22.149 51.4912 22.2717L47.3792 24.0828C47.2365 24.1459 47.0822 24.1785 46.9262 24.1785ZM37.4897 14.7843C37.3147 14.7844 37.1421 14.7437 36.9857 14.6653C36.8292 14.587 36.6931 14.4733 36.5883 14.3332C36.4835 14.193 36.4128 14.0304 36.3819 13.8582C36.351 13.6859 36.3606 13.5089 36.4102 13.341L37.7783 8.69988C37.9541 8.10393 38.5795 7.76268 39.1756 7.93893C39.4617 8.0233 39.7027 8.21789 39.8454 8.47989C39.9881 8.7419 40.0208 9.04985 39.9365 9.33603L38.5684 13.9772C38.4996 14.21 38.3575 14.4145 38.1631 14.5599C37.9687 14.7054 37.7325 14.7841 37.4897 14.7843Z" fill="#ED3237"/>
</svg>
