<svg width="100" height="120" viewBox="0 0 100 120" fill="none" xmlns="http://www.w3.org/2000/svg">
<path d="M97.5874 91.985V105.723L81.0586 116.938V103.2L88.1907 98.3664L97.5874 91.985Z" fill="url(#paint0_linear_492_12835)" stroke="black"/>
<path d="M77.3634 86.5681L75.5287 87.8129L65.6113 94.5419V73.9288L68.9088 76.5195L74.4378 80.8485V84.2802L75.5287 85.1326L77.3634 86.5681Z" stroke="black"/>
<path d="M88.6195 88.3962L81.57 93.1737L74.4378 98.0186V101.45L65.6113 94.542L75.5287 87.813L77.3634 86.5681L81.0576 89.4616L85.8344 86.2205L88.6195 88.3962Z" stroke="black"/>
<path d="M97.5874 64.5084V78.2467L81.0586 89.4617V75.7234L82.1412 74.9944L90.5379 69.2972L97.5874 64.5084Z" fill="url(#paint1_linear_492_12835)" stroke="black"/>
<path d="M59.0007 74.5345V84.8411L52.3809 89.3271V79.0205L58.3395 74.9831L59.0007 74.5345Z" stroke="black"/>
<path d="M40.4621 54.2238L40.2307 54.381L36.9414 56.6126V51.465L40.2307 54.0444L40.4621 54.2238Z" stroke="black"/>
<path d="M68.9098 47.1921V51.7229L59.0007 58.4407V64.2276L58.3313 64.6762L52.3809 68.7136V58.407L53.4718 57.6668L54.8106 56.7584L61.8602 51.9809L62.29 51.6893L68.9098 47.1921Z" stroke="black"/>
<path d="M68.9089 47.1922L62.2891 51.6894L61.8593 51.981L54.8098 56.7585L53.4709 57.6669L52.38 58.4071L49.0742 50.6688L55.0329 46.6202L58.5536 44.2314L65.6031 39.4539L68.9089 47.1922Z" fill="url(#paint2_linear_492_12835)" stroke="black"/>
<path d="M22.3631 29.7418L18.1813 26.4671L1.65234 13.5138V54.7287L8.26391 59.9101V49.6035L15.3135 55.1325L17.0904 56.5231V66.8297L23.7019 72.011V30.796L22.3631 29.7418ZM17.0904 46.2166L8.26391 39.3082V29.0016L15.3135 34.5194L17.0904 35.9101V46.2166Z" fill="url(#paint3_linear_492_12835)" stroke="black"/>
<path d="M17.0901 35.9101V46.2166L8.26367 39.3082L15.3133 34.5194L17.0901 35.9101Z" stroke="black"/>
<path d="M15.3133 34.5195L8.26367 39.3083V29.0018L15.3133 34.5195Z" stroke="black"/>
<path d="M40.232 19.5813V29.2598L32.761 34.329L30.323 35.9776V67.5252L23.7031 72.0112V30.7963L26.1411 29.1477L33.1907 24.3589L40.232 19.5813Z" fill="url(#paint4_linear_492_12835)" stroke="black"/>
<path d="M40.2309 19.5811L33.1895 24.3586L26.1399 29.1474L23.7019 30.796L22.3631 29.7418L18.1813 26.4671L1.65234 13.5138L18.1813 2.29883L40.2309 19.5811Z" stroke="black"/>
<path d="M15.3133 55.1327L8.26367 59.9103V49.6038L15.3133 55.1327Z" stroke="black"/>
<path d="M65.6033 39.4537L58.5537 44.2313L55.033 46.6201L49.0743 50.6687L47.5123 49.4463L46.8512 48.9304L40.2314 43.7378L30.3223 35.9771L32.7603 34.3285L40.2314 29.2593L46.8512 24.7621L65.6033 39.4537Z" stroke="black"/>
<path d="M58.9998 84.841V85.155L49.0742 91.884L52.38 89.327L58.9998 84.841Z" stroke="black"/>
<path d="M52.3801 68.7136V58.407L49.0743 50.6687L47.5123 49.4463L46.8512 48.9304L40.2314 43.7379L30.3223 35.9771V77.1921L49.0743 91.8837L52.3801 89.3266V79.0201L49.0743 71.2706L51.3553 69.5098L52.3801 68.7136ZM45.7603 78.9865L36.9421 72.078V66.9192L40.471 69.6893L45.7603 73.8388V78.9865ZM45.7603 63.5323L40.2314 59.1921L36.9421 56.6126V51.465L40.2314 54.0444L40.4628 54.2238L45.7603 58.3734V63.5323Z" fill="url(#paint5_linear_492_12835)" stroke="black"/>
<path d="M45.7596 73.8388V78.9865L36.9414 72.0781L40.4703 69.6893L45.7596 73.8388Z" stroke="black"/>
<path d="M40.4703 69.6896L36.9414 72.0784V66.9195L40.4703 69.6896Z" stroke="black"/>
<path d="M45.7596 58.3734V63.5323L40.2307 59.1921L36.9414 56.6127L40.2307 54.3809L40.4621 54.2239L45.7596 58.3734Z" stroke="black"/>
<path d="M58.9998 64.228V74.5346L58.3387 74.9832L52.38 79.0205L49.0742 71.271L51.3552 69.5103L52.38 68.714L58.3304 64.6766L58.9998 64.228Z" fill="url(#paint6_linear_492_12835)" stroke="black"/>
<path d="M74.438 84.2803V80.8485L68.9091 76.5195L65.6116 73.9289V94.542L74.438 101.45V98.0186L81.0579 103.2V116.938L59 99.656V58.441L62.9504 61.5364L67.8843 65.4055L75.5289 71.3943L81.0579 75.7233V89.4616L77.3636 86.5681L75.5289 85.1326L74.438 84.2803Z" fill="url(#paint7_linear_492_12835)" stroke="black"/>
<path d="M97.5867 64.5083L90.5371 69.2971L82.1405 74.9943L81.0579 75.7233L75.5289 71.3943L67.8843 65.4055L62.9504 61.5364L59 58.441L68.9091 51.7233L75.5289 47.2261L97.5867 64.5083Z" stroke="black"/>
<path d="M97.5864 91.985L88.1897 98.3663L81.0573 103.2L74.4375 98.0186L81.5697 93.1737L88.6195 88.3962L90.9666 86.8036L97.5864 91.985Z" stroke="black"/>
<defs>
<linearGradient id="paint0_linear_492_12835" x1="89.323" y1="91.985" x2="89.323" y2="116.938" gradientUnits="userSpaceOnUse">
<stop stop-color="#1C194E"/>
<stop offset="1" stop-color="#1E7AD0"/>
</linearGradient>
<linearGradient id="paint1_linear_492_12835" x1="89.323" y1="64.5084" x2="89.323" y2="89.4617" gradientUnits="userSpaceOnUse">
<stop stop-color="#1C194E"/>
<stop offset="1" stop-color="#1E7AD0"/>
</linearGradient>
<linearGradient id="paint2_linear_492_12835" x1="58.9916" y1="39.4539" x2="58.9916" y2="58.4071" gradientUnits="userSpaceOnUse">
<stop stop-color="#1C194E"/>
<stop offset="1" stop-color="#1E7AD0"/>
</linearGradient>
<linearGradient id="paint3_linear_492_12835" x1="12.6771" y1="13.5138" x2="12.6771" y2="72.011" gradientUnits="userSpaceOnUse">
<stop stop-color="#1E7AD0"/>
<stop offset="1" stop-color="#150E42"/>
</linearGradient>
<linearGradient id="paint4_linear_492_12835" x1="31.9676" y1="19.5813" x2="31.9676" y2="72.0112" gradientUnits="userSpaceOnUse">
<stop stop-color="#1E7AD0"/>
<stop offset="1" stop-color="#150E42"/>
</linearGradient>
<linearGradient id="paint5_linear_492_12835" x1="41.3512" y1="35.9771" x2="41.3512" y2="91.8837" gradientUnits="userSpaceOnUse">
<stop stop-color="#1E7AD0"/>
<stop offset="1" stop-color="#150E42"/>
</linearGradient>
<linearGradient id="paint6_linear_492_12835" x1="54.037" y1="64.228" x2="54.037" y2="79.0205" gradientUnits="userSpaceOnUse">
<stop stop-color="#1C194E"/>
<stop offset="1" stop-color="#1E7AD0"/>
</linearGradient>
<linearGradient id="paint7_linear_492_12835" x1="70.0289" y1="58.441" x2="70.0289" y2="116.938" gradientUnits="userSpaceOnUse">
<stop stop-color="#1E7AD0"/>
<stop offset="1" stop-color="#150E42"/>
</linearGradient>
</defs>
</svg>
