<svg width="189" height="162" viewBox="0 0 189 162" fill="none" xmlns="http://www.w3.org/2000/svg">
<path d="M63.7983 108.378C63.3434 108.936 63.116 109.494 63.116 110.052C63.116 110.196 63.1462 110.34 63.1917 110.466V119.376L63.1465 132.066L58.128 130.212C57.2941 129.888 56.733 129.474 56.4146 128.934C56.2023 128.592 56.0962 128.232 56.0962 127.854V92.1421C56.1568 92.4121 56.263 92.6821 56.4146 92.9341C56.733 93.4741 57.2941 93.8881 58.128 94.2121L65.7997 97.0381C66.0726 98.2261 66.4363 99.3241 66.9063 100.314C67.3612 101.322 67.922 102.348 68.5588 103.41L63.7983 108.378Z" fill="url(#paint0_linear_363_657)" stroke="black" stroke-width="0.999631"/>
<path d="M112.117 117.378V153.378C112.117 154.008 111.889 154.602 111.434 155.16C110.98 155.718 110.298 156.06 109.388 156.186L100.64 157.662C99.7302 157.788 98.8961 157.752 98.1077 157.518C97.3345 157.302 96.7128 156.906 96.258 156.348L92.1343 151.092V115.092L96.258 120.348C96.3641 120.474 96.4854 120.6 96.6067 120.726C97.0161 121.086 97.5164 121.356 98.1077 121.518C98.8961 121.752 99.7302 121.788 100.64 121.662L101.17 121.572L109.388 120.186C110.298 120.06 110.98 119.718 111.434 119.16C111.889 118.602 112.117 118.008 112.117 117.378Z" fill="url(#paint1_linear_363_657)" stroke="black" stroke-width="0.999631"/>
<path d="M118.349 106.902V142.902C117.454 143.766 116.408 144.612 115.226 145.422C114.225 146.106 113.194 146.736 112.117 147.258V117.378L111.542 111.564C112.648 111.042 113.709 110.43 114.74 109.746C114.907 109.638 115.059 109.53 115.226 109.422C116.408 108.612 117.454 107.766 118.349 106.902Z" stroke="black" stroke-width="0.999631"/>
<path d="M133.45 98.6219V134.586C133.45 134.802 133.42 135.018 133.359 135.234L130.933 141.426C130.752 142.056 130.281 142.524 129.508 142.866C128.735 143.208 127.886 143.388 126.976 143.388L118.35 142.902V106.902L126.446 107.352L126.976 107.388C127.886 107.388 128.735 107.208 129.508 106.866C130.281 106.524 130.752 106.056 130.933 105.426L133.359 99.2339C133.42 99.0359 133.45 98.8199 133.45 98.6219Z" fill="url(#paint2_linear_363_657)" stroke="black" stroke-width="0.999631"/>
<path d="M146.29 54.2701C146.214 57.8341 145.471 61.1281 144.077 64.1521C142.682 67.1941 140.62 69.9481 137.891 72.4321V94.1221C136.45 94.9861 134.798 95.4001 132.903 95.4001C130.811 95.4001 128.991 94.8601 127.43 93.7981C127.051 93.5461 126.732 93.2761 126.444 93.0061V80.3881C126.429 79.8301 126.065 79.2901 125.337 78.7861L125.095 78.6241V54.0361C125.095 55.4761 125.868 56.7361 127.43 57.7981C128.991 58.8601 130.811 59.4001 132.903 59.4001C134.995 59.4001 136.83 58.8781 138.376 57.8161L146.275 52.3981V54.2701H146.29Z" fill="url(#paint3_linear_363_657)" stroke="black" stroke-width="0.999631"/>
<path d="M113.104 11.196C113.028 11.844 112.77 12.4561 112.316 13.0501C111.421 14.2921 110.026 15.21 108.161 15.804C106.296 16.398 104.356 16.506 102.354 16.128C94.137 14.472 85.8891 14.328 77.5958 15.696C69.3026 17.046 62.071 19.8541 55.8852 24.0841C51.8068 26.8921 48.6076 30.1501 46.2879 33.8581C43.9834 37.5661 42.8463 41.6701 42.8615 46.1701V48.0601L50.7757 42.6241C52.3221 41.5801 54.1416 41.0401 56.2339 41.0581C58.3413 41.0581 60.1605 41.5981 61.7221 42.6601C62.2528 43.0201 62.6926 43.4161 63.0413 43.8301C63.7236 44.6041 64.057 45.4501 64.057 46.4041V46.4401C64.057 47.8621 63.2837 49.1221 61.7524 50.1481L39.9355 65.1061C38.3891 66.1681 36.5695 66.6901 34.4773 66.6901C33.3099 66.6901 32.2184 66.5281 31.2178 66.1861C30.4294 65.9161 29.6865 65.5561 29.0042 65.0881L27.1547 63.8281L7.05076 50.0401C5.48915 48.9781 4.71584 47.7181 4.70068 46.2781C4.70068 44.8381 5.47395 43.5961 7.02041 42.5341C8.5517 41.4721 10.386 40.9501 12.4782 40.9501C14.5705 40.9501 16.4052 41.4901 17.9516 42.5701L27.1547 48.8521L27.5636 49.1401L27.2757 46.3321C27.1999 45.4501 27.1547 44.5861 27.1547 43.7221V43.4341C27.2153 38.4481 28.6858 33.8581 31.5665 29.6461C35.0081 24.6601 39.4655 20.3041 44.9084 16.5601C53.4594 10.7101 63.3747 6.87611 74.6699 5.09411C85.965 3.31211 97.1844 3.6721 108.328 6.1921C110.329 6.5701 111.754 7.488 112.573 8.928C113.028 9.702 113.21 10.458 113.104 11.196Z" fill="#1E7AD0" stroke="black" stroke-width="0.999631"/>
<path d="M184.437 54.162V54.198C184.437 55.62 183.663 56.8799 182.132 57.9059C180.586 58.9679 178.766 59.49 176.674 59.49C174.582 59.49 172.747 58.95 171.201 57.888L161.588 51.3L161.877 54.126C161.816 59.31 160.648 64.062 158.389 68.364C158.086 68.958 157.753 69.534 157.404 70.11C155.251 73.728 152.446 77.0579 149.004 80.0639L142.758 75.762L137.891 72.432C140.62 69.948 142.682 67.194 144.077 64.152C145.472 61.128 146.215 57.834 146.29 54.27V52.398L138.376 57.816C136.83 58.878 135.011 59.4 132.903 59.4C130.796 59.4 128.992 58.86 127.43 57.798C125.868 56.736 125.095 55.476 125.095 54.036C125.08 52.596 125.853 51.354 127.4 50.292L149.202 35.352C150.748 34.29 152.583 33.75 154.675 33.768C156.767 33.768 158.602 34.308 160.148 35.37L182.102 50.418C183.648 51.48 184.437 52.722 184.437 54.162Z" fill="#1E7AD0" stroke="black" stroke-width="0.999631"/>
<path d="M184.437 54.1981V90.1621C184.452 91.6021 183.679 92.8621 182.132 93.9061C180.586 94.9681 178.767 95.4901 176.674 95.4901C174.582 95.4901 172.748 94.9501 171.201 93.8881L161.877 87.4981V54.1261L161.589 51.3001L171.201 57.8881C172.748 58.9501 174.582 59.4901 176.674 59.4901C178.767 59.4901 180.586 58.9681 182.132 57.9061C183.664 56.8801 184.437 55.6201 184.437 54.1981Z" fill="url(#paint4_linear_363_657)" stroke="black" stroke-width="0.999631"/>
<path d="M161.877 54.1259V90.1259C161.816 95.3099 160.649 100.062 158.39 104.364C156.131 108.666 152.992 112.572 149.005 116.064V80.0639C152.447 77.0579 155.252 73.7279 157.404 70.1099C157.753 69.5339 158.087 68.9579 158.39 68.3639C160.649 64.0619 161.816 59.3099 161.877 54.1259Z" fill="url(#paint5_linear_363_657)" stroke="black" stroke-width="0.999631"/>
<path d="M149.005 80.0641V116.064L137.892 108.432V72.4321L142.759 75.7621L149.005 80.0641Z" stroke="black" stroke-width="0.999631"/>
<path d="M92.136 115.092V151.092C90.4076 150.894 88.8007 150.642 87.3452 150.336C85.8897 150.012 84.3736 149.634 82.8271 149.202V113.202C84.3736 113.634 85.8897 114.012 87.3452 114.336C88.8007 114.642 90.4076 114.894 92.136 115.092Z" stroke="black" stroke-width="0.999631"/>
<path d="M82.8269 113.202V149.202L75.5949 152.46C74.7762 152.766 73.9572 152.928 73.1385 152.928C72.3198 152.928 71.5314 152.676 70.8037 152.172L64.224 147.654C63.4962 147.15 63.1172 146.628 63.1172 146.052L63.1475 132.066L63.1775 119.376V110.466C63.3291 110.88 63.6782 111.276 64.224 111.654L70.8037 116.172C71.5314 116.676 72.3198 116.928 73.1385 116.928C73.6995 116.928 74.2759 116.856 74.8369 116.694C75.0946 116.64 75.3372 116.55 75.5949 116.46L82.8269 113.202Z" fill="url(#paint6_linear_363_657)" stroke="black" stroke-width="0.999631"/>
<path d="M56.0962 128.268V127.854" stroke="black" stroke-width="0.999631"/>
<path d="M56.1128 92.1428V91.962" stroke="black" stroke-width="0.999631"/>
<path d="M133.086 97.4521C132.722 96.8941 132.116 96.4621 131.297 96.1381L126.445 94.5541L123.489 93.6001C123.307 92.3401 123.004 91.2061 122.594 90.1801C122.17 89.1361 121.639 88.0921 121.002 87.0301L125.096 82.7641L125.763 82.0621C126.218 81.5041 126.445 80.9461 126.445 80.3881C126.43 79.8301 126.066 79.2901 125.338 78.7861L125.096 78.6241L118.758 74.2681C118.016 73.7821 117.242 73.5301 116.424 73.5121C115.605 73.5121 114.786 73.6741 113.967 73.9801L106.736 77.2561C105.174 76.8061 103.673 76.4281 102.217 76.1221C100.747 75.7981 99.1547 75.5461 97.4263 75.3481L93.3026 70.0921C92.8326 69.5341 92.2262 69.1381 91.4529 68.9221C90.6645 68.7061 89.8308 68.6521 88.9212 68.7781L80.1731 70.2541C79.2634 70.3801 78.581 70.7221 78.1262 71.2801C77.6713 71.8381 77.4439 72.4321 77.4439 73.0621L78.0199 78.8761C77.8228 78.9841 77.6258 79.0741 77.4439 79.1821C76.2158 79.8121 75.1392 80.4781 74.1992 81.1081C73.1076 81.8641 72.0162 82.7281 70.9245 83.7361L63.9202 83.4121L62.4492 83.3401C61.5396 83.3401 60.6754 83.4841 59.8567 83.8081C59.0379 84.1141 58.5376 84.5821 58.3557 85.2121L56.7789 89.5501L56.1878 91.2061C56.0968 91.5301 56.0815 91.8361 56.1118 92.1421C56.1573 92.4121 56.2634 92.6821 56.415 92.9341C56.7334 93.4741 57.2945 93.8881 58.1284 94.2121L65.8002 97.0381C66.0731 98.2261 66.437 99.3241 66.907 100.314C67.3618 101.322 67.9225 102.348 68.5592 103.41L63.7987 108.378C63.3439 108.936 63.1166 109.494 63.1166 110.052C63.1166 110.196 63.1467 110.34 63.1921 110.466C63.3286 110.88 63.6775 111.276 64.2233 111.654L70.8031 116.172C71.5309 116.676 72.3192 116.928 73.1379 116.928C73.6989 116.928 74.2752 116.856 74.8362 116.694C75.0939 116.64 75.3365 116.55 75.5942 116.46L82.8263 113.202C84.3728 113.634 85.8887 114.012 87.3442 114.336C88.7997 114.642 90.4068 114.894 92.1352 115.092L96.2589 120.348C96.365 120.474 96.4863 120.6 96.6076 120.726C97.017 121.086 97.5173 121.356 98.1086 121.518C98.897 121.752 99.7312 121.788 100.641 121.662L101.171 121.572L109.389 120.186C110.299 120.06 110.981 119.718 111.435 119.16C111.89 118.602 112.118 118.008 112.118 117.378L111.542 111.564C112.648 111.042 113.71 110.43 114.741 109.746C114.907 109.638 115.059 109.53 115.226 109.422C116.408 108.612 117.455 107.766 118.349 106.902L126.445 107.352L126.976 107.388C127.885 107.388 128.734 107.208 129.508 106.866C130.281 106.524 130.751 106.056 130.933 105.426L133.359 99.2341C133.419 99.0361 133.45 98.8201 133.45 98.6221C133.45 98.2261 133.328 97.8301 133.086 97.4521ZM105.75 102.744C102.748 104.796 99.1094 105.822 94.8339 105.822C94.1971 105.822 93.5755 105.786 92.9691 105.732C91.3468 105.624 89.8155 105.336 88.3904 104.868C86.7529 104.364 85.252 103.626 83.8723 102.69C80.8552 100.62 79.3391 98.1181 79.3239 95.1841C79.3087 92.2501 80.8097 89.7481 83.8116 87.6961C86.7984 85.6441 90.4521 84.6181 94.7276 84.6361C99.0183 84.6361 102.672 85.6801 105.689 87.7501C108.706 89.8201 110.222 92.3221 110.238 95.2561C110.253 98.1901 108.752 100.692 105.75 102.744Z" stroke="black" stroke-width="0.999631"/>
<path d="M110.238 95.256C110.253 98.19 108.752 100.692 105.75 102.744C102.748 104.796 99.1093 105.822 94.8338 105.822C94.1971 105.822 93.5755 105.786 92.969 105.732C91.3467 105.624 89.8155 105.336 88.3903 104.868C86.7529 104.364 85.2519 103.626 83.8722 102.69C80.8551 100.62 79.339 98.118 79.3238 95.184C79.3087 92.25 80.8096 89.748 83.8116 87.696C86.7984 85.644 90.4521 84.618 94.7276 84.636C99.0182 84.636 102.672 85.68 105.689 87.75C108.706 89.82 110.222 92.322 110.238 95.256Z" fill="#1E7AD0" stroke="black" stroke-width="0.999631"/>
<path d="M78.0202 78.8759C77.8228 78.9839 77.6256 79.0739 77.4434 79.1819V73.0619L78.0202 78.8759Z" stroke="black" stroke-width="0.999631"/>
<path d="M64.057 46.4398V82.4038C64.057 82.7458 64.0118 83.0878 63.9208 83.4118L62.4499 83.3398C61.5402 83.3398 60.676 83.4838 59.8573 83.8078C59.0386 84.1138 58.5383 84.5818 58.3563 85.2118L56.7795 89.5498L39.9355 101.106C38.3891 102.168 36.5695 102.69 34.4773 102.69C32.385 102.69 30.5507 102.15 29.0042 101.088L7.05076 86.0398C5.48915 84.9778 4.71584 83.7178 4.70068 82.2778V46.2778C4.71584 47.7178 5.48915 48.9778 7.05076 50.0398L27.1547 63.8278L29.0042 65.0878C29.6865 65.5558 30.4294 65.9158 31.2178 66.1858C32.2184 66.5278 33.3099 66.6898 34.4773 66.6898C36.5695 66.6898 38.3891 66.1678 39.9355 65.1058L61.7524 50.1478C63.2837 49.1218 64.057 47.8618 64.057 46.4398Z" fill="url(#paint7_linear_363_657)" stroke="black" stroke-width="0.999631"/>
<path d="M113.134 46.8359C113.134 47.5919 112.861 48.3299 112.315 49.0499C111.421 50.2919 110.026 51.2099 108.161 51.8039C106.296 52.3979 104.356 52.5059 102.354 52.1279C94.1369 50.4719 85.889 50.3279 77.5958 51.6959C72.7138 52.4879 68.2111 53.7839 64.0569 55.6019V46.4039C64.0569 45.4499 63.7233 44.6039 63.0411 43.8299C62.6924 43.4159 62.2525 43.0199 61.7219 42.6599C60.1603 41.5979 58.3411 41.0579 56.2337 41.0579C54.1414 41.0399 52.3219 41.5799 50.7754 42.6239L42.8766 48.0599V46.1699C42.8462 41.6699 43.9833 37.5659 46.2879 33.8579C48.6075 30.1499 51.8067 26.8919 55.8851 24.0839C62.0709 19.8539 69.3025 17.0458 77.5958 15.6958C85.889 14.3278 94.1369 14.4718 102.354 16.1278C104.356 16.5058 106.296 16.3978 108.161 15.8038C110.026 15.2098 111.421 14.2919 112.315 13.0499C112.77 12.4559 113.028 11.8439 113.104 11.2139L113.134 46.8359Z" fill="url(#paint8_linear_363_657)" stroke="black" stroke-width="0.999631"/>
<path d="M126.446 80.388V94.554L123.489 93.6C123.307 92.34 123.004 91.206 122.595 90.18C122.17 89.136 121.64 88.092 121.003 87.03L125.096 82.764L125.763 82.062C126.218 81.504 126.446 80.946 126.446 80.388Z" stroke="black" stroke-width="0.999631"/>
<path d="M27.1538 48.8519V43.7219" stroke="black" stroke-width="0.999631"/>
<defs>
<linearGradient id="paint0_linear_363_657" x1="62.3275" y1="92.1421" x2="62.3275" y2="132.066" gradientUnits="userSpaceOnUse">
<stop stop-color="#69097A"/>
<stop offset="1" stop-color="#150E42"/>
</linearGradient>
<linearGradient id="paint1_linear_363_657" x1="102.125" y1="115.092" x2="102.125" y2="157.734" gradientUnits="userSpaceOnUse">
<stop stop-color="#69097A"/>
<stop offset="1" stop-color="#150E42"/>
</linearGradient>
<linearGradient id="paint2_linear_363_657" x1="125.9" y1="98.6219" x2="125.9" y2="143.388" gradientUnits="userSpaceOnUse">
<stop stop-color="#69097A"/>
<stop offset="1" stop-color="#150E42"/>
</linearGradient>
<linearGradient id="paint3_linear_363_657" x1="135.692" y1="52.3981" x2="135.692" y2="95.4001" gradientUnits="userSpaceOnUse">
<stop stop-color="#69097A"/>
<stop offset="1" stop-color="#150E42"/>
</linearGradient>
<linearGradient id="paint4_linear_363_657" x1="173.013" y1="51.3001" x2="173.013" y2="95.4901" gradientUnits="userSpaceOnUse">
<stop stop-color="#69097A"/>
<stop offset="1" stop-color="#150E42"/>
</linearGradient>
<linearGradient id="paint5_linear_363_657" x1="155.441" y1="54.1259" x2="155.441" y2="116.064" gradientUnits="userSpaceOnUse">
<stop stop-color="#EF497A"/>
<stop offset="1" stop-color="#69097A"/>
</linearGradient>
<linearGradient id="paint6_linear_363_657" x1="72.972" y1="110.466" x2="72.972" y2="152.928" gradientUnits="userSpaceOnUse">
<stop stop-color="#69097A"/>
<stop offset="1" stop-color="#150E42"/>
</linearGradient>
<linearGradient id="paint7_linear_363_657" x1="34.3788" y1="46.2778" x2="34.3788" y2="102.69" gradientUnits="userSpaceOnUse">
<stop stop-color="#69097A"/>
<stop offset="1" stop-color="#150E42"/>
</linearGradient>
<linearGradient id="paint8_linear_363_657" x1="78.0051" y1="11.2139" x2="78.0051" y2="55.6019" gradientUnits="userSpaceOnUse">
<stop stop-color="#EF497A"/>
<stop offset="1" stop-color="#1C194E"/>
</linearGradient>
</defs>
</svg>
